<?xml version="1.0" encoding="utf-8"?>
<!-- Generator: Adobe Illustrator 21.0.2, SVG Export Plug-In . SVG Version: 6.00 Build 0)  -->
<svg version="1.1" xmlns="http://www.w3.org/2000/svg" xmlns:xlink="http://www.w3.org/1999/xlink" x="0px" y="0px" width="24px"
	 height="24px" viewBox="0 0 24 24" enable-background="new 0 0 24 24" xml:space="preserve">
<g id="Black">
	<g>
		<g>
			<polyline fill="none" stroke="#58595B" stroke-linecap="round" stroke-linejoin="round" stroke-miterlimit="10" points="
				14.5,3.5 12.5,3.5 12,4.5 12.5,5.5 14.5,5.5 15,6.5 14.5,7.5 12.5,7.5 			"/>
			
				<line fill="none" stroke="#58595B" stroke-linecap="round" stroke-linejoin="round" stroke-miterlimit="10" x1="13.5" y1="3.5" x2="13.5" y2="2.5"/>
			
				<line fill="none" stroke="#58595B" stroke-linecap="round" stroke-linejoin="round" stroke-miterlimit="10" x1="13.5" y1="8.5" x2="13.5" y2="7.5"/>
		</g>
		<polygon fill="none" stroke="#58595B" stroke-linejoin="round" stroke-miterlimit="10" points="8.5,17.5 5.5,19 2.5,17.5 
			2.5,13.5 5.5,12 8.5,13.5 		"/>
		<g>
			<polyline fill="none" stroke="#58595B" stroke-miterlimit="10" points="3.2,13.13 5,14.5 8.5,14.5 			"/>
		</g>
		<polyline fill="none" stroke="#58595B" stroke-linecap="round" stroke-linejoin="round" stroke-miterlimit="10" points="
			10.5,23.5 10.5,21.5 5.5,20 0.5,21.5 0.5,23.5 		"/>
		
			<line fill="none" stroke="#58595B" stroke-linecap="round" stroke-linejoin="round" stroke-miterlimit="10" x1="5.5" y1="22.5" x2="5.5" y2="23.5"/>
		<polygon fill="none" stroke="#58595B" stroke-linejoin="round" stroke-miterlimit="10" points="21.5,17.5 18.5,19 15.5,17.5 
			15.5,13.5 18.5,12 21.5,13.5 		"/>
		<g>
			<polyline fill="none" stroke="#58595B" stroke-miterlimit="10" points="16.2,13.13 18,14.5 21.5,14.5 			"/>
		</g>
		<polyline fill="none" stroke="#58595B" stroke-linecap="round" stroke-linejoin="round" stroke-miterlimit="10" points="
			23.5,23.5 23.5,21.5 18.5,20 13.5,21.5 13.5,23.5 		"/>
		
			<line fill="none" stroke="#58595B" stroke-linecap="round" stroke-linejoin="round" stroke-miterlimit="10" x1="18.5" y1="22.5" x2="18.5" y2="23.5"/>
		<polygon fill="none" stroke="#58595B" stroke-linecap="round" stroke-linejoin="round" stroke-miterlimit="10" points="20.5,10.5 
			13.5,10.5 10.5,13 10.5,10.5 6.5,10.5 6.5,0.5 20.5,0.5 		"/>
	</g>
</g>
<g id="Frames-24px">
	<rect fill="none" width="24" height="24"/>
</g>
</svg>
