<?xml version="1.0" encoding="utf-8"?>
<!-- Generator: Adobe Illustrator 21.0.2, SVG Export Plug-In . SVG Version: 6.00 Build 0)  -->
<svg version="1.1" xmlns="http://www.w3.org/2000/svg" xmlns:xlink="http://www.w3.org/1999/xlink" x="0px" y="0px" width="24px"
	 height="24px" viewBox="0 0 24 24" enable-background="new 0 0 24 24" xml:space="preserve">
<g id="Black">
	<g>
		<polyline fill="none" stroke="#58595B" stroke-linecap="round" stroke-linejoin="round" stroke-miterlimit="10" points="
			5.517,18.479 8,15.5 12,14 16,15.5 17.994,18.492 		"/>
		<polyline fill="none" stroke="#58595B" stroke-linecap="round" stroke-linejoin="round" stroke-miterlimit="10" points="2.5,18 
			6.5,12.5 5,7.5 1.5,8.5 0.5,7.5 3,3 5,2.5 7.5,3.5 9.5,7.5 15,7.5 18.5,8.5 18.5,13.5 21,18 		"/>
		<polyline fill="none" stroke="#58595B" stroke-linecap="round" stroke-linejoin="round" stroke-miterlimit="10" points="18.5,8.5 
			22,10.5 23.5,10 		"/>
		<polygon fill="none" stroke="#58595B" stroke-linecap="round" stroke-linejoin="round" stroke-miterlimit="10" points="15,7.5 
			9.5,7.5 10.5,10.5 14,10.5 		"/>
		<g>
			<polygon fill="none" stroke="#58595B" stroke-linecap="round" stroke-linejoin="round" stroke-miterlimit="10" points="12,23.5 
				1.5,21.5 0.5,19 2.5,18 12,19.5 21,18 23.5,19 22,21.5 			"/>
		</g>
		<polyline fill="none" stroke="#58595B" stroke-linecap="round" stroke-linejoin="round" stroke-miterlimit="10" points="5,2.5 
			6,0.5 11,2.5 12.479,7.5 		"/>
		
			<line fill="none" stroke="#58595B" stroke-linecap="round" stroke-linejoin="round" stroke-miterlimit="10" x1="4.5" y1="4.5" x2="4.5" y2="5.5"/>
		<g>
			<path fill="#58595B" d="M4.51,19.788h0.005H4.51 M4,19c-0.072,0-0.143,0.027-0.197,0.081l-0.721,0.721
				c-0.109,0.108-0.109,0.286,0,0.395l0.721,0.721C3.857,20.973,3.928,21,4,21c0.071,0,0.143-0.027,0.197-0.081l0.721-0.721
				c0.109-0.108,0.109-0.286,0-0.395l-0.721-0.721C4.143,19.027,4.071,19,4,19L4,19z"/>
		</g>
		<g>
			<path fill="#58595B" d="M20.51,19.788h0.005H20.51 M20,19c-0.072,0-0.143,0.027-0.197,0.081l-0.721,0.721
				c-0.109,0.108-0.109,0.286,0,0.395l0.721,0.721C19.857,20.973,19.928,21,20,21c0.071,0,0.143-0.027,0.197-0.081l0.721-0.721
				c0.108-0.108,0.108-0.286,0-0.395l-0.721-0.721C20.143,19.027,20.071,19,20,19L20,19z"/>
		</g>
	</g>
</g>
<g id="Frames-24px">
	<rect fill="none" width="24" height="24"/>
</g>
</svg>
