<?xml version="1.0" encoding="utf-8"?>
<!-- Generator: Adobe Illustrator 21.0.2, SVG Export Plug-In . SVG Version: 6.00 Build 0)  -->
<svg version="1.1" xmlns="http://www.w3.org/2000/svg" xmlns:xlink="http://www.w3.org/1999/xlink" x="0px" y="0px" width="24px"
	 height="24px" viewBox="0 0 24 24" enable-background="new 0 0 24 24" xml:space="preserve">
<g id="Black">
	<g>
		<g id="XMLID_48_">
			<g>
				<polygon fill="none" stroke="#58595B" stroke-linecap="round" stroke-linejoin="round" stroke-miterlimit="10" points="
					11.5,9.051 9.5,8.051 7.5,9.051 11.5,12.051 16,10.051 14.5,15.051 16.94,14.071 19.22,9.011 22.87,7.171 23.5,5.551 
					21.5,5.051 				"/>
			</g>
		</g>
		<polyline fill="none" stroke="#58595B" stroke-linecap="round" stroke-linejoin="round" stroke-miterlimit="10" points="
			17.872,6.502 13.94,5 11.906,6.051 15.378,7.5 		"/>
		<polyline fill="none" stroke="#58595B" stroke-linecap="round" stroke-linejoin="round" stroke-miterlimit="10" points="19,3.192 
			12,0.5 3.694,3.694 0.5,12 3.694,20.306 12,23.5 20.306,20.306 23.5,12 22.816,10.221 		"/>
		<polyline fill="none" stroke="#58595B" stroke-linecap="round" stroke-linejoin="round" stroke-miterlimit="10" points="
			7.667,2.167 5.5,6.5 5.5,8.5 3.5,11 3.5,13.5 5,15.5 9,15.5 11.5,19 9.482,22.531 		"/>
		<polyline fill="none" stroke="#58595B" stroke-linecap="round" stroke-linejoin="round" stroke-miterlimit="10" points="
			22.346,15 19.5,15 17.5,17.5 18.5,21 		"/>
	</g>
</g>
<g id="Frames-24px">
	<rect fill="none" width="24" height="24"/>
</g>
</svg>
