<?xml version="1.0" encoding="utf-8"?>
<!-- Generator: Adobe Illustrator 21.0.2, SVG Export Plug-In . SVG Version: 6.00 Build 0)  -->
<svg version="1.1" xmlns="http://www.w3.org/2000/svg" xmlns:xlink="http://www.w3.org/1999/xlink" x="0px" y="0px" width="24px"
	 height="24px" viewBox="0 0 24 24" enable-background="new 0 0 24 24" xml:space="preserve">
<g id="Black">
	<g>
		<polygon fill="none" stroke="#58595B" stroke-linecap="round" stroke-linejoin="round" stroke-miterlimit="10" points="13.5,13 
			11.5,14.25 9.5,13 9.5,11 11.5,9.75 13.5,11 		"/>
		<polygon fill="none" stroke="#58595B" stroke-linecap="round" stroke-linejoin="round" stroke-miterlimit="10" points="14,3 
			11.5,0.5 9,3 6.5,9.5 6.5,14.5 9,21 11.5,23.5 14,21 16.5,14.5 16.5,9.5 		"/>
		<polygon fill="none" stroke="#58595B" stroke-linecap="round" stroke-linejoin="round" stroke-miterlimit="10" points="6.5,14.5 
			11.5,17.5 18.073,19.084 21.716,17.675 20.744,14.276 16.5,9.5 11.5,6.5 4.926,4.916 1.284,6.325 2.255,9.724 		"/>
		<polygon fill="none" stroke="#58595B" stroke-linecap="round" stroke-linejoin="round" stroke-miterlimit="10" points="16.5,14.5 
			11.5,17.5 4.926,19.084 1.284,17.675 2.255,14.276 6.5,9.5 11.5,6.5 18.073,4.916 21.716,6.325 20.744,9.724 		"/>
	</g>
</g>
<g id="Frames-24px">
	<rect fill="none" width="24" height="24"/>
</g>
</svg>
