<?xml version="1.0" encoding="utf-8"?>
<!-- Generator: Adobe Illustrator 21.0.2, SVG Export Plug-In . SVG Version: 6.00 Build 0)  -->
<svg version="1.1" xmlns="http://www.w3.org/2000/svg" xmlns:xlink="http://www.w3.org/1999/xlink" x="0px" y="0px" width="24px"
	 height="24px" viewBox="0 0 24 24" enable-background="new 0 0 24 24" xml:space="preserve">
<g id="Black">
	<g>
		<polygon fill="none" stroke="#58595B" stroke-linecap="round" stroke-linejoin="round" stroke-miterlimit="10" points="5.5,23.5 
			3.5,23.5 2.5,22.5 2.5,17 5.5,14 		"/>
		
			<rect x="7.5" y="16.5" fill="none" stroke="#58595B" stroke-linecap="round" stroke-linejoin="round" stroke-miterlimit="10" width="9" height="7"/>
		<polyline fill="none" stroke="#58595B" stroke-linecap="round" stroke-linejoin="round" stroke-miterlimit="10" points="
			18.5,10.5 18.5,23.5 5.5,23.5 5.5,10.5 		"/>
		
			<line fill="none" stroke="#58595B" stroke-linecap="round" stroke-linejoin="round" stroke-miterlimit="10" x1="9.5" y1="10.5" x2="14.5" y2="10.5"/>
		<polygon fill="none" stroke="#58595B" stroke-linecap="round" stroke-linejoin="round" stroke-miterlimit="10" points="9.5,12.5 
			8.5,13.5 7.5,12.5 7.5,7.5 9.5,7.5 		"/>
		<polygon fill="none" stroke="#58595B" stroke-linecap="round" stroke-linejoin="round" stroke-miterlimit="10" points="16.5,12.5 
			15.5,13.5 14.5,12.5 14.5,7.5 16.5,7.5 		"/>
		
			<line fill="none" stroke="#58595B" stroke-linecap="round" stroke-linejoin="round" stroke-miterlimit="10" x1="7.5" y1="19.5" x2="16.5" y2="19.5"/>
		
			<line fill="none" stroke="#58595B" stroke-linecap="round" stroke-linejoin="round" stroke-miterlimit="10" x1="2.5" y1="18.5" x2="5.5" y2="18.5"/>
		<polygon fill="none" stroke="#58595B" stroke-linecap="round" stroke-linejoin="round" stroke-miterlimit="10" points="18.5,23.5 
			20.5,23.5 21.5,22.5 21.5,17 18.5,14 		"/>
		
			<line fill="none" stroke="#58595B" stroke-linecap="round" stroke-linejoin="round" stroke-miterlimit="10" x1="21.5" y1="18.5" x2="18.5" y2="18.5"/>
		<polyline fill="none" stroke="#58595B" stroke-linecap="round" stroke-linejoin="round" stroke-miterlimit="10" points="7.5,10.5 
			4.5,10.5 4.5,3.5 12,1.5 19.5,3.5 19.5,10.5 16.5,10.5 		"/>
		
			<line fill="none" stroke="#58595B" stroke-linecap="round" stroke-linejoin="round" stroke-miterlimit="10" x1="10.5" y1="19.5" x2="10.5" y2="21.5"/>
		
			<line fill="none" stroke="#58595B" stroke-linecap="round" stroke-linejoin="round" stroke-miterlimit="10" x1="13.5" y1="19.5" x2="13.5" y2="21.5"/>
		<polygon fill="none" stroke="#58595B" stroke-linecap="round" stroke-linejoin="round" stroke-miterlimit="10" points="4.5,9 
			0.5,9.5 0.5,4.5 4.5,5 		"/>
		<polygon fill="none" stroke="#58595B" stroke-linecap="round" stroke-linejoin="round" stroke-miterlimit="10" points="23.5,9 
			19.5,8.5 19.5,5 23.5,4.5 		"/>
	</g>
</g>
<g id="Frames-24px">
	<rect fill="none" width="24" height="24"/>
</g>
</svg>
