<?xml version="1.0" encoding="utf-8"?>
<!-- Generator: Adobe Illustrator 21.0.2, SVG Export Plug-In . SVG Version: 6.00 Build 0)  -->
<svg version="1.1" xmlns="http://www.w3.org/2000/svg" xmlns:xlink="http://www.w3.org/1999/xlink" x="0px" y="0px" width="24px"
	 height="24px" viewBox="0 0 24 24" enable-background="new 0 0 24 24" xml:space="preserve">
<g id="Black">
	<g>
		
			<rect x="2.5" y="13.5" fill="none" stroke="#58595B" stroke-linecap="round" stroke-linejoin="round" stroke-miterlimit="10" width="18" height="7"/>
		<polygon fill="none" stroke="#58595B" stroke-linecap="round" stroke-linejoin="round" stroke-miterlimit="10" points="20.5,13.5 
			2.5,13.5 6.5,6.499 17,6.499 		"/>
		<polyline fill="none" stroke="#58595B" stroke-linecap="round" stroke-linejoin="round" stroke-miterlimit="10" points="
			20.5,14.5 22.5,13 22.5,11.5 19.5,11.5 		"/>
		<polyline fill="none" stroke="#58595B" stroke-linecap="round" stroke-linejoin="round" stroke-miterlimit="10" points="2.5,14.5 
			0.5,13 0.5,11.5 3.643,11.5 		"/>
		
			<line fill="none" stroke="#58595B" stroke-linecap="round" stroke-linejoin="round" stroke-miterlimit="10" x1="11.5" y1="6.499" x2="11.5" y2="4.499"/>
		<polyline fill="none" stroke="#58595B" stroke-linecap="round" stroke-linejoin="round" stroke-miterlimit="10" points="2.5,15.5 
			7.375,15.5 8.937,17.5 		"/>
		<polyline fill="none" stroke="#58595B" stroke-linecap="round" stroke-linejoin="round" stroke-miterlimit="10" points="
			20.5,15.5 15.625,15.5 13.875,17.5 		"/>
		
			<line fill="none" stroke="#58595B" stroke-linecap="round" stroke-linejoin="round" stroke-miterlimit="10" x1="2.5" y1="17.5" x2="20.5" y2="17.5"/>
		<polygon fill="none" stroke="#58595B" stroke-linecap="round" stroke-linejoin="round" stroke-miterlimit="10" points="7.5,22.5 
			5.5,23.5 3.5,22.5 3.5,20.5 7.5,20.5 		"/>
		<polygon fill="none" stroke="#58595B" stroke-linecap="round" stroke-linejoin="round" stroke-miterlimit="10" points="19.5,22.5 
			17.5,23.5 15.5,22.5 15.5,20.5 19.5,20.5 		"/>
	</g>
</g>
<g id="Frames-24px">
	<rect fill="none" width="24" height="24"/>
</g>
</svg>
