<?xml version="1.0" encoding="utf-8"?>
<!-- Generator: Adobe Illustrator 21.0.2, SVG Export Plug-In . SVG Version: 6.00 Build 0)  -->
<svg version="1.1" xmlns="http://www.w3.org/2000/svg" xmlns:xlink="http://www.w3.org/1999/xlink" x="0px" y="0px" width="24px"
	 height="24px" viewBox="0 0 24 24" enable-background="new 0 0 24 24" xml:space="preserve">
<g id="Black">
	<g>
		<polyline fill="none" stroke="#58595B" stroke-linecap="round" stroke-linejoin="round" stroke-miterlimit="10" points="1.5,17.5 
			3.5,16 5.5,17.5 7.5,16 9.5,17.5 11.5,16 13.5,17.5 15.5,16 17.5,17.5 19.5,16 21.5,17.5 23.5,16 		"/>
		<polyline fill="none" stroke="#58595B" stroke-linecap="round" stroke-linejoin="round" stroke-miterlimit="10" points="1.5,20.5 
			3.5,19 5.5,20.5 7.5,19 9.5,20.5 11.5,19 13.5,20.5 15.5,19 17.5,20.5 19.5,19 21.5,20.5 23.5,19 		"/>
		<polyline fill="none" stroke="#58595B" stroke-linecap="round" stroke-linejoin="round" stroke-miterlimit="10" points="1.5,23.5 
			3.5,22 5.5,23.5 7.5,22 9.5,23.5 11.5,22 13.5,23.5 15.5,22 17.5,23.5 19.5,22 21.5,23.5 23.5,22 		"/>
		<polyline fill="none" stroke="#58595B" stroke-linecap="round" stroke-linejoin="round" stroke-miterlimit="10" points="
			20.5,14.5 21.5,11.5 0.5,11.5 3,14.5 		"/>
		<polyline fill="none" stroke="#58595B" stroke-linecap="round" stroke-linejoin="round" stroke-miterlimit="10" points="7,11.5 
			9,7.5 17,7.5 18,11.5 		"/>
		<polyline fill="none" stroke="#58595B" stroke-linecap="round" stroke-linejoin="round" stroke-miterlimit="10" points="10.5,7.5 
			12,4.5 13.5,4.5 13.5,7.5 		"/>
		
			<line fill="none" stroke="#58595B" stroke-linecap="round" stroke-linejoin="round" stroke-miterlimit="10" x1="17" y1="7.5" x2="18" y2="5"/>
		
			<line fill="none" stroke="#58595B" stroke-linecap="round" stroke-linejoin="round" stroke-miterlimit="10" x1="8" y1="9.5" x2="11.5" y2="9.5"/>
		
			<line fill="none" stroke="#58595B" stroke-linecap="round" stroke-linejoin="round" stroke-miterlimit="10" x1="14.5" y1="9.5" x2="15.5" y2="9.5"/>
	</g>
</g>
<g id="Frames-24px">
	<rect fill="none" width="24" height="24"/>
</g>
</svg>
