<?xml version="1.0" encoding="utf-8"?>
<!-- Generator: Adobe Illustrator 21.0.2, SVG Export Plug-In . SVG Version: 6.00 Build 0)  -->
<svg version="1.1" xmlns="http://www.w3.org/2000/svg" xmlns:xlink="http://www.w3.org/1999/xlink" x="0px" y="0px" width="24px"
	 height="24px" viewBox="0 0 24 24" enable-background="new 0 0 24 24" xml:space="preserve">
<g id="Black">
	<g id="New_icons">
		<g>
			<polygon fill="none" stroke="#58595B" stroke-linecap="round" stroke-linejoin="round" stroke-miterlimit="10" points="8.5,1.5 
				9.5,0.5 11.5,0.5 12.5,1.5 12.5,19 10.5,17 8.5,19 			"/>
			<polyline fill="none" stroke="#58595B" stroke-linecap="round" stroke-linejoin="round" stroke-miterlimit="10" points="12.5,19 
				10.5,23.5 8.5,19 			"/>
			
				<line fill="none" stroke="#58595B" stroke-linecap="round" stroke-linejoin="round" stroke-miterlimit="10" x1="12.5" y1="5.5" x2="8.5" y2="5.5"/>
			
				<line fill="none" stroke="#58595B" stroke-linecap="round" stroke-linejoin="round" stroke-miterlimit="10" x1="12.5" y1="3.5" x2="8.5" y2="3.5"/>
			<g>
				<path fill="none" stroke="#58595B" stroke-linecap="round" stroke-linejoin="round" stroke-miterlimit="10" d="M3.5,23.5
					c-0.01,0-2.5-4-2.5-4l1.5-2h2l1.5,2L3.5,23.5z"/>
				<polygon fill="none" stroke="#58595B" stroke-linecap="round" stroke-linejoin="round" stroke-miterlimit="10" points="4,0.5 
					3,0.5 1.5,13.5 2.5,17.5 4.5,17.5 5.5,13.5 				"/>
				
					<line fill="none" stroke="#58595B" stroke-linecap="round" stroke-linejoin="round" stroke-miterlimit="10" x1="3.5" y1="17.5" x2="3.5" y2="19.5"/>
			</g>
			<g>
				
					<rect x="16.5" y="1.5" fill="none" stroke="#58595B" stroke-linecap="round" stroke-linejoin="round" stroke-miterlimit="10" width="4" height="18"/>
				<polyline fill="none" stroke="#58595B" stroke-linecap="round" stroke-linejoin="round" stroke-miterlimit="10" points="
					16.5,19.5 18.5,23.5 20.5,19.5 				"/>
				
					<line fill="none" stroke="#58595B" stroke-linecap="round" stroke-linejoin="round" stroke-miterlimit="10" x1="16.5" y1="6.5" x2="20.5" y2="6.5"/>
				<polyline fill="none" stroke="#58595B" stroke-linecap="round" stroke-linejoin="round" stroke-miterlimit="10" points="
					20.5,3.5 23.5,3.5 22.5,10 23,11 				"/>
				
					<line fill="none" stroke="#58595B" stroke-linecap="round" stroke-linejoin="round" stroke-miterlimit="10" x1="18.5" y1="1.5" x2="18.5" y2="0.5"/>
			</g>
		</g>
	</g>
</g>
<g id="Frames-24px">
	<rect fill="none" width="24" height="24"/>
</g>
</svg>
