<?xml version="1.0" encoding="utf-8"?>
<!-- Generator: Adobe Illustrator 21.0.2, SVG Export Plug-In . SVG Version: 6.00 Build 0)  -->
<svg version="1.1" xmlns="http://www.w3.org/2000/svg" xmlns:xlink="http://www.w3.org/1999/xlink" x="0px" y="0px" width="24px"
	 height="24px" viewBox="0 0 24 24" enable-background="new 0 0 24 24" xml:space="preserve">
<g id="Black">
	<g>
		<polygon fill="none" stroke="#58595B" stroke-linejoin="round" stroke-miterlimit="10" points="21.5,6 19,7.5 16.5,6 16.5,3 
			19,1.5 21.5,3 		"/>
		<path fill="none" stroke="#58595B" stroke-linejoin="round" stroke-miterlimit="10" d="M20.5,8.5c-4.494,0-4.258,0-9,0L17,12
			l-2.5,6.5H22L20.5,8.5z"/>
		<polyline fill="none" stroke="#58595B" stroke-linecap="round" stroke-linejoin="round" stroke-miterlimit="10" points="21,18.5 
			22,23.5 18.5,20 14.5,23.5 16.5,18.5 		"/>
		<polyline fill="none" stroke="#58595B" stroke-linecap="round" stroke-linejoin="round" stroke-miterlimit="10" points="
			17.824,2.206 19.5,5 21.5,5.667 		"/>
		<polyline fill="none" stroke="#58595B" stroke-linecap="round" stroke-linejoin="round" stroke-miterlimit="10" points="1.5,20.5 
			7.5,20.5 10.5,10 		"/>
		<polyline fill="none" stroke="#58595B" stroke-linecap="round" stroke-linejoin="round" stroke-miterlimit="10" points="
			9.783,12.5 0.5,12.5 0.5,16.5 8.203,18.041 		"/>
		<g>
			<path fill="#58595B" d="M2.001,22.001c-0.051,0-0.102,0.02-0.141,0.059L1.06,22.859c-0.078,0.078-0.078,0.205,0,0.283
				l0.799,0.799C1.898,23.98,1.949,24,2.001,24c0.051,0,0.102-0.02,0.141-0.059l0.799-0.799c0.078-0.078,0.078-0.205,0-0.283
				L2.142,22.06C2.103,22.021,2.052,22.001,2.001,22.001L2.001,22.001z"/>
		</g>
		<g>
			<path fill="#58595B" d="M6.999,22.001c-0.051,0-0.102,0.02-0.141,0.059l-0.799,0.799c-0.078,0.078-0.078,0.205,0,0.283
				l0.799,0.799C6.897,23.98,6.948,24,6.999,24c0.051,0,0.102-0.02,0.141-0.059l0.799-0.799c0.078-0.078,0.078-0.205,0-0.283
				L7.141,22.06C7.102,22.021,7.051,22.001,6.999,22.001L6.999,22.001z"/>
		</g>
	</g>
</g>
<g id="Frames-24px">
	<rect fill="none" width="24" height="24"/>
</g>
</svg>
