<svg xmlns="http://www.w3.org/2000/svg" width="24" height="24" viewBox="0 0 24 24">
  <title>car-1</title>
  <g id="Duotone">
    <polygon points="19.5 11.501 17 6.5 6.5 6.5 3.643 11.501 0.5 11.501 0.5 13.001 2.5 14.501 2.5 20.501 20.5 20.501 20.5 14.501 22.5 13.001 22.5 11.501 19.5 11.501" fill="#fff"/>
    <polygon points="7.5 22.5 5.5 23.5 3.5 22.5 3.5 20.5 7.5 20.5 7.5 22.5" fill="#cce7ff"/>
    <polygon points="19.5 22.5 17.5 23.5 15.5 22.5 15.5 20.5 19.5 20.5 19.5 22.5" fill="#cce7ff"/>
    <polygon points="20.5 13.5 2.5 13.5 17 6.499 20.5 13.5" fill="#cce7ff"/>
    <polygon points="13.875 17.5 15.625 15.5 20.5 15.5 20.5 17.5 13.875 17.5" fill="#cce7ff"/>
    <polygon points="9.125 17.5 7.375 15.5 2.5 15.5 2.5 17.5 9.125 17.5" fill="#cce7ff"/>
    <rect x="2.5" y="13.5" width="18" height="7" fill="none" stroke="#1078ff" stroke-linecap="round" stroke-linejoin="round"/>
    <polygon points="20.5 13.5 2.5 13.5 6.5 6.499 17 6.499 20.5 13.5" fill="none" stroke="#1078ff" stroke-linecap="round" stroke-linejoin="round"/>
    <polyline points="20.5 14.5 22.5 13 22.5 11.5 19.5 11.5" fill="none" stroke="#1078ff" stroke-linecap="round" stroke-linejoin="round"/>
    <polyline points="2.5 14.5 0.5 13 0.5 11.5 3.643 11.5" fill="none" stroke="#1078ff" stroke-linecap="round" stroke-linejoin="round"/>
    <line x1="11.5" y1="6.499" x2="11.5" y2="4.499" fill="none" stroke="#1078ff" stroke-linecap="round" stroke-linejoin="round"/>
    <polyline points="2.5 15.5 7.375 15.5 8.937 17.5" fill="none" stroke="#1078ff" stroke-linecap="round" stroke-linejoin="round"/>
    <polygon points="13.875 17.5 15.625 15.5 20.5 15.5 20.5 17.5 13.875 17.5" fill="none" stroke="#1078ff" stroke-linecap="round" stroke-linejoin="round"/>
    <line x1="2.5" y1="17.5" x2="20.5" y2="17.5" fill="none" stroke="#1078ff" stroke-linecap="round" stroke-linejoin="round"/>
    <polygon points="7.5 22.5 5.5 23.5 3.5 22.5 3.5 20.5 7.5 20.5 7.5 22.5" fill="none" stroke="#1078ff" stroke-linecap="round" stroke-linejoin="round"/>
    <polygon points="19.5 22.5 17.5 23.5 15.5 22.5 15.5 20.5 19.5 20.5 19.5 22.5" fill="none" stroke="#1078ff" stroke-linecap="round" stroke-linejoin="round"/>
  </g>
  <g id="Frames-24px">
    <rect width="24" height="24" fill="none"/>
  </g>
</svg>
