<svg xmlns="http://www.w3.org/2000/svg" width="24" height="24" viewBox="0 0 24 24">
  <title>cloud</title>
  <g id="Duotone">
    <polygon points="21 11.5 18 11.5 15.5 5.5 10.5 5.5 8 9.5 4 9.5 0.5 15 4 19.5 20 19.5 22.5 16 21 11.5" fill="#fff"/>
    <polygon points="22.5 16 19.5 16 18 17 6 17 4 15 0.5 15 4 19.5 20 19.5 22.5 16" fill="#cce7ff"/>
    <polygon points="21 11.5 18 11.5 15.5 5.5 10.5 5.5 8 9.5 4 9.5 0.5 15 4 19.5 20 19.5 22.5 16 21 11.5" fill="none" stroke="#1078ff" stroke-linecap="round" stroke-linejoin="round"/>
    <line x1="14.5" y1="11.5" x2="18" y2="11.5" fill="none" stroke="#1078ff" stroke-linecap="round" stroke-linejoin="round"/>
  </g>
  <g id="Frames-24px">
    <rect width="24" height="24" fill="none"/>
  </g>
</svg>
