<?xml version="1.0" encoding="utf-8"?>
<!-- Generator: Adobe Illustrator 21.0.2, SVG Export Plug-In . SVG Version: 6.00 Build 0)  -->
<svg version="1.1" xmlns="http://www.w3.org/2000/svg" xmlns:xlink="http://www.w3.org/1999/xlink" x="0px" y="0px" width="24px"
	 height="24px" viewBox="0 0 24 24" enable-background="new 0 0 24 24" xml:space="preserve">
<g id="Duotone">
	<path fill="#FFFFFF" d="M12,17.5h-1.257l9.556-9.556l-4.243-4.243L6.5,13.257V1.5h-6v22h6h0h16v-6H12z M3.5,21.5L2,20l1.5-1.5L5,20
		L3.5,21.5z"/>
	<polygon fill="#CCE7FF" points="6.5,21.5 10.5,17.5 13.5,17.5 8,23.5 6.5,23.5 	"/>
	<g>
		<path fill="#CCE7FF" d="M0.5,4v19.5h6V4H0.5z M3.5,21.5L2,20l1.5-1.5L5,20L3.5,21.5z"/>
		<polygon fill="#CCE7FF" points="8.5,11.257 6.5,13.257 6.5,21.743 8.5,19.743 		"/>
	</g>
	
		<line fill="none" stroke="#1078FF" stroke-linecap="round" stroke-linejoin="round" stroke-miterlimit="10" x1="19.5" y1="17.5" x2="19.5" y2="23.5"/>
	
		<line fill="none" stroke="#1078FF" stroke-linecap="round" stroke-linejoin="round" stroke-miterlimit="10" x1="16.5" y1="17.5" x2="16.5" y2="23.5"/>
	
		<line fill="none" stroke="#1078FF" stroke-linecap="round" stroke-linejoin="round" stroke-miterlimit="10" x1="13.5" y1="17.5" x2="13.5" y2="23.5"/>
	
		<line fill="none" stroke="#1078FF" stroke-linecap="round" stroke-linejoin="round" stroke-miterlimit="10" x1="10.5" y1="17.743" x2="10.5" y2="23.5"/>
	
		<line fill="none" stroke="#1078FF" stroke-linecap="round" stroke-linejoin="round" stroke-miterlimit="10" x1="13.936" y1="5.823" x2="18.178" y2="10.065"/>
	
		<line fill="none" stroke="#1078FF" stroke-linecap="round" stroke-linejoin="round" stroke-miterlimit="10" x1="11.815" y1="7.945" x2="16.056" y2="12.186"/>
	
		<line fill="none" stroke="#1078FF" stroke-linecap="round" stroke-linejoin="round" stroke-miterlimit="10" x1="9.692" y1="10.065" x2="13.935" y2="14.308"/>
	
		<line fill="none" stroke="#1078FF" stroke-linecap="round" stroke-linejoin="round" stroke-miterlimit="10" x1="7.572" y1="12.187" x2="11.814" y2="16.429"/>
	
		<line fill="none" stroke="#1078FF" stroke-linecap="round" stroke-linejoin="round" stroke-miterlimit="10" x1="6.5" y1="15.358" x2="9.691" y2="18.549"/>
	
		<rect x="0.5" y="1.5" fill="none" stroke="#1078FF" stroke-linecap="round" stroke-linejoin="round" stroke-miterlimit="10" width="6" height="22"/>
	<polyline fill="none" stroke="#1078FF" stroke-linecap="round" stroke-linejoin="round" stroke-miterlimit="10" points="6.5,23.5 
		22.5,23.5 22.5,17.5 10.743,17.5 	"/>
	
		<line fill="none" stroke="#1078FF" stroke-linecap="round" stroke-linejoin="round" stroke-miterlimit="10" x1="3.5" y1="15.5" x2="3.5" y2="4.5"/>
	
		<rect x="2.439" y="18.939" transform="matrix(0.7072 -0.707 0.707 0.7072 -13.1149 8.3301)" fill="none" stroke="#1078FF" stroke-linecap="round" stroke-linejoin="round" stroke-miterlimit="10" width="2.122" height="2.121"/>
	<polygon fill="none" stroke="#1078FF" stroke-linecap="round" stroke-linejoin="round" stroke-miterlimit="10" points="6.5,21.743 
		20.299,7.944 16.056,3.701 6.5,13.257 	"/>
</g>
<g id="Frames-24px">
	<rect fill="none" width="24" height="24"/>
</g>
</svg>
