<?xml version="1.0" encoding="utf-8"?>
<!-- Generator: Adobe Illustrator 21.0.2, SVG Export Plug-In . SVG Version: 6.00 Build 0)  -->
<svg version="1.1" xmlns="http://www.w3.org/2000/svg" xmlns:xlink="http://www.w3.org/1999/xlink" x="0px" y="0px"
	 viewBox="0 0 24 24" style="enable-background:new 0 0 24 24;" xml:space="preserve">
<style type="text/css">
	.st0{fill:#FFFFFF;}
	.st1{fill:#CCE7FF;}
	.st2{fill:none;stroke:#1078FF;stroke-linecap:round;stroke-linejoin:round;stroke-miterlimit:10;}
	.st3{fill:none;stroke:#1078FF;stroke-linecap:round;stroke-miterlimit:10;}
	.st4{fill:none;stroke:#1078FF;stroke-linejoin:round;stroke-miterlimit:10;}
	.st5{fill:none;}
</style>
<g id="Duotone">
	<rect x="0.5" y="4.5" class="st0" width="22" height="16"/>
	<rect x="0.5" y="18.5" class="st1" width="22" height="2"/>
	<polygon class="st1" points="3.5,11.5 6.5,11.5 6.5,7.5 	"/>
	<polygon class="st1" points="20.5,16.5 18.5,14.5 17,16 15.5,14.5 13.5,16.5 15.5,18.5 17,17 18.5,18.5 	"/>
	<g>
		<rect x="0.5" y="4.5" class="st2" width="22" height="16"/>
		<rect x="3.5" y="7.5" class="st2" width="3" height="4"/>
		<line class="st2" x1="3.5" y1="15.5" x2="5.5" y2="15.5"/>
		<line class="st2" x1="7.5" y1="15.5" x2="11.5" y2="15.5"/>
		<line class="st2" x1="4.5" y1="17.5" x2="3.5" y2="17.5"/>
		<line class="st2" x1="9.5" y1="17.5" x2="6.5" y2="17.5"/>
		<polygon class="st2" points="20.5,16.5 18.5,14.5 17,16 15.5,14.5 13.5,16.5 15.5,18.5 17,17 18.5,18.5 		"/>
	</g>
</g>
<g id="Frames-24px">
	<rect class="st5" width="24" height="24"/>
</g>
</svg>
