<svg xmlns="http://www.w3.org/2000/svg" width="24" height="24" viewBox="0 0 24 24">
  <title>dices</title>
  <g id="Duotone">
    <g>
      <polygon points="1.503 10.001 1.5 10 1.5 20 9.5 23.5 9.5 13 17.5 10.002 9.5 7.5 1.503 10.001" fill="#fff"/>
      <polygon points="14.5 6 22.5 3.002 14.5 0.5 6.503 3.001 6.5 3 6.5 8.438 9.5 7.5 14.5 9.064 14.5 6" fill="#fff"/>
    </g>
    <polygon points="9.5 13 17.5 10 17.5 20 9.5 23.5 9.5 13" fill="#cce7ff"/>
    <polygon points="9.5 13 1.5 20 9.5 23.5 9.5 13" fill="#cce7ff"/>
    <polygon points="17.5 15 22.5 13 22.5 3 14.5 6 14.5 16.5 17.5 15" fill="#cce7ff"/>
    <polygon points="9.5 13 1.5 10 1.5 20 9.5 23.5 9.5 13" fill="none" stroke="#1078ff" stroke-linecap="round" stroke-linejoin="round"/>
    <polygon points="9.5 13 17.5 10 17.5 20 9.5 23.5 9.5 13" fill="none" stroke="#1078ff" stroke-linecap="round" stroke-linejoin="round"/>
    <polygon points="17.5 10.002 9.5 7.5 1.5 10.002 9.5 13 17.5 10.002" fill="none" stroke="#1078ff" stroke-linecap="round" stroke-linejoin="round"/>
    <polyline points="17.5 15 22.5 13 22.5 3 14.5 6" fill="none" stroke="#1078ff" stroke-linecap="round" stroke-linejoin="round"/>
    <path d="M4.566,14.266h0M4,13.5a.2.2,0,0,0-.141.059l-.8.8a.2.2,0,0,0,0,.283l.8.8a.2.2,0,0,0,.283,0l.8-.8a.2.2,0,0,0,0-.283l-.8-.8A.2.2,0,0,0,4,13.5Z" fill="#1078ff"/>
    <path d="M7.566,19.266h0M7,18.5a.2.2,0,0,0-.141.059l-.8.8a.2.2,0,0,0,0,.283l.8.8a.2.2,0,0,0,.283,0l.8-.8a.2.2,0,0,0,0-.283l-.8-.8A.2.2,0,0,0,7,18.5Z" fill="#1078ff"/>
    <path d="M12.565,19.267h0M12,18.5a.2.2,0,0,0-.141.059l-.8.8a.2.2,0,0,0,0,.283l.8.8a.2.2,0,0,0,.283,0l.8-.8a.2.2,0,0,0,0-.283l-.8-.8A.2.2,0,0,0,12,18.5Z" fill="#1078ff"/>
    <path d="M14.065,16.767h0M13.5,16a.2.2,0,0,0-.141.059l-.8.8a.2.2,0,0,0,0,.283l.8.8a.2.2,0,0,0,.283,0l.8-.8a.2.2,0,0,0,0-.283l-.8-.8A.2.2,0,0,0,13.5,16Z" fill="#1078ff"/>
    <path d="M15.566,14.267h0M15,13.5a.2.2,0,0,0-.141.059l-.8.8a.2.2,0,0,0,0,.283l.8.8a.2.2,0,0,0,.283,0l.8-.8a.2.2,0,0,0,0-.283l-.8-.8A.2.2,0,0,0,15,13.5Z" fill="#1078ff"/>
    <path d="M10.065,9.766h0M9.5,9a.2.2,0,0,0-.141.059l-.8.8a.2.2,0,0,0,0,.283l.8.8a.2.2,0,0,0,.283,0l.8-.8a.2.2,0,0,0,0-.283l-.8-.8A.2.2,0,0,0,9.5,9Z" fill="#1078ff"/>
    <path d="M15.065,2.767h0M14.5,2a.2.2,0,0,0-.141.059l-.8.8a.2.2,0,0,0,0,.283l.8.8a.2.2,0,0,0,.283,0l.8-.8a.2.2,0,0,0,0-.283l-.8-.8A.2.2,0,0,0,14.5,2Z" fill="#1078ff"/>
    <path d="M20.566,6.267h0M20,5.5a.2.2,0,0,0-.141.059l-.8.8a.2.2,0,0,0,0,.283l.8.8a.2.2,0,0,0,.283,0l.8-.8a.2.2,0,0,0,0-.283l-.8-.8A.2.2,0,0,0,20,5.5Z" fill="#1078ff"/>
    <path d="M20.566,10.767h0M20,10a.2.2,0,0,0-.141.059l-.8.8a.2.2,0,0,0,0,.283l.8.8a.2.2,0,0,0,.283,0l.8-.8a.2.2,0,0,0,0-.283l-.8-.8A.2.2,0,0,0,20,10Z" fill="#1078ff"/>
    <polygon points="14.5 9.064 14.5 6 6.5 3 6.5 8.438 9.5 7.5 14.5 9.064" fill="none" stroke="#1078ff" stroke-linecap="round" stroke-linejoin="round"/>
    <polygon points="22.5 3.002 14.5 0.5 6.5 3.002 14.5 6 22.5 3.002" fill="none" stroke="#1078ff" stroke-linecap="round" stroke-linejoin="round"/>
  </g>
  <g id="Frames-24px">
    <rect width="24" height="24" fill="none"/>
  </g>
</svg>
