<?xml version="1.0" encoding="utf-8"?>
<!-- Generator: Adobe Illustrator 21.0.2, SVG Export Plug-In . SVG Version: 6.00 Build 0)  -->
<svg version="1.1" xmlns="http://www.w3.org/2000/svg" xmlns:xlink="http://www.w3.org/1999/xlink" x="0px" y="0px"
	 viewBox="0 0 24 24" style="enable-background:new 0 0 24 24;" xml:space="preserve">
<style type="text/css">
	.st0{fill:#FFFFFF;}
	.st1{fill:#CCE7FF;}
	.st2{fill:none;stroke:#1078FF;stroke-linecap:round;stroke-linejoin:round;stroke-miterlimit:10;}
	.st3{fill:none;}
</style>
<g id="Duotone">
	<polygon class="st0" points="7.5,7 3.5,6 3.5,5 7.5,4 	"/>
	<polygon class="st0" points="19.1,9.5 21,9.5 23.5,5.5 21,1.5 10.5,1.5 10.5,9.5 13.9,9.5 16.5,12.5 16.5,15 13,17.5 11.5,17.5 
		10,19.5 13,23.5 20.5,23.5 22,19.5 20.5,17.5 	"/>
	<polygon class="st1" points="10,19.5 11.5,17.5 20.5,17.5 22,19.5 	"/>
	<polygon class="st1" points="10.5,9.5 7.5,7.5 7.5,3.5 10.5,1.5 	"/>
	<polygon class="st1" points="23.5,5.5 21,9.5 10.5,9.5 10.5,5.5 	"/>
	<polygon class="st1" points="13.9,9.5 16.5,12.5 13,12.5 11.7,9.5 	"/>
	<polygon class="st1" points="11.5,21.5 13,23.5 20.5,23.5 21.3,21.5 	"/>
	<g>
		<polygon class="st2" points="20.5,17.5 22,19.5 20.5,23.5 13,23.5 10,19.5 11.5,17.5 		"/>
		<polygon class="st2" points="7.5,7 3.5,6 3.5,5 7.5,4 		"/>
		<polygon class="st2" points="10.5,9.5 7.5,7.5 7.5,3.5 10.5,1.5 		"/>
		<line class="st2" x1="3.5" y1="5.5" x2="0.5" y2="5.5"/>
		<polyline class="st2" points="10.5,1.5 21,1.5 23.5,5.5 21,9.5 10.5,9.5 		"/>
		<line class="st2" x1="20.5" y1="17.5" x2="19.1" y2="9.5"/>
		<polyline class="st2" points="13,17.5 16.5,15 16.5,12.5 13.9,9.5 		"/>
		<polyline class="st2" points="11.7,9.5 13,12.5 16.5,12.5 		"/>
		<line class="st2" x1="10" y1="19.5" x2="22" y2="19.5"/>
		<line class="st2" x1="19.5" y1="4.5" x2="19.5" y2="6.5"/>
		<line class="st2" x1="17.5" y1="4.5" x2="17.5" y2="6.5"/>
		<line class="st2" x1="15.5" y1="4.5" x2="15.5" y2="6.5"/>
	</g>
</g>
<g id="Frames-24px">
	<rect class="st3" width="24" height="24"/>
</g>
</svg>
