<svg xmlns="http://www.w3.org/2000/svg" width="24" height="24" viewBox="0 0 24 24">
  <title>globe-1</title>
  <g id="Duotone">
    <polygon points="12 23.499 20.306 20.305 23.5 11.999 20.306 3.694 12 0.499 3.694 3.694 0.5 11.999 3.694 20.305 12 23.499" fill="#fff"/>
    <polygon points="18 8.499 15 8.499 13 11.749 15 15.499 17.25 15.499 19.5 15.499 19.5 20.615 19.5 20.615 20.306 20.305 23.5 11.999 22.538 9.499 19 9.499 18 8.499" fill="#cce7ff"/>
    <polygon points="20.423 3.999 20.306 3.694 16.403 2.193 15.5 3.999 14.5 3.999 14.5 6.499 16.5 6.499 17.5 4.999 17.5 3.999 20.423 3.999 20.423 3.999" fill="#cce7ff"/>
    <path d="M.5,12,3.694,20.3l5.773,2.22L9.5,22.5l2-3.5L9,15.5H5l-1.5-2V11l2-1.5v2l1,.5,2-1V8L6,7,7.6,2.19h0l-3.908,1.5Z" fill="#cce7ff"/>
    <polyline points="19.5 20.615 19.5 15.499 17.25 15.499 15 15.499 13 11.749 15 8.499 18 8.499 19 9.499 22.538 9.499" fill="none" stroke="#1078ff" stroke-linecap="round" stroke-linejoin="round"/>
    <polygon points="12 23.499 20.306 20.305 23.5 11.999 20.306 3.694 12 0.499 3.694 3.694 0.5 11.999 3.694 20.305 12 23.499" fill="none" stroke="#1078ff" stroke-linecap="round" stroke-linejoin="round"/>
    <polyline points="20.423 3.999 17.5 3.999 17.5 4.999 16.5 6.499 14.5 6.499 14.5 3.999 15.5 3.999 16.403 2.193" fill="none" stroke="#1078ff" stroke-linecap="round" stroke-linejoin="round"/>
    <polyline points="7.603 2.19 6 6.999 8.5 7.999 8.5 10.999 6.5 11.999 5.5 11.499 5.5 9.499 3.5 10.999 3.5 13.499 5 15.499 9 15.499 11.5 18.999 9.5 22.499" fill="none" stroke="#1078ff" stroke-linecap="round" stroke-linejoin="round"/>
  </g>
  <g id="Frames-24px">
    <rect width="24" height="24" fill="none"/>
  </g>
</svg>
