<svg xmlns="http://www.w3.org/2000/svg" width="24" height="24" viewBox="0 0 24 24">
  <title>heart-cupid</title>
  <g id="Duotone">
    <polygon points="6.5 17.52 3 17.52 0.519 19.52 4.5 19.52 6.5 17.52" fill="#fff"/>
    <polygon points="12.5 18.52 21 10.02 16 4.52 12.5 7.52 9 4.52 4 10.02 12.5 18.52" fill="#fff"/>
    <polygon points="23.5 0.5 20 1.5 20.5 3.5 22.5 4 23.5 0.5" fill="#cce7ff"/>
    <polygon points="6.5 17.5 6.5 21 4.5 23.481 4.5 19.5 6.5 17.5" fill="#cce7ff"/>
    <polygon points="21 10 16 4.5 12.5 7.5 12.5 18.5 21 10" fill="#cce7ff"/>
    <line x1="9" y1="15" x2="6.5" y2="17.5" fill="none" stroke="#1078ff" stroke-linecap="round" stroke-linejoin="round"/>
    <line x1="20.5" y1="3.5" x2="16" y2="8" fill="none" stroke="#1078ff" stroke-linecap="round" stroke-linejoin="round"/>
    <polygon points="23.5 0.5 20 1.5 20.5 3.5 22.5 4 23.5 0.5" fill="none" stroke="#1078ff" stroke-linecap="round" stroke-linejoin="round"/>
    <polygon points="6.5 17.5 3 17.5 0.519 19.5 4.5 19.5 6.5 17.5" fill="none" stroke="#1078ff" stroke-linecap="round" stroke-linejoin="round"/>
    <polygon points="6.5 17.5 6.5 21 4.5 23.481 4.5 19.5 6.5 17.5" fill="none" stroke="#1078ff" stroke-linecap="round" stroke-linejoin="round"/>
    <polygon points="12.5 18.5 21 10 16 4.5 12.5 7.5 9 4.5 4 10 12.5 18.5" fill="none" stroke="#1078ff" stroke-linecap="round" stroke-linejoin="round"/>
  </g>
  <g id="Frames-24px">
    <rect width="24" height="24" fill="none"/>
  </g>
</svg>
