<?xml version="1.0" encoding="utf-8"?>
<!-- Generator: Adobe Illustrator 21.0.2, SVG Export Plug-In . SVG Version: 6.00 Build 0)  -->
<svg version="1.1" xmlns="http://www.w3.org/2000/svg" xmlns:xlink="http://www.w3.org/1999/xlink" x="0px" y="0px"
	 viewBox="0 0 24 24" style="enable-background:new 0 0 24 24;" xml:space="preserve">
<style type="text/css">
	.st0{fill:#FFFFFF;}
	.st1{fill:#CCE7FF;}
	.st2{fill:none;stroke:#1078FF;stroke-linecap:round;stroke-linejoin:round;stroke-miterlimit:10;}
	.st3{fill:none;stroke:#1078FF;stroke-linejoin:round;stroke-miterlimit:10;}
	.st4{fill:none;}
</style>
<g id="Duotone">
	<polygon class="st0" points="22.5,3.5 4.5,3.5 4.5,8.5 2.5,8.5 2.5,13.5 0.5,13.5 0.5,21.5 5.5,21.5 5.5,19.5 10.5,19.5 10.5,17.5 
		22.5,17.5 	"/>
	<polygon class="st1" points="5.5,13.5 5.5,19.5 0.5,19.5 	"/>
	<polygon class="st1" points="5.5,14.1 5.5,17.5 10.5,17.5 10.5,8.5 	"/>
	<polygon class="st1" points="10.5,10.8 10.5,14.5 22.5,14.5 22.5,3.5 	"/>
	<g>
		<rect x="0.5" y="13.5" class="st2" width="5" height="8"/>
		<line class="st2" x1="0.5" y1="19.5" x2="5.5" y2="19.5"/>
		<polyline class="st2" points="2.5,11.5 2.5,8.5 10.5,8.5 10.5,19.5 7.5,19.5 		"/>
		<polyline class="st2" points="4.5,6.5 4.5,3.5 22.5,3.5 22.5,17.5 12.5,17.5 		"/>
		<line class="st2" x1="10.5" y1="17.5" x2="7.5" y2="17.5"/>
		<line class="st2" x1="22.5" y1="14.5" x2="12.5" y2="14.5"/>
		<line class="st2" x1="13.5" y1="17.5" x2="13.5" y2="21.5"/>
		<line class="st2" x1="9.5" y1="21.5" x2="17.5" y2="21.5"/>
		<g>
			<line class="st2" x1="17" y1="6" x2="20" y2="9"/>
			<line class="st2" x1="19.5" y1="5.5" x2="20.5" y2="6.5"/>
		</g>
	</g>
</g>
<g id="Frames-24px">
	<rect class="st4" width="24" height="24"/>
</g>
</svg>
