<svg xmlns="http://www.w3.org/2000/svg" width="24" height="24" viewBox="0 0 24 24">
  <title>sign-for-sale</title>
  <g id="Duotone">
    <polygon points="20.5 6.5 3.5 6.5 2.5 5 3.5 3.5 20.5 3.5 20.5 6.5" fill="#fff"/>
    <rect x="0.5" y="9.5" width="18" height="11" fill="#fff"/>
    <polygon points="23.5 23.5 20.5 23.5 20.5 2 22 0.5 23.5 2 23.5 23.5" fill="#fff"/>
    <polygon points="2.5 5 3.5 6.5 20.5 6.5 20.5 5 2.5 5" fill="#cce7ff"/>
    <polygon points="16.5 18.5 2.5 18.5 0.5 20.5 18.5 20.494 16.5 18.5" fill="#cce7ff"/>
    <rect x="0.5" y="9.5" width="18" height="11" fill="none" stroke="#1078ff" stroke-linecap="round" stroke-linejoin="round"/>
    <line x1="13.5" y1="9.5" x2="13.5" y2="6.5" fill="none" stroke="#1078ff" stroke-linecap="round" stroke-linejoin="round"/>
    <line x1="5.5" y1="9.5" x2="5.5" y2="6.5" fill="none" stroke="#1078ff" stroke-linecap="round" stroke-linejoin="round"/>
    <polyline points="16.5 17.5 14.5 17.5 14.5 12.5 16.5 12.5" fill="none" stroke="#1078ff" stroke-linecap="round" stroke-linejoin="round"/>
    <line x1="14.5" y1="15.5" x2="16.5" y2="15.5" fill="none" stroke="#1078ff" stroke-linecap="round" stroke-linejoin="round"/>
    <polyline points="10.5 12.5 10.5 17.5 12.5 17.5" fill="none" stroke="#1078ff" stroke-linecap="round" stroke-linejoin="round"/>
    <polyline points="4.5 12.5 2.5 12.5 2.5 14.5 4.5 15.5 4.5 17.5 2.5 17.5" fill="none" stroke="#1078ff" stroke-linecap="round" stroke-linejoin="round"/>
    <polyline points="6.5 17.5 6.5 14 7.5 12.5 8.5 14 8.5 17.5" fill="none" stroke="#1078ff" stroke-linecap="round" stroke-linejoin="round"/>
    <line x1="6.5" y1="15.5" x2="8.5" y2="15.5" fill="none" stroke="#1078ff" stroke-linecap="round" stroke-linejoin="round"/>
    <polygon points="23.5 23.5 20.5 23.5 20.5 2 22 0.5 23.5 2 23.5 23.5" fill="none" stroke="#1078ff" stroke-linecap="round" stroke-linejoin="round"/>
    <polygon points="20.5 6.5 3.5 6.5 2.5 5 3.5 3.5 20.5 3.5 20.5 6.5" fill="none" stroke="#1078ff" stroke-linecap="round" stroke-linejoin="round"/>
  </g>
  <g id="Frames-24px">
    <rect width="24" height="24" fill="none"/>
  </g>
</svg>
