<svg xmlns="http://www.w3.org/2000/svg" width="24" height="24" viewBox="0 0 24 24">
  <title>account-target</title>
  <g id="Duotone">
    <polygon points="14.5 13.5 11.5 15 8.5 13.5 8.5 10 11.5 8.5 14.5 10 14.5 13.5" fill="#fff"/>
    <polygon points="6.5 19.722 6.5 17.5 11.5 16 16.5 17.5 16.5 19.722 11.5 22.5 6.5 19.722" fill="#fff"/>
    <polygon points="14.5 11.5 11 11.5 8.5 10 11.5 8.5 14.5 10 14.5 11.5" fill="#cce7ff"/>
    <line x1="11.5" y1="19.5" x2="11.5" y2="23.5" fill="none" stroke="#1078ff" stroke-linecap="round" stroke-linejoin="round"/>
    <line x1="11.5" y1="1.5" x2="11.5" y2="5.5" fill="none" stroke="#1078ff" stroke-linecap="round" stroke-linejoin="round"/>
    <line x1="22.5" y1="12.5" x2="18.5" y2="12.5" fill="none" stroke="#1078ff" stroke-linecap="round" stroke-linejoin="round"/>
    <line x1="4.5" y1="12.5" x2="0.5" y2="12.5" fill="none" stroke="#1078ff" stroke-linecap="round" stroke-linejoin="round"/>
    <polygon points="2.5 7.5 11.5 2.5 20.5 7.5 20.5 17.5 11.5 22.5 2.5 17.5 2.5 7.5" fill="none" stroke="#1078ff" stroke-linecap="round" stroke-linejoin="round"/>
    <polygon points="14.5 13.5 11.5 15 8.5 13.5 8.5 10 11.5 8.5 14.5 10 14.5 13.5" fill="none" stroke="#1078ff" stroke-linecap="round" stroke-linejoin="round"/>
    <polygon points="6.5 19.722 6.5 17.5 11.5 16 16.5 17.5 16.5 19.722 11.5 22.5 6.5 19.722" fill="none" stroke="#1078ff" stroke-linecap="round" stroke-linejoin="round"/>
    <polygon points="14.5 11.5 11 11.5 8.5 10 11.5 8.5 14.5 10 14.5 11.5" fill="none" stroke="#1078ff" stroke-linecap="round" stroke-linejoin="round"/>
  </g>
  <g id="Frames-24px">
    <rect width="24" height="24" fill="none"/>
  </g>
</svg>
