<svg xmlns="http://www.w3.org/2000/svg" width="24" height="24" viewBox="0 0 24 24">
  <title>business-chat-2</title>
  <g id="Duotone">
    <polygon points="21.5 17.5 18.5 19 15.5 17.5 15.5 13.5 18.5 12 21.5 13.5 21.5 17.5" fill="#fff"/>
    <polygon points="23.5 23.5 23.5 21.5 18.5 20 13.5 21.5 13.5 23.5 23.5 23.5" fill="#fff"/>
    <polygon points="8.5 17.5 5.5 19 2.5 17.5 2.5 13.5 5.5 12 8.5 13.5 8.5 17.5" fill="#fff"/>
    <polygon points="10.5 23.5 10.5 21.5 5.5 20 0.5 21.5 0.5 23.5 10.5 23.5" fill="#fff"/>
    <polygon points="20.5 10.5 13.5 10.5 10.5 13 10.5 10.5 6.5 10.5 6.5 0.5 20.5 0.5 20.5 10.5" fill="#fff"/>
    <polygon points="18.5 12 16.226 13.137 16.2 13.13 16.216 13.142 18 14.5 21.5 14.5 21.5 13.5 18.5 12" fill="#cce7ff"/>
    <polygon points="20.5 10.5 13.5 10.5 10.5 13 10.5 10.5 6.5 10.5 6.5 8.5 20.5 8.5 20.5 10.5" fill="#cce7ff"/>
    <polygon points="5.5 12 3.226 13.137 3.2 13.13 3.216 13.142 5 14.5 8.5 14.5 8.5 13.5 5.5 12" fill="#cce7ff"/>
    <g>
      <g>
        <polyline points="14.5 3.5 12.5 3.5 12 4.5 12.5 5.5 14.5 5.5 15 6.5 14.5 7.5 12.5 7.5" fill="none" stroke="#1078ff" stroke-linecap="round" stroke-linejoin="round"/>
        <line x1="13.5" y1="3.5" x2="13.5" y2="2.5" fill="none" stroke="#1078ff" stroke-linecap="round" stroke-linejoin="round"/>
        <line x1="13.5" y1="8.5" x2="13.5" y2="7.5" fill="none" stroke="#1078ff" stroke-linecap="round" stroke-linejoin="round"/>
      </g>
      <polyline points="10.5 23.5 10.5 21.5 5.5 20 0.5 21.5 0.5 23.5" fill="none" stroke="#1078ff" stroke-linecap="round" stroke-linejoin="round"/>
      <line x1="5.5" y1="22.5" x2="5.5" y2="23.5" fill="none" stroke="#1078ff" stroke-linecap="round" stroke-linejoin="round"/>
      <polygon points="21.5 17.5 18.5 19 15.5 17.5 15.5 13.5 18.5 12 21.5 13.5 21.5 17.5" fill="none" stroke="#1078ff" stroke-linejoin="round"/>
      <polyline points="16.2 13.13 18 14.5 21.5 14.5" fill="none" stroke="#1078ff" stroke-miterlimit="10"/>
      <polyline points="23.5 23.5 23.5 21.5 18.5 20 13.5 21.5 13.5 23.5" fill="none" stroke="#1078ff" stroke-linecap="round" stroke-linejoin="round"/>
      <line x1="18.5" y1="22.5" x2="18.5" y2="23.5" fill="none" stroke="#1078ff" stroke-linecap="round" stroke-linejoin="round"/>
      <polygon points="20.5 10.5 13.5 10.5 10.5 13 10.5 10.5 6.5 10.5 6.5 0.5 20.5 0.5 20.5 10.5" fill="none" stroke="#1078ff" stroke-linecap="round" stroke-linejoin="round"/>
      <polygon points="8.5 17.5 5.5 19 2.5 17.5 2.5 13.5 5.5 12 8.5 13.5 8.5 17.5" fill="none" stroke="#1078ff" stroke-linejoin="round"/>
      <polyline points="3.2 13.13 5 14.5 8.5 14.5" fill="none" stroke="#1078ff" stroke-miterlimit="10"/>
    </g>
  </g>
  <g id="Frames-24px">
    <rect width="24" height="24" fill="none"/>
  </g>
</svg>
