<svg xmlns="http://www.w3.org/2000/svg" width="24" height="24" viewBox="0 0 24 24">
  <title>cash-calculator</title>
  <g id="Duotone">
    <polygon points="16.5 7.5 16.5 0.5 0.5 0.5 0.5 10.5 12.5 10.5 12.5 23.5 23.5 23.5 23.5 7.5 16.5 7.5" fill="#fff"/>
    <rect x="12.5" y="21.5" width="11" height="2" fill="#cce7ff"/>
    <polygon points="0.5 4 0.5 0.5 4 0.5 0.5 4" fill="#cce7ff"/>
    <polygon points="12.5 12.5 12.5 10.5 4 10.5 0.5 7 0.5 10.5 1.5 10.5 1.5 12.5 2.5 12.5 2.5 14.5 12.5 14.5 12.5 13.5 23.5 12 23.5 7.5 12.5 12.5" fill="#cce7ff"/>
    <polygon points="16.5 4 16.5 0.5 13 0.5 16.5 4" fill="#cce7ff"/>
    <g>
      <g>
        <line x1="0.5" y1="4" x2="4" y2="0.5" fill="none" stroke="#1078ff" stroke-linecap="round" stroke-linejoin="round"/>
        <line x1="0.5" y1="7" x2="4" y2="10.5" fill="none" stroke="#1078ff" stroke-linecap="round" stroke-linejoin="round"/>
        <polyline points="10.5 10.5 0.5 10.5 0.5 0.5 16.5 0.5 16.5 5.5" fill="none" stroke="#1078ff" stroke-linecap="round" stroke-linejoin="round"/>
        <line x1="16.5" y1="4" x2="13" y2="0.5" fill="none" stroke="#1078ff" stroke-linecap="round" stroke-linejoin="round"/>
        <polyline points="9.5 3.5 7.5 3.5 7 4.5 7.5 5.5 9.5 5.5 10 6.5 9.5 7.5 7.5 7.5" fill="none" stroke="#1078ff" stroke-linecap="round" stroke-linejoin="round"/>
        <line x1="8.5" y1="3.5" x2="8.5" y2="2.5" fill="none" stroke="#1078ff" stroke-linecap="round" stroke-linejoin="round"/>
        <line x1="8.5" y1="8.5" x2="8.5" y2="7.5" fill="none" stroke="#1078ff" stroke-linecap="round" stroke-linejoin="round"/>
      </g>
      <g>
        <rect x="12.5" y="7.5" width="11" height="16" fill="none" stroke="#1078ff" stroke-linecap="round" stroke-linejoin="round"/>
        <line x1="12.5" y1="13.5" x2="23.5" y2="12" fill="none" stroke="#1078ff" stroke-linecap="round" stroke-linejoin="round"/>
        <line x1="21.5" y1="15.5" x2="20.5" y2="15.5" fill="none" stroke="#1078ff" stroke-linecap="round" stroke-linejoin="round"/>
        <line x1="18.5" y1="15.5" x2="17.5" y2="15.5" fill="none" stroke="#1078ff" stroke-linecap="round" stroke-linejoin="round"/>
        <line x1="15.5" y1="15.5" x2="14.5" y2="15.5" fill="none" stroke="#1078ff" stroke-linecap="round" stroke-linejoin="round"/>
        <line x1="21.5" y1="17.5" x2="20.5" y2="17.5" fill="none" stroke="#1078ff" stroke-linecap="round" stroke-linejoin="round"/>
        <line x1="18.5" y1="17.5" x2="17.5" y2="17.5" fill="none" stroke="#1078ff" stroke-linecap="round" stroke-linejoin="round"/>
        <line x1="15.5" y1="17.5" x2="14.5" y2="17.5" fill="none" stroke="#1078ff" stroke-linecap="round" stroke-linejoin="round"/>
        <line x1="21.5" y1="19.5" x2="20.5" y2="19.5" fill="none" stroke="#1078ff" stroke-linecap="round" stroke-linejoin="round"/>
        <line x1="18.5" y1="19.5" x2="17.5" y2="19.5" fill="none" stroke="#1078ff" stroke-linecap="round" stroke-linejoin="round"/>
        <line x1="15.5" y1="19.5" x2="14.5" y2="19.5" fill="none" stroke="#1078ff" stroke-linecap="round" stroke-linejoin="round"/>
        <line x1="21.5" y1="21.5" x2="20.5" y2="21.5" fill="none" stroke="#1078ff" stroke-linecap="round" stroke-linejoin="round"/>
        <line x1="18.5" y1="21.5" x2="17.5" y2="21.5" fill="none" stroke="#1078ff" stroke-linecap="round" stroke-linejoin="round"/>
        <line x1="15.5" y1="21.5" x2="14.5" y2="21.5" fill="none" stroke="#1078ff" stroke-linecap="round" stroke-linejoin="round"/>
      </g>
      <line x1="1.5" y1="12.5" x2="10.5" y2="12.5" fill="none" stroke="#1078ff" stroke-linecap="round" stroke-linejoin="round"/>
      <line x1="2.5" y1="14.5" x2="10.5" y2="14.5" fill="none" stroke="#1078ff" stroke-linecap="round" stroke-linejoin="round"/>
    </g>
  </g>
  <g id="Frames-24px">
    <rect width="24" height="24" fill="none"/>
  </g>
</svg>
