<?xml version="1.0" encoding="utf-8"?>
<!-- Generator: Adobe Illustrator 21.0.2, SVG Export Plug-In . SVG Version: 6.00 Build 0)  -->
<svg version="1.1" xmlns="http://www.w3.org/2000/svg" xmlns:xlink="http://www.w3.org/1999/xlink" x="0px" y="0px"
	 viewBox="0 0 24 24" style="enable-background:new 0 0 24 24;" xml:space="preserve">
<style type="text/css">
	.st0{fill:#FFFFFF;}
	.st1{fill:#CCE7FF;}
	.st2{fill:none;stroke:#1078FF;stroke-linecap:round;stroke-linejoin:round;stroke-miterlimit:10;}
	.st3{fill:none;}
</style>
<g id="Duotone">
	<polygon class="st0" points="6,23.5 17,23.5 11.5,20.5 	"/>
	<polygon class="st0" points="11.5,0.5 20.5,4.8 20.5,13 11.5,17.5 2.5,13 2.5,4.8 	"/>
	<polygon class="st1" points="17.5,11.5 11.5,14.5 5.5,11.5 5.5,9 2.5,7.5 2.5,13 11.5,17.5 20.5,13 20.5,7.5 17.5,9 	"/>
	<g>
		<polygon class="st2" points="6,23.5 17,23.5 11.5,20.5 		"/>
		<polygon class="st2" points="11.5,0.5 20.5,4.8 20.5,13 11.5,17.5 2.5,13 2.5,4.8 		"/>
		<polyline class="st2" points="2.5,7.5 5.5,9 5.5,11.5 11.5,14.5 17.5,11.5 17.5,9 20.5,7.5 		"/>
		<line class="st2" x1="11.5" y1="17.5" x2="11.5" y2="20.5"/>
	</g>
</g>
<g id="Frames-24px">
	<rect class="st3" width="24" height="24"/>
</g>
</svg>
