<svg xmlns="http://www.w3.org/2000/svg" width="24" height="24" viewBox="0 0 24 24">
  <title>database-add</title>
  <g id="Duotone">
    <polygon points="18.5 14 17.5 14.563 17.5 3.5 13 1.5 5 1.5 0.5 3.5 0.5 18.5 5 20.5 13 20.5 14.5 19.833 14.5 20.75 18.5 23 22.5 20.75 22.5 16.25 18.5 14" fill="#fff"/>
    <polygon points="22.5 16.25 22.5 20.75 18.5 23 14.5 20.75 22.5 16.25" fill="#cce7ff"/>
    <polygon points="14.5 16.25 17.5 14.563 17.5 3.5 13 5.5 9 5.5 9 20.5 13 20.5 14.5 19.833 14.5 16.25" fill="#cce7ff"/>
    <g>
      <polyline points="17.5 11.5 17.5 3.5 13 5.5 5 5.5 0.5 3.5 0.5 18.5" fill="none" stroke="#1078ff" stroke-linecap="round" stroke-linejoin="round"/>
      <polyline points="17.5 8.5 13 10.5 5 10.5 0.5 8.5" fill="none" stroke="#1078ff" stroke-linecap="round" stroke-linejoin="round"/>
      <polyline points="12.5 15.5 5 15.5 0.5 13.5" fill="none" stroke="#1078ff" stroke-linecap="round" stroke-linejoin="round"/>
      <polyline points="12.5 20.5 5 20.5 0.5 18.5" fill="none" stroke="#1078ff" stroke-linecap="round" stroke-linejoin="round"/>
      <polyline points="0.5 3.5 5 1.5 13 1.5 17.5 3.5" fill="none" stroke="#1078ff" stroke-linecap="round" stroke-linejoin="round"/>
    </g>
    <polygon points="22.5 20.75 18.5 23 14.5 20.75 14.5 16.25 18.5 14 22.5 16.25 22.5 20.75" fill="none" stroke="#1078ff" stroke-linecap="round" stroke-linejoin="round"/>
    <g>
      <line x1="18.5" y1="16.5" x2="18.5" y2="20.5" fill="none" stroke="#1078ff" stroke-linecap="round" stroke-linejoin="round"/>
      <line x1="20.5" y1="18.5" x2="16.5" y2="18.5" fill="none" stroke="#1078ff" stroke-linecap="round" stroke-linejoin="round"/>
    </g>
  </g>
  <g id="Frames-24px">
    <rect width="24" height="24" fill="none"/>
  </g>
</svg>
