<?xml version="1.0" encoding="utf-8"?>
<!-- Generator: Adobe Illustrator 21.0.2, SVG Export Plug-In . SVG Version: 6.00 Build 0)  -->
<svg version="1.1" xmlns="http://www.w3.org/2000/svg" xmlns:xlink="http://www.w3.org/1999/xlink" x="0px" y="0px"
	 viewBox="0 0 24 24" style="enable-background:new 0 0 24 24;" xml:space="preserve">
<style type="text/css">
	.st0{fill:#FFFFFF;}
	.st1{fill:#CCE7FF;}
	.st2{fill:none;stroke:#1078FF;stroke-linecap:round;stroke-linejoin:round;stroke-miterlimit:10;}
	.st3{fill:none;}
</style>
<g id="Duotone">
	<g>
		<polygon class="st0" points="2.5,4 8,5.5 8.5,2.5 		"/>
		<polygon class="st0" points="16,16 10.5,15 8.5,2.5 8,5.5 8,5.5 6,17 8,21.5 17,21.5 18.5,18 		"/>
	</g>
	<polygon class="st1" points="6,17 9,17 9.5,19 18.1,19 17,21.5 8,21.5 	"/>
	<polyline class="st2" points="8,5.5 2.5,4 8.5,2.5 6,17 8,21.5 17,21.5 18.5,18 16,16 10.5,15 8.5,2.5 	"/>
	<line class="st2" x1="6.2" y1="3.1" x2="5.5" y2="1"/>
	<line class="st2" x1="8.5" y1="2.5" x2="8" y2="0.5"/>
	<line class="st2" x1="8" y1="21.5" x2="6.5" y2="23.5"/>
	<line class="st2" x1="8" y1="21.5" x2="9" y2="23.5"/>
	<line class="st2" x1="17" y1="21.5" x2="18.5" y2="23.5"/>
	<line class="st2" x1="17" y1="21.5" x2="16" y2="23.5"/>
	<line class="st2" x1="18.5" y1="18" x2="20" y2="20.5"/>
	<line class="st2" x1="8.5" y1="2.5" x2="10.5" y2="3"/>
	<line class="st2" x1="8.4" y1="16.1" x2="8.9" y2="16.6"/>
	<line class="st2" x1="12.1" y1="17.3" x2="12.6" y2="17.8"/>
	<line class="st2" x1="14.8" y1="18.5" x2="15.3" y2="19"/>
	<line class="st2" x1="9.8" y1="18.4" x2="10.3" y2="18.9"/>
	<line class="st2" x1="8.3" y1="13" x2="8.8" y2="13.5"/>
</g>
<g id="Frames-24px">
	<rect class="st3" width="24" height="24"/>
</g>
</svg>
