<svg xmlns="http://www.w3.org/2000/svg" width="24" height="24" viewBox="0 0 24 24">
  <title>gopro-2</title>
  <g id="Duotone">
    <rect x="0.5" y="1.5" width="22" height="17" fill="#fff"/>
    <rect x="0.5" y="16" width="22" height="2.5" fill="#cce7ff"/>
    <polygon points="8.5 3.5 2.5 8.5 8.5 8.5 8.5 3.5" fill="#cce7ff"/>
    <polygon points="20.5 4.75 12.5 9.25 16.5 11.5 20.5 9.25 20.5 4.75" fill="#cce7ff"/>
    <polygon points="1.5 20 1.5 23 3.5 22.5 3.5 20.5 1.5 20" fill="#cce7ff"/>
    <polygon points="1.5 20 1.5 23 3.5 22.5 3.5 20.5 1.5 20" fill="none" stroke="#1078ff" stroke-linecap="round" stroke-linejoin="round"/>
    <line x1="3.5" y1="21.5" x2="9.5" y2="21.5" fill="none" stroke="#1078ff" stroke-linecap="round" stroke-linejoin="round"/>
    <line x1="9.5" y1="18.5" x2="9.5" y2="23.5" fill="none" stroke="#1078ff" stroke-linecap="round" stroke-linejoin="round"/>
    <line x1="11.5" y1="18.5" x2="11.5" y2="23.5" fill="none" stroke="#1078ff" stroke-linecap="round" stroke-linejoin="round"/>
    <line x1="13.5" y1="18.5" x2="13.5" y2="23.5" fill="none" stroke="#1078ff" stroke-linecap="round" stroke-linejoin="round"/>
    <line x1="6.5" y1="23.5" x2="16.5" y2="23.5" fill="none" stroke="#1078ff" stroke-linecap="round" stroke-linejoin="round"/>
    <rect x="0.5" y="1.5" width="22" height="17" fill="none" stroke="#1078ff" stroke-linecap="round" stroke-linejoin="round"/>
    <rect x="2.5" y="3.5" width="6" height="5" fill="none" stroke="#1078ff" stroke-linecap="round" stroke-linejoin="round"/>
    <line x1="4.5" y1="5.5" x2="4.5" y2="6.5" fill="none" stroke="#1078ff" stroke-linecap="round" stroke-linejoin="round"/>
    <polygon points="20.5 9.25 16.5 11.5 12.5 9.25 12.5 4.75 16.5 2.5 20.5 4.75 20.5 9.25" fill="none" stroke="#1078ff" stroke-linecap="round" stroke-linejoin="round"/>
    <polygon points="18.5 8 16.5 9.25 14.5 8 14.5 6 16.5 4.75 18.5 6 18.5 8" fill="none" stroke="#1078ff" stroke-linecap="round" stroke-linejoin="round"/>
    <polyline points="22.5 10.5 16.5 14 10.5 10.5 10.5 1.5" fill="none" stroke="#1078ff" stroke-linecap="round" stroke-linejoin="round"/>
    <polygon points="7.5 15.25 5.5 16.5 3.5 15.25 3.5 13.25 5.5 12 7.5 13.25 7.5 15.25" fill="none" stroke="#1078ff" stroke-linecap="round" stroke-linejoin="round"/>
  </g>
  <g id="Frames-24px">
    <rect width="24" height="24" fill="none"/>
  </g>
</svg>
