<?xml version="1.0" encoding="utf-8"?>
<!-- Generator: Adobe Illustrator 21.0.2, SVG Export Plug-In . SVG Version: 6.00 Build 0)  -->
<svg version="1.1" xmlns="http://www.w3.org/2000/svg" xmlns:xlink="http://www.w3.org/1999/xlink" x="0px" y="0px"
	 viewBox="0 0 24 24" style="enable-background:new 0 0 24 24;" xml:space="preserve">
<style type="text/css">
	.st0{fill:#FFFFFF;}
	.st1{fill:#CCE7FF;}
	.st2{fill:none;stroke:#1078FF;stroke-linecap:round;stroke-linejoin:round;stroke-miterlimit:10;}
	.st3{fill:none;}
</style>
<g id="Duotone">
	<polygon class="st0" points="0.5,2.5 0.5,19.5 10.5,19.5 10.5,23.5 13.5,23.5 13.5,19.5 23.5,19.5 23.5,2.5 	"/>
	<rect x="10.5" y="22" class="st1" width="3" height="1.5"/>
	<polygon class="st1" points="16.5,7.7 19.5,9 16.5,10.3 16.5,14 12.5,16 8.5,14 8.5,13.6 6.7,14.9 7,15.5 5.9,15.5 0.5,19.5 
		23.5,19.5 23.5,2.5 	"/>
	<g>
		<g>
			<rect x="0.5" y="2.5" class="st2" width="23" height="17"/>
			<line class="st2" x1="6.5" y1="23.5" x2="17.5" y2="23.5"/>
			<line class="st2" x1="10.5" y1="19.5" x2="10.5" y2="23.5"/>
			<line class="st2" x1="13.5" y1="19.5" x2="13.5" y2="23.5"/>
		</g>
		<polygon class="st2" points="12.5,12 19.5,9 12.5,6 5.5,9 		"/>
		<polyline class="st2" points="8.5,10.3 8.5,14 12.5,16 16.5,14 16.5,10.3 		"/>
		<line class="st2" x1="5.5" y1="9" x2="5.5" y2="12.5"/>
		<polyline class="st2" points="5.5,12.5 4,15.5 7,15.5 5.5,12.5 		"/>
	</g>
</g>
<g id="Frames-24px">
	<rect class="st3" width="24" height="24"/>
</g>
</svg>
