<?xml version="1.0" encoding="utf-8"?>
<!-- Generator: Adobe Illustrator 21.0.2, SVG Export Plug-In . SVG Version: 6.00 Build 0)  -->
<svg version="1.1" xmlns="http://www.w3.org/2000/svg" xmlns:xlink="http://www.w3.org/1999/xlink" x="0px" y="0px"
	 viewBox="0 0 24 24" style="enable-background:new 0 0 24 24;" xml:space="preserve">
<style type="text/css">
	.st0{fill:#FFFFFF;}
	.st1{fill:none;stroke:#CCE7FF;stroke-linecap:round;stroke-linejoin:round;stroke-miterlimit:10;}
	.st2{fill:#CCE7FF;}
	.st3{fill:none;stroke:#1078FF;stroke-linecap:round;stroke-linejoin:round;stroke-miterlimit:10;}
	.st4{fill:#CCE7FF;stroke:#1078FF;stroke-linecap:round;stroke-linejoin:round;stroke-miterlimit:10;}
	.st5{fill:none;}
</style>
<g id="Duotone">
	<polygon class="st0" points="22.5,4.5 19.5,1.5 11.4,9.6 7,6.6 7,6.6 6.5,3.5 3.5,3.5 0.5,1.5 0.5,7 4.8,8.8 7.8,13.2 2.5,18.5 
		1,23 5.5,21.5 11.1,15.9 20.5,23.5 21.2,22.8 14,13 	"/>
	<polygon class="st2" points="6.7,6.9 6.5,5.5 3.5,5.5 0.5,3.5 0.5,7 4.8,8.8 	"/>
	<polygon class="st2" points="1,23 5.5,21.5 22.5,4.5 21,3 	"/>
	<line class="st3" x1="8.7" y1="7.8" x2="5.9" y2="10.6"/>
	<polygon class="st3" points="0.5,7 0.5,1.5 3.5,3.5 6.5,3.5 7,6.6 4.8,8.8 	"/>
	<polyline class="st3" points="11.4,9.6 7,6.6 4.8,8.8 7.8,13.2 	"/>
	<polyline class="st3" points="11.1,15.9 20.5,23.5 21.2,22.8 14,13 	"/>
	<line class="st3" x1="1" y1="23" x2="0.5" y2="23.5"/>
	<line class="st3" x1="22" y1="2" x2="21" y2="3"/>
	<polygon class="st3" points="2.5,18.5 19.5,1.5 22.5,4.5 5.5,21.5 1,23 	"/>
	<line class="st3" x1="5.5" y1="21.5" x2="2.5" y2="18.5"/>
	<polyline class="st3" points="21,6 16.5,1.5 11.5,6.5 	"/>
</g>
<g id="Frames-24px">
	<rect class="st5" width="24" height="24"/>
</g>
</svg>
