<?xml version="1.0" encoding="utf-8"?>
<!-- Generator: Adobe Illustrator 21.0.2, SVG Export Plug-In . SVG Version: 6.00 Build 0)  -->
<svg version="1.1" xmlns="http://www.w3.org/2000/svg" xmlns:xlink="http://www.w3.org/1999/xlink" x="0px" y="0px"
	 viewBox="0 0 24 24" style="enable-background:new 0 0 24 24;" xml:space="preserve">
<style type="text/css">
	.st0{fill:#FFFFFF;}
	.st1{fill:#CCE7FF;}
	.st2{fill:none;stroke:#1078FF;stroke-linecap:round;stroke-linejoin:round;stroke-miterlimit:10;}
	.st3{fill:#1078FF;}
	.st4{fill:none;}
</style>
<g id="Duotone">
	<g>
		<polygon class="st0" points="12,23.5 1.5,21.5 0.5,19 2.5,18 12,19.5 21,18 23.5,19 22,21.5 		"/>
	</g>
	<polygon class="st0" points="15,7.5 9.5,7.5 10.5,10.5 14,10.5 	"/>
	<polygon class="st0" points="5,2.5 6,0.5 11,2.5 12.5,7.5 9.5,7.5 7.5,3.5 	"/>
	<polygon class="st1" points="12,23.5 1.5,21.5 0.5,19 12,21.5 23.5,19 22,21.5 	"/>
	<polygon class="st1" points="18.5,13.5 18.5,8.5 15,7.5 14,10.5 10.5,10.5 9.5,7.5 7.5,3.5 5,2.5 3,3 0.5,7.5 1.5,8.5 5,7.5 
		6.5,12.5 2.5,18 5.5,18.5 8,15.5 12,14 16,15.5 18,18.5 21,18 	"/>
	<polygon class="st2" points="2.5,18 6.5,12.5 5,7.5 1.5,8.5 0.5,7.5 3,3 5,2.5 7.5,3.5 9.5,7.5 15,7.5 18.5,8.5 18.5,13.5 21,18 
		18,18.5 16,15.5 12,14 8,15.5 5.5,18.5 	"/>
	<polyline class="st2" points="18.5,8.5 22,10.5 23.5,10 	"/>
	<polygon class="st2" points="15,7.5 9.5,7.5 10.5,10.5 14,10.5 	"/>
	<g>
		<polygon class="st2" points="12,23.5 1.5,21.5 0.5,19 2.5,18 12,19.5 21,18 23.5,19 22,21.5 		"/>
	</g>
	<polyline class="st2" points="5,2.5 6,0.5 11,2.5 12.5,7.5 	"/>
	<line class="st2" x1="4.5" y1="4.5" x2="4.5" y2="5.5"/>
	<g>
		<path class="st3" d="M4.5,19.8L4.5,19.8L4.5,19.8 M4,19c-0.1,0-0.1,0-0.2,0.1l-0.7,0.7c-0.1,0.1-0.1,0.3,0,0.4l0.7,0.7
			C3.9,21,3.9,21,4,21c0.1,0,0.1,0,0.2-0.1l0.7-0.7c0.1-0.1,0.1-0.3,0-0.4l-0.7-0.7C4.1,19,4.1,19,4,19L4,19z"/>
	</g>
	<g>
		<path class="st3" d="M20.5,19.8L20.5,19.8L20.5,19.8 M20,19c-0.1,0-0.1,0-0.2,0.1l-0.7,0.7c-0.1,0.1-0.1,0.3,0,0.4l0.7,0.7
			C19.9,21,19.9,21,20,21c0.1,0,0.1,0,0.2-0.1l0.7-0.7c0.1-0.1,0.1-0.3,0-0.4l-0.7-0.7C20.1,19,20.1,19,20,19L20,19z"/>
	</g>
</g>
<g id="Frames-24px">
	<rect class="st4" width="24" height="24"/>
</g>
</svg>
