<?xml version="1.0" encoding="utf-8"?>
<!-- Generator: Adobe Illustrator 21.0.2, SVG Export Plug-In . SVG Version: 6.00 Build 0)  -->
<svg version="1.1" xmlns="http://www.w3.org/2000/svg" xmlns:xlink="http://www.w3.org/1999/xlink" x="0px" y="0px"
	 viewBox="0 0 24 24" style="enable-background:new 0 0 24 24;" xml:space="preserve">
<style type="text/css">
	.st0{fill:#FFFFFF;}
	.st1{fill:#CCE7FF;}
	.st2{fill:none;stroke:#1078FF;stroke-linecap:round;stroke-linejoin:round;stroke-miterlimit:10;}
	.st3{fill:none;}
</style>
<g id="Duotone">
	<polygon class="st0" points="21,21 23.5,20.5 20,3 12,0.5 4,3 0.5,20.5 3,21 6.5,10 6.5,19 5.5,23.5 18.5,23.5 17.5,19 17.5,10 	
		"/>
	<polygon class="st1" points="16.1,1.8 12,0.5 7.9,1.8 11.9,11 	"/>
	<polygon class="st1" points="5.9,21.5 5.5,23.5 18.5,23.5 18.1,21.5 	"/>
	<g>
		<polyline class="st2" points="4,3 0.5,20.5 3,21 6.5,10 		"/>
		<polyline class="st2" points="20,3 23.5,20.5 21,21 17.5,10 		"/>
		<line class="st2" x1="7.9" y1="1.8" x2="11.9" y2="11"/>
		<polygon class="st2" points="18.5,23.5 17.5,19 17.5,10 20,3 12,0.5 4,3 6.5,10 6.5,19 5.5,23.5 		"/>
		<polyline class="st2" points="16.1,1.8 10.5,14 10.5,23.5 		"/>
		<line class="st2" x1="12.5" y1="15.5" x2="12.5" y2="16.5"/>
		<line class="st2" x1="12.5" y1="18.5" x2="12.5" y2="19.5"/>
	</g>
</g>
<g id="Frames-24px">
	<rect class="st3" width="24" height="24"/>
</g>
</svg>
