<svg xmlns="http://www.w3.org/2000/svg" width="24" height="24" viewBox="0 0 24 24">
  <title>tennis</title>
  <g id="Duotone">
    <polygon points="4.035 6 1.207 5.45 0.5 2.621 2.621 0.5 5.45 1.207 6.157 4.035 4.035 6" fill="#fff"/>
    <polyline points="6.54 17.264 8.905 10.594 10.219 13.585 13.405 14.641 6.54 17.264" fill="#fff"/>
    <polygon points="5.45 1.207 1.207 5.45 4.035 6 6.157 4.035 5.45 1.207" fill="#cce7ff"/>
    <polygon points="1.805 23.5 0.5 23.5 0.5 22.141 3.572 18.959 4.987 20.374 1.805 23.5" fill="#cce7ff"/>
    <line x1="13.85" y1="2.367" x2="21.532" y2="10.049" fill="none" stroke="#1078ff" stroke-linecap="round" stroke-linejoin="round"/>
    <line x1="10.926" y1="3.684" x2="20.118" y2="12.877" fill="none" stroke="#1078ff" stroke-linecap="round" stroke-linejoin="round"/>
    <line x1="9.329" y1="6.33" x2="17.29" y2="14.292" fill="none" stroke="#1078ff" stroke-linecap="round" stroke-linejoin="round"/>
    <line x1="20.826" y1="2.978" x2="10.219" y2="13.585" fill="none" stroke="#1078ff" stroke-linecap="round" stroke-linejoin="round"/>
    <line x1="8.905" y1="10.594" x2="17.543" y2="2.018" fill="none" stroke="#1078ff" stroke-linecap="round" stroke-linejoin="round"/>
    <line x1="21.881" y1="6.164" x2="13.405" y2="14.641" fill="none" stroke="#1078ff" stroke-linecap="round" stroke-linejoin="round"/>
    <polygon points="20.118 12.877 15.271 15.26 10.219 13.585 8 8.533 10.926 3.684 15.774 1.5 20.826 2.978 22.5 8.03 20.118 12.877" fill="none" stroke="#1078ff" stroke-linecap="round" stroke-linejoin="round"/>
    <polygon points="1.805 23.5 0.5 23.5 0.5 22.141 3.572 18.959 4.987 20.374 1.805 23.5" fill="none" stroke="#1078ff" stroke-linecap="round" stroke-linejoin="round"/>
    <polygon points="4.035 6 1.207 5.45 0.5 2.621 2.621 0.5 5.45 1.207 6.157 4.035 4.035 6" fill="none" stroke="#1078ff" stroke-linecap="round" stroke-linejoin="round"/>
    <polyline points="13.405 14.641 6.54 17.264 4.209 19.596 6.54 17.264 8.905 10.594" fill="none" stroke="#1078ff" stroke-linecap="round" stroke-linejoin="round"/>
  </g>
  <g id="Frames-24px">
    <rect width="24" height="24" fill="none"/>
  </g>
</svg>
