<svg xmlns="http://www.w3.org/2000/svg" width="24" height="24" viewBox="0 0 24 24">
  <title>wood-stump-1</title>
  <g id="Duotone">
    <polygon points="10.5 18.5 5.5 21.5 0.5 18.5 0.5 10.5 5.5 7.5 10.5 10.5 10.5 18.5" fill="#fff"/>
    <polygon points="5.5 21.5 20.5 21.5 23.5 18.5 23.5 10.5 20.5 7.5 5.5 7.5 5.5 21.5" fill="#fff"/>
    <polygon points="10.5 18.5 5.5 21.5 20.5 21.5 23.5 18.5 23.5 10.5 10.5 10.5 10.5 18.5" fill="#cce7ff"/>
    <polygon points="10.5 18.5 5.5 21.5 0.5 18.5 0.5 10.5 5.5 7.5 10.5 10.5 10.5 18.5" fill="none" stroke="#1078ff" stroke-linecap="round" stroke-linejoin="round"/>
    <polyline points="5.5 21.5 20.5 21.5 23.5 18.5 23.5 10.5 20.5 7.5 5.5 7.5" fill="none" stroke="#1078ff" stroke-linecap="round" stroke-linejoin="round"/>
    <line x1="14.5" y1="10.5" x2="22.5" y2="2.5" fill="none" stroke="#1078ff" stroke-linecap="round" stroke-linejoin="round"/>
    <line x1="19.5" y1="5.5" x2="19.5" y2="1.5" fill="none" stroke="#1078ff" stroke-linecap="round" stroke-linejoin="round"/>
    <polyline points="5.5 11 8.5 12.5 8.5 17 5.5 18.5 2.5 17 2.5 15.5" fill="none" stroke="#1078ff" stroke-linecap="round" stroke-linejoin="round"/>
    <line x1="5.5" y1="15.5" x2="5.5" y2="13.5" fill="none" stroke="#1078ff" stroke-linecap="round" stroke-linejoin="round"/>
  </g>
  <g id="Frames-24px">
    <rect width="24" height="24" fill="none"/>
  </g>
</svg>
