<?xml version="1.0" encoding="utf-8"?>
<!-- Generator: Adobe Illustrator 21.0.2, SVG Export Plug-In . SVG Version: 6.00 Build 0)  -->
<svg version="1.1" xmlns="http://www.w3.org/2000/svg" xmlns:xlink="http://www.w3.org/1999/xlink" x="0px" y="0px" width="24px"
	 height="24px" viewBox="0 0 24 24" enable-background="new 0 0 24 24" xml:space="preserve">
<g id="Black">
	<g>
		<rect x="9.5" y="10.5" fill="none" stroke="#58595B" stroke-linejoin="round" stroke-miterlimit="10" width="4" height="4"/>
		<line fill="none" stroke="#58595B" stroke-linejoin="round" stroke-miterlimit="10" x1="9.5" y1="12.5" x2="13.5" y2="12.5"/>
		
			<line fill="none" stroke="#58595B" stroke-linecap="round" stroke-linejoin="round" stroke-miterlimit="10" x1="11.5" y1="14.5" x2="11.5" y2="15.5"/>
		
			<line fill="none" stroke="#58595B" stroke-linecap="round" stroke-linejoin="round" stroke-miterlimit="10" x1="19.5" y1="5.5" x2="21.5" y2="5.5"/>
		
			<line fill="none" stroke="#58595B" stroke-linecap="round" stroke-linejoin="round" stroke-miterlimit="10" x1="18.586" y1="9" x2="20" y2="10"/>
		
			<line fill="none" stroke="#58595B" stroke-linecap="round" stroke-linejoin="round" stroke-miterlimit="10" x1="18.586" y1="1.5" x2="20" y2="0.586"/>
		
			<line fill="none" stroke="#58595B" stroke-linecap="round" stroke-linejoin="round" stroke-miterlimit="10" x1="3.5" y1="5.5" x2="1.5" y2="5.5"/>
		
			<line fill="none" stroke="#58595B" stroke-linecap="round" stroke-linejoin="round" stroke-miterlimit="10" x1="4.414" y1="9" x2="3" y2="10"/>
		
			<line fill="none" stroke="#58595B" stroke-linecap="round" stroke-linejoin="round" stroke-miterlimit="10" x1="4.5" y1="1.5" x2="3.086" y2="0.586"/>
		<polyline fill="none" stroke="#58595B" stroke-linecap="round" stroke-linejoin="round" stroke-miterlimit="10" points="
			21.5,23.5 21.5,21 11.5,18 1.5,21 1.5,23.5 		"/>
		<polyline fill="none" stroke="#58595B" stroke-linecap="round" stroke-linejoin="round" stroke-miterlimit="10" points="
			5.954,19.664 5,22 8,23.5 		"/>
		
			<line fill="none" stroke="#58595B" stroke-linecap="round" stroke-linejoin="round" stroke-miterlimit="10" x1="11.5" y1="23.5" x2="8.453" y2="18.914"/>
		<polyline fill="none" stroke="#58595B" stroke-linecap="round" stroke-linejoin="round" stroke-miterlimit="10" points="
			17.117,19.685 18.062,22 15.062,23.5 		"/>
		
			<line fill="none" stroke="#58595B" stroke-linecap="round" stroke-linejoin="round" stroke-miterlimit="10" x1="11.562" y1="23.5" x2="14.599" y2="18.93"/>
		<polyline fill="none" stroke="#58595B" stroke-linejoin="round" stroke-miterlimit="10" points="9.931,21.138 11.5,18 
			13.096,21.192 		"/>
		<polyline fill="none" stroke="#58595B" stroke-linecap="round" stroke-linejoin="round" stroke-miterlimit="10" points="
			11.5,10.5 11.5,6.5 13,5 		"/>
		
			<line fill="none" stroke="#58595B" stroke-linecap="round" stroke-linejoin="round" stroke-miterlimit="10" x1="11.5" y1="6.5" x2="10" y2="5"/>
		<polyline fill="none" stroke="#58595B" stroke-linecap="round" stroke-linejoin="round" stroke-miterlimit="10" points="9.5,10.5 
			6.5,8.85 6.5,3.15 11.5,0.5 16.5,3.15 16.5,8.85 13.5,10.5 		"/>
	</g>
</g>
<g id="Frames-24px">
	<rect fill="none" width="24" height="24"/>
</g>
</svg>
