<?xml version="1.0" encoding="utf-8"?>
<!-- Generator: Adobe Illustrator 21.0.2, SVG Export Plug-In . SVG Version: 6.00 Build 0)  -->
<svg version="1.1" xmlns="http://www.w3.org/2000/svg" xmlns:xlink="http://www.w3.org/1999/xlink" x="0px" y="0px" width="24px"
	 height="24px" viewBox="0 0 24 24" enable-background="new 0 0 24 24" xml:space="preserve">
<g id="Black">
	<g>
		<g>
			<polygon fill="none" stroke="#58595B" stroke-linecap="round" stroke-linejoin="round" stroke-miterlimit="10" points="
				9.5,13.382 11.5,12.25 13.5,13.382 13.5,15.618 11.5,16.75 9.5,15.618 			"/>
			<polygon fill="none" stroke="#58595B" stroke-linecap="round" stroke-linejoin="round" stroke-miterlimit="10" points="
				15.5,13.513 16.5,12.417 15.738,11.125 14.26,11.478 12.582,10.579 12.25,9.5 10.75,9.5 10.418,10.579 8.74,11.478 7.262,11.125 
				6.5,12.417 7.5,13.513 7.5,15.487 6.5,16.583 7.262,17.875 8.74,17.522 10.418,18.421 10.75,19.5 12.25,19.5 12.582,18.421 
				14.26,17.522 15.738,17.875 16.5,16.583 15.5,15.487 			"/>
		</g>
		<g>
			
				<rect x="0.5" y="2.5" fill="none" stroke="#58595B" stroke-linecap="round" stroke-linejoin="round" stroke-miterlimit="10" width="22" height="20"/>
			
				<line fill="none" stroke="#58595B" stroke-linecap="round" stroke-linejoin="round" stroke-miterlimit="10" x1="0.5" y1="6.5" x2="22.5" y2="6.5"/>
			
				<line fill="none" stroke="#58595B" stroke-linecap="round" stroke-linejoin="round" stroke-miterlimit="10" x1="2.5" y1="4.5" x2="3.5" y2="4.5"/>
			
				<line fill="none" stroke="#58595B" stroke-linecap="round" stroke-linejoin="round" stroke-miterlimit="10" x1="5.5" y1="4.5" x2="6.5" y2="4.5"/>
			
				<line fill="none" stroke="#58595B" stroke-linecap="round" stroke-linejoin="round" stroke-miterlimit="10" x1="8.5" y1="4.5" x2="9.5" y2="4.5"/>
		</g>
	</g>
</g>
<g id="Frames-24px">
	<rect fill="none" width="24" height="24"/>
</g>
</svg>
