<?xml version="1.0" encoding="utf-8"?>
<!-- Generator: Adobe Illustrator 21.0.2, SVG Export Plug-In . SVG Version: 6.00 Build 0)  -->
<svg version="1.1" xmlns="http://www.w3.org/2000/svg" xmlns:xlink="http://www.w3.org/1999/xlink" x="0px" y="0px" width="24px"
	 height="24px" viewBox="0 0 24 24" enable-background="new 0 0 24 24" xml:space="preserve">
<g id="Black">
	<g>
		<polygon fill="none" stroke="#58595B" stroke-linecap="round" stroke-linejoin="round" stroke-miterlimit="10" points="18,23.5 
			3.5,23.5 3.5,0.5 20.5,0.5 20.5,21 		"/>
		<polygon fill="none" stroke="#58595B" stroke-linecap="round" stroke-linejoin="round" stroke-miterlimit="10" points="15.5,14.5 
			6.5,14.5 6.5,3.5 17.5,3.5 17.5,12.5 		"/>
		
			<line fill="none" stroke="#58595B" stroke-linecap="round" stroke-linejoin="round" stroke-miterlimit="10" x1="6.5" y1="19.5" x2="10.5" y2="19.5"/>
		
			<line fill="none" stroke="#58595B" stroke-linecap="round" stroke-linejoin="round" stroke-miterlimit="10" x1="8.5" y1="17.516" x2="8.5" y2="21.484"/>
		<g>
			<path fill="#58595B" d="M14.01,20.288h0.005H14.01 M13.5,19.5c-0.072,0-0.143,0.027-0.197,0.081l-0.721,0.721
				c-0.108,0.108-0.108,0.286,0,0.395l0.721,0.721c0.054,0.054,0.126,0.081,0.197,0.081c0.071,0,0.143-0.027,0.197-0.081
				l0.721-0.721c0.108-0.108,0.108-0.286,0-0.395l-0.721-0.721C13.643,19.527,13.571,19.5,13.5,19.5L13.5,19.5z"/>
		</g>
		<g>
			<path fill="#58595B" d="M17.01,18.288h0.005H17.01 M16.5,17.5c-0.072,0-0.143,0.027-0.197,0.081l-0.721,0.721
				c-0.108,0.108-0.108,0.286,0,0.395l0.721,0.721c0.054,0.054,0.126,0.081,0.197,0.081c0.071,0,0.143-0.027,0.197-0.081
				l0.721-0.721c0.108-0.108,0.108-0.286,0-0.395l-0.721-0.721C16.643,17.527,16.571,17.5,16.5,17.5L16.5,17.5z"/>
		</g>
	</g>
</g>
<g id="Frames-24px">
	<rect fill="none" width="24" height="24"/>
</g>
</svg>
