<?xml version="1.0" encoding="utf-8"?>
<!-- Generator: Adobe Illustrator 21.0.2, SVG Export Plug-In . SVG Version: 6.00 Build 0)  -->
<svg version="1.1" xmlns="http://www.w3.org/2000/svg" xmlns:xlink="http://www.w3.org/1999/xlink" x="0px" y="0px" width="24px"
	 height="24px" viewBox="0 0 24 24" enable-background="new 0 0 24 24" xml:space="preserve">
<g id="Black">
	<g>
		<polyline fill="none" stroke="#58595B" stroke-linecap="round" stroke-linejoin="round" stroke-miterlimit="10" points="
			19.5,20.615 19.5,15.5 17.25,15.5 15,15.5 13,11.75 15,8.5 18,8.5 19,9.5 22.538,9.5 		"/>
		<polygon fill="none" stroke="#58595B" stroke-linecap="round" stroke-linejoin="round" stroke-miterlimit="10" points="12,23.5 
			20.306,20.306 23.5,12 20.306,3.694 12,0.5 3.694,3.694 0.5,12 3.694,20.306 		"/>
		<polyline fill="none" stroke="#58595B" stroke-linecap="round" stroke-linejoin="round" stroke-miterlimit="10" points="20.423,4 
			17.5,4 17.5,5 16.5,6.5 14.5,6.5 14.5,4 15.5,4 16.403,2.194 		"/>
		<polyline fill="none" stroke="#58595B" stroke-linecap="round" stroke-linejoin="round" stroke-miterlimit="10" points="
			7.603,2.191 6,7 8.5,8 8.5,11 6.5,12 5.5,11.5 5.5,9.5 3.5,11 3.5,13.5 5,15.5 9,15.5 11.5,19 9.5,22.5 		"/>
	</g>
</g>
<g id="Frames-24px">
	<rect fill="none" width="24" height="24"/>
</g>
</svg>
