<?xml version="1.0" encoding="utf-8"?>
<!-- Generator: Adobe Illustrator 21.0.2, SVG Export Plug-In . SVG Version: 6.00 Build 0)  -->
<svg version="1.1" xmlns="http://www.w3.org/2000/svg" xmlns:xlink="http://www.w3.org/1999/xlink" x="0px" y="0px" width="24px"
	 height="24px" viewBox="0 0 24 24" enable-background="new 0 0 24 24" xml:space="preserve">
<g id="Black">
	<g>
		<g>
			<polyline fill="none" stroke="#58595B" stroke-linecap="round" stroke-linejoin="round" stroke-miterlimit="10" points="
				20.5,21.5 20.5,10.5 2.5,10.5 2.5,21.5 			"/>
			<polygon fill="none" stroke="#58595B" stroke-linecap="round" stroke-linejoin="round" stroke-miterlimit="10" points="0.5,21.5 
				22.5,21.5 20.5,23.5 3,23.5 			"/>
		</g>
		<g>
			<polyline fill="none" stroke="#58595B" stroke-linecap="round" stroke-linejoin="round" stroke-miterlimit="10" points="5,5.5 
				8.808,1.5 14.192,1.5 18,5.5 			"/>
			<polyline fill="none" stroke="#58595B" stroke-linecap="round" stroke-linejoin="round" stroke-miterlimit="10" points="
				16.103,6.23 13.364,3.5 9.636,3.5 6.897,6.23 			"/>
			<polyline fill="none" stroke="#58595B" stroke-linecap="round" stroke-linejoin="round" stroke-miterlimit="10" points="
				14.047,7.047 12.5,5.5 10.5,5.5 8.953,7.047 			"/>
			<g>
				<path fill="#58595B" d="M12.066,7.766h0.005H12.066 M11.5,7.001c-0.051,0-0.102,0.02-0.141,0.059l-0.799,0.799
					c-0.078,0.078-0.078,0.205,0,0.283l0.799,0.799c0.039,0.039,0.09,0.059,0.141,0.059s0.102-0.019,0.141-0.059l0.799-0.799
					c0.078-0.078,0.078-0.205,0-0.283l-0.799-0.799C11.602,7.02,11.551,7.001,11.5,7.001L11.5,7.001z"/>
			</g>
		</g>
	</g>
</g>
<g id="Frames-24px">
	<rect fill="none" width="24" height="24"/>
</g>
</svg>
