<?xml version="1.0" encoding="utf-8"?>
<!-- Generator: Adobe Illustrator 21.0.2, SVG Export Plug-In . SVG Version: 6.00 Build 0)  -->
<svg version="1.1" xmlns="http://www.w3.org/2000/svg" xmlns:xlink="http://www.w3.org/1999/xlink" x="0px" y="0px" width="24px"
	 height="24px" viewBox="0 0 24 24" enable-background="new 0 0 24 24" xml:space="preserve">
<g id="Black">
	<g>
		<polygon fill="none" stroke="#58595B" stroke-linecap="round" stroke-linejoin="round" stroke-miterlimit="10" points="
			6.48,12.52 6,15.5 4.02,15.98 0.5,19.5 0.5,23.5 4.5,23.5 8.02,19.98 8.5,18 11.48,17.52 		"/>
		
			<line fill="none" stroke="#58595B" stroke-linecap="round" stroke-linejoin="round" stroke-miterlimit="10" x1="8.98" y1="15.02" x2="18" y2="6"/>
		<polygon fill="none" stroke="#58595B" stroke-linecap="round" stroke-linejoin="round" stroke-miterlimit="10" points="18,6 22,5 
			23.5,2 22,0.5 19,2 		"/>
		<polyline fill="none" stroke="#58595B" stroke-linecap="round" stroke-linejoin="round" stroke-miterlimit="10" points="11.5,9.5 
			8,6 7.5,2.5 5.5,0.5 2.5,0.5 4.5,2.5 4.5,4.5 2.5,4.5 0.5,2.5 0.5,5.5 2,7.5 6,8 9.5,11.5 		"/>
		<polyline fill="none" stroke="#58595B" stroke-linecap="round" stroke-linejoin="round" stroke-miterlimit="10" points="
			14.5,12.5 18,16 21.5,16.5 23.5,18.5 23.5,21.5 21.5,19.5 19.5,19.5 19.5,21.5 21.5,23.5 18.5,23.5 16.5,22 16,18 12.5,14.5 		"/>
		
			<line fill="none" stroke="#58595B" stroke-linecap="round" stroke-linejoin="round" stroke-miterlimit="10" x1="6" y1="15.5" x2="8.5" y2="18"/>
	</g>
</g>
<g id="Frames-24px">
	<rect fill="none" width="24" height="24"/>
</g>
</svg>
