<?xml version="1.0" encoding="utf-8"?>
<!-- Generator: Adobe Illustrator 21.0.2, SVG Export Plug-In . SVG Version: 6.00 Build 0)  -->
<svg version="1.1" xmlns="http://www.w3.org/2000/svg" xmlns:xlink="http://www.w3.org/1999/xlink" x="0px" y="0px"
	 viewBox="0 0 24 24" style="enable-background:new 0 0 24 24;" xml:space="preserve">
<style type="text/css">
	.st0{fill:#FFFFFF;}
	.st1{fill:#CCE7FF;}
	.st2{fill:#CCE7FF;stroke:#1078FF;stroke-linejoin:round;stroke-miterlimit:10;}
	.st3{fill:none;stroke:#1078FF;stroke-linecap:round;stroke-linejoin:round;stroke-miterlimit:10;}
	.st4{fill:none;stroke:#1078FF;stroke-linejoin:round;stroke-miterlimit:10;}
	.st5{fill:none;stroke:#1078FF;stroke-width:0.9847;stroke-linecap:round;stroke-linejoin:round;stroke-miterlimit:10;}
	.st6{fill:none;stroke:#1078FF;stroke-linecap:round;stroke-miterlimit:10;}
	.st7{fill:none;stroke:#1078FF;stroke-miterlimit:10;}
	.st8{fill:none;}
</style>
<g id="Duotone">
	<polygon class="st0" points="11.5,0.5 6.5,3.1 6.5,8.9 9.5,10.5 9.5,14.5 13.5,14.5 13.5,10.5 16.5,8.9 16.5,3.1 	"/>
	<polygon class="st0" points="21.5,23.5 21.5,21 11.5,18 1.5,21 1.5,23.5 	"/>
	<polygon class="st1" points="11.5,14.5 13.5,14.5 13.5,10.5 16.5,8.9 16.5,3.1 11.5,0.5 	"/>
	<polygon class="st1" points="11.5,23.5 11.6,23.5 13.1,21.2 11.5,18 9.9,21.1 	"/>
	<g>
		<line class="st4" x1="9.5" y1="12.5" x2="13.5" y2="12.5"/>
		<line class="st3" x1="11.5" y1="14.5" x2="11.5" y2="15.5"/>
		<line class="st3" x1="19.5" y1="5.5" x2="21.5" y2="5.5"/>
		<line class="st3" x1="18.6" y1="9" x2="20" y2="10"/>
		<line class="st3" x1="18.6" y1="1.5" x2="20" y2="0.6"/>
		<line class="st3" x1="3.5" y1="5.5" x2="1.5" y2="5.5"/>
		<line class="st3" x1="4.4" y1="9" x2="3" y2="10"/>
		<line class="st3" x1="4.5" y1="1.5" x2="3.1" y2="0.6"/>
		<polyline class="st3" points="6,19.7 5,22 8,23.5 		"/>
		<polyline class="st3" points="17.1,19.7 18.1,22 15.1,23.5 		"/>
		<polyline class="st3" points="11.5,10.5 11.5,6.5 13,5 		"/>
		<line class="st3" x1="11.5" y1="6.5" x2="10" y2="5"/>
		<polyline class="st3" points="21.5,23.5 21.5,21 11.5,18 1.5,21 1.5,23.5 		"/>
		<rect x="9.5" y="10.5" class="st4" width="4" height="4"/>
		<polyline class="st3" points="9.5,10.5 6.5,8.9 6.5,3.1 11.5,0.5 16.5,3.1 16.5,8.9 13.5,10.5 		"/>
		<line class="st3" x1="11.5" y1="23.5" x2="8.5" y2="18.9"/>
		<line class="st3" x1="11.6" y1="23.5" x2="14.6" y2="18.9"/>
		<polyline class="st4" points="9.9,21.1 11.5,18 13.1,21.2 		"/>
	</g>
</g>
<g id="Frames-24px">
	<rect class="st8" width="24" height="24"/>
</g>
</svg>
