<?xml version="1.0" encoding="utf-8"?>
<!-- Generator: Adobe Illustrator 21.0.2, SVG Export Plug-In . SVG Version: 6.00 Build 0)  -->
<svg version="1.1" xmlns="http://www.w3.org/2000/svg" xmlns:xlink="http://www.w3.org/1999/xlink" x="0px" y="0px"
	 viewBox="0 0 24 24" style="enable-background:new 0 0 24 24;" xml:space="preserve">
<style type="text/css">
	.st0{fill:#FFFFFF;}
	.st1{fill:#CCE7FF;}
	.st2{fill:#CCE7FF;stroke:#1078FF;stroke-linejoin:round;stroke-miterlimit:10;}
	.st3{fill:none;stroke:#1078FF;stroke-linecap:round;stroke-linejoin:round;stroke-miterlimit:10;}
	.st4{fill:none;stroke:#1078FF;stroke-linejoin:round;stroke-miterlimit:10;}
	.st5{fill:none;stroke:#1078FF;stroke-width:0.9847;stroke-linecap:round;stroke-linejoin:round;stroke-miterlimit:10;}
	.st6{fill:none;stroke:#1078FF;stroke-linecap:round;stroke-miterlimit:10;}
	.st7{fill:none;stroke:#1078FF;stroke-miterlimit:10;}
	.st8{fill:none;}
</style>
<g id="Duotone">
	<g>
		<polygon class="st0" points="0.5,15.5 3,13 0.5,10.5 		"/>
		<polygon class="st0" points="17.5,8 16.5,6.5 8,6.5 3,13 5.5,16 5.5,16 4,18.5 7.5,18.5 8.4,17.5 8.4,17.5 15,18.5 17.5,17 
			12.5,13 		"/>
	</g>
	<polygon class="st0" points="18,13 21.5,14.5 23.5,13 21.5,11.5 	"/>
	<polygon class="st1" points="5.5,16 6.5,14.5 5.5,14 3.8,12 3,13 5.5,16 	"/>
	<polygon class="st1" points="16.1,15.9 15,16.5 9.8,15.7 8.4,17.5 8.4,17.5 15,18.5 17.5,17 	"/>
	<g>
		<polyline class="st3" points="16.5,14 18,13 16.5,12 		"/>
		<line class="st3" x1="11.5" y1="9.5" x2="11.5" y2="10.5"/>
		<polygon class="st3" points="3,13 0.5,10.5 0.5,15.5 		"/>
		<polyline class="st3" points="8.4,17.5 15,18.5 17.5,17 12.5,13 17.5,8 16.5,6.5 8,6.5 3,13 5.5,16 		"/>
		<polygon class="st3" points="18,13 21.5,14.5 23.5,13 21.5,11.5 		"/>
		<polyline class="st3" points="6.5,14.5 4,18.5 7.5,18.5 10,15.5 		"/>
	</g>
</g>
<g id="Frames-24px">
	<rect class="st8" width="24" height="24"/>
</g>
</svg>
