<?xml version="1.0" encoding="utf-8"?>
<!-- Generator: Adobe Illustrator 21.0.2, SVG Export Plug-In . SVG Version: 6.00 Build 0)  -->
<svg version="1.1" xmlns="http://www.w3.org/2000/svg" xmlns:xlink="http://www.w3.org/1999/xlink" x="0px" y="0px"
	 viewBox="0 0 24 24" style="enable-background:new 0 0 24 24;" xml:space="preserve">
<style type="text/css">
	.st0{fill:#FFFFFF;}
	.st1{fill:#CCE7FF;}
	.st2{fill:none;stroke:#1078FF;stroke-linecap:round;stroke-linejoin:round;stroke-miterlimit:10;}
	.st3{fill:none;}
</style>
<g id="Duotone">
	<polygon class="st0" points="18,11.5 19,6.5 14,6.5 15,11.5 2,11.5 6,19.5 18,19.5 22,11.5 	"/>
	<polygon class="st1" points="5,17.5 6,19.5 18,19.5 19,17.5 	"/>
	<polygon class="st1" points="11.5,13.5 11.5,15.5 20,15.5 21,13.5 	"/>
	<g>
		<line class="st2" x1="0.5" y1="11.5" x2="23.5" y2="11.5"/>
		<polyline class="st2" points="2,11.5 6,19.5 18,19.5 22,11.5 		"/>
		<line class="st2" x1="6" y1="19.5" x2="4" y2="23.5"/>
		<line class="st2" x1="18" y1="19.5" x2="20" y2="23.5"/>
		<line class="st2" x1="11.5" y1="11.5" x2="11.5" y2="19.5"/>
		<line class="st2" x1="11.5" y1="15.5" x2="20" y2="15.5"/>
		<line class="st2" x1="6.5" y1="14.5" x2="8.5" y2="14.5"/>
		<polygon class="st2" points="18,11.5 19,6.5 14,6.5 15,11.5 		"/>
		<line class="st2" x1="16" y1="6.5" x2="15" y2="3.5"/>
		<line class="st2" x1="17" y1="6.5" x2="18" y2="2"/>
	</g>
</g>
<g id="Frames-24px">
	<rect class="st3" width="24" height="24"/>
</g>
</svg>
