<svg xmlns="http://www.w3.org/2000/svg" width="24" height="24" viewBox="0 0 24 24">
  <title>delivery-truck-timeout</title>
  <g id="Duotone">
    <polygon points="20 9.5 15.5 9.5 15.5 7.5 9.5 7.5 9.5 4.25 5.5 2 1.5 4.25 1.5 8.75 2.5 9.313 2.5 17.5 15.5 17.5 23.5 17.5 23.5 15.5 20 9.5" fill="#fff"/>
    <polygon points="17.5 14.5 22.864 14.5 21.167 11.5 17.5 14.5" fill="#cce7ff"/>
    <polygon points="17.5 17.5 17.5 9.5 15.5 9.5 15.5 17.5 2.5 17.5 2.5 19.5 6.5 19.5 6.5 21 8 22 9.5 21 9.5 19.5 17.5 19.5 17.5 21 19 22 20.5 21 20.5 19.5 23.5 19.5 23.5 17.5 17.5 17.5" fill="#cce7ff"/>
    <polygon points="9.5 4.25 9.5 8.75 5.5 11 1.5 8.75 9.5 4.25" fill="#cce7ff"/>
    <g>
      <polygon points="6.5 21 8 22 9.5 21 9.5 19.5 8 18.5 6.5 19.5 6.5 21" fill="none" stroke="#1078ff" stroke-linejoin="round"/>
      <polygon points="17.5 21 19 22 20.5 21 20.5 19.5 19 18.5 17.5 19.5 17.5 21" fill="none" stroke="#1078ff" stroke-linejoin="round"/>
      <polyline points="2.5 12.5 2.5 17.5 15.5 17.5 15.5 7.5 11.5 7.5" fill="none" stroke="#1078ff" stroke-linecap="round" stroke-linejoin="round"/>
      <polyline points="22.5 19.5 23.5 19.5 23.5 17.5 23.5 15.5 20 9.5 15.5 9.5" fill="none" stroke="#1078ff" stroke-linecap="round" stroke-linejoin="round"/>
      <polyline points="21.167 11.5 17.5 11.5 17.5 14.5 22.864 14.5" fill="none" stroke="#1078ff" stroke-linecap="round" stroke-linejoin="round"/>
      <line x1="23.5" y1="17.5" x2="15.5" y2="17.5" fill="none" stroke="#1078ff" stroke-linecap="round" stroke-linejoin="round"/>
      <line x1="15.5" y1="19.5" x2="11.5" y2="19.5" fill="none" stroke="#1078ff" stroke-linecap="round" stroke-linejoin="round"/>
      <line x1="4.5" y1="19.5" x2="2.5" y2="19.5" fill="none" stroke="#1078ff" stroke-linecap="round" stroke-linejoin="round"/>
      <g>
        <polyline points="5.5 4.5 5.5 7.5 7.5 7.5" fill="none" stroke="#1078ff" stroke-linecap="round" stroke-linejoin="round"/>
        <polygon points="9.5 8.75 5.5 11 1.5 8.75 1.5 4.25 5.5 2 9.5 4.25 9.5 8.75" fill="none" stroke="#1078ff" stroke-linecap="round" stroke-linejoin="round"/>
      </g>
    </g>
  </g>
  <g id="Frames-24px">
    <rect width="24" height="24" fill="none"/>
  </g>
</svg>
