<svg xmlns="http://www.w3.org/2000/svg" width="24" height="24" viewBox="0 0 24 24">
  <title>mobile-phone-hand-holding</title>
  <g id="Duotone">
    <polygon points="17.21 1.754 14.503 3.273 14.5 3.275 14.5 1.5 11.5 1.5 11.5 2.5 8.5 2.5 8.5 3.5 5.5 3.5 5.5 5.5 2.5 5.5 2.506 9.915 2.494 9.91 0.5 11 5.791 20.559 7.071 19.852 8.5 23.5 17.5 23.5 17.499 23.496 17.499 20.5 19.5 17.5 19.5 12.99 22.5 11.313 17.21 1.754" fill="#fff"/>
    <polygon points="16.498 10.5 19.5 9.5 19.5 12.973 22.5 11.313 17.21 1.754 8.835 18.878 15.492 15.193 16.498 10.5" fill="#cce7ff"/>
    <polygon points="14.5 7 13 8 11.5 7 11.5 1.5 14.5 1.5 14.5 7" fill="none" stroke="#1078ff" stroke-linecap="round" stroke-linejoin="round"/>
    <polygon points="11.5 8.5 10 9.5 8.5 8.5 8.5 2.5 11.5 2.5 11.5 8.5" fill="none" stroke="#1078ff" stroke-linecap="round" stroke-linejoin="round"/>
    <polygon points="8.5 10 7 11 5.5 10 5.5 3.5 8.5 3.5 8.5 10" fill="none" stroke="#1078ff" stroke-linecap="round" stroke-linejoin="round"/>
    <polygon points="5.5 11.5 4 12.5 2.509 11.5 2.5 5.5 5.5 5.5 5.5 11.5" fill="none" stroke="#1078ff" stroke-linecap="round" stroke-linejoin="round"/>
    <polyline points="8.5 23.5 8.5 22 7.071 19.852" fill="none" stroke="#1078ff" stroke-linecap="round" stroke-linejoin="round"/>
    <line x1="8.835" y1="18.878" x2="4.936" y2="11.876" fill="none" stroke="#1078ff" stroke-linecap="round" stroke-linejoin="round"/>
    <polyline points="14.503 3.273 17.21 1.754 22.5 11.313 19.5 12.99" fill="none" stroke="#1078ff" stroke-linecap="round" stroke-linejoin="round"/>
    <polyline points="15.489 15.204 5.791 20.559 0.5 11 2.494 9.91" fill="none" stroke="#1078ff" stroke-linecap="round" stroke-linejoin="round"/>
    <line x1="4.875" y1="15.25" x2="4.617" y2="14.788" fill="none" stroke="#1078ff" stroke-linecap="round" stroke-linejoin="round"/>
    <polyline points="14.997 17.5 16.498 10.5 19.5 9.5 19.5 17.5 17.499 20.5 17.499 23.5" fill="none" stroke="#1078ff" stroke-linecap="round" stroke-linejoin="round"/>
  </g>
  <g id="Frames-24px">
    <rect width="24" height="24" fill="none"/>
  </g>
</svg>
