<?xml version="1.0" encoding="utf-8"?>
<!-- Generator: Adobe Illustrator 21.0.2, SVG Export Plug-In . SVG Version: 6.00 Build 0)  -->
<svg version="1.1" xmlns="http://www.w3.org/2000/svg" xmlns:xlink="http://www.w3.org/1999/xlink" x="0px" y="0px"
	 viewBox="0 0 24 24" style="enable-background:new 0 0 24 24;" xml:space="preserve">
<style type="text/css">
	.st0{fill:#FFFFFF;}
	.st1{fill:#CCE7FF;}
	.st2{fill:none;stroke:#1078FF;stroke-linejoin:round;stroke-miterlimit:10;}
	.st3{fill:none;stroke:#1078FF;stroke-linecap:round;stroke-linejoin:round;stroke-miterlimit:10;}
	.st4{fill:none;}
</style>
<g id="Duotone">
	<rect x="0.5" y="1.5" class="st0" width="18" height="18"/>
	<polygon class="st1" points="8.3,21.5 19.7,23.5 22.5,7.4 18.5,6.5 18.5,19.5 8.5,19.5 	"/>
	<polygon class="st1" points="13.7,10.5 11,15 8.5,14 7.5,15.5 15.5,15.5 	"/>
	<g>
		<polygon class="st1" points="8.5,6.3 8.5,8.3 6.5,9.5 4.5,8.3 		"/>
	</g>
	<rect x="0.5" y="1.5" class="st2" width="18" height="18"/>
	<line class="st2" x1="0.5" y1="15.5" x2="18.5" y2="15.5"/>
	<polyline class="st3" points="8.3,21.5 19.7,23.5 22.5,7.4 20.5,7 	"/>
	<g>
		<polygon class="st2" points="13,8.5 10,13.5 7.5,12.5 5.5,15.5 15.5,15.5 		"/>
	</g>
	<polygon class="st3" points="8.5,8.3 6.5,9.5 4.5,8.3 4.5,6.3 6.5,5 8.5,6.3 	"/>
	<polygon class="st2" points="13,8.5 10,13.5 7.5,12.5 5.5,15.5 15.5,15.5 	"/>
</g>
<g id="Frames-24px">
	<rect class="st4" width="24" height="24"/>
</g>
</svg>
