<svg xmlns="http://www.w3.org/2000/svg" width="24" height="24" viewBox="0 0 24 24">
  <title>piggy-bank</title>
  <g id="Duotone">
    <polygon points="8.5 2.25 11.5 0.5 14.5 2.25 14.5 5.75 11.5 7.5 8.5 5.75 8.5 2.25" fill="#fff"/>
    <polygon points="5.5 10.5 2.5 15 0.5 14.5 0.5 18.5 2.5 18 5.5 21.5 5.5 23.5 8.5 21.5 12.5 21.5 17 23.5 16.5 21 19 16 16.5 9.5 8 9.5 5.5 7 5.5 10.5" fill="#fff"/>
    <polygon points="18.267 17.465 14.5 11.5 6.5 11.5 3.5 16.5 0.5 16.5 0.5 18.5 2.5 18 5.5 21.5 5.5 23.5 8.5 21.5 12.5 21.5 17 23.5 16.5 21 18.267 17.465" fill="#cce7ff"/>
    <polygon points="14.5 2.25 14.5 5.75 11.5 7.5 8.5 5.75 14.5 2.25" fill="#cce7ff"/>
    <g>
      <line x1="5.5" y1="13.5" x2="5.5" y2="14.5" fill="none" stroke="#1078ff" stroke-linecap="round" stroke-linejoin="round"/>
      <polyline points="19 16 20.5 13.5 22 15.5 23.5 14" fill="none" stroke="#1078ff" stroke-linecap="round" stroke-linejoin="round"/>
      <line x1="9.607" y1="11.5" x2="13.607" y2="11.5" fill="none" stroke="#1078ff" stroke-linecap="round" stroke-linejoin="round"/>
      <polyline points="12.25 2.5 11 2.5 10.5 3.167 11 4 12 4 12.5 4.75 12 5.5 10.75 5.5" fill="none" stroke="#1078ff" stroke-linecap="round" stroke-linejoin="round"/>
      <polygon points="8.5 2.25 11.5 0.5 14.5 2.25 14.5 5.75 11.5 7.5 8.5 5.75 8.5 2.25" fill="none" stroke="#1078ff" stroke-linecap="round" stroke-linejoin="round"/>
      <polygon points="5.5 10.5 2.5 15 0.5 14.5 0.5 18.5 2.5 18 5.5 21.5 5.5 23.5 8.5 21.5 12.5 21.5 17 23.5 16.5 21 19 16 16.5 9.5 8 9.5 5.5 7 5.5 10.5" fill="none" stroke="#1078ff" stroke-linecap="round" stroke-linejoin="round"/>
    </g>
  </g>
  <g id="Frames-24px">
    <rect width="24" height="24" fill="none"/>
  </g>
</svg>
