<?xml version="1.0" encoding="utf-8"?>
<!-- Generator: Adobe Illustrator 21.0.2, SVG Export Plug-In . SVG Version: 6.00 Build 0)  -->
<svg version="1.1" xmlns="http://www.w3.org/2000/svg" xmlns:xlink="http://www.w3.org/1999/xlink" x="0px" y="0px"
	 viewBox="0 0 24 24" style="enable-background:new 0 0 24 24;" xml:space="preserve">
<style type="text/css">
	.st0{fill:#FFFFFF;}
	.st1{fill:#FFFFFF;stroke:#1078FF;stroke-linecap:round;stroke-linejoin:round;stroke-miterlimit:10;}
	.st2{fill:#CCE7FF;}
	.st3{fill:none;stroke:#1078FF;stroke-linecap:round;stroke-linejoin:round;stroke-miterlimit:10;}
	.st4{fill:#1078FF;}
	.st5{fill:none;}
</style>
<g id="Duotone">
	<polygon class="st0" points="12.5,7.5 14.8,7.5 15.5,9.5 19.9,6.2 13.8,2.4 	"/>
	<polygon class="st0" points="3.5,16.5 8.5,21.5 15.5,21.5 20.5,16.5 20.5,9.5 20.5,9.5 12,13 8.5,4.5 3.5,9.5 	"/>
	<polygon class="st2" points="20.5,9.5 20.5,9.5 20.5,16.5 15.5,21.5 8.5,21.5 3.5,16.5 3.5,9.5 8.5,4.5 7.7,2.5 1.5,8.7 1.5,17.3 
		7.7,23.5 16.3,23.5 22.5,17.3 22.5,8.7 	"/>
	<polygon class="st2" points="14.2,0.5 13.8,2.4 19.9,6.2 21.5,5 	"/>
	<rect x="6.4" y="11.4" transform="matrix(0.7071 -0.7071 0.7071 0.7071 -6.6421 8.9645)" class="st2" width="2.1" height="2.1"/>
	<rect x="11.4" y="16.4" transform="matrix(0.7071 -0.7071 0.7071 0.7071 -8.7132 13.9645)" class="st2" width="2.1" height="2.1"/>
	<g>
		<rect x="6.4" y="11.4" transform="matrix(0.7071 -0.7071 0.7071 0.7071 -6.6421 8.9645)" class="st3" width="2.1" height="2.1"/>
		
			<rect x="11.4" y="16.4" transform="matrix(0.7071 -0.7071 0.7071 0.7071 -8.7132 13.9645)" class="st3" width="2.1" height="2.1"/>
		<polygon class="st3" points="15.5,9.5 21.5,5 14.2,0.5 12.5,7.5 14.8,7.5 		"/>
		<polygon class="st3" points="12,13 7.7,2.5 1.5,8.7 1.5,17.3 7.7,23.5 16.3,23.5 22.5,17.3 22.5,8.7 		"/>
		<polyline class="st3" points="8.5,4.5 3.5,9.5 3.5,16.5 8.5,21.5 15.5,21.5 20.5,16.5 20.5,9.5 		"/>
		<line class="st3" x1="13.8" y1="2.4" x2="19.9" y2="6.2"/>
	</g>
</g>
<g id="Frames-24px">
	<rect class="st5" width="24" height="24"/>
</g>
</svg>
