<svg xmlns="http://www.w3.org/2000/svg" width="24" height="24" viewBox="0 0 24 24">
  <title>server-network-1</title>
  <g id="Duotone">
    <rect x="0.5" y="1.5" width="22" height="14" fill="#fff"/>
    <rect x="10.086" y="20.086" width="2.828" height="2.828" transform="translate(-11.835 14.429) rotate(-45)" fill="#fff"/>
    <rect x="0.5" y="6" width="22" height="2.5" fill="#cce7ff"/>
    <rect x="0.5" y="13" width="22" height="2.5" fill="#cce7ff"/>
    <polygon points="11.5 19.5 13.5 21.5 11.5 23.5 11.5 19.5" fill="#cce7ff"/>
    <rect x="0.5" y="1.5" width="22" height="7" fill="none" stroke="#1078ff" stroke-linecap="round" stroke-linejoin="round"/>
    <line x1="19.5" y1="3.5" x2="19.5" y2="6.5" fill="none" stroke="#1078ff" stroke-linecap="round" stroke-linejoin="round"/>
    <line x1="17.5" y1="3.5" x2="17.5" y2="6.5" fill="none" stroke="#1078ff" stroke-linecap="round" stroke-linejoin="round"/>
    <line x1="15.5" y1="3.5" x2="15.5" y2="6.5" fill="none" stroke="#1078ff" stroke-linecap="round" stroke-linejoin="round"/>
    <rect x="0.5" y="8.5" width="22" height="7" fill="none" stroke="#1078ff" stroke-linecap="round" stroke-linejoin="round"/>
    <line x1="19.5" y1="10.5" x2="19.5" y2="13.5" fill="none" stroke="#1078ff" stroke-linecap="round" stroke-linejoin="round"/>
    <line x1="17.5" y1="10.5" x2="17.5" y2="13.5" fill="none" stroke="#1078ff" stroke-linecap="round" stroke-linejoin="round"/>
    <line x1="15.5" y1="10.5" x2="15.5" y2="13.5" fill="none" stroke="#1078ff" stroke-linecap="round" stroke-linejoin="round"/>
    <line x1="11.5" y1="15.5" x2="11.5" y2="19.5" fill="none" stroke="#1078ff" stroke-linecap="round" stroke-linejoin="round"/>
    <line x1="0.5" y1="21.5" x2="9.5" y2="21.5" fill="none" stroke="#1078ff" stroke-linecap="round" stroke-linejoin="round"/>
    <line x1="13.5" y1="21.5" x2="22.5" y2="21.5" fill="none" stroke="#1078ff" stroke-linecap="round" stroke-linejoin="round"/>
    <rect x="3.939" y="3.939" width="2.121" height="2.121" transform="translate(-2.071 4.999) rotate(-44.995)" fill="none" stroke="#1078ff" stroke-linecap="round" stroke-linejoin="round"/>
    <rect x="3.939" y="10.939" width="2.121" height="2.121" transform="translate(-7.02 7.049) rotate(-44.995)" fill="none" stroke="#1078ff" stroke-linecap="round" stroke-linejoin="round"/>
    <rect x="10.086" y="20.086" width="2.828" height="2.828" transform="translate(-11.835 14.429) rotate(-45)" fill="none" stroke="#1078ff" stroke-linecap="round" stroke-linejoin="round"/>
  </g>
  <g id="Frames-24px">
    <rect width="24" height="24" fill="none"/>
  </g>
</svg>
