<svg xmlns="http://www.w3.org/2000/svg" width="24" height="24" viewBox="0 0 24 24">
  <title>shield-1</title>
  <g id="Duotone">
    <polygon points="16.012 2.896 11.519 0.5 11.502 0.5 7.012 2.896 2.5 1 2.5 17.5 11.512 23.5 20.5 17.5 20.5 1 16.012 2.896" fill="#fff"/>
    <g>
      <polygon points="7.012 2.896 2.5 1 2.5 11.5 11.5 11.5 11.5 0.502 7.012 2.896" fill="#cce7ff"/>
      <polygon points="11.5 11.5 11.5 23.492 11.512 23.5 20.5 17.5 20.5 11.5 11.5 11.5" fill="#cce7ff"/>
    </g>
    <g>
      <polygon points="16.012 2.896 11.519 0.5 11.502 0.5 7.012 2.896 2.5 1 2.5 17.5 11.512 23.5 20.5 17.5 20.5 1 16.012 2.896" fill="none" stroke="#1078ff" stroke-linecap="round" stroke-linejoin="round"/>
      <line x1="2.5" y1="11.5" x2="20.5" y2="11.5" fill="none" stroke="#1078ff" stroke-linecap="round" stroke-linejoin="round"/>
      <line x1="11.512" y1="0.5" x2="11.512" y2="23.5" fill="none" stroke="#1078ff" stroke-linecap="round" stroke-linejoin="round"/>
    </g>
  </g>
  <g id="Frames-24px">
    <rect width="24" height="24" fill="none"/>
  </g>
</svg>
