<svg xmlns="http://www.w3.org/2000/svg" width="24" height="24" viewBox="0 0 24 24">
  <title>smartwatch-favorite-heart-2</title>
  <g id="Duotone">
    <polygon points="14.5 5.5 14.5 1.5 7.5 1.5 7.5 5.5 3.5 5.5 3.5 19.5 7.5 19.5 7.5 23.5 14.5 23.5 14.5 19.5 18.5 19.5 18.5 5.5 14.5 5.5" fill="#fff"/>
    <polygon points="11 17 16 12 13.5 9 11 11 11 17" fill="#cce7ff"/>
    <polygon points="14.047 9.656 16 12 11 17 8.672 14.672 3.5 19.5 18.5 19.5 18.5 5.5 14.047 9.656" fill="#cce7ff"/>
    <rect x="3.5" y="5.5" width="15" height="14" fill="none" stroke="#1078ff" stroke-linecap="round" stroke-linejoin="round"/>
    <line x1="7.5" y1="3.5" x2="14.5" y2="3.5" fill="none" stroke="#1078ff" stroke-linecap="round" stroke-linejoin="round"/>
    <polyline points="7.5 5.5 7.5 1.5 14.5 1.5 14.5 5.5" fill="none" stroke="#1078ff" stroke-linecap="round" stroke-linejoin="round"/>
    <line x1="7.5" y1="21.5" x2="14.5" y2="21.5" fill="none" stroke="#1078ff" stroke-linecap="round" stroke-linejoin="round"/>
    <polyline points="7.5 19.5 7.5 23.5 14.5 23.5 14.5 19.5" fill="none" stroke="#1078ff" stroke-linecap="round" stroke-linejoin="round"/>
    <line x1="18.5" y1="11.5" x2="19.5" y2="11.5" fill="none" stroke="#1078ff" stroke-linecap="round" stroke-linejoin="round"/>
    <g>
      <polygon points="11 17 16 12 13.5 9 11 11 8.5 9 6 12 11 17" fill="none" stroke="#1078ff" stroke-linecap="round" stroke-linejoin="round"/>
      <polygon points="11 17 16 12 13.5 9 11 11 8.5 9 6 12 11 17" fill="none" stroke="#1078ff" stroke-linecap="round" stroke-linejoin="round"/>
    </g>
    <polygon points="11 17 16 12 13.5 9 11 11 8.5 9 6 12 11 17" fill="none" stroke="#1078ff" stroke-linecap="round" stroke-linejoin="round"/>
  </g>
  <g id="Frames-24px">
    <rect width="24" height="24" fill="none"/>
  </g>
</svg>
