<?xml version="1.0" encoding="utf-8"?>
<!-- Generator: Adobe Illustrator 21.0.2, SVG Export Plug-In . SVG Version: 6.00 Build 0)  -->
<svg version="1.1" xmlns="http://www.w3.org/2000/svg" xmlns:xlink="http://www.w3.org/1999/xlink" x="0px" y="0px"
	 viewBox="0 0 24 24" style="enable-background:new 0 0 24 24;" xml:space="preserve">
<style type="text/css">
	.st0{fill:#FFFFFF;}
	.st1{fill:#CCE7FF;}
	.st2{fill:none;stroke:#1078FF;stroke-linecap:round;stroke-linejoin:round;stroke-miterlimit:10;}
	.st3{fill:none;stroke:#1078FF;stroke-width:0.9847;stroke-linecap:round;stroke-linejoin:round;stroke-miterlimit:10;}
	.st4{fill:#1078FF;}
	.st5{fill:none;}
</style>
<g id="Duotone">
	<polygon class="st0" points="19.3,1.8 14.3,6.8 13,5.5 2.5,16 8,21.5 18.5,11 17.3,9.8 22.3,4.8 	"/>
	<rect x="4.5" y="12.9" transform="matrix(0.7071 -0.7071 0.7071 0.7071 -7.0401 12.7537)" class="st1" width="14.8" height="3.9"/>
	<rect x="15.4" y="5.4" transform="matrix(0.7071 -0.7071 0.7071 0.7071 -0.4706 13.864)" class="st1" width="2.1" height="4.2"/>
	<g>
		<line class="st2" x1="11" y1="3.5" x2="20.5" y2="13"/>
		<polyline class="st2" points="18.5,11 8,21.5 2.5,16 13,5.5 		"/>
		<line class="st2" x1="22.3" y1="4.8" x2="17.3" y2="9.8"/>
		<line class="st2" x1="14.3" y1="6.8" x2="19.3" y2="1.8"/>
		<line class="st2" x1="18" y1="0.5" x2="23.5" y2="6"/>
		<line class="st2" x1="0.5" y1="23.5" x2="5.3" y2="18.8"/>
		<line class="st2" x1="5.3" y1="13.3" x2="7" y2="15"/>
		<line class="st2" x1="7.3" y1="11.3" x2="9" y2="13"/>
		<line class="st2" x1="9.3" y1="9.3" x2="11" y2="11"/>
	</g>
</g>
<g id="Frames-24px">
	<rect class="st5" width="24" height="24"/>
</g>
</svg>
