<svg xmlns="http://www.w3.org/2000/svg" width="24" height="24" viewBox="0 0 24 24">
  <title>traffic-light</title>
  <g id="Duotone">
    <polygon points="18.5 13 21.5 9.5 16.5 9.5 16.5 6 18.5 6 21.5 2.5 16.5 2.5 16.5 0.5 6.5 0.5 6.5 2.5 1.5 2.5 4.5 6 6.5 6 6.5 9.5 1.5 9.5 4.5 13 6.5 13 6.5 16.5 1.5 16.5 4.5 20 6.5 20 6.5 23.5 16.5 23.5 16.5 20 18.5 20 21.5 16.5 16.5 16.5 16.5 13 18.5 13" fill="#fff"/>
    <polygon points="13.5 6.75 11.5 8 9.5 6.75 13.5 4.75 13.5 6.75" fill="#cce7ff"/>
    <polygon points="13.5 13.25 11.5 14.5 9.5 13.25 13.5 11.25 13.5 13.25" fill="#cce7ff"/>
    <polygon points="13.5 19.75 11.5 21 9.5 19.75 13.5 17.75 13.5 19.75" fill="#cce7ff"/>
    <rect x="6.5" y="0.5" width="10" height="23" fill="none" stroke="#1078ff" stroke-linecap="round" stroke-linejoin="round"/>
    <polyline points="16.5 2.5 21.5 2.5 18.5 6" fill="none" stroke="#1078ff" stroke-linecap="round" stroke-linejoin="round"/>
    <polyline points="16.5 9.5 21.5 9.5 18.5 13" fill="none" stroke="#1078ff" stroke-linecap="round" stroke-linejoin="round"/>
    <polyline points="16.5 16.5 21.5 16.5 18.5 20" fill="none" stroke="#1078ff" stroke-linecap="round" stroke-linejoin="round"/>
    <polyline points="6.5 2.5 1.5 2.5 4.5 6" fill="none" stroke="#1078ff" stroke-linecap="round" stroke-linejoin="round"/>
    <polyline points="6.5 9.5 1.5 9.5 4.5 13" fill="none" stroke="#1078ff" stroke-linecap="round" stroke-linejoin="round"/>
    <polyline points="6.5 16.5 1.5 16.5 4.5 20" fill="none" stroke="#1078ff" stroke-linecap="round" stroke-linejoin="round"/>
    <polygon points="13.5 6.75 11.5 8 9.5 6.75 9.5 4.75 11.5 3.5 13.5 4.75 13.5 6.75" fill="none" stroke="#1078ff" stroke-linecap="round" stroke-linejoin="round"/>
    <polygon points="13.5 13.25 11.5 14.5 9.5 13.25 9.5 11.25 11.5 10 13.5 11.25 13.5 13.25" fill="none" stroke="#1078ff" stroke-linecap="round" stroke-linejoin="round"/>
    <polygon points="13.5 19.75 11.5 21 9.5 19.75 9.5 17.75 11.5 16.5 13.5 17.75 13.5 19.75" fill="none" stroke="#1078ff" stroke-linecap="round" stroke-linejoin="round"/>
  </g>
  <g id="Frames-24px">
    <rect width="24" height="24" fill="none"/>
  </g>
</svg>
