<?xml version="1.0" encoding="utf-8"?>
<!-- Generator: Adobe Illustrator 21.0.2, SVG Export Plug-In . SVG Version: 6.00 Build 0)  -->
<svg version="1.1" xmlns="http://www.w3.org/2000/svg" xmlns:xlink="http://www.w3.org/1999/xlink" x="0px" y="0px"
	 viewBox="0 0 24 24" style="enable-background:new 0 0 24 24;" xml:space="preserve">
<style type="text/css">
	.st0{fill:#FFFFFF;}
	.st1{fill:#FFFFFF;stroke:#1078FF;stroke-linecap:round;stroke-linejoin:round;stroke-miterlimit:10;}
	.st2{fill:#CCE7FF;}
	.st3{fill:none;stroke:#1078FF;stroke-linecap:round;stroke-linejoin:round;stroke-miterlimit:10;}
	.st4{fill:none;}
</style>
<g id="Duotone">
	<polyline class="st0" points="19,3.2 12,0.5 3.7,3.7 0.5,12 3.7,20.3 12,23.5 20.3,20.3 23.5,12 22.8,10.2 	"/>
	<polygon class="st2" points="11.5,9.1 9.5,8.1 7.5,9.1 11.5,12.1 16,10.1 14.5,15.1 16.9,14.1 19.2,9 22.9,7.2 23.5,5.6 21.5,5.1 
		17.9,6.5 13.9,5 11.9,6.1 15.4,7.5 	"/>
	<polygon class="st2" points="22.3,15 19.5,15 17.5,17.5 18.5,21 20.3,20.3 	"/>
	<polygon class="st2" points="7.7,2.2 5.5,6.5 5.5,8.5 3.5,11 3.5,13.5 5,15.5 9,15.5 11.5,19 9.5,22.5 3.7,20.3 0.5,12 3.7,3.7 	
		"/>
	<polygon class="st3" points="11.5,9.1 9.5,8.1 7.5,9.1 11.5,12.1 16,10.1 14.5,15.1 16.9,14.1 19.2,9 22.9,7.2 23.5,5.6 21.5,5.1 	
		"/>
	<polyline class="st3" points="17.9,6.5 13.9,5 11.9,6.1 15.4,7.5 	"/>
	<polyline class="st3" points="19,3.2 12,0.5 3.7,3.7 0.5,12 3.7,20.3 12,23.5 20.3,20.3 23.5,12 22.8,10.2 	"/>
	<polygon class="st3" points="7.7,2.2 5.5,6.5 5.5,8.5 3.5,11 3.5,13.5 5,15.5 9,15.5 11.5,19 9.5,22.5 3.7,20.3 0.5,12 3.7,3.7 	
		"/>
	<polygon class="st3" points="22.3,15 19.5,15 17.5,17.5 18.5,21 20.3,20.3 	"/>
</g>
<g id="Frames-24px">
	<rect class="st4" width="24" height="24"/>
</g>
</svg>
