<?xml version="1.0" encoding="utf-8"?>
<!-- Generator: Adobe Illustrator 21.0.2, SVG Export Plug-In . SVG Version: 6.00 Build 0)  -->
<svg version="1.1" xmlns="http://www.w3.org/2000/svg" xmlns:xlink="http://www.w3.org/1999/xlink" x="0px" y="0px" width="24px"
	 height="24px" viewBox="0 0 24 24" enable-background="new 0 0 24 24" xml:space="preserve">
<g id="Black">
	<g>
		<g>
			
				<line fill="none" stroke="#58595B" stroke-linecap="round" stroke-linejoin="round" stroke-miterlimit="10" x1="5.5" y1="1.5" x2="5.5" y2="0.5"/>
			
				<line fill="none" stroke="#58595B" stroke-linecap="round" stroke-linejoin="round" stroke-miterlimit="10" x1="0.5" y1="6.5" x2="1.5" y2="6.5"/>
			
				<line fill="none" stroke="#58595B" stroke-linecap="round" stroke-linejoin="round" stroke-miterlimit="10" x1="9.5" y1="2.5" x2="8.682" y2="3.318"/>
			
				<line fill="none" stroke="#58595B" stroke-linecap="round" stroke-linejoin="round" stroke-miterlimit="10" x1="1.5" y1="2.5" x2="2.318" y2="3.318"/>
			<polyline fill="none" stroke="#58595B" stroke-linecap="round" stroke-linejoin="round" stroke-miterlimit="10" points="
				3.5,7.345 3.5,5.155 5.5,4 7.5,5.155 7.5,6 			"/>
		</g>
		
			<line fill="none" stroke="#58595B" stroke-linecap="round" stroke-linejoin="round" stroke-miterlimit="10" x1="3.5" y1="20.5" x2="4.5" y2="19.5"/>
		
			<line fill="none" stroke="#58595B" stroke-linecap="round" stroke-linejoin="round" stroke-miterlimit="10" x1="7.5" y1="20.5" x2="8.5" y2="19.5"/>
		
			<line fill="none" stroke="#58595B" stroke-linecap="round" stroke-linejoin="round" stroke-miterlimit="10" x1="11.5" y1="20.5" x2="12.5" y2="19.5"/>
		
			<line fill="none" stroke="#58595B" stroke-linecap="round" stroke-linejoin="round" stroke-miterlimit="10" x1="15.5" y1="20.5" x2="16.5" y2="19.5"/>
		<g>
			<path fill="#58595B" d="M18,17.001c-0.051,0-0.102,0.019-0.141,0.059l-0.799,0.799c-0.078,0.078-0.078,0.205,0,0.283l0.799,0.799
				c0.039,0.039,0.09,0.059,0.141,0.059c0.051,0,0.102-0.019,0.141-0.059l0.799-0.799c0.078-0.078,0.078-0.205,0-0.283l-0.799-0.799
				C18.102,17.02,18.051,17.001,18,17.001L18,17.001z"/>
		</g>
		<g>
			<path fill="#58595B" d="M6,17.001c-0.051,0-0.102,0.019-0.141,0.059l-0.799,0.799c-0.078,0.078-0.078,0.205,0,0.283l0.799,0.799
				C5.898,18.98,5.949,18.999,6,18.999c0.051,0,0.102-0.019,0.141-0.059l0.799-0.799c0.078-0.078,0.078-0.205,0-0.283l-0.799-0.799
				C6.102,17.02,6.051,17.001,6,17.001L6,17.001z"/>
		</g>
		<g>
			<path fill="#58595B" d="M9.999,17c-0.051,0-0.102,0.02-0.141,0.059l-0.799,0.799c-0.078,0.078-0.078,0.205,0,0.283l0.799,0.799
				c0.039,0.039,0.09,0.059,0.141,0.059s0.102-0.02,0.141-0.059l0.799-0.799c0.078-0.078,0.078-0.205,0-0.283l-0.799-0.799
				C10.102,17.02,10.051,17,9.999,17L9.999,17z"/>
		</g>
		<g>
			<path fill="#58595B" d="M14,17.001c-0.051,0-0.102,0.019-0.141,0.059l-0.799,0.799c-0.078,0.078-0.078,0.205,0,0.283l0.799,0.799
				c0.039,0.039,0.09,0.059,0.141,0.059c0.051,0,0.102-0.019,0.141-0.059l0.799-0.799c0.078-0.078,0.078-0.205,0-0.283l-0.799-0.799
				C14.102,17.02,14.051,17.001,14,17.001L14,17.001z"/>
		</g>
		<g>
			<path fill="#58595B" d="M14.001,21.001c-0.051,0-0.102,0.02-0.141,0.059l-0.799,0.799c-0.078,0.078-0.078,0.205,0,0.283
				l0.799,0.799C13.898,22.98,13.949,23,14.001,23s0.102-0.02,0.141-0.059l0.799-0.799c0.078-0.078,0.078-0.205,0-0.283
				l-0.799-0.799C14.103,21.021,14.052,21.001,14.001,21.001L14.001,21.001z"/>
		</g>
		<g>
			<path fill="#58595B" d="M2.001,21.001c-0.051,0-0.102,0.02-0.141,0.059L1.06,21.859c-0.078,0.078-0.078,0.205,0,0.283
				l0.799,0.799C1.898,22.98,1.949,23,2.001,23c0.051,0,0.102-0.02,0.141-0.059l0.799-0.799c0.078-0.078,0.078-0.205,0-0.283
				L2.142,21.06C2.103,21.021,2.052,21.001,2.001,21.001L2.001,21.001z"/>
		</g>
		<g>
			<path fill="#58595B" d="M6,21.001c-0.051,0-0.102,0.019-0.141,0.059l-0.799,0.799c-0.078,0.078-0.078,0.205,0,0.283l0.799,0.799
				C5.898,22.98,5.949,22.999,6,22.999c0.051,0,0.102-0.019,0.141-0.059l0.799-0.799c0.078-0.078,0.078-0.205,0-0.283l-0.799-0.799
				C6.102,21.02,6.051,21.001,6,21.001L6,21.001z"/>
		</g>
		<g>
			<path fill="#58595B" d="M10.001,21.001c-0.051,0-0.102,0.02-0.141,0.059L9.06,21.859c-0.078,0.078-0.078,0.205,0,0.283
				l0.799,0.799C9.898,22.98,9.949,23,10.001,23s0.102-0.02,0.141-0.059l0.799-0.799c0.078-0.078,0.078-0.205,0-0.283l-0.799-0.799
				C10.103,21.021,10.052,21.001,10.001,21.001L10.001,21.001z"/>
		</g>
		<g>
			<polygon fill="none" stroke="#58595B" stroke-linejoin="round" stroke-miterlimit="10" points="21,9.5 18.5,9.5 16,4.5 12,4.5 
				9.5,7.5 6,7.5 2.5,12 6,15.5 20,15.5 22.5,13 			"/>
			
				<line fill="none" stroke="#58595B" stroke-linecap="round" stroke-linejoin="round" stroke-miterlimit="10" x1="15.5" y1="9.5" x2="18.5" y2="9.5"/>
		</g>
	</g>
</g>
<g id="Frames-24px">
	<rect fill="none" width="24" height="24"/>
</g>
</svg>
