<?xml version="1.0" encoding="utf-8"?>
<!-- Generator: Adobe Illustrator 21.0.2, SVG Export Plug-In . SVG Version: 6.00 Build 0)  -->
<svg version="1.1" xmlns="http://www.w3.org/2000/svg" xmlns:xlink="http://www.w3.org/1999/xlink" x="0px" y="0px" width="24px"
	 height="24px" viewBox="0 0 24 24" enable-background="new 0 0 24 24" xml:space="preserve">
<g id="Black">
	<g>
		<polyline fill="none" stroke="#58595B" stroke-linecap="round" stroke-linejoin="round" stroke-miterlimit="10" points="
			14.5,9.064 14.5,6 6.5,3 6.5,8.438 		"/>
		<polygon fill="none" stroke="#58595B" stroke-linecap="round" stroke-linejoin="round" stroke-miterlimit="10" points="9.5,13 
			1.5,10 1.5,20 9.5,23.5 		"/>
		<polygon fill="none" stroke="#58595B" stroke-linecap="round" stroke-linejoin="round" stroke-miterlimit="10" points="9.5,13 
			17.5,10 17.5,20 9.5,23.5 		"/>
		<polyline fill="none" stroke="#58595B" stroke-linecap="round" stroke-linejoin="round" stroke-miterlimit="10" points="
			17.5,10.002 9.5,7.5 1.5,10.002 		"/>
		<polyline fill="none" stroke="#58595B" stroke-linecap="round" stroke-linejoin="round" stroke-miterlimit="10" points="14.5,6 
			22.5,3 22.5,13 17.5,15 		"/>
		<polyline fill="none" stroke="#58595B" stroke-linecap="round" stroke-linejoin="round" stroke-miterlimit="10" points="
			22.5,3.002 14.5,0.5 6.5,3.002 		"/>
		<g>
			<path fill="#58595B" d="M4.566,14.266h0.005H4.566 M4,13.501c-0.051,0-0.102,0.019-0.141,0.059l-0.799,0.799
				c-0.078,0.078-0.078,0.205,0,0.283l0.799,0.799C3.898,15.48,3.949,15.499,4,15.499c0.051,0,0.102-0.019,0.141-0.059l0.799-0.799
				c0.078-0.078,0.078-0.205,0-0.283l-0.799-0.799C4.102,13.52,4.051,13.501,4,13.501L4,13.501z"/>
		</g>
		<g>
			<path fill="#58595B" d="M7.566,19.266h0.005H7.566 M7,18.501c-0.051,0-0.102,0.019-0.141,0.059l-0.799,0.799
				c-0.078,0.078-0.078,0.205,0,0.283l0.799,0.799C6.898,20.48,6.949,20.499,7,20.499c0.051,0,0.102-0.019,0.141-0.059l0.799-0.799
				c0.078-0.078,0.078-0.205,0-0.283l-0.799-0.799C7.102,18.52,7.051,18.501,7,18.501L7,18.501z"/>
		</g>
		<g>
			<path fill="#58595B" d="M12.565,19.267h0.005H12.565 M11.999,18.501c-0.051,0-0.102,0.02-0.141,0.059l-0.799,0.799
				c-0.078,0.078-0.078,0.205,0,0.283l0.799,0.799c0.039,0.039,0.09,0.059,0.141,0.059s0.102-0.02,0.141-0.059l0.799-0.799
				c0.078-0.078,0.078-0.205,0-0.283l-0.799-0.799C12.102,18.521,12.051,18.501,11.999,18.501L11.999,18.501z"/>
		</g>
		<g>
			<path fill="#58595B" d="M14.065,16.767h0.005H14.065 M13.499,16.001c-0.051,0-0.102,0.02-0.141,0.059l-0.799,0.799
				c-0.078,0.078-0.078,0.205,0,0.283l0.799,0.799C13.397,17.98,13.448,18,13.499,18s0.102-0.02,0.141-0.059l0.799-0.799
				c0.078-0.078,0.078-0.205,0-0.283l-0.799-0.799C13.602,16.021,13.551,16.001,13.499,16.001L13.499,16.001z"/>
		</g>
		<g>
			<path fill="#58595B" d="M15.566,14.267h0.005H15.566 M15.001,13.501c-0.051,0-0.102,0.02-0.141,0.059l-0.799,0.799
				c-0.078,0.078-0.078,0.205,0,0.283l0.799,0.799c0.039,0.039,0.09,0.059,0.141,0.059c0.051,0,0.102-0.019,0.141-0.059l0.799-0.799
				c0.078-0.078,0.078-0.205,0-0.283l-0.799-0.799C15.103,13.521,15.052,13.501,15.001,13.501L15.001,13.501z"/>
		</g>
		<g>
			<path fill="#58595B" d="M10.065,9.766h0.005H10.065 M9.499,9C9.448,9,9.397,9.019,9.358,9.059L8.559,9.858
				c-0.078,0.078-0.078,0.205,0,0.283l0.799,0.799c0.039,0.039,0.09,0.059,0.141,0.059c0.051,0,0.102-0.02,0.141-0.059l0.799-0.799
				c0.078-0.078,0.078-0.205,0-0.283L9.641,9.059C9.602,9.019,9.551,9,9.499,9L9.499,9z"/>
		</g>
		<g>
			<path fill="#58595B" d="M15.065,2.767h0.005H15.065 M14.499,2.001c-0.051,0-0.102,0.02-0.141,0.059l-0.799,0.799
				c-0.078,0.078-0.078,0.205,0,0.283l0.799,0.799C14.397,3.98,14.448,4,14.499,4s0.102-0.02,0.141-0.059l0.799-0.799
				c0.078-0.078,0.078-0.205,0-0.283L14.641,2.06C14.602,2.021,14.551,2.001,14.499,2.001L14.499,2.001z"/>
		</g>
		<g>
			<path fill="#58595B" d="M20.566,6.267h0.005H20.566 M20.001,5.501c-0.051,0-0.102,0.02-0.141,0.059L19.06,6.359
				c-0.078,0.078-0.078,0.205,0,0.283l0.799,0.799c0.039,0.039,0.09,0.059,0.141,0.059c0.051,0,0.102-0.019,0.141-0.059l0.799-0.799
				c0.078-0.078,0.078-0.205,0-0.283L20.142,5.56C20.103,5.521,20.052,5.501,20.001,5.501L20.001,5.501z"/>
		</g>
		<g>
			<path fill="#58595B" d="M20.566,10.767h0.005H20.566 M20.001,10.001c-0.051,0-0.102,0.02-0.141,0.059l-0.799,0.799
				c-0.078,0.078-0.078,0.205,0,0.283l0.799,0.799C19.898,11.981,19.949,12,20.001,12c0.051,0,0.102-0.019,0.141-0.059l0.799-0.799
				c0.078-0.078,0.078-0.205,0-0.283l-0.799-0.799C20.103,10.021,20.052,10.001,20.001,10.001L20.001,10.001z"/>
		</g>
	</g>
</g>
<g id="Frames-24px">
	<rect fill="none" width="24" height="24"/>
</g>
</svg>
