<?xml version="1.0" encoding="utf-8"?>
<!-- Generator: Adobe Illustrator 21.0.2, SVG Export Plug-In . SVG Version: 6.00 Build 0)  -->
<svg version="1.1" xmlns="http://www.w3.org/2000/svg" xmlns:xlink="http://www.w3.org/1999/xlink" x="0px" y="0px" width="24px"
	 height="24px" viewBox="0 0 24 24" enable-background="new 0 0 24 24" xml:space="preserve">
<g id="Black">
	<g>
		
			<line fill="none" stroke="#58595B" stroke-linecap="round" stroke-linejoin="round" stroke-miterlimit="10" x1="10.5" y1="23.5" x2="16.5" y2="23.5"/>
		<polygon fill="none" stroke="#58595B" stroke-linejoin="round" stroke-miterlimit="10" points="8.5,5.75 10.5,4.5 12.5,5.75 
			12.5,7.75 10.5,9 8.5,7.75 		"/>
		<polygon fill="none" stroke="#58595B" stroke-linejoin="round" stroke-miterlimit="10" points="8.5,17.25 10.5,16 12.5,17.25 
			12.5,19.25 10.5,20.5 8.5,19.25 		"/>
		<polygon fill="none" stroke="#58595B" stroke-linejoin="round" stroke-miterlimit="10" points="3.75,14.5 2.5,12.5 3.75,10.5 
			5.75,10.5 7,12.5 5.75,14.5 		"/>
		<polygon fill="none" stroke="#58595B" stroke-linejoin="round" stroke-miterlimit="10" points="15.25,14.5 14,12.5 15.25,10.5 
			17.25,10.5 18.5,12.5 17.25,14.5 		"/>
		
			<rect x="9.439" y="11.439" transform="matrix(0.7071 -0.7071 0.7071 0.7071 -5.7635 11.0858)" fill="none" stroke="#58595B" stroke-linecap="round" stroke-linejoin="round" stroke-miterlimit="10" width="2.121" height="2.121"/>
		
			<line fill="none" stroke="#58595B" stroke-linecap="round" stroke-linejoin="round" stroke-miterlimit="10" x1="18.5" y1="23.5" x2="19.5" y2="23.5"/>
		
			<line fill="none" stroke="#58595B" stroke-linecap="round" stroke-linejoin="round" stroke-miterlimit="10" x1="21.5" y1="23.5" x2="22.5" y2="23.5"/>
		<polygon fill="none" stroke="#58595B" stroke-linejoin="round" stroke-miterlimit="10" points="20.5,18 10.5,23.5 0.5,18 0.5,7 
			10.5,1.5 20.5,7 		"/>
	</g>
</g>
<g id="Frames-24px">
	<rect fill="none" width="24" height="24"/>
</g>
</svg>
