<?xml version="1.0" encoding="utf-8"?>
<!-- Generator: Adobe Illustrator 21.0.2, SVG Export Plug-In . SVG Version: 6.00 Build 0)  -->
<svg version="1.1" xmlns="http://www.w3.org/2000/svg" xmlns:xlink="http://www.w3.org/1999/xlink" x="0px" y="0px" width="24px"
	 height="24px" viewBox="0 0 24 24" enable-background="new 0 0 24 24" xml:space="preserve">
<g id="Black">
	<path fill="#58595B" d="M22.5,13h-13C9.224,13,9,13.224,9,13.5v10C9,23.776,9.224,24,9.5,24h13c0.276,0,0.5-0.224,0.5-0.5v-10
		C23,13.224,22.776,13,22.5,13z M22,23H10v-9h12V23z"/>
	<path fill="#58595B" d="M17.5,22h2c0.215,0,0.406-0.138,0.474-0.342l1-3c0.035-0.103,0.035-0.214,0-0.316l-1-3
		C19.907,15.138,19.716,15,19.5,15h-2c-0.276,0-0.5,0.224-0.5,0.5v6C17,21.776,17.224,22,17.5,22z M18,16h1.14l0.833,2.5L19.14,21
		H18V16z"/>
	<path fill="#58595B" d="M11.5,21c-0.276,0-0.5,0.224-0.5,0.5s0.224,0.5,0.5,0.5h3c0.215,0,0.406-0.138,0.474-0.342l0.5-1.5
		c0.049-0.146,0.027-0.308-0.058-0.436L14.601,18.5l0.815-1.223c0.085-0.128,0.107-0.289,0.058-0.436l-0.5-1.5
		C14.906,15.138,14.715,15,14.5,15h-3c-0.276,0-0.5,0.224-0.5,0.5s0.224,0.5,0.5,0.5h2.64l0.309,0.926L13.732,18H12.5
		c-0.276,0-0.5,0.224-0.5,0.5s0.224,0.5,0.5,0.5h1.232l0.716,1.074L14.14,21H11.5z"/>
	<path fill="#58595B" d="M10.826,11.765c0.146,0.234,0.454,0.307,0.689,0.159c0.234-0.146,0.305-0.455,0.159-0.688l-1.25-2
		c-0.183-0.293-0.665-0.293-0.848,0L7.223,13h-3.87L1.209,7h17.581l-1.547,4.332c-0.093,0.26,0.042,0.546,0.303,0.639
		c0.257,0.09,0.546-0.043,0.639-0.303l1.786-5c0.005-0.015,0.001-0.031,0.005-0.046c0.013-0.052,0.02-0.103,0.016-0.156
		c-0.002-0.026-0.007-0.049-0.012-0.074c-0.01-0.047-0.028-0.091-0.053-0.134c-0.008-0.015-0.008-0.032-0.018-0.046
		c-0.006-0.009-0.017-0.012-0.024-0.021c-0.009-0.011-0.012-0.025-0.022-0.036l-4.75-5C15.018,1.057,14.887,1,14.75,1H12.5
		C12.224,1,12,1.224,12,1.5S12.224,2,12.5,2h2.035l3.8,4H1.665l3.8-4H7.5C7.776,2,8,1.776,8,1.5S7.776,1,7.5,1H5.25
		C5.113,1,4.982,1.057,4.888,1.155l-4.75,5C0.128,6.166,0.124,6.18,0.115,6.191C0.108,6.199,0.098,6.203,0.091,6.212
		c-0.01,0.014-0.01,0.031-0.018,0.046C0.049,6.301,0.031,6.345,0.021,6.392C0.015,6.417,0.01,6.44,0.008,6.466
		C0.004,6.519,0.011,6.57,0.024,6.622c0.004,0.015-0.001,0.031,0.005,0.046l2.5,7C2.6,13.867,2.789,14,3,14h4.5
		c0.172,0,0.333-0.089,0.424-0.235L10,10.443L10.826,11.765z"/>
</g>
<g id="Frames-24px">
	<rect fill="none" width="24" height="24"/>
</g>
</svg>
