<?xml version="1.0" encoding="utf-8"?>
<!-- Generator: Adobe Illustrator 21.0.2, SVG Export Plug-In . SVG Version: 6.00 Build 0)  -->
<svg version="1.1" xmlns="http://www.w3.org/2000/svg" xmlns:xlink="http://www.w3.org/1999/xlink" x="0px" y="0px"
	 viewBox="0 0 24 24" style="enable-background:new 0 0 24 24;" xml:space="preserve">
<style type="text/css">
	.st0{fill:#58595B;}
	.st1{fill:none;}
</style>
<g id="Black">
	<path class="st0" d="M13.8,10.6l-2-1.3c-0.2-0.1-0.4-0.1-0.5,0l-2,1.3C9.1,10.7,9,10.8,9,11v2c0,0.2,0.1,0.3,0.2,0.4l2,1.3
		c0.1,0.1,0.2,0.1,0.3,0.1s0.2,0,0.3-0.1l2-1.3c0.1-0.1,0.2-0.3,0.2-0.4v-2C14,10.8,13.9,10.7,13.8,10.6z M13,12.7l-1.5,0.9L10,12.7
		v-1.4l1.5-0.9l1.5,0.9V12.7z"/>
	<path class="st0" d="M21.2,9.9l1-3.4c0.1-0.2-0.1-0.5-0.3-0.6l-3.6-1.4c-0.1,0-0.2,0-0.3,0l-2.6,0.6l-0.9-2.2
		c0-0.1-0.1-0.1-0.1-0.2l-2.5-2.5c-0.2-0.2-0.5-0.2-0.7,0L8.6,2.6c0,0-0.1,0.1-0.1,0.2L7.7,5.1L5,4.4c-0.1,0-0.2,0-0.3,0L1.1,5.9
		C0.9,6,0.7,6.2,0.8,6.5l1,3.4c0,0.1,0.1,0.1,0.1,0.2L3.6,12l-1.7,1.9c0,0.1-0.1,0.1-0.1,0.2l-1,3.4c-0.1,0.2,0.1,0.5,0.3,0.6
		l3.6,1.4c0.1,0,0.1,0,0.2,0c0,0,0.1,0,0.1,0l2.6-0.6l0.9,2.2c0,0.1,0.1,0.1,0.1,0.2l2.5,2.5c0.1,0.1,0.2,0.1,0.4,0.1s0.3,0,0.4-0.1
		l2.5-2.5c0,0,0.1-0.1,0.1-0.2l0.9-2.2l2.6,0.6c0,0,0.1,0,0.1,0c0.1,0,0.1,0,0.2,0l3.6-1.4c0.2-0.1,0.4-0.4,0.3-0.6l-1-3.4
		c0-0.1-0.1-0.1-0.1-0.2L19.4,12l1.7-1.9C21.2,10,21.2,9.9,21.2,9.9z M9.4,3.3l2.1-2.1l2.1,2.1l0.8,2L11.5,6L8.7,5.3L9.4,3.3z
		 M18.1,12L17,13.2v-2.4L18.1,12z M4.9,12L6,10.8v2.4L4.9,12z M7,14.2V9.8l4.5-2.7L16,9.8v4.4l-4.5,2.7L7,14.2z M10.2,17.3l-1.9,0.5
		l-0.8-2.1L10.2,17.3z M7.5,8.3l0.8-2.1l1.9,0.5L7.5,8.3z M15.5,15.7l-0.8,2.1l-1.9-0.5L15.5,15.7z M12.8,6.7l1.9-0.5l0.8,2.1
		L12.8,6.7z M2.7,9.5L1.9,6.6L5,5.4L7.3,6L6.1,9.2l-1.8,2L2.7,9.5z M5,18.6l-3.1-1.2l0.8-2.9l1.6-1.8l1.8,2L7.3,18L5,18.6z
		 M13.6,20.7l-2.1,2.1l-2.1-2.1l-0.8-2l2.8-0.7l2.8,0.7L13.6,20.7z M20.3,14.5l0.8,2.9L18,18.6L15.7,18l1.2-3.2l1.8-2L20.3,14.5z
		 M20.3,9.5l-1.6,1.8l-1.8-2L15.7,6L18,5.4l3.1,1.2L20.3,9.5z"/>
</g>
<g id="Frames-24px">
	<rect class="st1" width="24" height="24"/>
</g>
</svg>
