<?xml version="1.0" encoding="utf-8"?>
<!-- Generator: Adobe Illustrator 21.0.2, SVG Export Plug-In . SVG Version: 6.00 Build 0)  -->
<svg version="1.1" xmlns="http://www.w3.org/2000/svg" xmlns:xlink="http://www.w3.org/1999/xlink" x="0px" y="0px"
	 viewBox="0 0 24 24" style="enable-background:new 0 0 24 24;" xml:space="preserve">
<style type="text/css">
	.st0{fill:#58595B;}
	.st1{fill:none;}
</style>
<g id="Black">
	<path class="st0" d="M9.5,9C9.2,9,9,9.2,9,9.5v1C9,10.8,9.2,11,9.5,11s0.5-0.2,0.5-0.5v-1C10,9.2,9.8,9,9.5,9z"/>
	<path class="st0" d="M21.5,5H21V3c0-0.2-0.1-0.4-0.3-0.4l-2-1c-0.1-0.1-0.3-0.1-0.4,0L17,2.2V1.5c0-0.2-0.1-0.4-0.3-0.5l-2.5-1
		c-0.1,0-0.3,0-0.4,0l-2.5,1C11.1,1.1,11,1.3,11,1.5v0.7L9.7,1.6c-0.1-0.1-0.3-0.1-0.4,0l-2,1C7.1,2.6,7,2.8,7,3v2H6.5
		C6.2,5,6,5.2,6,5.5v1.4l-3.9,7.4c-0.1,0.2-0.1,0.3,0,0.5C2.2,14.9,2.3,15,2.5,15H5v1.5C5,16.8,5.2,17,5.5,17h1.6l-1.9,1.6
		C5,18.8,5,19,5,19.2l1,2.5C6.1,21.9,6.3,22,6.5,22H9v1.5C9,23.8,9.2,24,9.5,24s0.5-0.2,0.5-0.5v-2c0-0.3-0.2-0.5-0.5-0.5H6.8
		l-0.7-1.8l2.7-2.3C9,16.7,9,16.5,9,16.3C8.9,16.1,8.7,16,8.5,16H6v-1.5C6,14.2,5.8,14,5.5,14H3.3l3.6-6.8C7,7.2,7,7.1,7,7V6h14v9.8
		l-4.9,4.9C16.1,20.7,16,20.9,16,21v2.5c0,0.3,0.2,0.5,0.5,0.5s0.5-0.2,0.5-0.5v-2.3l4.9-4.9c0.1-0.1,0.1-0.2,0.1-0.4V5.5
		C22,5.2,21.8,5,21.5,5z M8,3.3l1.5-0.8l1.8,0.9c0.2,0.1,0.3,0.1,0.5,0C11.9,3.3,12,3.2,12,3V1.8L14,1l2,0.8V3
		c0,0.2,0.1,0.3,0.2,0.4c0.1,0.1,0.3,0.1,0.5,0l1.8-0.9L20,3.3V5H8V3.3z"/>
	<path class="st0" d="M17.9,12.3C18,12.2,18,12.1,18,12V9.5C18,9.2,17.8,9,17.5,9h-2C15.2,9,15,9.2,15,9.5s0.2,0.5,0.5,0.5H17v1.8
		l-1.4,1.9c-0.2,0.2-0.1,0.5,0.1,0.7c0.1,0.1,0.2,0.1,0.3,0.1c0.2,0,0.3-0.1,0.4-0.2L17.9,12.3z"/>
</g>
<g id="Frames-24px">
	<rect class="st1" width="24" height="24"/>
</g>
</svg>
