<?xml version="1.0" encoding="utf-8"?>
<!-- Generator: Adobe Illustrator 21.0.2, SVG Export Plug-In . SVG Version: 6.00 Build 0)  -->
<svg version="1.1" xmlns="http://www.w3.org/2000/svg" xmlns:xlink="http://www.w3.org/1999/xlink" x="0px" y="0px" width="24px"
	 height="24px" viewBox="0 0 24 24" enable-background="new 0 0 24 24" xml:space="preserve">
<g id="Black">
	<path fill="#58595B" d="M23.5,6h-5.793l-2.854-2.854C14.76,3.053,14.633,3,14.5,3h-5C9.367,3,9.24,3.053,9.146,3.146L6.293,6H0.5
		C0.224,6,0,6.224,0,6.5v6C0,12.776,0.224,13,0.5,13H1v8.5C1,21.776,1.224,22,1.5,22h21c0.276,0,0.5-0.224,0.5-0.5V13h0.5
		c0.276,0,0.5-0.224,0.5-0.5v-6C24,6.224,23.776,6,23.5,6z M9.707,4h4.586l2,2H7.707L9.707,4z M2,13h2v2
		c0,0.189,0.107,0.362,0.276,0.447L6,16.309V21H2V13z M8,13v1.691l-1.5,0.75L5,14.691V13H8z M15,13v2
		c0,0.189,0.107,0.362,0.276,0.447L17,16.309V21H7v-4.691l1.724-0.862C8.893,15.362,9,15.189,9,15v-2H15z M19,13v1.691l-1.5,0.75
		l-1.5-0.75V13H19z M22,21h-4v-4.691l1.724-0.862C19.893,15.362,20,15.189,20,15v-2h2V21z M23,12h-0.5h-21H1V7h22V12z"/>
</g>
<g id="Frames-24px">
	<rect y="0" fill="none" width="24" height="24"/>
</g>
</svg>
