<?xml version="1.0" encoding="utf-8"?>
<!-- Generator: Adobe Illustrator 21.0.2, SVG Export Plug-In . SVG Version: 6.00 Build 0)  -->
<svg version="1.1" xmlns="http://www.w3.org/2000/svg" xmlns:xlink="http://www.w3.org/1999/xlink" x="0px" y="0px" width="24px"
	 height="24px" viewBox="0 0 24 24" enable-background="new 0 0 24 24" xml:space="preserve">
<g id="Black">
	<path fill="#58595B" d="M0.5,24h20c0.276,0,0.5-0.224,0.5-0.5v-20C21,3.224,20.776,3,20.5,3H17V1.5C17,1.224,16.776,1,16.5,1
		S16,1.224,16,1.5V3H5V1.5C5,1.224,4.776,1,4.5,1S4,1.224,4,1.5V3H0.5C0.224,3,0,3.224,0,3.5v20C0,23.776,0.224,24,0.5,24z M10,12v3
		H6v-3H10z M15,12v3h-4v-3H15z M20,12v3h-4v-3H20z M6,16h4v3H6V16z M5,19H1v-3h4V19z M10,20v3H6v-3H10z M11,20h4v3h-4V20z M11,19v-3
		h4v3H11z M16,16h4v3h-4V16z M5,15H1v-3h4V15z M1,20h4v3H1V20z M16,23v-3h4v3H16z M4,4v1.5C4,5.776,4.224,6,4.5,6S5,5.776,5,5.5V4
		h11v1.5C16,5.776,16.224,6,16.5,6S17,5.776,17,5.5V4h3v7H1V4H4z"/>
</g>
<g id="Frames-24px">
	<rect fill="none" width="24" height="24"/>
</g>
</svg>
