<?xml version="1.0" encoding="utf-8"?>
<!-- Generator: Adobe Illustrator 21.0.2, SVG Export Plug-In . SVG Version: 6.00 Build 0)  -->
<svg version="1.1" xmlns="http://www.w3.org/2000/svg" xmlns:xlink="http://www.w3.org/1999/xlink" x="0px" y="0px"
	 viewBox="0 0 24 24" style="enable-background:new 0 0 24 24;" xml:space="preserve">
<style type="text/css">
	.st0{fill:#58595B;}
	.st1{fill:none;}
</style>
<g id="Black">
	<path class="st0" d="M1.6,12.7C1.6,12.9,1.8,13,2,13h1v2H1.5c-0.2,0-0.3,0.1-0.4,0.2s-0.1,0.3,0,0.5l1,2C2.1,17.9,2.3,18,2.5,18H3
		v3H1.5c-0.2,0-0.3,0.1-0.4,0.2s-0.1,0.3,0,0.5l1,2C2.1,23.9,2.3,24,2.5,24h18c0.2,0,0.4-0.1,0.4-0.3l1-2c0.1-0.2,0.1-0.3,0-0.5
		S21.7,21,21.5,21H20v-4h0.5c0.2,0,0.4-0.1,0.4-0.3l1-2c0.1-0.2,0.1-0.3,0-0.5S21.7,14,21.5,14H20v-1h1c0.2,0,0.4-0.1,0.4-0.3l1.5-3
		C23,9.5,23,9.3,22.9,9.1S22.5,9,22.3,9.1l-1.7,0.9l-8.1-5.8l3.3-1.6C15.9,2.4,16,2.2,16,2c0-0.2-0.1-0.4-0.3-0.4l-4-1.5
		c-0.2-0.1-0.3,0-0.5,0.1C11.1,0.2,11,0.3,11,0.5v3.2L2.5,9.9L0.7,9.1C0.5,9,0.3,9,0.1,9.1C0,9.3,0,9.5,0.1,9.7L1.6,12.7z M2.3,16
		h2.4l-0.5,1H2.8L2.3,16z M4,18h0.5c0.2,0,0.4-0.1,0.4-0.3l1-2c0.1-0.2,0.1-0.3,0-0.5S5.7,15,5.5,15H4v-2h3v8H4V18z M15,13v8h-3v-1
		h0.5c0.2,0,0.4-0.1,0.4-0.3l1-2c0.1-0.2,0.1-0.3,0-0.5S13.7,17,13.5,17H12v-4H15z M12.7,18l-0.5,1h-1.4l-0.5-1H12.7z M11,17H9.5
		c-0.2,0-0.3,0.1-0.4,0.2s-0.1,0.3,0,0.5l1,2c0.1,0.2,0.3,0.3,0.4,0.3H11v1H8v-8h3V17z M20.2,23H2.8l-0.5-1h18.4L20.2,23z M20.2,16
		h-1.4l-0.5-1h2.4L20.2,16z M19,14h-1.5c-0.2,0-0.3,0.1-0.4,0.2s-0.1,0.3,0,0.5l1,2c0.1,0.2,0.3,0.3,0.4,0.3H19v4h-3v-8h3V14z
		 M6,8.6l4.2-3L8.2,9.4L6,8.6z M11.5,5.1l2,4l-1.9-0.6c-0.1,0-0.2,0-0.3,0L9.5,9.1L11.5,5.1z M14.8,9.4l-1.9-3.8l4.2,3L14.8,9.4z
		 M12,1.2l2.3,0.8L12,3.2V1.2z M2.3,10.9C2.3,11,2.3,11,2.3,10.9c0.1,0,0.1,0,0.2,0c0,0,0.1,0,0.1,0c0,0,0.1,0,0.1,0c0,0,0,0,0,0
		l2.8-1.4l2.8,0.9c0,0,0,0,0,0c0.1,0,0.2,0,0.3,0c0,0,0,0,0,0l2.8-0.9l2.8,0.9c0,0,0,0,0.1,0c0,0,0.1,0,0.1,0c0,0,0.1,0,0.1,0
		c0,0,0,0,0,0l2.8-0.9l2.8,1.4c0.1,0,0.1,0.1,0.2,0.1c0,0,0,0,0,0c0,0,0,0,0,0c0.1,0,0.1,0,0.2,0c0,0,0,0,0,0l0.7-0.3L20.7,12H2.3
		l-0.7-1.4L2.3,10.9z"/>
</g>
<g id="Frames-24px">
	<rect class="st1" width="24" height="24"/>
</g>
</svg>
