<?xml version="1.0" encoding="utf-8"?>
<!-- Generator: Adobe Illustrator 21.0.2, SVG Export Plug-In . SVG Version: 6.00 Build 0)  -->
<svg version="1.1" xmlns="http://www.w3.org/2000/svg" xmlns:xlink="http://www.w3.org/1999/xlink" x="0px" y="0px"
	 viewBox="0 0 24 24" style="enable-background:new 0 0 24 24;" xml:space="preserve">
<style type="text/css">
	.st0{fill:#58595B;}
	.st1{fill:none;}
</style>
<g id="Black">
	<path class="st0" d="M11.6,5.2L11.9,6l-1.2,0.6c-0.2,0.1-0.3,0.4-0.2,0.7c0.1,0.2,0.3,0.3,0.4,0.3c0.1,0,0.2,0,0.2-0.1l1.2-0.6
		L12.5,7l-0.9,2.3c-0.1,0.2,0,0.5,0.2,0.6l1.7,0.8L13,13.4c0,0.2,0,0.3,0.1,0.4c0.1,0.1,0.3,0.2,0.4,0.1l2.3-0.5l1.8,0.9
		c0.1,0,0.1,0.1,0.2,0.1c0.1,0,0.1,0,0.2,0c0.1-0.1,0.2-0.2,0.3-0.3l0.9-2.8l2.8-1.4c0.1-0.1,0.2-0.2,0.3-0.4l0.5-3
		c0-0.3-0.1-0.5-0.4-0.6l-1.8-0.5l-1.4-1.9c0,0,0,0,0,0c0,0,0,0,0,0l-2-2.5c-0.1-0.1-0.1-0.1-0.2-0.2l-2.5-1c-0.2-0.1-0.3,0-0.5,0.1
		C14.1,0.2,14,0.3,14,0.5v2.7l-2.3,1.4C11.5,4.7,11.4,5,11.6,5.2z M20.4,6.5l1.6,0.4l-0.4,2.3l-2.3,1.2l-1.6-2.8l1.5-2.6l1,1.4
		C20.2,6.4,20.3,6.5,20.4,6.5z M14.8,3.9C14.9,3.8,15,3.7,15,3.5V1.2l1.7,0.7L18.4,4l-1.8,3.2c-0.1,0.2-0.1,0.3,0,0.5l1.9,3.3
		l-0.7,2.2l-1.5-0.7c-0.1,0-0.1-0.1-0.2-0.1c0,0-0.1,0-0.1,0l-1.8,0.4l0.4-2.3c0-0.2-0.1-0.4-0.3-0.5l-1.6-0.8l0.8-2.1
		c0.1-0.1,0-0.3,0-0.4l-0.8-1.6L14.8,3.9z"/>
	<path class="st0" d="M0.2,21.4c0.1,0.1,0.2,0.1,0.3,0.1c0.1,0,0.2,0,0.3-0.1l3.5-3c0.1,0,0.1-0.1,0.1-0.2L5.1,17H7
		c0.3,0,0.5-0.2,0.5-0.5S7.3,16,7,16H5.6l0.9-1.8c0.1-0.2,0-0.5-0.2-0.7c-0.2-0.1-0.5,0-0.7,0.2l-2,3.9l-2.1,1.8l0.9-2.8
		c0-0.1,0-0.2,0-0.2L2,13.6l1.3-2.2l3.4-1.7C7,9.6,7.1,9.3,7,9C6.9,8.8,6.6,8.7,6.3,8.8L3,10.5L1.2,9.7l2.3-4.5c0,0,0,0,0-0.1
		c0,0,0,0,0,0l0.5-2c0-0.2,0-0.4-0.2-0.5l-2-1.5C1.6,1,1.4,1,1.3,1.1C1.1,1.1,1,1.3,1,1.5v2c0,0.1,0.1,0.3,0.1,0.4l1.2,1.2L0.1,9.8
		C0,9.9,0,10,0,10.2c0,0.1,0.2,0.2,0.3,0.3l2,0.8l-1.2,2C1,13.3,1,13.5,1,13.6l0.5,2.9L0,20.8C0,21.1,0,21.3,0.2,21.4z M2,2.5
		l0.9,0.7L2.7,4L2,3.3V2.5z"/>
	<path class="st0" d="M11,19.7V23H9.5C9.2,23,9,23.2,9,23.5S9.2,24,9.5,24h4c0.3,0,0.5-0.2,0.5-0.5S13.8,23,13.5,23H12v-3.3l1.9-2.4
		c0.2-0.2,0.1-0.5-0.1-0.7c-0.2-0.2-0.5-0.1-0.7,0.1l-1.6,2L9,14.8V7.2l2.9-4.4c0.2-0.2,0.1-0.5-0.1-0.7c-0.2-0.2-0.5-0.1-0.7,0.1
		l-3,4.5C8,6.8,8,6.9,8,7v8c0,0.1,0,0.2,0.1,0.3L11,19.7z"/>
	<path class="st0" d="M19,7.5v1C19,8.8,19.2,9,19.5,9S20,8.8,20,8.5v-1C20,7.2,19.8,7,19.5,7S19,7.2,19,7.5z"/>
	<path class="st0" d="M18.1,15.5l-4-1c-0.1,0-0.2,0-0.2,0l-2,0.5c-0.3,0.1-0.4,0.3-0.4,0.6s0.3,0.4,0.6,0.4l1.9-0.5l3.8,1l3.9,2.5
		C21.8,19,21.9,19,22,19c0.1,0,0.2,0,0.3-0.1c0.2-0.1,0.2-0.4,0.1-0.6l-2-4.5c-0.1-0.3-0.4-0.4-0.7-0.3c-0.3,0.1-0.4,0.4-0.3,0.7
		l1.3,3l-2.6-1.6C18.2,15.5,18.2,15.5,18.1,15.5z"/>
</g>
<g id="Frames-24px">
	<rect class="st1" width="24" height="24"/>
</g>
</svg>
