<?xml version="1.0" encoding="utf-8"?>
<!-- Generator: Adobe Illustrator 21.0.2, SVG Export Plug-In . SVG Version: 6.00 Build 0)  -->
<svg version="1.1" xmlns="http://www.w3.org/2000/svg" xmlns:xlink="http://www.w3.org/1999/xlink" x="0px" y="0px" width="24px"
	 height="24px" viewBox="0 0 24 24" enable-background="new 0 0 24 24" xml:space="preserve">
<g id="Black">
	<path fill="#58595B" d="M9.121,10.825C9.215,10.937,9.354,11,9.5,11h11c0.152,0,0.295-0.069,0.391-0.188l2-2.5
		c0.115-0.145,0.142-0.34,0.069-0.51l-1.5-3.5C21.381,4.119,21.2,4,21,4h-1.191l-1.862-3.724C17.862,0.107,17.689,0,17.5,0H14
		c-0.157,0-0.306,0.074-0.4,0.2L12.25,2H9.5C9.333,2,9.177,2.084,9.084,2.223l-3,4.5C5.96,6.909,5.975,7.155,6.121,7.325
		L9.121,10.825z M9.768,3H12.5c0.157,0,0.306-0.074,0.4-0.2L14.25,1h2.941l1.5,3H16.5C16.224,4,16,4.224,16,4.5S16.224,5,16.5,5
		h4.17l1.252,2.922L20.26,10H9.73L7.126,6.962L9.768,3z"/>
	<path fill="#58595B" d="M0.5,24h7C7.776,24,8,23.776,8,23.5v-11C8,12.224,7.776,12,7.5,12h-7C0.224,12,0,12.224,0,12.5v11
		C0,23.776,0.224,24,0.5,24z M1,23v-2h6v2H1z M7,13v7H1v-7H7z"/>
	<path fill="#58595B" d="M3.5,15h1C4.776,15,5,14.776,5,14.5S4.776,14,4.5,14h-1C3.224,14,3,14.224,3,14.5S3.224,15,3.5,15z"/>
	<path fill="#58595B" d="M20.854,13.647c-0.046-0.046-0.102-0.083-0.163-0.109c-0.122-0.051-0.26-0.051-0.382,0
		c-0.062,0.026-0.117,0.062-0.163,0.109l-2,1.999c-0.195,0.195-0.195,0.512,0,0.707s0.512,0.195,0.707,0L20,15.207V20h-4.793
		l1.146-1.146c0.195-0.195,0.195-0.512,0-0.707s-0.512-0.195-0.707,0l-2,1.999c-0.046,0.046-0.083,0.102-0.108,0.163
		c-0.051,0.122-0.051,0.26,0,0.382c0.025,0.062,0.062,0.117,0.108,0.163l2,1.999C15.744,22.951,15.872,23,16,23
		s0.256-0.049,0.354-0.146c0.195-0.195,0.195-0.512,0-0.707L15.207,21H20.5c0.276,0,0.5-0.224,0.5-0.5v-5.293l1.146,1.146
		c0.098,0.098,0.226,0.146,0.354,0.146s0.256-0.049,0.354-0.146c0.195-0.195,0.195-0.512,0-0.707L20.854,13.647z"/>
</g>
<g id="Frames-24px">
	<rect fill="none" width="24" height="24"/>
</g>
</svg>
