<?xml version="1.0" encoding="utf-8"?>
<!-- Generator: Adobe Illustrator 21.0.2, SVG Export Plug-In . SVG Version: 6.00 Build 0)  -->
<svg version="1.1" xmlns="http://www.w3.org/2000/svg" xmlns:xlink="http://www.w3.org/1999/xlink" x="0px" y="0px"
	 viewBox="0 0 24 24" style="enable-background:new 0 0 24 24;" xml:space="preserve">
<style type="text/css">
	.st0{fill:#58595B;}
	.st1{fill:none;}
</style>
<g id="Black">
	<path class="st0" d="M0.5,1h3.8L1.1,4.1C1,4.3,1,4.5,1,4.7C1.1,4.9,1.3,5,1.5,5h3.8l2.4,3H3.5C3.3,8,3.1,8.1,3,8.3
		C3,8.5,3,8.7,3.1,8.8l6.9,7.4V23H7.5C7.2,23,7,23.2,7,23.5S7.2,24,7.5,24h6c0.3,0,0.5-0.2,0.5-0.5S13.8,23,13.5,23H11v-6.8l6.9-7.4
		C18,8.7,18,8.5,18,8.3C17.9,8.1,17.7,8,17.5,8H8.9l-3-3.8C5.8,4.1,5.7,4,5.5,4H2.7l3.1-3.1C6,0.7,6,0.5,6,0.3C5.9,0.1,5.7,0,5.5,0
		h-5C0.2,0,0,0.2,0,0.5S0.2,1,0.5,1z M16.3,9l-5.8,6.3L4.7,9h3.7l2.2,2.8c0.1,0.1,0.2,0.2,0.4,0.2c0.1,0,0.2,0,0.3-0.1
		c0.2-0.2,0.3-0.5,0.1-0.7L9.7,9H16.3z"/>
	<path class="st0" d="M19.2,7.3C19,7.5,18.9,7.8,19.1,8c0.1,0.2,0.3,0.2,0.4,0.2c0.1,0,0.2,0,0.3-0.1l2-1.3C21.9,6.8,22,6.7,22,6.5
		v-2c0-0.2-0.1-0.3-0.2-0.4l-2-1.3c-0.2-0.1-0.4-0.1-0.5,0l-2,1.3C17.1,4.2,17,4.3,17,4.5v1C17,5.8,17.2,6,17.5,6S18,5.8,18,5.5V4.8
		l1.5-0.9L21,4.8v1.4L19.2,7.3z"/>
	<path class="st0" d="M23.7,2.8l-4-2.3c-0.2-0.1-0.3-0.1-0.5,0l-4,2.3C15.1,2.9,15,3.1,15,3.3v3.3C15,6.8,15.2,7,15.5,7
		S16,6.8,16,6.5v-3l3.5-2l3.5,2v3.9l-3.7,2.1c-0.2,0.1-0.3,0.4-0.2,0.7c0.1,0.2,0.3,0.3,0.4,0.3c0.1,0,0.2,0,0.2-0.1l4-2.3
		C23.9,8.1,24,7.9,24,7.8V3.3C24,3.1,23.9,2.9,23.7,2.8z"/>
</g>
<g id="Frames-24px">
	<rect class="st1" width="24" height="24"/>
</g>
</svg>
