<?xml version="1.0" encoding="utf-8"?>
<!-- Generator: Adobe Illustrator 21.0.2, SVG Export Plug-In . SVG Version: 6.00 Build 0)  -->
<svg version="1.1" xmlns="http://www.w3.org/2000/svg" xmlns:xlink="http://www.w3.org/1999/xlink" x="0px" y="0px" width="24px"
	 height="24px" viewBox="0 0 24 24" enable-background="new 0 0 24 24" xml:space="preserve">
<g id="Black">
	<path fill="#58595B" d="M13.746,12.947l-2-1.132c-0.152-0.087-0.34-0.087-0.492,0l-2,1.132C9.097,13.036,9,13.202,9,13.382v2.236
		c0,0.18,0.097,0.346,0.254,0.435l2,1.132c0.076,0.043,0.161,0.065,0.246,0.065s0.17-0.021,0.246-0.065l2-1.132
		C13.903,15.964,14,15.798,14,15.618v-2.236C14,13.202,13.903,13.036,13.746,12.947z M13,15.327l-1.5,0.849L10,15.327v-1.653
		l1.5-0.849l1.5,0.849V15.327z"/>
	<path fill="#58595B" d="M16.87,12.754c0.147-0.162,0.172-0.402,0.061-0.591l-0.762-1.292c-0.111-0.189-0.332-0.285-0.547-0.232
		l-1.293,0.309L13,10.235l-0.271-0.882C12.664,9.143,12.47,9,12.25,9h-1.5c-0.22,0-0.414,0.143-0.478,0.353L10,10.235l-1.33,0.712
		l-1.292-0.309c-0.215-0.051-0.436,0.043-0.547,0.232l-0.762,1.292c-0.111,0.189-0.087,0.429,0.061,0.591L7,13.707v1.586
		l-0.87,0.953c-0.148,0.162-0.172,0.402-0.061,0.591l0.762,1.292c0.111,0.189,0.331,0.283,0.547,0.232l1.292-0.309L10,18.765
		l0.271,0.882C10.336,19.857,10.53,20,10.75,20h1.5c0.22,0,0.414-0.143,0.478-0.353L13,18.765l1.33-0.712l1.293,0.309
		c0.216,0.053,0.436-0.043,0.547-0.232l0.762-1.292c0.111-0.189,0.086-0.429-0.061-0.591L16,15.293v-1.586L16.87,12.754z
		 M15.13,15.824l0.751,0.823l-0.387,0.656l-1.119-0.267c-0.12-0.029-0.245-0.012-0.352,0.045l-1.678,0.898
		c-0.116,0.062-0.203,0.168-0.242,0.294L11.881,19h-0.762l-0.223-0.726c-0.039-0.126-0.126-0.231-0.242-0.294l-1.678-0.898
		c-0.107-0.058-0.232-0.074-0.352-0.045l-1.118,0.267l-0.387-0.656l0.751-0.823C7.954,15.731,8,15.611,8,15.487v-1.974
		c0-0.125-0.046-0.245-0.13-0.337l-0.751-0.823l0.387-0.656l1.118,0.267c0.12,0.029,0.245,0.012,0.352-0.045l1.678-0.898
		c0.116-0.062,0.203-0.168,0.242-0.294L11.119,10h0.762l0.223,0.726c0.039,0.126,0.126,0.231,0.242,0.294l1.678,0.898
		c0.107,0.058,0.232,0.074,0.352,0.045l1.119-0.267l0.387,0.656l-0.751,0.823C15.046,13.269,15,13.389,15,13.513v1.974
		C15,15.611,15.046,15.731,15.13,15.824z"/>
	<path fill="#58595B" d="M0.5,23h22c0.276,0,0.5-0.224,0.5-0.5v-20C23,2.224,22.776,2,22.5,2h-22C0.224,2,0,2.224,0,2.5v20
		C0,22.776,0.224,23,0.5,23z M1,22V7h21v15H1z M22,3v3H1V3H22z"/>
	<path fill="#58595B" d="M2.5,5h1C3.776,5,4,4.776,4,4.5S3.776,4,3.5,4h-1C2.224,4,2,4.224,2,4.5S2.224,5,2.5,5z"/>
	<path fill="#58595B" d="M5.5,5h1C6.776,5,7,4.776,7,4.5S6.776,4,6.5,4h-1C5.224,4,5,4.224,5,4.5S5.224,5,5.5,5z"/>
	<path fill="#58595B" d="M8.5,5h1C9.776,5,10,4.776,10,4.5S9.776,4,9.5,4h-1C8.224,4,8,4.224,8,4.5S8.224,5,8.5,5z"/>
</g>
<g id="Frames-24px">
	<rect fill="none" width="24" height="24"/>
</g>
</svg>
