<?xml version="1.0" encoding="utf-8"?>
<!-- Generator: Adobe Illustrator 21.0.2, SVG Export Plug-In . SVG Version: 6.00 Build 0)  -->
<svg version="1.1" xmlns="http://www.w3.org/2000/svg" xmlns:xlink="http://www.w3.org/1999/xlink" x="0px" y="0px" width="24px"
	 height="24px" viewBox="0 0 24 24" enable-background="new 0 0 24 24" xml:space="preserve">
<g id="Black">
	<path fill="#58595B" d="M0.5,24h22c0.276,0,0.5-0.224,0.5-0.5v-6c0-0.276-0.224-0.5-0.5-0.5H11.95l8.703-8.703
		c0.094-0.094,0.146-0.221,0.146-0.354s-0.053-0.26-0.146-0.354L16.41,3.348c-0.195-0.195-0.512-0.195-0.707,0L7,12.05V1.5
		C7,1.224,6.776,1,6.5,1h-6C0.224,1,0,1.224,0,1.5v22C0,23.776,0.224,24,0.5,24z M16,23h-2v-5h2V23z M17,18h2v5h-2V18z M13,23h-2v-5
		h2V23z M7,21.95l3-3V23H7V21.95z M7,20.536v-3.971l1.985,1.985L7,20.536z M22,23h-2v-5h2V23z M9.692,10.772l3.536,3.536
		l-1.414,1.414l-3.536-3.536L9.692,10.772z M11.814,8.651l3.536,3.536l-1.414,1.414l-3.536-3.536L11.814,8.651z M13.935,6.529
		l3.536,3.536l-1.414,1.414l-3.536-3.536L13.935,6.529z M16.056,4.408l3.536,3.535l-1.415,1.415l-3.536-3.536L16.056,4.408z
		 M7.571,12.893l3.536,3.536l-1.414,1.414L7,15.151v-1.687L7.571,12.893z M1,2h5v21H1V2z"/>
	<path fill="#58595B" d="M3.5,16C3.776,16,4,15.776,4,15.5v-11C4,4.224,3.776,4,3.5,4S3,4.224,3,4.5v11C3,15.776,3.224,16,3.5,16z"
		/>
	<path fill="#58595B" d="M3.854,18.146c-0.195-0.195-0.512-0.195-0.707,0l-1.5,1.5C1.553,19.74,1.5,19.867,1.5,20
		s0.053,0.26,0.146,0.354l1.5,1.5C3.244,21.951,3.372,22,3.5,22s0.256-0.049,0.354-0.146l1.5-1.5C5.448,20.259,5.5,20.132,5.5,20
		s-0.053-0.26-0.146-0.354L3.854,18.146z M3.5,20.793L2.707,20L3.5,19.207L4.293,20L3.5,20.793z"/>
</g>
<g id="Frames-24px">
	<rect fill="none" width="24" height="24"/>
</g>
</svg>
