<?xml version="1.0" encoding="utf-8"?>
<!-- Generator: Adobe Illustrator 21.0.2, SVG Export Plug-In . SVG Version: 6.00 Build 0)  -->
<svg version="1.1" xmlns="http://www.w3.org/2000/svg" xmlns:xlink="http://www.w3.org/1999/xlink" x="0px" y="0px" width="24px"
	 height="24px" viewBox="0 0 24 24" enable-background="new 0 0 24 24" xml:space="preserve">
<g id="Black">
	<path fill="#58595B" d="M8.354,4.354L11,1.707V11.5c0,0.276,0.224,0.5,0.5,0.5s0.5-0.224,0.5-0.5V1.707l2.646,2.646
		C14.744,4.451,14.872,4.5,15,4.5s0.256-0.049,0.354-0.146c0.195-0.195,0.195-0.512,0-0.707l-3.5-3.499
		c-0.046-0.046-0.102-0.083-0.163-0.109c-0.122-0.051-0.26-0.051-0.382,0c-0.062,0.025-0.117,0.062-0.163,0.109l-3.5,3.499
		c-0.195,0.195-0.195,0.512,0,0.707S8.158,4.549,8.354,4.354z"/>
	<path fill="#58595B" d="M0.5,21H11v2H7.5C7.224,23,7,23.224,7,23.5S7.224,24,7.5,24h8c0.276,0,0.5-0.224,0.5-0.5S15.776,23,15.5,23
		H12v-2h10.5c0.276,0,0.5-0.224,0.5-0.5v-14C23,6.224,22.776,6,22.5,6h-8C14.224,6,14,6.224,14,6.5S14.224,7,14.5,7H22v10H1V7h7.5
		C8.776,7,9,6.776,9,6.5S8.776,6,8.5,6h-8C0.224,6,0,6.224,0,6.5v14C0,20.776,0.224,21,0.5,21z M22,18v2H1v-2H22z"/>
</g>
<g id="Frames-24px">
	<rect fill="none" width="24" height="24"/>
</g>
</svg>
