<?xml version="1.0" encoding="utf-8"?>
<!-- Generator: Adobe Illustrator 21.0.2, SVG Export Plug-In . SVG Version: 6.00 Build 0)  -->
<svg version="1.1" xmlns="http://www.w3.org/2000/svg" xmlns:xlink="http://www.w3.org/1999/xlink" x="0px" y="0px" width="24px"
	 height="24px" viewBox="0 0 24 24" enable-background="new 0 0 24 24" xml:space="preserve">
<g id="Black">
	<path fill="#58595B" d="M11.146,11.853c0.046,0.046,0.102,0.083,0.163,0.109C11.37,11.987,11.435,12,11.5,12
		s0.13-0.013,0.191-0.038c0.062-0.025,0.117-0.062,0.163-0.109l3.5-3.499c0.195-0.195,0.195-0.512,0-0.707s-0.512-0.195-0.707,0
		L12,10.293V0.5C12,0.224,11.776,0,11.5,0S11,0.224,11,0.5v9.793L8.354,7.646c-0.195-0.195-0.512-0.195-0.707,0
		s-0.195,0.512,0,0.707L11.146,11.853z"/>
	<path fill="#58595B" d="M22.5,6h-6C16.224,6,16,6.224,16,6.5S16.224,7,16.5,7H22v10H1V7h5.5C6.776,7,7,6.776,7,6.5S6.776,6,6.5,6
		h-6C0.224,6,0,6.224,0,6.5v14C0,20.776,0.224,21,0.5,21H11v2H7.5C7.224,23,7,23.224,7,23.5S7.224,24,7.5,24h8
		c0.276,0,0.5-0.224,0.5-0.5S15.776,23,15.5,23H12v-2h10.5c0.276,0,0.5-0.224,0.5-0.5v-14C23,6.224,22.776,6,22.5,6z M1,20v-2h21v2
		H1z"/>
</g>
<g id="Frames-24px">
	<rect fill="none" width="24" height="24"/>
</g>
</svg>
