<?xml version="1.0" encoding="utf-8"?>
<!-- Generator: Adobe Illustrator 21.0.2, SVG Export Plug-In . SVG Version: 6.00 Build 0)  -->
<svg version="1.1" xmlns="http://www.w3.org/2000/svg" xmlns:xlink="http://www.w3.org/1999/xlink" x="0px" y="0px"
	 viewBox="0 0 24 24" style="enable-background:new 0 0 24 24;" xml:space="preserve">
<style type="text/css">
	.st0{fill:#58595B;}
	.st1{fill:none;}
</style>
<g id="Black">
	<path class="st0" d="M5.5,13h-5C0.2,13,0,13.2,0,13.5v8C0,21.8,0.2,22,0.5,22h5C5.8,22,6,21.8,6,21.5v-8C6,13.2,5.8,13,5.5,13z
		 M5,14v5H1v-5H5z M1,21v-1h4v1H1z"/>
	<path class="st0" d="M11,19.5v-11C11,8.2,10.8,8,10.5,8h-8C2.2,8,2,8.2,2,8.5v3C2,11.8,2.2,12,2.5,12S3,11.8,3,11.5V9h7v8H7.5
		C7.2,17,7,17.2,7,17.5S7.2,18,7.5,18H10v1H7.5C7.2,19,7,19.2,7,19.5S7.2,20,7.5,20h3C10.8,20,11,19.8,11,19.5z"/>
	<path class="st0" d="M22.5,3h-18C4.2,3,4,3.2,4,3.5v3C4,6.8,4.2,7,4.5,7S5,6.8,5,6.5V4h17v10h-9.5c-0.3,0-0.5,0.2-0.5,0.5
		s0.2,0.5,0.5,0.5H22v2h-9.5c-0.3,0-0.5,0.2-0.5,0.5s0.2,0.5,0.5,0.5H13v3H9.5C9.2,21,9,21.2,9,21.5S9.2,22,9.5,22h8
		c0.3,0,0.5-0.2,0.5-0.5S17.8,21,17.5,21H14v-3h8.5c0.3,0,0.5-0.2,0.5-0.5v-14C23,3.2,22.8,3,22.5,3z"/>
	<path class="st0" d="M16.6,5.6c-0.2,0.2-0.2,0.5,0,0.7l3,3c0.1,0.1,0.2,0.1,0.4,0.1s0.3,0,0.4-0.1c0.2-0.2,0.2-0.5,0-0.7l-3-3
		C17.2,5.5,16.8,5.5,16.6,5.6z"/>
	<path class="st0" d="M20.5,7c0.1,0,0.3,0,0.4-0.1c0.2-0.2,0.2-0.5,0-0.7l-1-1c-0.2-0.2-0.5-0.2-0.7,0s-0.2,0.5,0,0.7l1,1
		C20.2,7,20.4,7,20.5,7z"/>
</g>
<g id="Frames-24px">
	<rect class="st1" width="24" height="24"/>
</g>
</svg>
