<?xml version="1.0" encoding="utf-8"?>
<!-- Generator: Adobe Illustrator 21.0.2, SVG Export Plug-In . SVG Version: 6.00 Build 0)  -->
<svg version="1.1" xmlns="http://www.w3.org/2000/svg" xmlns:xlink="http://www.w3.org/1999/xlink" x="0px" y="0px" width="24px"
	 height="24px" viewBox="0 0 24 24" enable-background="new 0 0 24 24" xml:space="preserve">
<g id="Black">
	<path fill="#58595B" d="M3.013,4.615l2,8.5c0.024,0.101,0.079,0.193,0.158,0.262l3.709,3.245l-3.327,6.654
		c-0.078,0.155-0.069,0.339,0.022,0.486S5.827,24,6,24h11c0.173,0,0.334-0.09,0.425-0.237s0.1-0.332,0.022-0.486l-3.327-6.654
		l3.709-3.245c0.079-0.069,0.134-0.161,0.158-0.262l2-8.5l-0.015-0.003C19.999,4.499,20,4.382,19.947,4.276l-1.5-3
		C18.362,1.107,18.189,1,18,1H5C4.811,1,4.638,1.107,4.553,1.276l-1.5,3C3,4.382,3.001,4.499,3.028,4.611L3.013,4.615z M4.131,5
		h3.662l-2.197,6.225L4.131,5z M9.809,17h3.382l1.367,2.735L13.5,20.793l-1.646-1.646c-0.195-0.195-0.512-0.195-0.707,0L9.5,20.793
		l-1.058-1.058L9.809,17z M9.688,16l-3.604-3.153L8.5,6.002l2.528,7.164c0.071,0.2,0.26,0.333,0.472,0.333s0.401-0.134,0.472-0.333
		L14.5,6.002l2.416,6.845L13.312,16H9.688z M11.5,11.498L9.207,5h4.586L11.5,11.498z M6.809,23l1.161-2.323l1.176,1.176
		c0.195,0.195,0.512,0.195,0.707,0l1.646-1.646l1.646,1.646C13.244,21.951,13.372,22,13.5,22s0.256-0.049,0.354-0.146l1.176-1.176
		L16.191,23H6.809z M17.404,11.225L15.207,5h3.662L17.404,11.225z M5.309,2h12.382l1,2H4.309L5.309,2z"/>
</g>
<g id="Frames-24px">
	<rect fill="none" width="24" height="24"/>
</g>
</svg>
