<?xml version="1.0" encoding="utf-8"?>
<!-- Generator: Adobe Illustrator 21.0.2, SVG Export Plug-In . SVG Version: 6.00 Build 0)  -->
<svg version="1.1" xmlns="http://www.w3.org/2000/svg" xmlns:xlink="http://www.w3.org/1999/xlink" x="0px" y="0px"
	 viewBox="0 0 24 24" style="enable-background:new 0 0 24 24;" xml:space="preserve">
<style type="text/css">
	.st0{fill:#58595B;}
	.st1{fill:none;}
</style>
<g id="Black">
	<path class="st0" d="M3.2,23.9C3.3,24,3.4,24,3.5,24c0.2,0,0.3-0.1,0.4-0.2L7.8,18h7.5l3.9,5.8c0.1,0.1,0.3,0.2,0.4,0.2
		c0.1,0,0.2,0,0.3-0.1c0.2-0.2,0.3-0.5,0.1-0.7L16.4,18h1.1c0.3,0,0.5-0.2,0.5-0.5S17.8,17,17.5,17h-1.7l-1.6-4h1.3
		c0.3,0,0.5-0.2,0.5-0.5S15.8,12,15.5,12h-1.6l-1.2-7c0.1-0.1,0.3-0.2,0.3-0.3l0.5-2c0-0.1,0-0.3-0.1-0.4S13.2,2,13,2h-1V0.5
		C12,0.2,11.8,0,11.5,0S11,0.2,11,0.5V2h-1C9.8,2,9.7,2.1,9.6,2.2S9.5,2.5,9.5,2.6l0.5,2c0,0.2,0.2,0.3,0.3,0.3l-1.2,7H7.5
		C7.2,12,7,12.2,7,12.5S7.2,13,7.5,13h1.3l-1.6,4H5.5C5.2,17,5,17.2,5,17.5S5.2,18,5.5,18h1.1l-3.5,5.2C2.9,23.5,3,23.8,3.2,23.9z
		 M12.4,3l-0.3,1h-1.2l-0.3-1H12.4z M11.3,5h0.3l1.2,7h-2.8L11.3,5z M9.8,13h3.3l1.6,4H8.2L9.8,13z"/>
	<path class="st0" d="M15.2,21l-3.5-1.5c0,0,0,0,0,0c0,0-0.1,0-0.1,0c0,0,0,0,0,0c0,0-0.1,0-0.1,0c0,0-0.1,0-0.1,0c0,0,0,0,0,0
		L7.8,21c-0.1,0-0.2,0.1-0.3,0.2l-1,2c-0.1,0.2,0,0.5,0.2,0.7C6.8,24,6.9,24,7,24c0.2,0,0.4-0.1,0.4-0.3l0.9-1.8l3.1-1.3l3.1,1.3
		l0.9,1.8c0.1,0.2,0.3,0.3,0.4,0.3c0.1,0,0.2,0,0.2-0.1c0.2-0.1,0.3-0.4,0.2-0.7l-1-2C15.4,21.2,15.3,21.1,15.2,21z"/>
	<path class="st0" d="M12.9,15.1l-1-1c-0.2-0.2-0.5-0.2-0.7,0l-1,1c-0.2,0.2-0.2,0.5,0,0.7s0.5,0.2,0.7,0l0.6-0.6l0.6,0.6
		c0.1,0.1,0.2,0.1,0.4,0.1s0.3,0,0.4-0.1C13,15.7,13,15.3,12.9,15.1z"/>
</g>
<g id="Frames-24px">
	<rect class="st1" width="24" height="24"/>
</g>
</svg>
