<?xml version="1.0" encoding="utf-8"?>
<!-- Generator: Adobe Illustrator 21.0.2, SVG Export Plug-In . SVG Version: 6.00 Build 0)  -->
<svg version="1.1" xmlns="http://www.w3.org/2000/svg" xmlns:xlink="http://www.w3.org/1999/xlink" x="0px" y="0px"
	 viewBox="0 0 24 24" style="enable-background:new 0 0 24 24;" xml:space="preserve">
<style type="text/css">
	.st0{fill:#58595B;}
	.st1{fill:none;}
</style>
<g id="Black">
	<path class="st0" d="M0.3,13l3,1c0.1,0,0.1,0,0.2,0c0,0,0.1,0,0.1,0l4.5-1c0.3-0.1,0.4-0.3,0.4-0.6C8.4,12.1,8.2,12,7.9,12l-4.4,1
		l-2.9-1c-0.3-0.1-0.5,0.1-0.6,0.3C-0.1,12.6,0.1,12.9,0.3,13z"/>
	<path class="st0" d="M6.5,14.5L6,22H5.4L4,15.4C3.9,15.1,3.7,15,3.4,15C3.1,15.1,3,15.3,3,15.6l1.5,7C4.6,22.8,4.8,23,5,23h1.5
		C6.8,23,7,22.8,7,22.5l0.5-8C7.5,14.3,7.3,14,7,14C6.7,14,6.5,14.2,6.5,14.5z"/>
	<path class="st0" d="M19.5,18.8c-0.1-0.2-0.2-0.3-0.4-0.3L13.5,18c-0.2,0-0.4,0.1-0.5,0.2l-2.3,3.9l-1.3-6.7
		C9.4,15.1,9.2,15,8.9,15c-0.3,0.1-0.5,0.3-0.4,0.6l1.5,8c0,0.2,0.2,0.4,0.4,0.4c0,0,0.1,0,0.1,0c0.2,0,0.3-0.1,0.4-0.2l2.8-4.7
		l4.9,0.4l1.9,4.2c0.1,0.2,0.3,0.3,0.5,0.3c0.2,0,0.4-0.2,0.4-0.4l2.5-9.5c0-0.2,0-0.4-0.1-0.5l-4-4c-0.1-0.1-0.1-0.1-0.2-0.1
		l-3.4-0.8l1.1-1.4c0.1-0.2,0.2-0.4,0-0.6l-3-5c-0.1-0.2-0.3-0.3-0.5-0.2l-8.5,2C5.2,3.6,5.1,3.7,5,3.8L3,8.9l-0.5,2.5
		c-0.1,0.3,0.1,0.5,0.4,0.6c0.3,0.1,0.5-0.1,0.6-0.4L4,9.2l1.9-4.8l7.9-1.9L16.4,7L15,8.7c0,0,0,0,0,0l-3,3.6L8.9,9.1
		C8.7,9,8.3,9,8.1,9.1S8,9.7,8.1,9.9l3.5,3.5c0.1,0.1,0.2,0.1,0.4,0.1c0,0,0,0,0,0c0.1,0,0.3-0.1,0.4-0.2l3.2-3.8l3.7,0.9l3.7,3.7
		L20.9,22L19.5,18.8z"/>
	<path class="st0" d="M6,7.5v1C6,8.8,6.2,9,6.5,9S7,8.8,7,8.5v-1C7,7.2,6.8,7,6.5,7S6,7.2,6,7.5z"/>
</g>
<g id="Frames-24px">
	<rect class="st1" width="24" height="24"/>
</g>
</svg>
