<?xml version="1.0" encoding="utf-8"?>
<!-- Generator: Adobe Illustrator 21.0.2, SVG Export Plug-In . SVG Version: 6.00 Build 0)  -->
<svg version="1.1" xmlns="http://www.w3.org/2000/svg" xmlns:xlink="http://www.w3.org/1999/xlink" x="0px" y="0px" width="24px"
	 height="24px" viewBox="0 0 24 24" enable-background="new 0 0 24 24" xml:space="preserve">
<g id="Black">
	<path fill="#58595B" d="M1.5,16h-1C0.224,16,0,16.224,0,16.5v1C0,17.776,0.224,18,0.5,18S1,17.776,1,17.5V17h0.5
		C1.776,17,2,16.776,2,16.5S1.776,16,1.5,16z"/>
	<path fill="#58595B" d="M1.5,23H1v-0.5C1,22.224,0.776,22,0.5,22S0,22.224,0,22.5v1C0,23.776,0.224,24,0.5,24h1
		C1.776,24,2,23.776,2,23.5S1.776,23,1.5,23z"/>
	<path fill="#58595B" d="M8,23.5v-1C8,22.224,7.776,22,7.5,22S7,22.224,7,22.5V23H6.5C6.224,23,6,23.224,6,23.5S6.224,24,6.5,24h1
		C7.776,24,8,23.776,8,23.5z"/>
	<path fill="#58595B" d="M0.5,21C0.776,21,1,20.776,1,20.5v-1C1,19.224,0.776,19,0.5,19S0,19.224,0,19.5v1C0,20.776,0.224,21,0.5,21
		z"/>
	<path fill="#58595B" d="M4.5,23h-1C3.224,23,3,23.224,3,23.5S3.224,24,3.5,24h1C4.776,24,5,23.776,5,23.5S4.776,23,4.5,23z"/>
	<path fill="#58595B" d="M10.5,14c0.128,0,0.256-0.049,0.354-0.146L16,8.707V12.5c0,0.276,0.224,0.5,0.5,0.5s0.5-0.224,0.5-0.5v-5
		c0-0.065-0.013-0.13-0.038-0.191c-0.051-0.122-0.148-0.22-0.271-0.271C16.63,7.013,16.565,7,16.5,7h-5C11.224,7,11,7.224,11,7.5
		S11.224,8,11.5,8h3.793l-5.146,5.146c-0.195,0.195-0.195,0.512,0,0.707C10.244,13.951,10.372,14,10.5,14z"/>
	<path fill="#58595B" d="M22.5,1h-17C5.224,1,5,1.224,5,1.5V16H3.5C3.224,16,3,16.224,3,16.5S3.224,17,3.5,17H5v1.5
		C5,18.776,5.224,19,5.5,19H7v1.5C7,20.776,7.224,21,7.5,21S8,20.776,8,20.5V19h14.5c0.276,0,0.5-0.224,0.5-0.5v-17
		C23,1.224,22.776,1,22.5,1z M22,18H6V2h16V18z"/>
</g>
<g id="Frames-24px">
	<rect fill="none" width="24" height="24"/>
</g>
</svg>
