<?xml version="1.0" encoding="utf-8"?>
<!-- Generator: Adobe Illustrator 21.0.2, SVG Export Plug-In . SVG Version: 6.00 Build 0)  -->
<svg version="1.1" xmlns="http://www.w3.org/2000/svg" xmlns:xlink="http://www.w3.org/1999/xlink" x="0px" y="0px"
	 viewBox="0 0 24 24" style="enable-background:new 0 0 24 24;" xml:space="preserve">
<style type="text/css">
	.st0{fill:#58595B;}
	.st1{fill:none;}
</style>
<g id="Black">
	<path class="st0" d="M20.3,5.8C20.2,5.7,20.2,5.7,20.3,5.8l-0.5-1.2c-0.1-0.1-0.1-0.2-0.3-0.3l-4.6-1.9c0,0,0,0,0,0L11.7,1
		C11.6,1,11.4,1,11.3,1L3.5,4.3C3.4,4.3,3.3,4.4,3.3,4.5L0,12.3C0,12.4,0,12.6,0,12.7l3.2,7.8c0.1,0.1,0.1,0.2,0.3,0.3l7.8,3.2
		c0.1,0,0.1,0,0.2,0s0.1,0,0.2,0l7.8-3.2c0.1-0.1,0.2-0.1,0.3-0.3l3.2-7.8c0.1-0.1,0.1-0.3,0-0.4L20.3,5.8z M19.7,18l-3.1,0.7
		l-1.4-1.3l1.7-5.5l2.5-1.4l2.3,2.7L19.7,18z M6.5,18.7L3.3,18l-1.9-4.7l2.4-2.7l2.5,1.2l1.7,5.6L6.5,18.7z M3.1,9.7l-1.7,2l1.6-3.8
		L3.1,9.7z M8.9,17l-1.7-5.4l4.3-3.1l4.3,3.1L14.2,17H8.9z M19.9,9.7L20.1,8l1.5,3.7L19.9,9.7z M19.3,6l-0.3,3.6l-2.4,1.3L12,7.6
		V4.5l2.6-1.1l4.3,1.8L19.3,6z M11.5,2l1.8,0.8l-1.8,0.8L9.7,2.8L11.5,2z M8.4,3.3L11,4.5v3.1l-4.4,3.2L4.1,9.6L3.8,6l0.4-0.8
		L8.4,3.3z M3.8,19.1l2.5,0.6l0.9,1.5l-3.1-1.3L3.8,19.1z M11.5,23l-2.7-1.1l-1.5-2.5L8.7,18h5.7l1.4,1.3l-1.5,2.5L11.5,23z
		 M15.8,21.2l0.9-1.5l2.5-0.6l-0.3,0.8L15.8,21.2z"/>
</g>
<g id="Frames-24px">
	<rect class="st1" width="24" height="24"/>
</g>
</svg>
