<?xml version="1.0" encoding="utf-8"?>
<!-- Generator: Adobe Illustrator 21.0.2, SVG Export Plug-In . SVG Version: 6.00 Build 0)  -->
<svg version="1.1" xmlns="http://www.w3.org/2000/svg" xmlns:xlink="http://www.w3.org/1999/xlink" x="0px" y="0px" width="24px"
	 height="24px" viewBox="0 0 24 24" enable-background="new 0 0 24 24" xml:space="preserve">
<g id="Black">
	<path fill="#58595B" d="M22.5,1h-22C0.224,1,0,1.224,0,1.5v17C0,18.776,0.224,19,0.5,19H9v2H4v-0.5
		c0-0.229-0.156-0.429-0.379-0.485l-2-0.5c-0.148-0.037-0.307-0.003-0.429,0.091C1.071,19.701,1,19.846,1,20v3
		c0,0.154,0.071,0.299,0.192,0.394C1.281,23.463,1.39,23.5,1.5,23.5c0.041,0,0.081-0.005,0.121-0.015l2-0.5
		C3.844,22.929,4,22.729,4,22.5V22h5v1H6.5C6.224,23,6,23.224,6,23.5S6.224,24,6.5,24h10c0.276,0,0.5-0.224,0.5-0.5
		S16.776,23,16.5,23H14v-4h8.5c0.276,0,0.5-0.224,0.5-0.5v-17C23,1.224,22.776,1,22.5,1z M3,22.109l-1,0.25v-1.719l1,0.25V22.109z
		 M22,2v8.213l-5.5,3.209L11,10.213V2H22z M10,19h1v4h-1V19z M13,23h-1v-4h1V23z M1,18V2h9v8.5c0,0.178,0.094,0.342,0.248,0.432
		l6,3.5c0.078,0.045,0.165,0.068,0.252,0.068s0.174-0.022,0.252-0.068L22,11.371V18H1z"/>
	<path fill="#58595B" d="M8.5,3h-6C2.224,3,2,3.224,2,3.5v5C2,8.776,2.224,9,2.5,9h6C8.776,9,9,8.776,9,8.5v-5
		C9,3.224,8.776,3,8.5,3z M8,8H3V4h5V8z"/>
	<path fill="#58595B" d="M4.5,7C4.776,7,5,6.776,5,6.5v-1C5,5.224,4.776,5,4.5,5S4,5.224,4,5.5v1C4,6.776,4.224,7,4.5,7z"/>
	<path fill="#58595B" d="M12.255,4.314C12.098,4.403,12,4.569,12,4.75v4.5c0,0.181,0.098,0.347,0.255,0.436l4,2.25
		C16.331,11.979,16.416,12,16.5,12s0.169-0.021,0.245-0.064l4-2.25C20.902,9.597,21,9.431,21,9.25v-4.5
		c0-0.181-0.098-0.347-0.255-0.436l-4-2.25C16.669,2.021,16.584,2,16.5,2s-0.169,0.021-0.245,0.064L12.255,4.314z M20,5.042v3.915
		l-3.5,1.969L13,8.958V5.042l3.5-1.969L20,5.042z"/>
	<path fill="#58595B" d="M16.235,9.674C16.316,9.725,16.408,9.75,16.5,9.75s0.184-0.025,0.265-0.076l2-1.25
		C18.911,8.333,19,8.172,19,8V6c0-0.172-0.089-0.333-0.235-0.424l-2-1.25c-0.162-0.102-0.368-0.102-0.53,0l-2,1.25
		C14.089,5.667,14,5.828,14,6v2c0,0.172,0.089,0.333,0.235,0.424L16.235,9.674z M15,6.277l1.5-0.938L18,6.277v1.445L16.5,8.66
		L15,7.723V6.277z"/>
	<path fill="#58595B" d="M5.765,11.576c-0.162-0.102-0.368-0.102-0.53,0l-2,1.25C3.089,12.917,3,13.078,3,13.25v2
		c0,0.172,0.089,0.333,0.235,0.424l2,1.25C5.316,16.975,5.408,17,5.5,17s0.184-0.025,0.265-0.076l2-1.25
		C7.911,15.583,8,15.422,8,15.25v-2c0-0.172-0.089-0.333-0.235-0.424L5.765,11.576z M7,14.973L5.5,15.91L4,14.973v-1.445l1.5-0.938
		L7,13.527V14.973z"/>
</g>
<g id="Frames-24px">
	<rect fill="none" width="24" height="24"/>
</g>
</svg>
