<?xml version="1.0" encoding="utf-8"?>
<!-- Generator: Adobe Illustrator 21.0.2, SVG Export Plug-In . SVG Version: 6.00 Build 0)  -->
<svg version="1.1" xmlns="http://www.w3.org/2000/svg" xmlns:xlink="http://www.w3.org/1999/xlink" x="0px" y="0px"
	 viewBox="0 0 24 24" style="enable-background:new 0 0 24 24;" xml:space="preserve">
<style type="text/css">
	.st0{fill:#58595B;}
	.st1{fill:none;}
</style>
<g id="Black">
	<path class="st0" d="M23.5,6h-2l-0.1-0.6l-0.4-2C20.9,3.1,20.7,3,20.4,3C20.1,3.1,20,3.3,20,3.6L20.3,5H2.7L0.8,3.6
		C0.6,3.4,0.3,3.5,0.1,3.7C-0.1,3.9,0,4.2,0.2,4.4L2,5.8L3,10.5l-3,8.9c-0.1,0.2,0,0.3,0.1,0.5C0.2,19.9,0.3,20,0.5,20h0.9L1,21.4
		c0,0.1,0,0.3,0.1,0.4C1.2,21.9,1.3,22,1.5,22h5c0.2,0,0.4-0.2,0.5-0.4L7.4,20H8c0.2,0,0.5-0.2,0.5-0.4L9,16h3
		c0.2,0,0.4-0.1,0.5-0.3l0.9-2.7H20c0.1,0,0.3-0.1,0.4-0.1l2-2c0.1-0.1,0.1-0.1,0.1-0.2c0,0,0,0,0-0.1c0,0,0-0.1,0-0.1
		c0,0,0,0,0-0.1c0,0,0,0,0,0L22.2,9h1.3C23.8,9,24,8.8,24,8.5v-2C24,6.2,23.8,6,23.5,6z M16.4,6l-0.3,1H6.6l0.3-1H16.4z M5.9,6
		L5.5,7.4c0,0.1,0,0.3,0.1,0.4C5.7,7.9,5.8,8,6,8h10.5c0.2,0,0.4-0.2,0.5-0.4L17.4,6h3.1l0.9,4H3.9L3.1,6H5.9z M6.1,21h-4l0.2-1h4
		L6.1,21z M11.6,15H9.1l0.3-2h2.9L11.6,15z M19.8,12H9c-0.2,0-0.5,0.2-0.5,0.4L7.6,19H1.2l2.7-8h16.9L19.8,12z M23,8h-1l-0.2-1H23V8
		z"/>
</g>
<g id="Frames-24px">
	<rect class="st1" width="24" height="24"/>
</g>
</svg>
