<?xml version="1.0" encoding="utf-8"?>
<!-- Generator: Adobe Illustrator 21.0.2, SVG Export Plug-In . SVG Version: 6.00 Build 0)  -->
<svg version="1.1" xmlns="http://www.w3.org/2000/svg" xmlns:xlink="http://www.w3.org/1999/xlink" x="0px" y="0px"
	 viewBox="0 0 24 24" style="enable-background:new 0 0 24 24;" xml:space="preserve">
<style type="text/css">
	.st0{fill:#58595B;}
	.st1{fill:none;}
</style>
<g id="Black">
	<path class="st0" d="M4.5,10h0.6L7,23.6C7,23.8,7.3,24,7.5,24h9c0.2,0,0.5-0.2,0.5-0.4L18.9,10h0.6c0.2,0,0.3-0.1,0.4-0.2
		C20,9.7,20,9.5,20,9.3l-1-3C18.9,6.1,18.7,6,18.5,6h-13C5.3,6,5.1,6.1,5,6.3l-1,3C4,9.5,4,9.7,4.1,9.8C4.2,9.9,4.3,10,4.5,10z
		 M17.1,15.9l-9.4,5.1l-0.4-2.7l10.2-5.6L17.1,15.9z M16.1,23H7.9l-0.1-0.9l9.1-5L16.1,23z M17.7,11.6L7.1,17.4L6.1,10h11.8
		L17.7,11.6z M5.9,7h12.3l0.7,2H5.2L5.9,7z"/>
	<path class="st0" d="M8.8,3.5L8.1,4.1C8,4.3,8,4.7,8.1,4.9C8.2,5,8.4,5,8.5,5s0.3,0,0.4-0.1l1-1c0.2-0.2,0.2-0.5,0-0.7L8.2,1.5
		l0.6-0.6C9,0.7,9,0.3,8.9,0.1S8.3,0,8.1,0.1l-1,1C7,1.3,7,1.7,7.1,1.9L8.8,3.5z"/>
	<path class="st0" d="M12.3,3.5l-0.6,0.6c-0.2,0.2-0.2,0.5,0,0.7C11.7,5,11.9,5,12,5s0.3,0,0.4-0.1l1-1c0.2-0.2,0.2-0.5,0-0.7
		l-1.6-1.6l0.6-0.6c0.2-0.2,0.2-0.5,0-0.7s-0.5-0.2-0.7,0l-1,1c-0.2,0.2-0.2,0.5,0,0.7L12.3,3.5z"/>
	<path class="st0" d="M15.8,3.5l-0.6,0.6c-0.2,0.2-0.2,0.5,0,0.7C15.2,5,15.4,5,15.5,5s0.3,0,0.4-0.1l1-1c0.2-0.2,0.2-0.5,0-0.7
		l-1.6-1.6l0.6-0.6c0.2-0.2,0.2-0.5,0-0.7s-0.5-0.2-0.7,0l-1,1c-0.2,0.2-0.2,0.5,0,0.7L15.8,3.5z"/>
</g>
<g id="Frames-24px">
	<rect class="st1" width="24" height="24"/>
</g>
</svg>
