<?xml version="1.0" encoding="utf-8"?>
<!-- Generator: Adobe Illustrator 21.0.2, SVG Export Plug-In . SVG Version: 6.00 Build 0)  -->
<svg version="1.1" xmlns="http://www.w3.org/2000/svg" xmlns:xlink="http://www.w3.org/1999/xlink" x="0px" y="0px" width="24px"
	 height="24px" viewBox="0 0 24 24" enable-background="new 0 0 24 24" xml:space="preserve">
<g id="Black">
	<path fill="#58595B" d="M3.591,23.787C3.684,23.92,3.837,24,4,24h15c0.163,0,0.316-0.08,0.409-0.213l3.5-5
		c0.107-0.153,0.12-0.352,0.034-0.518S22.687,18,22.5,18h-6c-0.163,0-0.316,0.08-0.409,0.213L12.74,23H12v-8.17l6.697-2.87
		C18.881,11.881,19,11.7,19,11.5v-10c0-0.212-0.134-0.401-0.335-0.472c-0.196-0.069-0.423-0.007-0.556,0.159l-3.551,4.438
		l-2.63-4.383c-0.18-0.301-0.678-0.301-0.857,0l-2.63,4.383L4.891,1.188C4.758,1.021,4.532,0.958,4.335,1.028
		C4.134,1.099,4,1.288,4,1.5v10c0,0.2,0.119,0.381,0.303,0.459L11,14.83V23h-0.74l-3.351-4.787C6.816,18.08,6.663,18,6.5,18h-6
		c-0.187,0-0.357,0.104-0.443,0.269s-0.073,0.365,0.034,0.518L3.591,23.787z M5,2.925l3.109,3.887
		C8.212,6.94,8.37,7.002,8.533,6.999c0.164-0.011,0.312-0.102,0.396-0.242L11.5,2.472l2.571,4.286
		c0.084,0.14,0.231,0.23,0.396,0.242c0.158,0.002,0.321-0.06,0.424-0.187L18,2.925v8.245l-6.5,2.786L5,11.17V2.925z M16.761,19
		h4.779l-2.801,4H13.96L16.761,19z M6.239,19l2.801,4H4.261L1.46,19H6.239z"/>
</g>
<g id="Frames-24px">
	<rect fill="none" width="24" height="24"/>
</g>
</svg>
