<?xml version="1.0" encoding="utf-8"?>
<!-- Generator: Adobe Illustrator 21.0.2, SVG Export Plug-In . SVG Version: 6.00 Build 0)  -->
<svg version="1.1" xmlns="http://www.w3.org/2000/svg" xmlns:xlink="http://www.w3.org/1999/xlink" x="0px" y="0px" width="24px"
	 height="24px" viewBox="0 0 24 24" enable-background="new 0 0 24 24" xml:space="preserve">
<g id="Black">
	<path fill="#58595B" d="M15.854,20.146C15.76,20.053,15.633,20,15.5,20H12v-2.691l4.724-2.362C16.893,14.862,17,14.689,17,14.5
		V4.441c0-0.177-0.094-0.341-0.246-0.431l-5-2.941c-0.158-0.092-0.35-0.092-0.508,0l-5,2.941C6.094,4.1,6,4.264,6,4.441V14.5
		c0,0.189,0.107,0.362,0.276,0.447L11,17.309V20H7.5c-0.133,0-0.26,0.053-0.354,0.146l-3,3c-0.143,0.143-0.186,0.358-0.108,0.545
		S4.298,24,4.5,24h14c0.202,0,0.385-0.122,0.462-0.309s0.034-0.402-0.108-0.545L15.854,20.146z M11.5,13.793L10.707,13l0.793-0.793
		L12.293,13L11.5,13.793z M7,14.191V10h2.5C9.776,10,10,9.776,10,9.5S9.776,9,9.5,9H7V8h2.5C9.776,8,10,7.776,10,7.5S9.776,7,9.5,7
		H7V6h2.5C9.776,6,10,5.776,10,5.5S9.776,5,9.5,5H7V4.727l4.5-2.647L16,4.727V5h-2.5C13.224,5,13,5.224,13,5.5S13.224,6,13.5,6H16v1
		h-2.5C13.224,7,13,7.224,13,7.5S13.224,8,13.5,8H16v1h-2.5C13.224,9,13,9.224,13,9.5s0.224,0.5,0.5,0.5H16v4.191l-4,2v-1.484
		l1.354-1.354c0.195-0.195,0.195-0.512,0-0.707l-1.5-1.5c-0.195-0.195-0.512-0.195-0.707,0l-1.5,1.5
		c-0.195,0.195-0.195,0.512,0,0.707L11,14.707v1.484L7,14.191z M5.707,23l2-2h7.586l2,2H5.707z"/>
</g>
<g id="Frames-24px">
	<rect fill="none" width="24" height="24"/>
</g>
</svg>
