<?xml version="1.0" encoding="utf-8"?>
<!-- Generator: Adobe Illustrator 21.0.2, SVG Export Plug-In . SVG Version: 6.00 Build 0)  -->
<svg version="1.1" xmlns="http://www.w3.org/2000/svg" xmlns:xlink="http://www.w3.org/1999/xlink" x="0px" y="0px" width="24px"
	 height="24px" viewBox="0 0 24 24" enable-background="new 0 0 24 24" xml:space="preserve">
<g id="Black">
	<path fill="#58595B" d="M23.5,1h-23C0.224,1,0,1.224,0,1.5v22C0,23.776,0.224,24,0.5,24h23c0.276,0,0.5-0.224,0.5-0.5v-22
		C24,1.224,23.776,1,23.5,1z M1,2h2v21H1V2z M23,23H4V2h19V23z"/>
	<path fill="#58595B" d="M7.192,19.395C7.281,19.464,7.39,19.5,7.5,19.5c0.04,0,0.081-0.005,0.121-0.015l4-1
		c0.013-0.003,0.023-0.013,0.036-0.017c0.033-0.011,0.062-0.026,0.091-0.043c0.027-0.016,0.053-0.031,0.077-0.052
		c0.024-0.021,0.044-0.045,0.064-0.071c0.02-0.025,0.038-0.05,0.053-0.078c0.014-0.028,0.023-0.057,0.032-0.087
		c0.01-0.033,0.017-0.065,0.02-0.1C11.993,18.024,12,18.013,12,18V8.877l6-1.714V13h-3.5c-0.276,0-0.5,0.224-0.5,0.5V17
		c0,0.154,0.071,0.3,0.192,0.395C14.281,17.464,14.39,17.5,14.5,17.5c0.04,0,0.081-0.005,0.121-0.015l4-1
		c0.013-0.003,0.023-0.013,0.036-0.017c0.033-0.011,0.062-0.026,0.091-0.043c0.027-0.016,0.053-0.031,0.077-0.052
		c0.024-0.021,0.044-0.045,0.064-0.071c0.02-0.025,0.038-0.05,0.053-0.078c0.014-0.028,0.023-0.057,0.032-0.087
		c0.01-0.033,0.017-0.065,0.02-0.1C18.993,16.024,19,16.013,19,16V6.5c0-0.025-0.011-0.046-0.014-0.07
		c-0.003-0.023,0.001-0.045-0.005-0.067c-0.003-0.01-0.01-0.016-0.013-0.026c-0.012-0.034-0.03-0.063-0.048-0.094
		c-0.016-0.026-0.03-0.052-0.05-0.074c-0.022-0.024-0.047-0.042-0.073-0.062c-0.025-0.019-0.049-0.039-0.078-0.052
		c-0.028-0.014-0.058-0.02-0.088-0.029c-0.033-0.009-0.065-0.018-0.1-0.02C18.52,6.005,18.511,6,18.5,6
		c-0.024,0-0.045,0.01-0.068,0.014c-0.023,0.003-0.046-0.001-0.07,0.005l-7,2c-0.01,0.003-0.017,0.011-0.027,0.014
		c-0.033,0.012-0.061,0.029-0.09,0.047c-0.027,0.016-0.054,0.031-0.077,0.052c-0.024,0.021-0.041,0.047-0.06,0.072
		c-0.019,0.026-0.039,0.05-0.053,0.079c-0.013,0.027-0.02,0.057-0.028,0.087c-0.009,0.033-0.018,0.065-0.02,0.1
		C11.005,8.48,11,8.489,11,8.5V15H7.5C7.224,15,7,15.224,7,15.5V19C7,19.154,7.071,19.3,7.192,19.395z M15,14h3v1.609l-3,0.75V14z
		 M8,16h3v1.609l-3,0.75V16z"/>
</g>
<g id="Frames-24px">
	<rect fill="none" width="24" height="24"/>
</g>
</svg>
