<?xml version="1.0" encoding="utf-8"?>
<!-- Generator: Adobe Illustrator 21.0.2, SVG Export Plug-In . SVG Version: 6.00 Build 0)  -->
<svg version="1.1" xmlns="http://www.w3.org/2000/svg" xmlns:xlink="http://www.w3.org/1999/xlink" x="0px" y="0px" width="24px"
	 height="24px" viewBox="0 0 24 24" enable-background="new 0 0 24 24" xml:space="preserve">
<g id="Black">
	<path fill="#58595B" d="M20.959,2.356C20.91,2.207,20.793,2.09,20.644,2.04L17.6,1.025c-0.179-0.058-0.378-0.013-0.512,0.121
		L4.576,13.659c-0.195,0.195-0.195,0.512,0,0.707l0.176,0.176l-1.605,1.605C3.053,16.24,3,16.367,3,16.5v7
		c0,0.202,0.121,0.384,0.308,0.462C3.37,23.987,3.435,24,3.5,24c0.129,0,0.256-0.05,0.352-0.145l5.477-5.423
		c0.004-0.003,0.009-0.005,0.012-0.008L21.854,5.912c0.134-0.134,0.181-0.332,0.121-0.512L20.959,2.356z M17.577,2.072L20.09,2.91
		l0.838,2.514l-0.442,0.442l-3.351-3.351L17.577,2.072z M16.427,3.222l3.351,3.351L8.987,17.364L7.99,16.367
		c-0.001-0.001-0.001-0.002-0.002-0.003s-0.002-0.001-0.003-0.002l-2.35-2.35L16.427,3.222z M4,16.707l1.458-1.458l1.469,1.469
		l-2.014,2.013c-0.195,0.195-0.195,0.512,0,0.707c0.098,0.098,0.226,0.146,0.354,0.146s0.256-0.049,0.354-0.146l2.014-2.013
		l0.642,0.642L4,22.302V16.707z"/>
	<path fill="#58595B" d="M10.204,13.833c0.055,0.164,0.19,0.289,0.359,0.328c0.038,0.01,0.077,0.014,0.115,0.014
		c0.131,0,0.259-0.052,0.354-0.146l6.087-6.088c0.134-0.134,0.181-0.332,0.121-0.512L16.563,5.4
		c-0.055-0.164-0.191-0.289-0.359-0.328c-0.167-0.044-0.346,0.011-0.468,0.133l-6.087,6.087c-0.134,0.134-0.181,0.332-0.121,0.512
		L10.204,13.833z M13.842,8.513l0.323,0.968l-1.239,1.239l-0.323-0.968L13.842,8.513z M15.871,6.484l0.323,0.968l-1.239,1.239
		l-0.323-0.968L15.871,6.484z M11.813,10.542l0.323,0.968l-1.239,1.239l-0.323-0.969L11.813,10.542z"/>
</g>
<g id="Frames-24px">
	<rect fill="none" width="24" height="24"/>
</g>
</svg>
