<?xml version="1.0" encoding="utf-8"?>
<!-- Generator: Adobe Illustrator 21.0.2, SVG Export Plug-In . SVG Version: 6.00 Build 0)  -->
<svg version="1.1" xmlns="http://www.w3.org/2000/svg" xmlns:xlink="http://www.w3.org/1999/xlink" x="0px" y="0px" width="24px"
	 height="24px" viewBox="0 0 24 24" enable-background="new 0 0 24 24" xml:space="preserve">
<g id="Black">
	<g id="New_icons">
		<path fill="#58595B" d="M8.043,19.203l2,4.5C10.124,23.884,10.302,24,10.5,24s0.376-0.116,0.457-0.297l2-4.5
			c0.029-0.065,0.042-0.133,0.042-0.2C12.999,19.002,13,19.001,13,19V1.5c0-0.133-0.053-0.26-0.146-0.354l-1-1
			C11.76,0.053,11.633,0,11.5,0h-2C9.367,0,9.24,0.053,9.146,0.146l-1,1C8.053,1.24,8,1.367,8,1.5V19
			c0,0.001,0.001,0.002,0.001,0.003C8.001,19.07,8.014,19.138,8.043,19.203z M9,6h3v11.793l-1.146-1.146
			C10.756,16.549,10.628,16.5,10.5,16.5s-0.256,0.049-0.354,0.146L9,17.793V6z M12,5H9V4h3V5z M10.5,22.269L9.096,19.11l1.404-1.403
			l1.404,1.403L10.5,22.269z M9.707,1h1.586L12,1.707V3H9V1.707L9.707,1z"/>
		<path fill="#58595B" d="M0.576,19.764C3.212,24,3.212,24,3.5,24c0.172,0,0.333-0.089,0.424-0.235l2.5-4
			c0.11-0.175,0.1-0.4-0.024-0.565l-1.357-1.81l0.942-3.77C6,13.563,6.003,13.502,5.997,13.443l-1.5-13C4.468,0.19,4.254,0,4,0H3
			C2.746,0,2.532,0.19,2.503,0.443l-1.5,13c-0.007,0.06-0.003,0.12,0.012,0.178l0.942,3.77L0.6,19.2
			C0.476,19.365,0.466,19.589,0.576,19.764z M3.446,1h0.108l1.438,12.467L4.109,17H2.891l-0.883-3.533L3.446,1z M2.75,18H3v1.5
			C3,19.776,3.224,20,3.5,20S4,19.776,4,19.5V18h0.25l1.145,1.526L3.498,22.56c-0.472-0.754-1.258-2.016-1.893-3.034L2.75,18z"/>
		<path fill="#58595B" d="M18.5,0C18.224,0,18,0.224,18,0.5V1h-1.5C16.224,1,16,1.224,16,1.5v18c0,0.005,0.003,0.01,0.003,0.015
			c0.001,0.033,0.012,0.065,0.02,0.098c0.008,0.033,0.012,0.065,0.026,0.096c0.002,0.004,0.002,0.01,0.004,0.015l2,4
			C18.138,23.893,18.311,24,18.5,24s0.362-0.107,0.447-0.276l2-4c0.002-0.005,0.002-0.01,0.004-0.015
			c0.014-0.03,0.018-0.063,0.026-0.096c0.008-0.033,0.019-0.065,0.02-0.098c0-0.005,0.003-0.01,0.003-0.015V4h1.917l-0.911,5.924
			c-0.016,0.103,0,0.207,0.047,0.3l0.5,1C22.641,11.399,22.817,11.5,23,11.5c0.075,0,0.151-0.017,0.223-0.053
			c0.247-0.124,0.347-0.424,0.224-0.671l-0.429-0.857l0.976-6.343c0.022-0.145-0.02-0.291-0.115-0.402C23.785,3.063,23.646,3,23.5,3
			H21V1.5C21,1.224,20.776,1,20.5,1H19V0.5C19,0.224,18.776,0,18.5,0z M20,19h-3V7h3V19z M18.5,22.382L17.309,20h2.382L18.5,22.382z
			 M20,6h-3V2h3V6z"/>
	</g>
</g>
<g id="Frames-24px">
	<rect fill="none" width="24" height="24"/>
</g>
</svg>
