<?xml version="1.0" encoding="utf-8"?>
<!-- Generator: Adobe Illustrator 21.0.2, SVG Export Plug-In . SVG Version: 6.00 Build 0)  -->
<svg version="1.1" xmlns="http://www.w3.org/2000/svg" xmlns:xlink="http://www.w3.org/1999/xlink" x="0px" y="0px" width="24px"
	 height="24px" viewBox="0 0 24 24" enable-background="new 0 0 24 24" xml:space="preserve">
<g id="Black">
	<g id="New_icons">
		<path fill="#58595B" d="M2.146,18.146C2.093,18.2,2.057,18.263,2.033,18.33c-0.002,0.004-0.006,0.007-0.007,0.012l-1.463,4.388
			l-0.417,0.417c-0.195,0.195-0.195,0.512,0,0.707C0.244,23.951,0.372,24,0.5,24s0.256-0.049,0.354-0.146l0.417-0.417l4.388-1.462
			c0.004-0.001,0.007-0.005,0.012-0.007c0.067-0.024,0.13-0.06,0.184-0.113l5.255-5.255l9.079,7.291C20.279,23.964,20.39,24,20.5,24
			c0.128,0,0.256-0.049,0.354-0.146l0.708-0.708c0.175-0.175,0.196-0.453,0.047-0.652l-6.998-9.397l8.243-8.243
			c0.195-0.195,0.195-0.512,0-0.707L21.707,3l0.646-0.646c0.195-0.195,0.195-0.512,0-0.707s-0.512-0.195-0.707,0L21,2.293
			l-1.146-1.146c-0.195-0.195-0.512-0.195-0.707,0L18,2.293l-1.146-1.146c-0.195-0.195-0.512-0.195-0.707,0l-5,5
			c-0.195,0.195-0.195,0.512,0,0.707C11.244,6.951,11.372,7,11.5,7s0.256-0.049,0.354-0.146L16.5,2.207L17.293,3l-5.99,5.99
			L7.431,6.335l-0.436-2.91C6.958,3.181,6.748,3,6.5,3H3.651L0.777,1.084C0.624,0.982,0.426,0.972,0.264,1.059
			C0.102,1.146,0,1.315,0,1.5V7c0,0.2,0.119,0.38,0.302,0.459l4.125,1.779l2.695,3.934L2.146,18.146z M2.719,19.426l1.856,1.855
			l-2.784,0.928L2.719,19.426z M20.548,22.745l-0.085,0.085l-8.644-6.942l2.076-2.076L20.548,22.745z M19.5,2.207L21.793,4.5
			L21,5.293L18.707,3L19.5,2.207z M20.293,6L5.5,20.793L3.207,18.5L18,3.707L20.293,6z M1,2.434l2.223,1.482
			C3.305,3.971,3.401,4,3.5,4h2.569l0.367,2.45L4.644,8.243L1,6.671V2.434z M7.028,7.272l0.885,0.607L6.011,9.782L5.404,8.896
			L7.028,7.272z M6.586,10.621l2.167-2.167l1.831,1.255l-2.743,2.743L6.586,10.621z"/>
	</g>
</g>
<g id="Frames-24px">
	<rect fill="none" width="24" height="24"/>
</g>
</svg>
