<?xml version="1.0" encoding="utf-8"?>
<!-- Generator: Adobe Illustrator 21.0.2, SVG Export Plug-In . SVG Version: 6.00 Build 0)  -->
<svg version="1.1" xmlns="http://www.w3.org/2000/svg" xmlns:xlink="http://www.w3.org/1999/xlink" x="0px" y="0px" width="24px"
	 height="24px" viewBox="0 0 24 24" enable-background="new 0 0 24 24" xml:space="preserve">
<g id="Black">
	<path fill="#58595B" d="M5.5,13C5.224,13,5,13.224,5,13.5v1C5,14.776,5.224,15,5.5,15S6,14.776,6,14.5v-1C6,13.224,5.776,13,5.5,13
		z"/>
	<path fill="#58595B" d="M23.146,13.646l-1.093,1.092L20.9,13.2c-0.1-0.133-0.271-0.201-0.426-0.2
		c-0.167,0.009-0.317,0.1-0.403,0.242l-0.972,1.621L16.967,9.32C16.893,9.127,16.707,9,16.5,9H8.207L5.854,6.646
		C5.711,6.503,5.494,6.461,5.309,6.538C5.122,6.615,5,6.798,5,7v3.349L2.279,14.43l-1.658-0.415
		c-0.149-0.037-0.308-0.003-0.429,0.091C0.071,14.201,0,14.346,0,14.5v4c0,0.154,0.071,0.299,0.192,0.394
		c0.12,0.094,0.277,0.127,0.429,0.091l1.7-0.425L5,21.685V23.5c0,0.185,0.102,0.354,0.264,0.441
		c0.163,0.086,0.359,0.077,0.514-0.025L8.651,22h3.742l4.403,1.957C16.862,23.986,16.932,24,17,24c0.111,0,0.222-0.038,0.312-0.11
		c0.146-0.117,0.215-0.305,0.178-0.488l-0.466-2.332l2.415-4.83l1.107-1.845L21.6,15.8c0.087,0.116,0.221,0.188,0.365,0.199
		c0.147,0.013,0.287-0.042,0.389-0.145l1.5-1.5c0.195-0.195,0.195-0.512,0-0.707S23.342,13.451,23.146,13.646z M16.053,20.776
		c-0.05,0.1-0.064,0.213-0.043,0.322l0.311,1.553l-3.617-1.608C12.639,21.015,12.57,21,12.5,21h-4c-0.099,0-0.195,0.029-0.277,0.084
		L6,22.566V21.5c0-0.119-0.043-0.235-0.12-0.325l-3-3.5c-0.123-0.144-0.318-0.206-0.501-0.16L1,17.859v-2.719l1.379,0.344
		c0.204,0.052,0.42-0.032,0.537-0.208l3-4.5C5.971,10.695,6,10.599,6,10.5V8.207l1.646,1.646C7.74,9.947,7.867,10,8,10h8.156
		l2.298,5.974L16.053,20.776z"/>
	<path fill="#58595B" d="M13.607,11h-4c-0.276,0-0.5,0.224-0.5,0.5s0.224,0.5,0.5,0.5h4c0.276,0,0.5-0.224,0.5-0.5
		S13.884,11,13.607,11z"/>
	<path fill="#58595B" d="M12.416,5.777l0.5-0.75c0.112-0.168,0.112-0.387,0-0.555l-0.5-0.75C12.323,3.583,12.167,3.5,12,3.5h-0.717
		l-0.182-0.302L11.25,3h1c0.276,0,0.5-0.224,0.5-0.5S12.526,2,12.25,2H11c-0.157,0-0.306,0.074-0.4,0.2l-0.5,0.667
		C9.979,3.029,9.967,3.25,10.071,3.424l0.5,0.833C10.661,4.408,10.824,4.5,11,4.5h0.732l0.167,0.25L11.732,5H10.75
		c-0.276,0-0.5,0.224-0.5,0.5S10.474,6,10.75,6H12C12.167,6,12.323,5.917,12.416,5.777z"/>
	<path fill="#58595B" d="M11.248,7.932C11.326,7.978,11.413,8,11.5,8s0.174-0.022,0.252-0.068l3-1.75C14.905,6.092,15,5.928,15,5.75
		v-3.5c0-0.178-0.095-0.342-0.248-0.432l-3-1.75c-0.156-0.091-0.348-0.091-0.504,0l-3,1.75C8.095,1.908,8,2.072,8,2.25v3.5
		c0,0.178,0.095,0.342,0.248,0.432L11.248,7.932z M9,2.537l2.5-1.458L14,2.537v2.926l-2.5,1.458L9,5.463V2.537z"/>
</g>
<g id="Frames-24px">
	<rect fill="none" width="24" height="24"/>
</g>
</svg>
