<?xml version="1.0" encoding="utf-8"?>
<!-- Generator: Adobe Illustrator 21.0.2, SVG Export Plug-In . SVG Version: 6.00 Build 0)  -->
<svg version="1.1" xmlns="http://www.w3.org/2000/svg" xmlns:xlink="http://www.w3.org/1999/xlink" x="0px" y="0px"
	 viewBox="0 0 24 24" style="enable-background:new 0 0 24 24;" xml:space="preserve">
<style type="text/css">
	.st0{fill:#58595B;}
	.st1{fill:none;}
</style>
<g id="Black">
	<path class="st0" d="M7.9,10.6c-0.2-0.2-0.5-0.2-0.7,0l-1.5,1.5c-0.2,0.2-0.2,0.5,0,0.7l1.5,1.5c0.1,0.1,0.2,0.1,0.4,0.1
		s0.3,0,0.4-0.1l1.5-1.5c0.2-0.2,0.2-0.5,0-0.7L7.9,10.6z M7.5,13.3l-0.8-0.8l0.8-0.8l0.8,0.8L7.5,13.3z"/>
	<path class="st0" d="M12.1,19.4c0.1,0.1,0.2,0.1,0.4,0.1s0.3,0,0.4-0.1l1.5-1.5c0.2-0.2,0.2-0.5,0-0.7l-1.5-1.5
		c-0.2-0.2-0.5-0.2-0.7,0l-1.5,1.5c-0.2,0.2-0.2,0.5,0,0.7L12.1,19.4z M12.5,16.7l0.8,0.8l-0.8,0.8l-0.8-0.8L12.5,16.7z"/>
	<path class="st0" d="M12.1,7.8C12.2,7.9,12.3,8,12.5,8h1.9L15,9.7c0.1,0.1,0.2,0.3,0.3,0.3c0,0,0.1,0,0.1,0c0.1,0,0.2,0,0.3-0.1
		l6-4.5C21.9,5.3,22,5.1,22,5c0-0.2-0.1-0.3-0.2-0.4l-7.3-4.5C14.4,0,14.2,0,14,0c-0.1,0.1-0.3,0.2-0.3,0.3l-1.7,7
		C12,7.5,12,7.7,12.1,7.8z M14.6,1.3L20.6,5l-0.8,0.6l-5.5-3.5L14.6,1.3z M14.1,3.2L19,6.3l-3.2,2.4l-0.5-1.4C15.2,7.1,15,7,14.8,7
		h-1.6L14.1,3.2z"/>
	<path class="st0" d="M7.3,23.9C7.4,23.9,7.5,24,7.7,24h8.7c0.1,0,0.3-0.1,0.4-0.1l6.2-6.2c0.1-0.1,0.1-0.2,0.1-0.4V8.7
		c0-0.2-0.1-0.3-0.2-0.4c-0.1-0.1-0.3-0.1-0.5,0l-10,4.2l-3.3-8c0,0,0,0,0,0l-0.8-2C8,2.2,7.9,2,7.7,2C7.6,2,7.4,2,7.3,2.1L1.1,8.3
		C1.1,8.4,1,8.5,1,8.7v8.7c0,0.1,0.1,0.3,0.1,0.4L7.3,23.9z M12.2,13.5l7.8-3.2v6.1L15.3,21H8.7L4,16.3V9.7l4.3-4.3l3.2,7.8
		C11.6,13.4,11.9,13.6,12.2,13.5z M2,8.9l5.5-5.5l0.4,1L3.1,9.1C3.1,9.2,3,9.4,3,9.5v7c0,0.1,0.1,0.3,0.1,0.4l5,5
		C8.2,21.9,8.4,22,8.5,22h7c0.1,0,0.3-0.1,0.4-0.1l5-5c0.1-0.1,0.1-0.2,0.1-0.4V9.8l1-0.4v7.7L16.1,23H7.9L2,17.1V8.9z"/>
</g>
<g id="Frames-24px">
	<rect class="st1" width="24" height="24"/>
</g>
</svg>
