<?xml version="1.0" encoding="utf-8"?>
<!-- Generator: Adobe Illustrator 21.0.2, SVG Export Plug-In . SVG Version: 6.00 Build 0)  -->
<svg version="1.1" xmlns="http://www.w3.org/2000/svg" xmlns:xlink="http://www.w3.org/1999/xlink" x="0px" y="0px" width="24px"
	 height="24px" viewBox="0 0 24 24" enable-background="new 0 0 24 24" xml:space="preserve">
<g id="Black">
	<path fill="#58595B" d="M5.5,17.5c0.097,0,0.193-0.028,0.277-0.084l3-2C8.917,15.323,9,15.167,9,15V8
		c0-0.167-0.083-0.323-0.223-0.416l-3-2c-0.168-0.112-0.387-0.112-0.555,0l-3,2C2.083,7.677,2,7.833,2,8v7
		c0,0.167,0.083,0.323,0.223,0.416l3,2C5.307,17.472,5.403,17.5,5.5,17.5z M5.5,6.601L8,8.268V9H3V8.268L5.5,6.601z M3,14h1.5
		C4.776,14,5,13.776,5,13.5S4.776,13,4.5,13H3v-1h1.5C4.776,12,5,11.776,5,11.5S4.776,11,4.5,11H3v-1h5v1H6.5
		C6.224,11,6,11.224,6,11.5S6.224,12,6.5,12H8v1H6.5C6.224,13,6,13.224,6,13.5S6.224,14,6.5,14H8v0.732l-2.5,1.667L3,14.732V14z"/>
	<path fill="#58595B" d="M22.5,16H21v-1h0.5c0.173,0,0.334-0.09,0.425-0.237s0.1-0.332,0.022-0.486l-2-4
		c-0.065-0.13-0.185-0.226-0.326-0.261l-4-1c-0.086-0.022-0.179-0.02-0.265,0.006l-5,1.5C10.145,10.584,10,10.779,10,11v8.191
		l-1-0.5V18.5C9,18.224,8.776,18,8.5,18S8,18.224,8,18.5V19c0,0.189,0.107,0.362,0.276,0.447L10,20.309V21
		c0,0.189,0.107,0.362,0.276,0.447l5,2.5C15.347,23.982,15.423,24,15.5,24s0.153-0.018,0.224-0.053l5-2.5
		C20.893,21.362,21,21.189,21,21v-0.691l1.724-0.862C22.893,19.362,23,19.189,23,19v-2.5C23,16.224,22.776,16,22.5,16z M11,11.372
		l4.512-1.354l3.644,0.911L20.691,14h-5.118L11,12.628V11.372z M20,20.691l-4.5,2.25l-4.5-2.25v-7.019l4.356,1.307
		C15.403,14.993,15.451,15,15.5,15H20V20.691z M22,18.691l-1,0.5V17h1V18.691z"/>
	<path fill="#58595B" d="M13.5,18c0.276,0,0.5-0.224,0.5-0.5V17c0-0.276-0.224-0.5-0.5-0.5S13,16.724,13,17v0.5
		C13,17.776,13.224,18,13.5,18z"/>
	<path fill="#58595B" d="M17.5,16.5c-0.276,0-0.5,0.224-0.5,0.5v0.5c0,0.276,0.224,0.5,0.5,0.5s0.5-0.224,0.5-0.5V17
		C18,16.724,17.776,16.5,17.5,16.5z"/>
	<path fill="#58595B" d="M17.5,19h-4c-0.276,0-0.5,0.224-0.5,0.5v1c0,0.189,0.107,0.362,0.276,0.447l2,1
		C15.347,21.982,15.423,22,15.5,22s0.153-0.018,0.224-0.053l2-1C17.893,20.862,18,20.689,18,20.5v-1C18,19.224,17.776,19,17.5,19z
		 M17,20.191l-1.5,0.75l-1.5-0.75V20h3V20.191z"/>
	<path fill="#58595B" d="M10,6.783V8.5C10,8.776,10.224,9,10.5,9S11,8.776,11,8.5v-2c0-0.176-0.092-0.338-0.243-0.429L6,3.217V1.5
		C6,1.224,5.776,1,5.5,1S5,1.224,5,1.5v1.717L0.243,6.071C0.092,6.162,0,6.324,0,6.5v2C0,8.776,0.224,9,0.5,9S1,8.776,1,8.5V6.783
		l4.5-2.7L10,6.783z"/>
	<path fill="#58595B" d="M14.5,8.5c0.077,0,0.153-0.018,0.224-0.053l2-1c0.022-0.011,0.037-0.03,0.056-0.044
		c0.03-0.021,0.06-0.039,0.085-0.066c0.022-0.024,0.036-0.051,0.053-0.079c0.017-0.027,0.035-0.052,0.047-0.083
		c0.013-0.034,0.016-0.07,0.021-0.106C16.989,7.046,17,7.025,17,7V2.315l1.141-0.335c0.265-0.078,0.417-0.355,0.338-0.621
		c-0.078-0.265-0.351-0.416-0.621-0.338l-1.5,0.441c-0.222,0.065-0.355,0.271-0.35,0.492C16.008,1.97,16,1.984,16,2v3h-1.5
		C14.224,5,14,5.224,14,5.5V8c0,0.173,0.09,0.334,0.237,0.425C14.317,8.475,14.409,8.5,14.5,8.5z M15,6h1v0.691l-1,0.5V6z"/>
</g>
<g id="Frames-24px">
	<rect fill="none" width="24" height="24"/>
</g>
</svg>
