<?xml version="1.0" encoding="utf-8"?>
<!-- Generator: Adobe Illustrator 21.0.2, SVG Export Plug-In . SVG Version: 6.00 Build 0)  -->
<svg version="1.1" xmlns="http://www.w3.org/2000/svg" xmlns:xlink="http://www.w3.org/1999/xlink" x="0px" y="0px"
	 viewBox="0 0 24 24" style="enable-background:new 0 0 24 24;" xml:space="preserve">
<style type="text/css">
	.st0{fill:#58595B;}
	.st1{fill:none;}
</style>
<g id="Black">
	<path class="st0" d="M3.3,21l8.5,3c0.1,0,0.1,0,0.2,0s0.1,0,0.2,0l8.5-3c0.2-0.1,0.3-0.2,0.3-0.4l3-20c0-0.1,0-0.3-0.1-0.4
		S23.6,0,23.5,0h-23C0.4,0,0.2,0.1,0.1,0.2S0,0.4,0,0.6l3,20C3,20.8,3.2,20.9,3.3,21z M22.9,1L20,20.1L12,23l-8-2.8L1.1,1H22.9z"/>
	<path class="st0" d="M7.5,11h8.4l-0.9,6.1L12,18l-3.1-0.9l-0.4-2.7c0-0.3-0.3-0.5-0.6-0.4c-0.3,0-0.5,0.3-0.4,0.6l0.5,3
		c0,0.2,0.2,0.3,0.4,0.4l3.5,1c0,0,0.1,0,0.1,0s0.1,0,0.1,0l3.5-1c0.2-0.1,0.3-0.2,0.4-0.4l1-7c0-0.1,0-0.3-0.1-0.4S16.6,10,16.5,10
		H7.9L7.1,5h10.4C17.8,5,18,4.8,18,4.5S17.8,4,17.5,4h-11C6.4,4,6.2,4.1,6.1,4.2C6,4.3,6,4.4,6,4.6l1,6C7,10.8,7.3,11,7.5,11z"/>
</g>
<g id="Frames-24px">
	<rect class="st1" width="24" height="24"/>
</g>
</svg>
