<?xml version="1.0" encoding="utf-8"?>
<!-- Generator: Adobe Illustrator 21.0.2, SVG Export Plug-In . SVG Version: 6.00 Build 0)  -->
<svg version="1.1" xmlns="http://www.w3.org/2000/svg" xmlns:xlink="http://www.w3.org/1999/xlink" x="0px" y="0px" width="24px"
	 height="24px" viewBox="0 0 24 24" enable-background="new 0 0 24 24" xml:space="preserve">
<g id="Black">
	<path fill="#58595B" d="M22.5,1h-22C0.224,1,0,1.224,0,1.5v14C0,15.776,0.224,16,0.5,16H11v3.293L9.293,21H0.5
		C0.224,21,0,21.224,0,21.5S0.224,22,0.5,22h8.793l1.854,1.854C11.244,23.951,11.372,24,11.5,24s0.256-0.049,0.354-0.146L13.707,22
		H22.5c0.276,0,0.5-0.224,0.5-0.5S22.776,21,22.5,21h-8.793L12,19.293V16h10.5c0.276,0,0.5-0.224,0.5-0.5v-14
		C23,1.224,22.776,1,22.5,1z M11.5,22.793L10.207,21.5l1.293-1.293l1.293,1.293L11.5,22.793z M1,2h21v6H1V2z M22,15H1V9h21V15z"/>
	<path fill="#58595B" d="M19.5,3C19.224,3,19,3.224,19,3.5v3C19,6.776,19.224,7,19.5,7S20,6.776,20,6.5v-3C20,3.224,19.776,3,19.5,3
		z"/>
	<path fill="#58595B" d="M17.5,3C17.224,3,17,3.224,17,3.5v3C17,6.776,17.224,7,17.5,7S18,6.776,18,6.5v-3C18,3.224,17.776,3,17.5,3
		z"/>
	<path fill="#58595B" d="M15.5,3C15.224,3,15,3.224,15,3.5v3C15,6.776,15.224,7,15.5,7S16,6.776,16,6.5v-3C16,3.224,15.776,3,15.5,3
		z"/>
	<path fill="#58595B" d="M5.353,3.146c-0.188-0.188-0.52-0.187-0.707,0l-1.5,1.5c-0.195,0.195-0.195,0.512,0,0.707l1.5,1.5
		C4.74,6.947,4.867,7,5,7s0.26-0.053,0.354-0.146l1.5-1.5C6.947,5.26,7,5.133,7,5S6.947,4.74,6.854,4.646L5.353,3.146z M5,5.793
		L4.207,5L5,4.207L5.793,5L5,5.793z"/>
	<path fill="#58595B" d="M19.5,14c0.276,0,0.5-0.224,0.5-0.5v-3c0-0.276-0.224-0.5-0.5-0.5S19,10.224,19,10.5v3
		C19,13.776,19.224,14,19.5,14z"/>
	<path fill="#58595B" d="M17.5,14c0.276,0,0.5-0.224,0.5-0.5v-3c0-0.276-0.224-0.5-0.5-0.5S17,10.224,17,10.5v3
		C17,13.776,17.224,14,17.5,14z"/>
	<path fill="#58595B" d="M15.5,14c0.276,0,0.5-0.224,0.5-0.5v-3c0-0.276-0.224-0.5-0.5-0.5S15,10.224,15,10.5v3
		C15,13.776,15.224,14,15.5,14z"/>
	<path fill="#58595B" d="M4.646,13.854C4.74,13.947,4.867,14,5,14s0.26-0.053,0.354-0.146l1.5-1.5C6.947,12.26,7,12.133,7,12
		s-0.053-0.26-0.146-0.354l-1.5-1.5c-0.188-0.188-0.52-0.188-0.707,0l-1.5,1.5c-0.195,0.195-0.195,0.512,0,0.707L4.646,13.854z
		 M5,11.207L5.793,12L5,12.793L4.207,12L5,11.207z"/>
</g>
<g id="Frames-24px">
	<rect fill="none" width="24" height="24"/>
</g>
</svg>
