<?xml version="1.0" encoding="utf-8"?>
<!-- Generator: Adobe Illustrator 21.0.2, SVG Export Plug-In . SVG Version: 6.00 Build 0)  -->
<svg version="1.1" xmlns="http://www.w3.org/2000/svg" xmlns:xlink="http://www.w3.org/1999/xlink" x="0px" y="0px"
	 viewBox="0 0 24 24" style="enable-background:new 0 0 24 24;" xml:space="preserve">
<style type="text/css">
	.st0{fill:#58595B;}
	.st1{fill:none;}
</style>
<g id="Black">
	<path class="st0" d="M20.3,0.5L16,2.3l-4.3-2.3c0,0,0,0,0,0C11.7,0,11.6,0,11.5,0c-0.1,0-0.1,0-0.2,0.1c0,0,0,0,0,0L7,2.3L2.7,0.5
		c-0.2-0.1-0.3,0-0.5,0C2.1,0.7,2,0.8,2,1v16.5c0,0.2,0.1,0.3,0.2,0.4l9,6c0,0,0,0,0,0c0.1,0,0.2,0.1,0.2,0.1s0.2,0,0.2-0.1
		c0,0,0,0,0,0l9-6c0.1-0.1,0.2-0.2,0.2-0.4V1c0-0.2-0.1-0.3-0.2-0.4C20.6,0.5,20.5,0.5,20.3,0.5z M16.2,3.4L20,1.8V11h-8V1.3l3.8,2
		C15.9,3.4,16.1,3.4,16.2,3.4z M6.8,3.4c0.1,0.1,0.3,0.1,0.4,0l3.8-2V11H3V1.8L6.8,3.4z M3,12h8v10.6l-8-5.3V12z M12,22.6V12h8v5.2
		L12,22.6z"/>
</g>
<g id="Frames-24px">
	<rect class="st1" width="24" height="24"/>
</g>
</svg>
