<?xml version="1.0" encoding="utf-8"?>
<!-- Generator: Adobe Illustrator 21.0.2, SVG Export Plug-In . SVG Version: 6.00 Build 0)  -->
<svg version="1.1" xmlns="http://www.w3.org/2000/svg" xmlns:xlink="http://www.w3.org/1999/xlink" x="0px" y="0px" width="24px"
	 height="24px" viewBox="0 0 24 24" enable-background="new 0 0 24 24" xml:space="preserve">
<g id="Black">
	<path fill="#58595B" d="M5,1.5v2C5,3.776,5.224,4,5.5,4S6,3.776,6,3.5V2h1.5C7.776,2,8,1.776,8,1.5S7.776,1,7.5,1h-2
		C5.224,1,5,1.224,5,1.5z"/>
	<path fill="#58595B" d="M5.5,13C5.224,13,5,13.224,5,13.5v1C5,14.776,5.224,15,5.5,15S6,14.776,6,14.5v-1C6,13.224,5.776,13,5.5,13
		z"/>
	<path fill="#58595B" d="M6,9.5C6,9.224,5.776,9,5.5,9S5,9.224,5,9.5v1C5,10.776,5.224,11,5.5,11S6,10.776,6,10.5V9.5z"/>
	<path fill="#58595B" d="M6,5.5C6,5.224,5.776,5,5.5,5S5,5.224,5,5.5v1C5,6.776,5.224,7,5.5,7S6,6.776,6,6.5V5.5z"/>
	<path fill="#58595B" d="M9.5,2h1C10.776,2,11,1.776,11,1.5S10.776,1,10.5,1h-1C9.224,1,9,1.224,9,1.5S9.224,2,9.5,2z"/>
	<path fill="#58595B" d="M14.5,1h-1C13.224,1,13,1.224,13,1.5S13.224,2,13.5,2h1C14.776,2,15,1.776,15,1.5S14.776,1,14.5,1z"/>
	<path fill="#58595B" d="M22.5,16c-0.276,0-0.5,0.224-0.5,0.5V18h-1.5c-0.276,0-0.5,0.224-0.5,0.5s0.224,0.5,0.5,0.5h2
		c0.276,0,0.5-0.224,0.5-0.5v-2C23,16.224,22.776,16,22.5,16z"/>
	<path fill="#58595B" d="M22.5,1h-2C20.224,1,20,1.224,20,1.5S20.224,2,20.5,2H22v1.5C22,3.776,22.224,4,22.5,4S23,3.776,23,3.5v-2
		C23,1.224,22.776,1,22.5,1z"/>
	<path fill="#58595B" d="M22.5,13c-0.276,0-0.5,0.224-0.5,0.5v1c0,0.276,0.224,0.5,0.5,0.5s0.5-0.224,0.5-0.5v-1
		C23,13.224,22.776,13,22.5,13z"/>
	<path fill="#58595B" d="M22.5,9C22.224,9,22,9.224,22,9.5v1c0,0.276,0.224,0.5,0.5,0.5s0.5-0.224,0.5-0.5v-1
		C23,9.224,22.776,9,22.5,9z"/>
	<path fill="#58595B" d="M22.5,5C22.224,5,22,5.224,22,5.5v1C22,6.776,22.224,7,22.5,7S23,6.776,23,6.5v-1C23,5.224,22.776,5,22.5,5
		z"/>
	<path fill="#58595B" d="M18.5,1h-1C17.224,1,17,1.224,17,1.5S17.224,2,17.5,2h1C18.776,2,19,1.776,19,1.5S18.776,1,18.5,1z"/>
	<path fill="#58595B" d="M9.5,19h1c0.276,0,0.5-0.224,0.5-0.5S10.776,18,10.5,18h-1C9.224,18,9,18.224,9,18.5S9.224,19,9.5,19z"/>
	<path fill="#58595B" d="M15,18.5c0-0.276-0.224-0.5-0.5-0.5h-1c-0.276,0-0.5,0.224-0.5,0.5s0.224,0.5,0.5,0.5h1
		C14.776,19,15,18.776,15,18.5z"/>
	<path fill="#58595B" d="M17.5,19h1c0.276,0,0.5-0.224,0.5-0.5S18.776,18,18.5,18h-1c-0.276,0-0.5,0.224-0.5,0.5S17.224,19,17.5,19z
		"/>
	<path fill="#58595B" d="M8,23.5v-7C8,16.224,7.776,16,7.5,16h-7C0.224,16,0,16.224,0,16.5v7C0,23.776,0.224,24,0.5,24h7
		C7.776,24,8,23.776,8,23.5z M7,23H1v-6h6V23z"/>
	<path fill="#58595B" d="M16.853,7.035c-0.196-0.195-0.513-0.192-0.708,0.001l-5.14,5.162l0.019-3.756
		c0.001-0.276-0.221-0.501-0.498-0.502c-0.243,0.008-0.5,0.221-0.502,0.498L10,13.362c0,0.132,0.051,0.26,0.145,0.354
		s0.22,0.148,0.353,0.148l4.975,0.025h0.002c0.275,0,0.499-0.222,0.5-0.498c0.001-0.276-0.221-0.501-0.498-0.502l-3.729-0.019
		l5.106-5.128C17.049,7.547,17.048,7.23,16.853,7.035z"/>
</g>
<g id="Frames-24px">
	<rect fill="none" width="24" height="24"/>
</g>
</svg>
