<?xml version="1.0" encoding="utf-8"?>
<!-- Generator: Adobe Illustrator 21.0.2, SVG Export Plug-In . SVG Version: 6.00 Build 0)  -->
<svg version="1.1" xmlns="http://www.w3.org/2000/svg" xmlns:xlink="http://www.w3.org/1999/xlink" x="0px" y="0px" width="24px"
	 height="24px" viewBox="0 0 24 24" enable-background="new 0 0 24 24" xml:space="preserve">
<g id="Black">
	<path fill="#58595B" d="M10.791,10.629L8.397,9.358C8.153,9.228,7.852,9.32,7.722,9.565c-0.13,0.244-0.037,0.546,0.207,0.676
		l2.394,1.271c0.075,0.04,0.155,0.059,0.234,0.059c0.179,0,0.352-0.096,0.442-0.266C11.128,11.062,11.035,10.759,10.791,10.629z"/>
	<path fill="#58595B" d="M22.5,16h-0.447l0.451-1.112c0.095-0.235-0.001-0.505-0.224-0.627l-16.839-9.2
		c-0.117-0.064-0.255-0.077-0.383-0.04C4.93,5.06,4.823,5.147,4.76,5.266L2.741,9.067L2.292,9.912
		c-0.13,0.244-0.037,0.546,0.207,0.676c0.075,0.04,0.155,0.059,0.234,0.059c0.179,0,0.352-0.096,0.442-0.266L3.39,9.977
		l13.801,7.331L16.325,18H4c-0.089,0-0.171,0.027-0.246,0.07c-0.025,0.014-0.041,0.037-0.063,0.055
		c-0.035,0.029-0.075,0.051-0.101,0.089l-3.5,5c-0.107,0.153-0.12,0.352-0.034,0.518C0.143,23.896,0.313,24,0.5,24h22
		c0.276,0,0.5-0.224,0.5-0.5v-7C23,16.224,22.776,16,22.5,16z M5.406,6.181l2.088,1.141L4.808,9.598L3.859,9.094L5.406,6.181z
		 M5.758,10.103l2.676-2.267l12.976,7.089L20.974,16H19c-0.114,0-0.224,0.039-0.312,0.109l-0.647,0.518L5.758,10.103z M12.191,19
		l-0.5,1H5.75L5,19H12.191z M22,23H1.46l2.554-3.648L5.1,20.8C5.194,20.926,5.343,21,5.5,21H12c0.189,0,0.362-0.107,0.447-0.276
		L13.309,19H16.5c0.114,0,0.224-0.039,0.312-0.109L19.175,17H22V23z"/>
</g>
<g id="Frames-24px">
	<rect fill="none" width="24" height="24"/>
</g>
</svg>
