<?xml version="1.0" encoding="utf-8"?>
<!-- Generator: Adobe Illustrator 21.0.2, SVG Export Plug-In . SVG Version: 6.00 Build 0)  -->
<svg version="1.1" xmlns="http://www.w3.org/2000/svg" xmlns:xlink="http://www.w3.org/1999/xlink" x="0px" y="0px"
	 viewBox="0 0 24 24" style="enable-background:new 0 0 24 24;" xml:space="preserve">
<style type="text/css">
	.st0{fill:#58595B;}
	.st1{fill:none;}
</style>
<g id="Black">
	<path class="st0" d="M12,20h6.5c0.2,0,0.3-0.1,0.4-0.2c0.1-0.1,0.1-0.3,0.1-0.5l-7-19c0,0,0,0,0,0c0,0,0-0.1-0.1-0.1
		c0,0,0-0.1-0.1-0.1c0,0,0,0-0.1-0.1c0,0-0.1,0-0.1-0.1c0,0,0,0,0,0c0,0,0,0-0.1,0c0,0-0.1,0-0.1,0c0,0-0.1,0-0.1,0c0,0-0.1,0-0.1,0
		c0,0,0,0,0,0c0,0-0.1,0-0.1,0.1c0,0-0.1,0-0.1,0.1c0,0,0,0,0,0.1c0,0,0,0.1-0.1,0.1c0,0,0,0,0,0l-7,19c-0.1,0.2,0,0.3,0.1,0.5
		C4.2,19.9,4.3,20,4.5,20H11v3.5c0,0.3,0.2,0.5,0.5,0.5s0.5-0.2,0.5-0.5V20z M11.5,1.9L17.8,19H12v-3.6l2.8,1.6
		c0.1,0,0.2,0.1,0.2,0.1c0.2,0,0.3-0.1,0.4-0.3c0.1-0.2,0.1-0.5-0.2-0.7L12,14.2v-1.8l1.3,0.7c0.1,0,0.2,0.1,0.2,0.1
		c0.2,0,0.3-0.1,0.4-0.3c0.1-0.2,0.1-0.5-0.2-0.7l-1.8-1V8.5C12,8.2,11.8,8,11.5,8S11,8.2,11,8.5v2.7l-1.8,1C9,12.4,8.9,12.7,9,12.9
		c0.1,0.2,0.3,0.3,0.4,0.3c0.1,0,0.2,0,0.2-0.1l1.3-0.7v1.8l-3.2,1.9c-0.2,0.1-0.3,0.4-0.2,0.7C7.7,16.9,7.8,17,8,17
		c0.1,0,0.2,0,0.2-0.1l2.8-1.6V19H5.2L11.5,1.9z"/>
</g>
<g id="Frames-24px">
	<rect class="st1" width="24" height="24"/>
</g>
</svg>
