<?xml version="1.0" encoding="utf-8"?>
<!-- Generator: Adobe Illustrator 21.0.2, SVG Export Plug-In . SVG Version: 6.00 Build 0)  -->
<svg version="1.1" xmlns="http://www.w3.org/2000/svg" xmlns:xlink="http://www.w3.org/1999/xlink" x="0px" y="0px" width="24px"
	 height="24px" viewBox="0 0 24 24" enable-background="new 0 0 24 24" xml:space="preserve">
<g id="Black">
	<path fill="#58595B" d="M15.5,4h6C21.776,4,22,3.776,22,3.5S21.776,3,21.5,3h-6C15.224,3,15,3.224,15,3.5S15.224,4,15.5,4z"/>
	<path fill="#58595B" d="M15.5,6h4C19.776,6,20,5.776,20,5.5S19.776,5,19.5,5h-4C15.224,5,15,5.224,15,5.5S15.224,6,15.5,6z"/>
	<path fill="#58595B" d="M23.5,0h-10C13.224,0,13,0.224,13,0.5v8C13,8.776,13.224,9,13.5,9H15v2c0,0.202,0.122,0.385,0.309,0.462
		c0.062,0.025,0.127,0.038,0.191,0.038c0.13,0,0.258-0.051,0.354-0.146L18.207,9H23.5C23.776,9,24,8.776,24,8.5v-8
		C24,0.224,23.776,0,23.5,0z M23,8h-5c-0.133,0-0.26,0.053-0.354,0.146L16,9.793V8.5C16,8.224,15.776,8,15.5,8H14V1h9V8z"/>
	<path fill="#58595B" d="M3.324,15.468l4,1.5C7.381,16.989,7.44,17,7.5,17s0.119-0.011,0.176-0.032l4-1.5
		C11.871,15.395,12,15.208,12,15V9.5c0-0.208-0.129-0.395-0.324-0.468l-4-1.5c-0.113-0.043-0.238-0.043-0.351,0l-4,1.5
		C3.312,9.037,3.307,9.049,3.296,9.055C3.227,9.086,3.167,9.132,3.117,9.194C3.106,9.207,3.094,9.217,3.084,9.231
		C3.079,9.239,3.071,9.244,3.066,9.252c-0.041,0.072-0.057,0.15-0.06,0.228C3.006,9.487,3,9.492,3,9.5V15
		C3,15.208,3.129,15.395,3.324,15.468z M7.5,15.966L4,14.653v-4.291l2.752,1.573C6.827,11.978,6.913,12,7,12h4v2.653L7.5,15.966z
		 M7.5,8.534L11,9.847V11H7.133L4.673,9.594L7.5,8.534z"/>
	<path fill="#58595B" d="M0.5,24C0.776,24,1,23.776,1,23.5v-4.096l6.5-1.393l6.5,1.393V23.5c0,0.276,0.224,0.5,0.5,0.5
		s0.5-0.224,0.5-0.5V19c0-0.235-0.165-0.439-0.395-0.489l-7-1.5c-0.069-0.014-0.141-0.014-0.209,0l-7,1.5
		C0.165,18.561,0,18.765,0,19v4.5C0,23.776,0.224,24,0.5,24z"/>
	<path fill="#58595B" d="M8,23.5v-4C8,19.224,7.776,19,7.5,19S7,19.224,7,19.5v4C7,23.776,7.224,24,7.5,24S8,23.776,8,23.5z"/>
</g>
<g id="Frames-24px">
	<rect fill="none" width="24" height="24"/>
</g>
</svg>
