<?xml version="1.0" encoding="utf-8"?>
<!-- Generator: Adobe Illustrator 21.0.2, SVG Export Plug-In . SVG Version: 6.00 Build 0)  -->
<svg version="1.1" xmlns="http://www.w3.org/2000/svg" xmlns:xlink="http://www.w3.org/1999/xlink" x="0px" y="0px" width="24px"
	 height="24px" viewBox="0 0 24 24" enable-background="new 0 0 24 24" xml:space="preserve">
<g id="Black">
	<path fill="#58595B" d="M16.447,16.276l-4.5-9c-0.009-0.018-0.025-0.029-0.036-0.045c-0.015-0.023-0.028-0.047-0.047-0.068
		c-0.009-0.01-0.019-0.019-0.029-0.029c-0.02-0.018-0.043-0.03-0.065-0.045c-0.017-0.011-0.029-0.028-0.048-0.037
		c-0.005-0.002-0.01-0.002-0.015-0.004c-0.011-0.005-0.023-0.009-0.035-0.014c-0.026-0.01-0.053-0.012-0.081-0.018
		c-0.026-0.005-0.051-0.014-0.077-0.014C11.51,7.003,11.506,7,11.5,7c-0.006,0-0.01,0.003-0.016,0.003
		c-0.026,0.001-0.051,0.009-0.077,0.014c-0.027,0.005-0.055,0.008-0.081,0.017c-0.012,0.005-0.024,0.008-0.035,0.014
		c-0.005,0.002-0.01,0.002-0.015,0.004c-0.019,0.01-0.031,0.026-0.048,0.038c-0.022,0.014-0.045,0.026-0.064,0.044
		c-0.01,0.009-0.02,0.019-0.029,0.029c-0.019,0.021-0.032,0.045-0.047,0.068c-0.011,0.016-0.026,0.027-0.035,0.045l-4.5,9
		c-0.091,0.182-0.062,0.4,0.071,0.553L9.398,20H8.5C8.224,20,8,20.224,8,20.5v3C8,23.776,8.224,24,8.5,24h6
		c0.276,0,0.5-0.224,0.5-0.5v-3c0-0.276-0.224-0.5-0.5-0.5h-0.898l2.775-3.171C16.51,16.677,16.538,16.458,16.447,16.276z M14,23H9
		v-2h5V23z M12.273,20h-1.546l-3.13-3.576L11,9.618V15.5c0,0.276,0.224,0.5,0.5,0.5s0.5-0.224,0.5-0.5V9.618l3.403,6.806L12.273,20z
		"/>
	<path fill="#58595B" d="M2.5,15c0.128,0,0.256-0.049,0.354-0.146l2-2c0.195-0.195,0.195-0.512,0-0.707L4.207,11.5L10.5,5.207
		l0.646,0.646C11.244,5.951,11.372,6,11.5,6s0.256-0.049,0.354-0.146L12.5,5.207l6.293,6.293l-0.646,0.646
		c-0.195,0.195-0.195,0.512,0,0.707l2,2C20.244,14.951,20.372,15,20.5,15s0.256-0.049,0.354-0.146l2-2
		c0.195-0.195,0.195-0.512,0-0.707l-2-2c-0.195-0.195-0.512-0.195-0.707,0L19.5,10.793L13.207,4.5l0.646-0.646
		c0.195-0.195,0.195-0.512,0-0.707l-2-2c-0.195-0.195-0.512-0.195-0.707,0l-2,2c-0.195,0.195-0.195,0.512,0,0.707L9.793,4.5
		L3.5,10.793l-0.647-0.647c-0.195-0.195-0.512-0.195-0.707,0l-2,2c-0.195,0.195-0.195,0.512,0,0.707l2,2
		C2.244,14.951,2.372,15,2.5,15z M20.5,11.207l1.293,1.293L20.5,13.793L19.207,12.5L20.5,11.207z M11.5,2.207L12.793,3.5L11.5,4.793
		L10.207,3.5L11.5,2.207z M2.5,11.207L3.793,12.5L2.5,13.793L1.207,12.5L2.5,11.207z"/>
</g>
<g id="Frames-24px">
	<rect fill="none" width="24" height="24"/>
</g>
</svg>
