<?xml version="1.0" encoding="utf-8"?>
<!-- Generator: Adobe Illustrator 21.0.2, SVG Export Plug-In . SVG Version: 6.00 Build 0)  -->
<svg version="1.1" xmlns="http://www.w3.org/2000/svg" xmlns:xlink="http://www.w3.org/1999/xlink" x="0px" y="0px" width="24px"
	 height="24px" viewBox="0 0 24 24" enable-background="new 0 0 24 24" xml:space="preserve">
<g id="Black">
	<path fill="#58595B" d="M8.255,10.573c-0.065,0.038-0.124,0.087-0.168,0.154c-0.004,0.006-0.01,0.009-0.013,0.014
		c-0.001,0.001-0.002,0.002-0.002,0.003c-0.044,0.073-0.06,0.152-0.064,0.231C8.007,10.984,8,10.991,8,11v4
		c0,0.189,0.107,0.362,0.276,0.447l3,1.5C11.347,16.982,11.423,17,11.5,17s0.153-0.018,0.224-0.053l3-1.5
		C14.893,15.362,15,15.189,15,15v-4c0-0.189-0.107-0.362-0.276-0.447l-3-1.5c-0.141-0.07-0.307-0.07-0.447,0l-3,1.5
		C8.267,10.557,8.263,10.567,8.255,10.573z M11.5,15.941L9,14.691v-2.808l1.743,1.046C10.82,12.976,10.909,13,11,13h3v1.691
		L11.5,15.941z M11.5,10.059l2.5,1.25V12h-2.861l-1.601-0.96L11.5,10.059z"/>
	<path fill="#58595B" d="M23.342,2.025L21,2.807V1.5C21,1.224,20.776,1,20.5,1h-7C13.224,1,13,1.224,13,1.5v6
		C13,7.776,13.224,8,13.5,8h7C20.776,8,21,7.776,21,7.5V6.193l2.342,0.781c0.152,0.047,0.32,0.024,0.451-0.069
		C23.923,6.812,24,6.661,24,6.5v-4c0-0.161-0.077-0.312-0.208-0.405C23.662,2,23.494,1.977,23.342,2.025z M23,5.807l-2.342-0.781
		c-0.153-0.05-0.32-0.026-0.451,0.069C20.077,5.188,20,5.339,20,5.5V7h-6V2h6v1.5c0,0.161,0.077,0.312,0.208,0.405
		c0.131,0.094,0.298,0.117,0.451,0.069L23,3.193V5.807z"/>
	<path fill="#58595B" d="M22.5,20H21v-9.5c0-0.276-0.224-0.5-0.5-0.5S20,10.224,20,10.5V20h-3v-1c0-0.221-0.145-0.415-0.356-0.479
		l-5-1.5c-0.094-0.029-0.193-0.029-0.287,0l-5,1.5C6.145,18.585,6,18.779,6,19v1H3V8h7.5C10.776,8,11,7.776,11,7.5S10.776,7,10.5,7
		h-8C2.224,7,2,7.224,2,7.5V20H0.5c-0.202,0-0.385,0.122-0.462,0.309c-0.078,0.187-0.035,0.402,0.108,0.545l3,3
		C3.24,23.947,3.367,24,3.5,24H20c0.148,0,0.289-0.065,0.384-0.18l2.5-3c0.124-0.149,0.151-0.356,0.068-0.532
		C22.871,20.112,22.694,20,22.5,20z M7,19.372l4.5-1.35l4.5,1.35V20h-2.438c-0.076,0-0.15,0.018-0.218,0.05l-1.843,0.894
		L9.69,20.052C9.622,20.018,9.546,20,9.469,20H7V19.372z M19.766,23H3.707l-2-2h7.646l1.926,0.948
		c0.137,0.067,0.3,0.068,0.439,0.002L13.677,21h7.755L19.766,23z"/>
</g>
<g id="Frames-24px">
	<rect fill="none" width="24" height="24"/>
</g>
</svg>
