<?xml version="1.0" encoding="utf-8"?>
<!-- Generator: Adobe Illustrator 21.0.2, SVG Export Plug-In . SVG Version: 6.00 Build 0)  -->
<svg version="1.1" xmlns="http://www.w3.org/2000/svg" xmlns:xlink="http://www.w3.org/1999/xlink" x="0px" y="0px"
	 viewBox="0 0 24 24" style="enable-background:new 0 0 24 24;" xml:space="preserve">
<style type="text/css">
	.st0{fill:#58595B;}
	.st1{fill:none;}
</style>
<g id="Black">
	<path class="st0" d="M0.5,24h4c0.1,0,0.3-0.1,0.4-0.1l3.5-3.5c0.1-0.1,0.1-0.1,0.1-0.2l0.4-1.7l2.7-0.4c0.2,0,0.3-0.2,0.4-0.3
		c0.1-0.2,0-0.4-0.1-0.5L9.7,15l8.6-8.6l3.9-1c0.1,0,0.3-0.1,0.3-0.3l1.5-3C24,2,24,1.8,23.9,1.6l-1.5-1.5C22.2,0,22,0,21.8,0.1
		l-3,1.5c-0.1,0.1-0.2,0.2-0.3,0.3l-1,3.9L9,14.3l-2.1-2.1C6.7,12,6.5,12,6.3,12C6.1,12.1,6,12.3,6,12.4l-0.4,2.7l-1.7,0.4
		c-0.1,0-0.2,0.1-0.2,0.1l-3.5,3.5C0.1,19.2,0,19.4,0,19.5v4C0,23.8,0.2,24,0.5,24z M19.4,2.3l2.5-1.2l1,1l-1.2,2.5l-3,0.7L19.4,2.3
		z M6.8,13.6l3.6,3.6l-1.8,0.3l-2.1-2.1L6.8,13.6z M1,19.7l3.3-3.3l1.6-0.4l2.1,2.1l-0.4,1.6L4.3,23H1V19.7z"/>
	<path class="st0" d="M1.6,7.8C1.7,7.9,1.8,8,1.9,8l3.8,0.5l3.4,3.4C9.2,12,9.4,12,9.5,12s0.3,0,0.4-0.1c0.2-0.2,0.2-0.5,0-0.7
		L6.4,7.6C6.3,7.6,6.2,7.5,6.1,7.5L2.3,7L1,5.3V3.7l1.1,1.1C2.2,4.9,2.4,5,2.5,5h2C4.8,5,5,4.8,5,4.5v-2c0-0.1-0.1-0.3-0.1-0.4
		L3.7,1h1.6L7,2.7l0.5,3.3c0,0.1,0.1,0.2,0.1,0.3l3.5,3.5c0.2,0.2,0.5,0.2,0.7,0s0.2-0.5,0-0.7L8.5,5.8L8,2.4c0-0.1-0.1-0.2-0.1-0.3
		l-2-2C5.8,0.1,5.6,0,5.5,0h-3C2.3,0,2.1,0.1,2,0.3C2,0.5,2,0.7,2.1,0.9L4,2.7V4H2.7L0.9,2.1C0.7,2,0.5,2,0.3,2C0.1,2.1,0,2.3,0,2.5
		v3c0,0.1,0,0.2,0.1,0.3L1.6,7.8z"/>
	<path class="st0" d="M21.9,16.1c-0.1-0.1-0.2-0.1-0.3-0.1l-3.3-0.5l-3.4-3.4c-0.2-0.2-0.5-0.2-0.7,0s-0.2,0.5,0,0.7l3.5,3.5
		c0.1,0.1,0.2,0.1,0.3,0.1l3.3,0.5l1.7,1.7v1.6l-1.1-1.1c-0.1-0.1-0.2-0.1-0.4-0.1h-2c-0.3,0-0.5,0.2-0.5,0.5v2
		c0,0.1,0.1,0.3,0.1,0.4l1.1,1.1h-1.6L17,21.7l-0.5-3.8c0-0.1-0.1-0.2-0.1-0.3l-3.5-3.5c-0.2-0.2-0.5-0.2-0.7,0s-0.2,0.5,0,0.7
		l3.4,3.4l0.5,3.8c0,0.1,0.1,0.3,0.2,0.3l2,1.5c0.1,0.1,0.2,0.1,0.3,0.1h3c0.2,0,0.4-0.1,0.5-0.3c0.1-0.2,0-0.4-0.1-0.5L20,21.3V20
		h1.3l1.9,1.9c0.1,0.1,0.4,0.2,0.5,0.1c0.2-0.1,0.3-0.3,0.3-0.5v-3c0-0.1-0.1-0.3-0.1-0.4L21.9,16.1z"/>
</g>
<g id="Frames-24px">
	<rect class="st1" width="24" height="24"/>
</g>
</svg>
