<?xml version="1.0" standalone="no"?>
<!DOCTYPE svg PUBLIC "-//W3C//DTD SVG 1.1//EN" "http://www.w3.org/Graphics/SVG/1.1/DTD/svg11.dtd" >
<svg xmlns="http://www.w3.org/2000/svg">
<metadata>
This is a custom SVG webfont generated by Font Squirrel.
Copyright   : 2006 Patrick Broderickwwwrotodesigncom
</metadata>
<defs>
<font id="webfont5CY0JZvJ" horiz-adv-x="1923" >
<font-face units-per-em="2048" ascent="1638" descent="-410" />
<missing-glyph horiz-adv-x="559" />
<glyph unicode=" "  horiz-adv-x="559" />
<glyph unicode="&#x09;" horiz-adv-x="559" />
<glyph unicode="&#xa0;" horiz-adv-x="559" />
<glyph unicode="!" horiz-adv-x="272" d="M82 182q0 -57 57 -57t58 57v137q0 55 -58 56q-57 0 -57 -56v-137zM82 592q0 -57 57 -57t58 57v819q0 57 -58 57q-57 0 -57 -57v-819z" />
<glyph unicode="," horiz-adv-x="272" d="M16 92q0 -57 58 -57q31 0 47 24l37 56q41 61 41 135v80q0 57 -58 57q-55 0 -55 -57v-80q0 -37 -23 -72l-36 -55q-11 -15 -11 -31z" />
<glyph unicode="-" horiz-adv-x="1480" d="M61 805q0 -57 58 -57h1229q55 0 55 57t-55 57h-1229q-58 0 -58 -57z" />
<glyph unicode="/" horiz-adv-x="1415" d="M37 195q0 -57 57 -58q23 0 39 17l1229 1228q16 16 16 41q0 55 -55 56q-25 0 -41 -17l-1229 -1229q-16 -15 -16 -38z" />
<glyph unicode="0" horiz-adv-x="1497" d="M78 819q0 -279 196.5 -475.5t475.5 -196.5t475 197t196 475q0 279 -196.5 475.5t-474.5 196.5q-279 0 -475.5 -196.5t-196.5 -475.5zM193 819q0 231 163.5 394t393.5 163q231 0 394 -162.5t163 -394.5q0 -229 -163 -393t-394 -164q-229 0 -393 164t-164 393z" />
<glyph unicode="1" horiz-adv-x="276" d="M76 205q0 -57 57 -58q57 0 57 58v1229q0 57 -57 57t-57 -57v-1229z" />
<glyph unicode="2" horiz-adv-x="1497" d="M76 147h1284q57 0 57 58q0 57 -57 57h-1163q49 205 266 301q168 74 457 148q258 66 350 116q147 84 147 232q0 188 -190.5 310t-481.5 122q-270 0 -464 -129q-205 -137 -205 -338q0 -57 55 -57q57 0 57 57q0 145 163 248.5t394 103.5q240 0 400 -91t160 -226 q0 -88 -109 -141q-74 -39 -305 -99q-154 -39 -229 -63q-135 -41 -246 -90q-211 -94 -297 -283q-43 -96 -43 -178v-58z" />
<glyph unicode="3" horiz-adv-x="1521" d="M84 512q0 -164 211 -268q195 -96 461 -97q266 0 461 97q211 104 210 268q0 164 -210 268q-31 14 -95 39q33 12 95 39q211 104 210 268q0 164 -210 269q-195 96 -461 96t-461 -96q-211 -104 -211 -269q0 -57 57 -57t58 57q0 94 155 170q166 80 402 80t401 -80 q156 -76 156 -170t-156 -170q-166 -80 -401 -79h-205q-57 0 -57 -58q0 -57 57 -57h205q236 0 401 -80q156 -76 156 -170t-156 -170q-166 -80 -401 -80q-236 0 -402 80q-156 76 -155 170q0 57 -58 57q-57 0 -57 -57z" />
<glyph unicode="4" horiz-adv-x="1550" d="M82 557h1114v-352q0 -57 57 -58q57 0 58 58v352h147q57 0 58 57q0 57 -58 58h-147v762q0 57 -58 57q-57 0 -57 -57v-762h-956l249 743q8 29 -9 52.5t-46 23.5q-41 0 -53 -39z" />
<glyph unicode="5" horiz-adv-x="1507" d="M78 602q0 -199 205 -336q193 -129 465 -129q274 0 466 129q205 137 205 336q0 201 -205 338q-195 129 -466 129h-420v297h1034q57 0 57 55q0 57 -57 58h-1149v-523h535q229 0 394 -104t165 -250q0 -145 -164 -248.5t-395 -103.5t-394.5 103.5t-163.5 248.5q0 57 -57 57 q-55 0 -55 -57z" />
<glyph unicode="6" horiz-adv-x="1507" d="M84 602q0 -199 207 -336q193 -129 465 -129q274 0 467 129q205 137 204 336q0 201 -204 338q-193 129 -467 129q-270 0 -465 -129q-49 -33 -92 -76v13q0 242 159 368q152 121 398 121q152 0 283.5 -50t205.5 -136q18 -18 45 -19q55 0 56 58q0 20 -15 36 q-90 104 -242.5 164t-332.5 60q-289 0 -469 -146q-203 -164 -203 -456v-275zM199 602q0 145 163.5 249.5t393.5 104.5q229 0 393 -104t164 -250q0 -145 -163 -248.5t-394 -103.5t-394 103.5t-163 248.5z" />
<glyph unicode="7" horiz-adv-x="1507" d="M66 1421q0 -55 55 -55h1124l-762 -1141q-10 -14 -10 -30q0 -59 57 -60q33 0 50 27l876 1317h-1335q-55 -1 -55 -58z" />
<glyph unicode="8" horiz-adv-x="1507" d="M96 500q0 -160 211 -267q190 -96 461 -96q270 0 461 96q211 106 211 267q0 164 -211 268q-53 27 -94 39q305 115 305 307q0 162 -211 268q-190 96 -461 97q-270 0 -461 -97q-211 -106 -211 -268q0 -193 305 -307q-41 -12 -94 -39q-211 -104 -211 -268zM211 500 q0 94 156 170q166 82 401 82q236 0 401 -82q156 -76 156 -170q0 -92 -156 -168q-166 -82 -401 -82q-236 0 -401 82q-156 76 -156 168zM211 1114q0 94 156 170q166 82 401 82q236 0 401 -82q156 -76 156 -170q0 -92 -156 -168q-166 -82 -401 -82q-236 0 -401 82 q-156 76 -156 168z" />
<glyph unicode="9" horiz-adv-x="1507" d="M78 1012q0 -199 205 -336q193 -129 467 -129q272 0 464 129q49 33 93 76v-13q0 -240 -160 -368q-150 -121 -397 -121q-152 0 -284 50t-206 136q-37 41 -80 4q-20 -16 -20 -43q0 -20 14 -37q90 -104 242.5 -163.5t333.5 -59.5q291 0 469 144q203 164 202 458v273 q0 201 -207 338q-195 129 -464 129q-274 0 -467 -129q-205 -137 -205 -338zM193 1012q0 145 163.5 249.5t393.5 104.5q229 0 393 -104.5t164 -249.5t-163 -249t-394 -104t-394 104t-163 249z" />
<glyph unicode=":" horiz-adv-x="272" d="M78 182q0 -57 57 -57t58 57v137q0 55 -58 56q-57 0 -57 -56v-137zM78 592q0 -57 57 -57t58 57v137q0 55 -58 55q-57 0 -57 -55v-137z" />
<glyph unicode=";" horiz-adv-x="272" d="M12 92q0 -57 58 -57q31 0 47 24l37 56q41 61 41 135v80q0 57 -58 57q-57 0 -57 -57v-80q0 -41 -21 -72l-36 -55q-11 -15 -11 -31zM80 602q0 -55 57 -55t58 55v137q0 57 -58 58q-57 0 -57 -58v-137z" />
<glyph unicode="A" horiz-adv-x="2338" d="M66 207q0 -59 59 -60q25 0 41 21l323 389h1336l336 -389q18 -20 45 -21q55 0 55 56q0 23 -14 39l-1102 1280l-1067 -1280q-12 -15 -12 -35zM586 672l561 674l582 -674h-1143z" />
<glyph unicode="B" horiz-adv-x="1910" d="M94 147h1389q150 0 256 107.5t106 257.5q0 199 -170 307q170 109 170 307q0 150 -106.5 257.5t-255.5 107.5h-1389v-1344zM207 262v500h1276q102 0 175 -74t73 -176t-73 -176t-175 -74h-1276zM207 877v499h1276q102 0 175 -73.5t73 -176.5q0 -102 -73 -175.5t-175 -73.5 h-1276z" />
<glyph unicode="C" horiz-adv-x="1851" d="M72 819q0 -297 272 -504q264 -201 639 -200q227 0 428 82t326 227q17 21 17 40q0 21 -21 40q-16 14 -39 14q-25 0 -41 -18q-113 -127 -290 -200t-380 -73q-330 0 -563.5 174t-233.5 418t233.5 418t563.5 174q203 0 380 -72.5t290 -199.5q16 -18 41 -19q23 0 39 15 q22 18 21 39q0 19 -17 40q-125 145 -326 227.5t-428 82.5q-375 0 -639 -201q-272 -207 -272 -504z" />
<glyph unicode="D" horiz-adv-x="1904" d="M86 147h1081q113 0 224 39q201 70 324.5 245t123.5 388t-124 388t-324 245q-111 39 -224 39h-1081v-1344zM201 262v1114h966q100 0 187 -30q166 -59 268 -205t102 -322t-102 -321.5t-268 -204.5q-86 -31 -187 -31h-966z" />
<glyph unicode="E" horiz-adv-x="1904" d="M74 147h1695q57 0 58 58q0 57 -58 57h-1581v500h1581q57 0 58 57q0 57 -58 58h-1581v499h1581q57 0 58 58q0 57 -58 57h-1695v-1344z" />
<glyph unicode="F" horiz-adv-x="1904" d="M92 205q0 -57 58 -58q57 0 57 58v557h1581q57 0 57 57t-57 58h-1581v499h1581q57 0 57 58q0 57 -57 57h-1696v-1286z" />
<glyph unicode="G" horiz-adv-x="1857" d="M76 807q0 -297 272 -504q264 -201 639 -201q391 0 660 220v-129q0 -55 57 -56q55 0 55 56v466h-772q-57 0 -57 -57q0 -55 57 -55h660v-70q-113 -123 -287 -191.5t-373 -68.5q-330 0 -563.5 173t-233.5 417q0 246 233.5 419t563.5 173q203 0 380 -72t288 -199 q16 -20 43 -20q57 0 57 57q0 20 -14 37q-129 145 -328 228t-426 83q-373 0 -639 -202q-272 -207 -272 -504z" />
<glyph unicode="H" horiz-adv-x="1888" d="M76 182q0 -57 57 -57t57 57v557h1524v-557q0 -57 58 -57q57 0 57 57v1229q0 57 -57 57t-58 -57v-557h-1524v557q0 57 -57 57t-57 -57v-1229z" />
<glyph unicode="I" horiz-adv-x="305" d="M94 193q0 -55 56 -56q57 0 57 56v1228q0 57 -57 58q-55 0 -56 -58v-1228z" />
<glyph unicode="J" horiz-adv-x="1888" d="M70 627q0 -287 297 -422q225 -102 577 -103q354 0 580 103q297 135 297 422v794q0 57 -58 58q-55 0 -55 -58v-794q0 -242 -295 -344q-193 -66 -469 -66t-467 66q-295 102 -295 344q0 55 -57 55q-55 0 -55 -55z" />
<glyph unicode="K" horiz-adv-x="1888" d="M74 193q0 -55 57 -56q57 0 57 56v374l752 377l789 -790q16 -16 40 -17q57 0 58 58q0 23 -17 38l-763 764l749 375q31 14 31 49q0 33 -27 49q-14 9 -29 9q-13 0 -26 -6l-1557 -779v727q0 57 -57 58q-57 0 -57 -58v-1228z" />
<glyph unicode="L" horiz-adv-x="1912" d="M98 137h1696q57 0 57 56q0 57 -57 57h-1581v1171q0 57 -57 58q-57 0 -58 -58v-1284z" />
<glyph unicode="M" horiz-adv-x="1863" d="M55 193q0 -55 58 -56q55 0 55 56v1042l764 -1145l762 1145v-1042q0 -55 57 -56q55 0 55 56v1417l-874 -1313l-877 1313v-1417z" />
<glyph unicode="N" horiz-adv-x="1888" d="M63 193q0 -55 58 -56q57 0 57 56v1116l1639 -1229v1341q0 57 -58 58q-57 0 -57 -58v-1114l-1639 1229v-1343z" />
<glyph unicode="O" d="M57 807q0 -297 273 -504q264 -201 639 -201t637 201q272 209 272 504t-272 504q-266 203 -637 202q-373 0 -639 -202q-273 -207 -273 -504zM172 807q0 246 233.5 419t563.5 173t563 -173t233 -419q0 -244 -233.5 -417t-562.5 -173q-330 0 -563.5 173t-233.5 417z" />
<glyph unicode="P" d="M84 205q0 -57 57 -58q57 0 58 58v352h1171q195 0 331 137t136 330q0 195 -136 331t-331 136h-1286v-1286zM199 672v704h1171q145 0 248.5 -103.5t103.5 -248.5t-103 -248.5t-249 -103.5h-1171z" />
<glyph unicode="Q" d="M51 819q0 -299 273 -504q246 -184 579 -200v-273q0 -55 58 -55q57 0 57 55v273q338 16 581 200q272 207 273 504q0 297 -273 504q-264 201 -638 201q-373 0 -637 -201q-273 -207 -273 -504zM164 819q0 244 233.5 418t563.5 174t563 -174t233 -418q0 -233 -215 -403 t-524 -187v385q0 57 -57 58q-57 0 -58 -58v-385q-309 16 -524 186.5t-215 403.5z" />
<glyph unicode="R" d="M84 205q0 -57 57 -58q57 0 58 58v352h950l600 -399q14 -10 31 -11q31 0 47 27q10 14 10 31q0 31 -25 47l-458 305h16q195 0 331 137t136 330q0 195 -136 331t-331 136h-1286v-1286zM199 672v704h1171q145 0 248.5 -103.5t103.5 -248.5t-103 -248.5t-249 -103.5h-1171z " />
<glyph unicode="S" d="M88 614q0 -211 254 -355t623 -144q367 0 598 80q279 96 278 282q0 195 -237 281q-135 49 -527 102l-203 29q-371 53 -491 94q-180 61 -180 178q0 111 213 180.5t549 69.5q309 0 535 -114.5t226 -272.5q0 -57 58 -57q57 0 57 57q0 211 -254 355.5t-622 144.5 q-367 0 -598 -80q-279 -96 -279 -283q0 -195 248 -282q119 -41 524 -103l96 -14l105 -14q375 -51 498 -95q168 -57 167 -176q0 -111 -213 -180.5t-548 -69.5q-309 0 -535.5 115t-226.5 272q0 57 -58 58q-57 -1 -57 -58z" />
<glyph unicode="T" horiz-adv-x="1835" d="M43 1434q0 -57 57 -58h762v-1171q0 -57 58 -58q57 0 57 58v1171h762q57 0 57 58q0 57 -57 57h-1639q-57 0 -57 -57z" />
<glyph unicode="U" horiz-adv-x="1961" d="M113 627q0 -287 299 -422q225 -102 577 -103q354 0 580 103q297 135 297 422v794q0 57 -58 58q-57 0 -57 -58v-794q0 -242 -295 -344q-190 -66 -467 -66q-276 0 -467 66q-295 102 -295 344v794q0 57 -57 58q-57 0 -57 -58v-794z" />
<glyph unicode="V" horiz-adv-x="1851" d="M47 1421q0 -16 10 -30l869 -1301l866 1301q10 14 10 32q0 57 -57 58q-33 0 -49 -27l-770 -1157l-772 1157q-16 27 -50 27q-57 -1 -57 -60z" />
<glyph unicode="W" horiz-adv-x="2496" d="M37 1423q0 -12 4 -24l594 -1340l618 1235l617 -1235l596 1340q4 10 4 22q0 57 -55 58q-39 0 -54 -33l-497 -1118l-611 1222l-612 -1222l-498 1118q-14 33 -51 33q-55 -1 -55 -56z" />
<glyph unicode="X" horiz-adv-x="1847" d="M49 195q0 -57 60 -58q18 0 32 10l785 590l784 -590q14 -10 33 -10q59 0 59 58q0 29 -22 45l-760 567l760 569q23 16 22 45q0 57 -59 58q-18 0 -33 -11l-784 -589l-785 589q-14 10 -32 11q-31 0 -48 -23q-15 -21 -15 -38q0 -23 26 -42l759 -569l-759 -567q-23 -16 -23 -45 z" />
<glyph unicode="Y" horiz-adv-x="1847" d="M51 1421q0 -23 17 -39l800 -802v-387q0 -55 58 -56q57 0 57 56v387l803 802q16 16 16 41q0 55 -57 56q-23 0 -39 -17l-780 -778l-779 778q-16 16 -41 17q-55 -1 -55 -58z" />
<glyph unicode="Z" horiz-adv-x="2041" d="M35 137h1808q57 0 58 56q0 57 -58 57h-1466l1638 1229h-1810q-55 0 -55 -58q0 -55 55 -55h1468z" />
<glyph unicode="a" horiz-adv-x="2338" d="M66 207q0 -59 59 -60q25 0 41 21l323 389h1336l336 -389q18 -20 45 -21q55 0 55 56q0 23 -14 39l-1102 1280l-1067 -1280q-12 -15 -12 -35zM586 672l561 674l582 -674h-1143z" />
<glyph unicode="b" horiz-adv-x="1910" d="M94 147h1389q150 0 256 107.5t106 257.5q0 199 -170 307q170 109 170 307q0 150 -106.5 257.5t-255.5 107.5h-1389v-1344zM207 262v500h1276q102 0 175 -74t73 -176t-73 -176t-175 -74h-1276zM207 877v499h1276q102 0 175 -73.5t73 -176.5q0 -102 -73 -175.5t-175 -73.5 h-1276z" />
<glyph unicode="c" horiz-adv-x="1851" d="M72 819q0 -297 272 -504q264 -201 639 -200q227 0 428 82t326 227q17 21 17 40q0 21 -21 40q-16 14 -39 14q-25 0 -41 -18q-113 -127 -290 -200t-380 -73q-330 0 -563.5 174t-233.5 418t233.5 418t563.5 174q203 0 380 -72.5t290 -199.5q16 -18 41 -19q23 0 39 15 q22 18 21 39q0 19 -17 40q-125 145 -326 227.5t-428 82.5q-375 0 -639 -201q-272 -207 -272 -504z" />
<glyph unicode="d" horiz-adv-x="1904" d="M86 147h1081q113 0 224 39q201 70 324.5 245t123.5 388t-124 388t-324 245q-111 39 -224 39h-1081v-1344zM201 262v1114h966q100 0 187 -30q166 -59 268 -205t102 -322t-102 -321.5t-268 -204.5q-86 -31 -187 -31h-966z" />
<glyph unicode="e" horiz-adv-x="1904" d="M74 147h1695q57 0 58 58q0 57 -58 57h-1581v500h1581q57 0 58 57q0 57 -58 58h-1581v499h1581q57 0 58 58q0 57 -58 57h-1695v-1344z" />
<glyph unicode="f" horiz-adv-x="1904" d="M92 205q0 -57 58 -58q57 0 57 58v557h1581q57 0 57 57t-57 58h-1581v499h1581q57 0 57 58q0 57 -57 57h-1696v-1286z" />
<glyph unicode="g" horiz-adv-x="1857" d="M76 807q0 -297 272 -504q264 -201 639 -201q391 0 660 220v-129q0 -55 57 -56q55 0 55 56v466h-772q-57 0 -57 -57q0 -55 57 -55h660v-70q-113 -123 -287 -191.5t-373 -68.5q-330 0 -563.5 173t-233.5 417q0 246 233.5 419t563.5 173q203 0 380 -72t288 -199 q16 -20 43 -20q57 0 57 57q0 20 -14 37q-129 145 -328 228t-426 83q-373 0 -639 -202q-272 -207 -272 -504z" />
<glyph unicode="h" horiz-adv-x="1888" d="M76 182q0 -57 57 -57t57 57v557h1524v-557q0 -57 58 -57q57 0 57 57v1229q0 57 -57 57t-58 -57v-557h-1524v557q0 57 -57 57t-57 -57v-1229z" />
<glyph unicode="i" horiz-adv-x="305" d="M94 193q0 -55 56 -56q57 0 57 56v1228q0 57 -57 58q-55 0 -56 -58v-1228z" />
<glyph unicode="j" horiz-adv-x="1888" d="M70 627q0 -287 297 -422q225 -102 577 -103q354 0 580 103q297 135 297 422v794q0 57 -58 58q-55 0 -55 -58v-794q0 -242 -295 -344q-193 -66 -469 -66t-467 66q-295 102 -295 344q0 55 -57 55q-55 0 -55 -55z" />
<glyph unicode="k" horiz-adv-x="1888" d="M74 193q0 -55 57 -56q57 0 57 56v374l752 377l789 -790q16 -16 40 -17q57 0 58 58q0 23 -17 38l-763 764l749 375q31 14 31 49q0 33 -27 49q-14 9 -29 9q-13 0 -26 -6l-1557 -779v727q0 57 -57 58q-57 0 -57 -58v-1228z" />
<glyph unicode="l" horiz-adv-x="1912" d="M98 137h1696q57 0 57 56q0 57 -57 57h-1581v1171q0 57 -57 58q-57 0 -58 -58v-1284z" />
<glyph unicode="m" horiz-adv-x="1863" d="M55 193q0 -55 58 -56q55 0 55 56v1042l764 -1145l762 1145v-1042q0 -55 57 -56q55 0 55 56v1417l-874 -1313l-877 1313v-1417z" />
<glyph unicode="n" horiz-adv-x="1888" d="M63 193q0 -55 58 -56q57 0 57 56v1116l1639 -1229v1341q0 57 -58 58q-57 0 -57 -58v-1114l-1639 1229v-1343z" />
<glyph unicode="o" d="M57 807q0 -297 273 -504q264 -201 639 -201t637 201q272 209 272 504t-272 504q-266 203 -637 202q-373 0 -639 -202q-273 -207 -273 -504zM172 807q0 246 233.5 419t563.5 173t563 -173t233 -419q0 -244 -233.5 -417t-562.5 -173q-330 0 -563.5 173t-233.5 417z" />
<glyph unicode="p" d="M84 205q0 -57 57 -58q57 0 58 58v352h1171q195 0 331 137t136 330q0 195 -136 331t-331 136h-1286v-1286zM199 672v704h1171q145 0 248.5 -103.5t103.5 -248.5t-103 -248.5t-249 -103.5h-1171z" />
<glyph unicode="q" d="M51 819q0 -299 273 -504q246 -184 579 -200v-273q0 -55 58 -55q57 0 57 55v273q338 16 581 200q272 207 273 504q0 297 -273 504q-264 201 -638 201q-373 0 -637 -201q-273 -207 -273 -504zM164 819q0 244 233.5 418t563.5 174t563 -174t233 -418q0 -233 -215 -403 t-524 -187v385q0 57 -57 58q-57 0 -58 -58v-385q-309 16 -524 186.5t-215 403.5z" />
<glyph unicode="r" d="M84 205q0 -57 57 -58q57 0 58 58v352h950l600 -399q14 -10 31 -11q31 0 47 27q10 14 10 31q0 31 -25 47l-458 305h16q195 0 331 137t136 330q0 195 -136 331t-331 136h-1286v-1286zM199 672v704h1171q145 0 248.5 -103.5t103.5 -248.5t-103 -248.5t-249 -103.5h-1171z " />
<glyph unicode="s" d="M88 614q0 -211 254 -355t623 -144q367 0 598 80q279 96 278 282q0 195 -237 281q-135 49 -527 102l-203 29q-371 53 -491 94q-180 61 -180 178q0 111 213 180.5t549 69.5q309 0 535 -114.5t226 -272.5q0 -57 58 -57q57 0 57 57q0 211 -254 355.5t-622 144.5 q-367 0 -598 -80q-279 -96 -279 -283q0 -195 248 -282q119 -41 524 -103l96 -14l105 -14q375 -51 498 -95q168 -57 167 -176q0 -111 -213 -180.5t-548 -69.5q-309 0 -535.5 115t-226.5 272q0 57 -58 58q-57 -1 -57 -58z" />
<glyph unicode="t" horiz-adv-x="1835" d="M43 1434q0 -57 57 -58h762v-1171q0 -57 58 -58q57 0 57 58v1171h762q57 0 57 58q0 57 -57 57h-1639q-57 0 -57 -57z" />
<glyph unicode="u" horiz-adv-x="1961" d="M113 627q0 -287 299 -422q225 -102 577 -103q354 0 580 103q297 135 297 422v794q0 57 -58 58q-57 0 -57 -58v-794q0 -242 -295 -344q-190 -66 -467 -66q-276 0 -467 66q-295 102 -295 344v794q0 57 -57 58q-57 0 -57 -58v-794z" />
<glyph unicode="v" horiz-adv-x="1851" d="M47 1421q0 -16 10 -30l869 -1301l866 1301q10 14 10 32q0 57 -57 58q-33 0 -49 -27l-770 -1157l-772 1157q-16 27 -50 27q-57 -1 -57 -60z" />
<glyph unicode="w" horiz-adv-x="2496" d="M37 1423q0 -12 4 -24l594 -1340l618 1235l617 -1235l596 1340q4 10 4 22q0 57 -55 58q-39 0 -54 -33l-497 -1118l-611 1222l-612 -1222l-498 1118q-14 33 -51 33q-55 -1 -55 -56z" />
<glyph unicode="x" horiz-adv-x="1847" d="M49 195q0 -57 60 -58q18 0 32 10l785 590l784 -590q14 -10 33 -10q59 0 59 58q0 29 -22 45l-760 567l760 569q23 16 22 45q0 57 -59 58q-18 0 -33 -11l-784 -589l-785 589q-14 10 -32 11q-31 0 -48 -23q-15 -21 -15 -38q0 -23 26 -42l759 -569l-759 -567q-23 -16 -23 -45 z" />
<glyph unicode="y" horiz-adv-x="1847" d="M51 1421q0 -23 17 -39l800 -802v-387q0 -55 58 -56q57 0 57 56v387l803 802q16 16 16 41q0 55 -57 56q-23 0 -39 -17l-780 -778l-779 778q-16 16 -41 17q-55 -1 -55 -58z" />
<glyph unicode="z" horiz-adv-x="2041" d="M35 137h1808q57 0 58 56q0 57 -58 57h-1466l1638 1229h-1810q-55 0 -55 -58q0 -55 55 -55h1468z" />
<glyph unicode="&#xad;" horiz-adv-x="1480" d="M61 805q0 -57 58 -57h1229q55 0 55 57t-55 57h-1229q-58 0 -58 -57z" />
<glyph unicode="&#x2000;" horiz-adv-x="819" />
<glyph unicode="&#x2001;" horiz-adv-x="1638" />
<glyph unicode="&#x2002;" horiz-adv-x="819" />
<glyph unicode="&#x2003;" horiz-adv-x="1638" />
<glyph unicode="&#x2004;" horiz-adv-x="544" />
<glyph unicode="&#x2005;" horiz-adv-x="409" />
<glyph unicode="&#x2006;" horiz-adv-x="272" />
<glyph unicode="&#x2007;" horiz-adv-x="272" />
<glyph unicode="&#x2008;" horiz-adv-x="204" />
<glyph unicode="&#x2009;" horiz-adv-x="327" />
<glyph unicode="&#x200a;" horiz-adv-x="90" />
<glyph unicode="&#x2010;" horiz-adv-x="1480" d="M61 805q0 -57 58 -57h1229q55 0 55 57t-55 57h-1229q-58 0 -58 -57z" />
<glyph unicode="&#x2011;" horiz-adv-x="1480" d="M61 805q0 -57 58 -57h1229q55 0 55 57t-55 57h-1229q-58 0 -58 -57z" />
<glyph unicode="&#x2012;" horiz-adv-x="1480" d="M61 805q0 -57 58 -57h1229q55 0 55 57t-55 57h-1229q-58 0 -58 -57z" />
<glyph unicode="&#x2013;" horiz-adv-x="1509" d="M72 805q0 -57 57 -57h1229q57 0 57 57t-57 57h-1229q-57 0 -57 -57z" />
<glyph unicode="&#x2014;" horiz-adv-x="1497" d="M72 805q0 -57 57 -57h1229q57 0 57 57t-57 57h-1229q-57 0 -57 -57z" />
<glyph unicode="&#x2022;" horiz-adv-x="571" d="M92 737q0 80 55.5 135.5t133.5 55.5q80 0 135 -55.5t55 -133.5q0 -80 -55.5 -135t-132.5 -55q-80 0 -135.5 55t-55.5 135v-2z" />
<glyph unicode="&#x202f;" horiz-adv-x="327" />
<glyph unicode="&#x205f;" horiz-adv-x="409" />
<glyph unicode="&#x2122;" horiz-adv-x="3698" d="M1890 193q0 -55 58 -56q55 0 55 56v1042l764 -1145l762 1145v-1042q0 -55 57 -56q55 0 55 56v1417l-874 -1313l-877 1313v-1417zM43 1434q0 -57 57 -58h762v-1171q0 -57 58 -58q57 0 57 58v1171h762q57 0 57 58q0 57 -57 57h-1639q-57 0 -57 -57z" />
<glyph unicode="&#xe000;" horiz-adv-x="1480" d="M0 1480h1480v-1480h-1480v1480z" />
<glyph unicode="&#xfb01;" horiz-adv-x="2209" d="M1999 193q0 -55 56 -56q57 0 57 56v1228q0 57 -57 58q-55 0 -56 -58v-1228zM92 205q0 -57 58 -58q57 0 57 58v557h1581q57 0 57 57t-57 58h-1581v499h1581q57 0 57 58q0 57 -57 57h-1696v-1286z" />
<glyph unicode="&#xfb02;" horiz-adv-x="3817" d="M2003 137h1696q57 0 57 56q0 57 -57 57h-1581v1171q0 57 -57 58q-57 0 -58 -58v-1284zM92 205q0 -57 58 -58q57 0 57 58v557h1581q57 0 57 57t-57 58h-1581v499h1581q57 0 57 58q0 57 -57 57h-1696v-1286z" />
<glyph unicode="&#xfb03;" horiz-adv-x="4114" d="M3903 193q0 -55 56 -56q57 0 57 56v1228q0 57 -57 58q-55 0 -56 -58v-1228zM1997 205q0 -57 58 -58q57 0 57 58v557h1581q57 0 57 57t-57 58h-1581v499h1581q57 0 57 58q0 57 -57 57h-1696v-1286zM92 205q0 -57 58 -58q57 0 57 58v557h1581q57 0 57 57t-57 58h-1581v499 h1581q57 0 57 58q0 57 -57 57h-1696v-1286z" />
<glyph unicode="&#xfb04;" horiz-adv-x="5722" d="M3907 137h1696q57 0 57 56q0 57 -57 57h-1581v1171q0 57 -57 58q-57 0 -58 -58v-1284zM1997 205q0 -57 58 -58q57 0 57 58v557h1581q57 0 57 57t-57 58h-1581v499h1581q57 0 57 58q0 57 -57 57h-1696v-1286zM92 205q0 -57 58 -58q57 0 57 58v557h1581q57 0 57 57t-57 58 h-1581v499h1581q57 0 57 58q0 57 -57 57h-1696v-1286z" />
</font>
</defs>
</svg>
