<svg xmlns="http://www.w3.org/2000/svg" width="24" height="24" viewBox="0 0 24 24">
  <title>account-hexagon</title>
  <g id="Duotone">
    <polygon points="21.5 18 11.5 23.5 1.5 18 1.5 7 11.5 1.5 21.5 7 21.5 18" fill="#fff"/>
    <polygon points="19.385 16.663 11.5 21 3.615 16.663 1.5 18 11.5 23.5 21.5 18.163 19.385 16.663" fill="#cce7ff"/>
    <polygon points="21.5 18 11.5 23.5 1.5 18 1.5 7 11.5 1.5 21.5 7 21.5 18" fill="none" stroke="#1078ff" stroke-linecap="round" stroke-linejoin="round"/>
    <polygon points="14.5 11 11.5 12.5 8.5 11 8.5 7.5 11.5 6 14.5 7.5 14.5 11" fill="none" stroke="#1078ff" stroke-linecap="round" stroke-linejoin="round"/>
    <polyline points="16.5 17.5 16.5 15 11.5 13.5 6.5 15 6.5 17.5" fill="none" stroke="#1078ff" stroke-linecap="round" stroke-linejoin="round"/>
    <line x1="11.5" y1="15.5" x2="11.5" y2="17.5" fill="none" stroke="#1078ff" stroke-linecap="round" stroke-linejoin="round"/>
    <g>
      <polygon points="14.5 8.5 11 8.5 8.5 7.5 11.5 6 14.5 7.5 14.5 8.5" fill="#cce7ff"/>
      <polygon points="14.5 8.5 11 8.5 8.5 7.5 11.5 6 14.5 7.5 14.5 8.5" fill="none" stroke="#1078ff" stroke-linejoin="round"/>
    </g>
  </g>
  <g id="Frames-24px">
    <rect width="24" height="24" fill="none"/>
  </g>
</svg>
