<?xml version="1.0" encoding="utf-8"?>
<!-- Generator: Adobe Illustrator 21.0.2, SVG Export Plug-In . SVG Version: 6.00 Build 0)  -->
<svg version="1.1" xmlns="http://www.w3.org/2000/svg" xmlns:xlink="http://www.w3.org/1999/xlink" x="0px" y="0px"
	 viewBox="0 0 24 24" style="enable-background:new 0 0 24 24;" xml:space="preserve">
<style type="text/css">
	.st0{fill:#FFFFFF;}
	.st1{fill:#CCE7FF;}
	.st2{fill:#CCE7FF;stroke:#1078FF;stroke-linejoin:round;stroke-miterlimit:10;}
	.st3{fill:none;stroke:#1078FF;stroke-linecap:round;stroke-linejoin:round;stroke-miterlimit:10;}
	.st4{fill:none;stroke:#1078FF;stroke-linejoin:round;stroke-miterlimit:10;}
	.st5{fill:none;stroke:#1078FF;stroke-width:0.9847;stroke-linecap:round;stroke-linejoin:round;stroke-miterlimit:10;}
	.st6{fill:none;stroke:#1078FF;stroke-linecap:round;stroke-miterlimit:10;}
	.st7{fill:none;stroke:#1078FF;stroke-miterlimit:10;}
	.st8{fill:none;}
</style>
<g id="Duotone">
	<polygon class="st0" points="23.5,4.5 19.5,4.5 19.5,0.5 15.5,4.5 15.5,6.6 10.5,3.5 1.5,9 1.5,18.5 10.5,23.5 19.5,18.5 19.5,9 
		18.7,8.5 19.5,8.5 	"/>
	<polygon class="st1" points="10.5,17 14,15 15.5,16 10.5,19 5.5,16 7,15 	"/>
	<polygon class="st1" points="10.5,21 17.5,17 19.5,18.5 10.5,23.5 1.5,18.5 3.5,17 	"/>
	<polygon class="st1" points="15.5,8.5 19.5,8.5 23.5,4.5 19.5,4.5 	"/>
	<g>
		<line class="st3" x1="10.5" y1="13.5" x2="15.5" y2="8.5"/>
		<polyline class="st3" points="19.5,12.5 19.5,18.5 10.5,23.5 1.5,18.5 1.5,9 10.5,3.5 13,5 		"/>
		<polygon class="st4" points="15.5,16 10.5,19 5.5,16 5.5,11 10.5,8 15.5,11 		"/>
		<line class="st3" x1="3.7" y1="19.7" x2="0.5" y2="23.5"/>
		<line class="st3" x1="17.3" y1="19.7" x2="20.5" y2="23.5"/>
		<polygon class="st3" points="15.5,4.5 15.5,8.5 19.5,8.5 23.5,4.5 19.5,4.5 19.5,0.5 		"/>
	</g>
</g>
<g id="Frames-24px">
	<rect class="st8" width="24" height="24"/>
</g>
</svg>
