<svg xmlns="http://www.w3.org/2000/svg" width="24" height="24" viewBox="0 0 24 24">
  <title>day-snow-hail</title>
  <g id="Duotone">
    <polygon points="15.5 15.501 20 15.501 22.5 13.001 21 9.501 18.5 9.501 16 4.501 12 4.501 9.5 7.501 6 7.501 2.5 12.001 6 15.501 15.5 15.501" fill="#fff"/>
    <polygon points="7.5 6.001 7.5 5.155 5.5 4.001 3.5 5.155 3.5 7.346 4.012 7.641 5.5 6.001 7.5 6.001" fill="#cce7ff"/>
    <polygon points="6 15.501 2.5 12.001 5.5 12.001 7 13.501 18.75 13.501 20 12.501 21 9.501 22.5 13.001 20 15.501 6 15.501" fill="#cce7ff"/>
    <line x1="5.5" y1="1.501" x2="5.5" y2="0.501" fill="none" stroke="#1078ff" stroke-linecap="round" stroke-linejoin="round"/>
    <line x1="0.5" y1="6.501" x2="1.5" y2="6.501" fill="none" stroke="#1078ff" stroke-linecap="round" stroke-linejoin="round"/>
    <line x1="9.5" y1="2.501" x2="8.682" y2="3.319" fill="none" stroke="#1078ff" stroke-linecap="round" stroke-linejoin="round"/>
    <line x1="1.5" y1="2.501" x2="2.318" y2="3.319" fill="none" stroke="#1078ff" stroke-linecap="round" stroke-linejoin="round"/>
    <polyline points="3.5 7.346 3.5 5.155 5.5 4.001 7.5 5.155 7.5 6.001" fill="none" stroke="#1078ff" stroke-linecap="round" stroke-linejoin="round"/>
    <line x1="3.5" y1="20.501" x2="4.5" y2="19.501" fill="none" stroke="#1078ff" stroke-linecap="round" stroke-linejoin="round"/>
    <line x1="7.5" y1="20.501" x2="8.5" y2="19.501" fill="none" stroke="#1078ff" stroke-linecap="round" stroke-linejoin="round"/>
    <line x1="11.5" y1="20.501" x2="12.5" y2="19.501" fill="none" stroke="#1078ff" stroke-linecap="round" stroke-linejoin="round"/>
    <line x1="15.5" y1="20.501" x2="16.5" y2="19.501" fill="none" stroke="#1078ff" stroke-linecap="round" stroke-linejoin="round"/>
    <path d="M18,17a.2.2,0,0,0-.141.059l-.8.8a.2.2,0,0,0,0,.283l.8.8a.2.2,0,0,0,.283,0l.8-.8a.2.2,0,0,0,0-.283l-.8-.8A.2.2,0,0,0,18,17Z" fill="#1078ff"/>
    <path d="M6,17a.2.2,0,0,0-.141.059l-.8.8a.2.2,0,0,0,0,.283l.8.8a.2.2,0,0,0,.283,0l.8-.8a.2.2,0,0,0,0-.283l-.8-.8A.2.2,0,0,0,6,17Z" fill="#1078ff"/>
    <path d="M10,17a.2.2,0,0,0-.141.059l-.8.8a.2.2,0,0,0,0,.283l.8.8a.2.2,0,0,0,.283,0l.8-.8a.2.2,0,0,0,0-.283l-.8-.8A.2.2,0,0,0,10,17Z" fill="#1078ff"/>
    <path d="M14,17a.2.2,0,0,0-.141.059l-.8.8a.2.2,0,0,0,0,.283l.8.8a.2.2,0,0,0,.283,0l.8-.8a.2.2,0,0,0,0-.283l-.8-.8A.2.2,0,0,0,14,17Z" fill="#1078ff"/>
    <path d="M14,21a.2.2,0,0,0-.141.059l-.8.8a.2.2,0,0,0,0,.283l.8.8a.2.2,0,0,0,.283,0l.8-.8a.2.2,0,0,0,0-.283l-.8-.8A.2.2,0,0,0,14,21Z" fill="#1078ff"/>
    <path d="M2,21a.2.2,0,0,0-.141.059l-.8.8a.2.2,0,0,0,0,.283l.8.8a.2.2,0,0,0,.283,0l.8-.8a.2.2,0,0,0,0-.283l-.8-.8A.2.2,0,0,0,2,21Z" fill="#1078ff"/>
    <path d="M6,21a.2.2,0,0,0-.141.059l-.8.8a.2.2,0,0,0,0,.283l.8.8a.2.2,0,0,0,.283,0l.8-.8a.2.2,0,0,0,0-.283l-.8-.8A.2.2,0,0,0,6,21Z" fill="#1078ff"/>
    <path d="M10,21a.2.2,0,0,0-.141.059l-.8.8a.2.2,0,0,0,0,.283l.8.8a.2.2,0,0,0,.283,0l.8-.8a.2.2,0,0,0,0-.283l-.8-.8A.2.2,0,0,0,10,21Z" fill="#1078ff"/>
    <polygon points="21 9.501 18.5 9.501 16 4.501 12 4.501 9.5 7.501 6 7.501 2.5 12.001 6 15.501 20 15.501 22.5 13.001 21 9.501" fill="none" stroke="#1078ff" stroke-linejoin="round"/>
    <line x1="15.5" y1="9.501" x2="18.5" y2="9.501" fill="none" stroke="#1078ff" stroke-linecap="round" stroke-linejoin="round"/>
  </g>
  <g id="Frames-24px">
    <rect width="24" height="24" fill="none"/>
  </g>
</svg>
