<svg xmlns="http://www.w3.org/2000/svg" width="24" height="24" viewBox="0 0 24 24">
  <title>laptop-wifi-2</title>
  <g id="Duotone">
    <polygon points="20.5 21.5 20.5 10.5 2.5 10.5 2.5 21.5 0.5 21.5 3 23.5 20.5 23.5 22.5 21.5 20.5 21.5" fill="#fff"/>
    <polygon points="20.5 10.5 2.5 21.5 20.5 21.5 20.5 10.5" fill="#cce7ff"/>
    <polyline points="20.5 21.5 20.5 10.5 2.5 10.5 2.5 21.5" fill="none" stroke="#1078ff" stroke-linecap="round" stroke-linejoin="round"/>
    <polygon points="0.5 21.5 22.5 21.5 20.5 23.5 3 23.5 0.5 21.5" fill="none" stroke="#1078ff" stroke-linecap="round" stroke-linejoin="round"/>
    <g>
      <polyline points="5 5.5 8.808 1.5 14.192 1.5 18 5.5" fill="none" stroke="#1078ff" stroke-linecap="round" stroke-linejoin="round"/>
      <polyline points="16.103 6.23 13.364 3.5 9.636 3.5 6.897 6.23" fill="none" stroke="#1078ff" stroke-linecap="round" stroke-linejoin="round"/>
      <polyline points="14.047 7.047 12.5 5.5 10.5 5.5 8.953 7.047" fill="none" stroke="#1078ff" stroke-linecap="round" stroke-linejoin="round"/>
      <path d="M12.066,7.766h0M11.5,7a.2.2,0,0,0-.141.059l-.8.8a.2.2,0,0,0,0,.283l.8.8a.2.2,0,0,0,.283,0l.8-.8a.2.2,0,0,0,0-.283l-.8-.8A.2.2,0,0,0,11.5,7Z" fill="#1078ff"/>
    </g>
  </g>
  <g id="Frames-24px">
    <rect width="24" height="24" fill="none"/>
  </g>
</svg>
