<svg xmlns="http://www.w3.org/2000/svg" width="24" height="24" viewBox="0 0 24 24">
  <title>macro-mode</title>
  <g id="Duotone">
    <polygon points="11.5 14.5 18.5 11.5 18.5 1.5 14.5 6.5 11.5 1.5 8.5 6.5 4.5 1.5 4.5 11.5 11.5 14.5" fill="#fff"/>
    <polygon points="19 23.5 13 23.5 16.5 18.5 22.5 18.5 19 23.5" fill="#fff"/>
    <polygon points="4 23.5 10 23.5 6.5 18.5 0.5 18.5 4 23.5" fill="#fff"/>
    <polygon points="22.5 18.5 13 23.5 19 23.5 22.5 18.5" fill="#cce7ff"/>
    <polygon points="0.5 18.5 10 23.5 4 23.5 0.5 18.5" fill="#cce7ff"/>
    <polygon points="17 10 11.488 12.02 6.5 10 4.5 11.5 11.488 14.52 18.5 11.5 17 10" fill="#cce7ff"/>
    <polygon points="11.5 14.5 18.5 11.5 18.5 1.5 14.5 6.5 11.5 1.5 8.5 6.5 4.5 1.5 4.5 11.5 11.5 14.5" fill="none" stroke="#1078ff" stroke-linejoin="round"/>
    <line x1="11.5" y1="14.5" x2="11.5" y2="23.5" fill="none" stroke="#1078ff" stroke-linecap="round" stroke-linejoin="round"/>
    <polygon points="19 23.5 13 23.5 16.5 18.5 22.5 18.5 19 23.5" fill="none" stroke="#1078ff" stroke-linecap="round" stroke-linejoin="round"/>
    <polygon points="4 23.5 10 23.5 6.5 18.5 0.5 18.5 4 23.5" fill="none" stroke="#1078ff" stroke-linecap="round" stroke-linejoin="round"/>
    <line x1="10" y1="23.5" x2="13" y2="23.5" fill="none" stroke="#1078ff" stroke-linecap="round" stroke-linejoin="round"/>
  </g>
  <g id="Frames-24px">
    <rect width="24" height="24" fill="none"/>
  </g>
</svg>
