<?xml version="1.0" encoding="utf-8"?>
<!-- Generator: Adobe Illustrator 21.0.2, SVG Export Plug-In . SVG Version: 6.00 Build 0)  -->
<svg version="1.1" xmlns="http://www.w3.org/2000/svg" xmlns:xlink="http://www.w3.org/1999/xlink" x="0px" y="0px"
	 viewBox="0 0 24 24" style="enable-background:new 0 0 24 24;" xml:space="preserve">
<style type="text/css">
	.st0{fill:#FFFFFF;}
	.st1{fill:#CCE7FF;}
	.st2{fill:none;stroke:#1078FF;stroke-linecap:round;stroke-linejoin:round;stroke-miterlimit:10;}
	.st3{fill:none;stroke:#1078FF;stroke-linejoin:round;stroke-miterlimit:10;}
	.st4{fill:#CCE7FF;stroke:#1078FF;stroke-linecap:round;stroke-linejoin:round;stroke-miterlimit:10;}
	.st5{fill:none;stroke:#1078FF;stroke-linecap:round;stroke-miterlimit:10;}
	.st6{fill:none;}
</style>
<g id="Duotone">
	<polygon class="st0" points="2.5,8 5.5,6 8.5,8 8.5,15 5.5,17 2.5,15 	"/>
	<polygon class="st0" points="19.5,10.5 15.5,9.5 10.5,11 10.5,13 10.5,13 10.5,21 15.5,23.5 20.5,21 20.5,14.5 21.5,14.5 	"/>
	<polyline class="st0" points="20.5,16.5 22.5,16.5 22.5,19 20.5,20 	"/>
	<polygon class="st1" points="15.5,11.5 10.5,13 10.5,13 15.5,14.5 19.5,14.5 18,12 	"/>
	<polygon class="st1" points="5.5,9.5 5.5,17 8.5,15 8.5,9.5 	"/>
	<polyline class="st1" points="16.5,5.5 14.5,5.5 14.5,8 16.5,7 	"/>
	<polygon class="st2" points="2.5,8 5.5,6 8.5,8 8.5,15 5.5,17 2.5,15 	"/>
	<line class="st2" x1="8.5" y1="11.5" x2="6.5" y2="11.5"/>
	<line class="st2" x1="8.5" y1="13.5" x2="6.5" y2="13.5"/>
	<line class="st2" x1="2.5" y1="13.5" x2="4.5" y2="13.5"/>
	<line class="st2" x1="2.5" y1="11.5" x2="4.5" y2="11.5"/>
	<line class="st2" x1="8.5" y1="9.5" x2="2.5" y2="9.5"/>
	<line class="st2" x1="5.5" y1="1.5" x2="5.5" y2="3.5"/>
	<polyline class="st3" points="10.5,13 10.5,21 15.5,23.5 20.5,21 20.5,14.5 	"/>
	<polygon class="st2" points="21.5,14.5 15.5,14.5 10.5,13 10.5,11 15.5,9.5 19.5,10.5 	"/>
	<polyline class="st2" points="20.5,16.5 22.5,16.5 22.5,19 20.5,20 	"/>
	<polyline class="st2" points="8.5,18.5 8.5,19 10.5,20 	"/>
	<line class="st2" x1="13.5" y1="17" x2="13.5" y2="17.5"/>
	<line class="st2" x1="17.5" y1="17" x2="17.5" y2="17.5"/>
	<polygon class="st2" points="17.5,20.5 15.5,21.5 13.5,20.5 13.5,19.5 17.5,19.5 	"/>
	<polyline class="st2" points="0.5,8.5 0.5,6.5 5.5,3.5 	"/>
	<polyline class="st2" points="10.5,8.5 10.5,6.5 5.5,3.5 	"/>
	<polyline class="st2" points="16.5,5.5 14.5,5.5 14.5,8 16.5,7 	"/>
	<line class="st2" x1="16.5" y1="1.9" x2="18" y2="1.5"/>
	<line class="st2" x1="16.5" y1="7" x2="16.5" y2="2"/>
</g>
<g id="Frames-24px">
	<rect class="st6" width="24" height="24"/>
</g>
</svg>
