<?xml version="1.0" encoding="utf-8"?>
<!-- Generator: Adobe Illustrator 21.0.2, SVG Export Plug-In . SVG Version: 6.00 Build 0)  -->
<svg version="1.1" xmlns="http://www.w3.org/2000/svg" xmlns:xlink="http://www.w3.org/1999/xlink" x="0px" y="0px"
	 viewBox="0 0 24 24" style="enable-background:new 0 0 24 24;" xml:space="preserve">
<style type="text/css">
	.st0{fill:#FFFFFF;}
	.st1{fill:#CCE7FF;}
	.st2{fill:none;stroke:#1078FF;stroke-linecap:round;stroke-linejoin:round;stroke-miterlimit:10;}
	.st3{fill:none;}
</style>
<g id="Duotone">
	<polygon class="st0" points="18,16 21.5,16.5 23.5,18.5 23.5,21.5 21.5,19.5 19.5,19.5 19.5,21.5 21.5,23.5 18.5,23.5 16.5,22 
		16,18 6,8 2,7.5 0.5,5.5 0.5,2.5 2.5,4.5 4.5,4.5 4.5,2.5 2.5,0.5 5.5,0.5 7.5,2.5 8,6 	"/>
	<polygon class="st0" points="6.5,12.5 6,15.5 4,16 0.5,19.5 0.5,23.5 4.5,23.5 8,20 8.5,18 11.5,17.5 	"/>
	<polygon class="st0" points="18,6 22,5 23.5,2 22,0.5 19,2 	"/>
	<polygon class="st1" points="19.5,19.5 19.5,21.5 21.5,23.5 18.5,23.5 16.5,22 16,18 6,8 2,7.5 0.5,5.5 0.5,2.5 2.5,4.5 4.5,4.5 	
		"/>
	<polygon class="st1" points="0.5,23.5 4.5,23.5 8,20 8.5,18 11.5,17.5 9,15 	"/>
	<polygon class="st1" points="18,6 22,5 23.5,2 22.8,1.3 	"/>
	<g>
		<polygon class="st2" points="6.5,12.5 6,15.5 4,16 0.5,19.5 0.5,23.5 4.5,23.5 8,20 8.5,18 11.5,17.5 		"/>
		<line class="st2" x1="9" y1="15" x2="18" y2="6"/>
		<polygon class="st2" points="18,6 22,5 23.5,2 22,0.5 19,2 		"/>
		<polyline class="st2" points="11.5,9.5 8,6 7.5,2.5 5.5,0.5 2.5,0.5 4.5,2.5 4.5,4.5 2.5,4.5 0.5,2.5 0.5,5.5 2,7.5 6,8 9.5,11.5 
					"/>
		<polyline class="st2" points="14.5,12.5 18,16 21.5,16.5 23.5,18.5 23.5,21.5 21.5,19.5 19.5,19.5 19.5,21.5 21.5,23.5 18.5,23.5 
			16.5,22 16,18 12.5,14.5 		"/>
		<line class="st2" x1="6" y1="15.5" x2="8.5" y2="18"/>
	</g>
</g>
<g id="Frames-24px">
	<rect class="st3" width="24" height="24"/>
</g>
</svg>
