<svg xmlns="http://www.w3.org/2000/svg" width="24" height="24" viewBox="0 0 24 24">
  <title>business-suitcase-1</title>
  <g id="Duotone">
    <polygon points="23.5 6.5 0.5 6.5 0.5 12.5 1.5 12.5 1.5 21.5 22.5 21.5 22.5 12.5 23.5 12.5 23.5 6.5" fill="#fff"/>
    <polygon points="0.5 8.5 0.5 12.5 1.5 12.5 1.5 14.5 4.5 14.5 4.5 12.5 8.5 12.5 8.5 14.5 15.5 14.5 15.5 12.5 19.5 12.5 19.5 14.5 22.5 14.5 22.5 12.5 23.5 12.5 23.5 8.5 0.5 8.5" fill="#cce7ff"/>
    <g>
      <rect x="0.5" y="6.5" width="23" height="6" fill="none" stroke="#1078ff" stroke-linecap="round" stroke-linejoin="round"/>
      <rect x="1.5" y="12.5" width="21" height="9" fill="none" stroke="#1078ff" stroke-linecap="round" stroke-linejoin="round"/>
      <polyline points="17.5 6.5 14.5 3.5 9.5 3.5 6.5 6.5" fill="none" stroke="#1078ff" stroke-linecap="round" stroke-linejoin="round"/>
      <line x1="6.5" y1="21.5" x2="6.5" y2="16" fill="none" stroke="#1078ff" stroke-linecap="round" stroke-linejoin="round"/>
      <line x1="17.5" y1="21.5" x2="17.5" y2="16" fill="none" stroke="#1078ff" stroke-linecap="round" stroke-linejoin="round"/>
      <polyline points="4.5 12.5 4.5 15 6.5 16 8.5 15 8.5 12.5" fill="none" stroke="#1078ff" stroke-linecap="round" stroke-linejoin="round"/>
      <polyline points="15.5 12.5 15.5 15 17.5 16 19.5 15 19.5 12.5" fill="none" stroke="#1078ff" stroke-linecap="round" stroke-linejoin="round"/>
    </g>
  </g>
  <g id="Frames-24px">
    <rect width="24" height="24" fill="none"/>
  </g>
</svg>
