<svg xmlns="http://www.w3.org/2000/svg" width="24" height="24" viewBox="0 0 24 24">
  <title>cog-window</title>
  <g id="Duotone">
    <rect x="0.5" y="2.5" width="22" height="20" fill="#fff"/>
    <g>
      <polygon points="15.859 11.33 16.5 12.417 15.5 13.513 15.5 15.487 16.5 16.583 15.738 17.875 14.26 17.522 12.582 18.421 12.25 19.5 10.75 19.5 10.418 18.421 8.74 17.522 7.262 17.875 7.141 17.67 0.5 22.5 22.5 22.5 22.5 6.5 15.859 11.33" fill="#cce7ff"/>
      <polygon points="11.5 16.75 13.5 15.618 13.5 13.382 13.24 13.235 9.76 15.765 11.5 16.75" fill="#cce7ff"/>
    </g>
    <rect x="0.5" y="2.5" width="22" height="20" fill="none" stroke="#1078ff" stroke-linecap="round" stroke-linejoin="round"/>
    <line x1="0.5" y1="6.5" x2="22.5" y2="6.5" fill="none" stroke="#1078ff" stroke-linecap="round" stroke-linejoin="round"/>
    <line x1="2.5" y1="4.5" x2="3.5" y2="4.5" fill="none" stroke="#1078ff" stroke-linecap="round" stroke-linejoin="round"/>
    <line x1="5.5" y1="4.5" x2="6.5" y2="4.5" fill="none" stroke="#1078ff" stroke-linecap="round" stroke-linejoin="round"/>
    <line x1="8.5" y1="4.5" x2="9.5" y2="4.5" fill="none" stroke="#1078ff" stroke-linecap="round" stroke-linejoin="round"/>
    <g>
      <polygon points="15.5 13.513 16.5 12.417 15.738 11.125 14.26 11.478 12.582 10.579 12.25 9.5 10.75 9.5 10.418 10.579 8.74 11.478 7.262 11.125 6.5 12.417 7.5 13.513 7.5 15.487 6.5 16.583 7.262 17.875 8.74 17.522 10.418 18.421 10.75 19.5 12.25 19.5 12.582 18.421 14.26 17.522 15.738 17.875 16.5 16.583 15.5 15.487 15.5 13.513" fill="none" stroke="#1078ff" stroke-linecap="round" stroke-linejoin="round"/>
      <polygon points="9.5 13.382 11.5 12.25 13.5 13.382 13.5 15.618 11.5 16.75 9.5 15.618 9.5 13.382" fill="none" stroke="#1078ff" stroke-linecap="round" stroke-linejoin="round"/>
    </g>
  </g>
  <g id="Frames-24px">
    <rect width="24" height="24" fill="none"/>
  </g>
</svg>
