<?xml version="1.0" encoding="utf-8"?>
<!-- Generator: Adobe Illustrator 21.0.2, SVG Export Plug-In . SVG Version: 6.00 Build 0)  -->
<svg version="1.1" xmlns="http://www.w3.org/2000/svg" xmlns:xlink="http://www.w3.org/1999/xlink" x="0px" y="0px"
	 viewBox="0 0 24 24" style="enable-background:new 0 0 24 24;" xml:space="preserve">
<style type="text/css">
	.st0{fill:#FFFFFF;}
	.st1{fill:#CCE7FF;}
	.st2{fill:none;stroke:#1078FF;stroke-linecap:round;stroke-linejoin:round;stroke-miterlimit:10;}
	.st3{fill:#FFFFFF;stroke:#1078FF;stroke-linecap:round;stroke-linejoin:round;stroke-miterlimit:10;}
	.st4{fill:none;stroke:#1078FF;stroke-linejoin:round;stroke-miterlimit:10;}
	.st5{fill:none;stroke:#1078FF;stroke-linecap:round;stroke-miterlimit:10;}
	.st6{fill:none;}
</style>
<g id="Duotone">
	<polygon class="st0" points="19.5,4.5 18,1.5 5,1.5 3.5,4.5 5.5,13 9.5,16.5 6,23.5 17,23.5 13.5,16.5 17.5,13 	"/>
	<polygon class="st1" points="14.5,18.5 13.5,16.5 9.5,16.5 8.5,18.5 	"/>
	<polygon class="st1" points="18.9,7 19.5,4.5 3.5,4.5 4.1,7 	"/>
	<polygon class="st4" points="5,1.5 3.5,4.5 19.5,4.5 18,1.5 	"/>
	<polyline class="st4" points="19.5,4.5 17.5,13 13.5,16.5 9.5,16.5 5.5,13 3.5,4.5 	"/>
	<polyline class="st4" points="5.5,13 8.5,4.5 11.5,13 14.5,4.5 17.5,13 	"/>
	<polyline class="st4" points="13.5,16.5 17,23.5 6,23.5 9.5,16.5 	"/>
	<polyline class="st4" points="15.2,19.8 13.5,21.5 11.5,19.5 9.5,21.5 7.8,19.8 	"/>
</g>
<g id="Frames-24px">
	<rect class="st6" width="24" height="24"/>
</g>
</svg>
