<svg xmlns="http://www.w3.org/2000/svg" width="24" height="24" viewBox="0 0 24 24">
  <title>hierarchy-business-2</title>
  <g id="Duotone">
    <polygon points="5.5 17.5 3.5 18.5 1.5 17.5 1.5 15 3.5 14 5.5 15 5.5 17.5" fill="#fff"/>
    <polygon points="6.5 23.5 6.5 20.5 3.5 19.5 0.5 20.5 0.5 23.5 6.5 23.5" fill="#fff"/>
    <polygon points="21.5 17.5 19.5 18.5 17.5 17.5 17.5 15 19.5 14 21.5 15 21.5 17.5" fill="#fff"/>
    <polygon points="22.5 23.5 22.5 20.5 19.5 19.5 16.5 20.5 16.5 23.5 22.5 23.5" fill="#fff"/>
    <polygon points="13.5 4.5 11.5 5.5 9.5 4.5 9.5 2 11.5 1 13.5 2 13.5 4.5" fill="#fff"/>
    <polygon points="14.5 10.5 14.5 7.5 11.5 6.5 8.5 7.5 8.5 10.5 14.5 10.5" fill="#fff"/>
    <g>
      <polygon points="21.5 17.5 21.5 15 19.5 14 19.5 18.5 21.5 17.5" fill="#cce7ff"/>
      <polygon points="19.5 23.5 22.5 23.5 22.5 20.5 19.5 19.5 19.5 23.5" fill="#cce7ff"/>
    </g>
    <g>
      <polygon points="5.5 17.5 5.5 15 3.5 14 3.5 18.5 5.5 17.5" fill="#cce7ff"/>
      <polygon points="3.5 23.5 6.5 23.5 6.5 20.5 3.5 19.5 3.5 23.5" fill="#cce7ff"/>
    </g>
    <g>
      <polygon points="13.5 4.5 13.5 2 11.5 1 11.5 5.5 13.5 4.5" fill="#cce7ff"/>
      <polygon points="11.5 10.5 14.5 10.5 14.5 7.5 11.5 6.5 11.5 10.5" fill="#cce7ff"/>
    </g>
    <polygon points="5.5 17.5 3.5 18.5 1.5 17.5 1.5 15 3.5 14 5.5 15 5.5 17.5" fill="none" stroke="#1078ff" stroke-linecap="round" stroke-linejoin="round"/>
    <polygon points="6.5 23.5 6.5 20.5 3.5 19.5 0.5 20.5 0.5 23.5 6.5 23.5" fill="none" stroke="#1078ff" stroke-linecap="round" stroke-linejoin="round"/>
    <line x1="11.5" y1="12.5" x2="11.5" y2="15.5" fill="none" stroke="#1078ff" stroke-linecap="round" stroke-linejoin="round"/>
    <polyline points="9 17.5 11.5 15.5 14 17.5" fill="none" stroke="#1078ff" stroke-linecap="round" stroke-linejoin="round"/>
    <polygon points="21.5 17.5 19.5 18.5 17.5 17.5 17.5 15 19.5 14 21.5 15 21.5 17.5" fill="none" stroke="#1078ff" stroke-linecap="round" stroke-linejoin="round"/>
    <polygon points="22.5 23.5 22.5 20.5 19.5 19.5 16.5 20.5 16.5 23.5 22.5 23.5" fill="none" stroke="#1078ff" stroke-linecap="round" stroke-linejoin="round"/>
    <polygon points="13.5 4.5 11.5 5.5 9.5 4.5 9.5 2 11.5 1 13.5 2 13.5 4.5" fill="none" stroke="#1078ff" stroke-linecap="round" stroke-linejoin="round"/>
    <polygon points="14.5 10.5 14.5 7.5 11.5 6.5 8.5 7.5 8.5 10.5 14.5 10.5" fill="none" stroke="#1078ff" stroke-linecap="round" stroke-linejoin="round"/>
  </g>
  <g id="Frames-24px">
    <rect width="24" height="24" fill="none"/>
  </g>
</svg>
