<?xml version="1.0" encoding="utf-8"?>
<!-- Generator: Adobe Illustrator 21.0.2, SVG Export Plug-In . SVG Version: 6.00 Build 0)  -->
<svg version="1.1" xmlns="http://www.w3.org/2000/svg" xmlns:xlink="http://www.w3.org/1999/xlink" x="0px" y="0px"
	 viewBox="0 0 24 24" style="enable-background:new 0 0 24 24;" xml:space="preserve">
<style type="text/css">
	.st0{fill:none;stroke:#58595B;stroke-linecap:round;stroke-linejoin:round;stroke-miterlimit:10;}
	.st1{fill:#FFFFFF;}
	.st2{fill:#CCE7FF;}
	.st3{fill:none;stroke:#1078FF;stroke-linecap:round;stroke-linejoin:round;stroke-miterlimit:10;}
	.st4{fill:none;}
</style>
<g id="Black">
	<g>
		<polygon class="st0" points="18.5,9.5 5.5,9.5 7.5,23.5 16.5,23.5 		"/>
		<polygon class="st0" points="18.5,6.5 5.5,6.5 4.5,9.5 19.5,9.5 		"/>
		<line class="st0" x1="6.7" y1="18.1" x2="18.2" y2="11.9"/>
		<line class="st0" x1="7.3" y1="21.9" x2="17.5" y2="16.3"/>
		<polyline class="st0" points="8.5,4.5 9.5,3.5 7.5,1.5 8.5,0.5 		"/>
		<polyline class="st0" points="12,4.5 13,3.5 11,1.5 12,0.5 		"/>
		<polyline class="st0" points="15.5,4.5 16.5,3.5 14.5,1.5 15.5,0.5 		"/>
	</g>
</g>
<g id="Duotone">
	<polygon class="st1" points="18.5,9.5 5.5,9.5 7.5,23.5 16.5,23.5 	"/>
	<polygon class="st1" points="18.5,6.5 5.5,6.5 4.5,9.5 19.5,9.5 	"/>
	<polygon class="st2" points="5,8 4.5,9.5 19.5,9.5 19,8 	"/>
	<polygon class="st2" points="18.2,11.9 18.5,9.5 12,9.5 12,15.3 	"/>
	<polygon class="st2" points="17.5,16.3 12,19.3 12,23.5 16.5,23.5 	"/>
	<g>
		<polygon class="st3" points="18.5,9.5 5.5,9.5 7.5,23.5 16.5,23.5 		"/>
		<polygon class="st3" points="18.5,6.5 5.5,6.5 4.5,9.5 19.5,9.5 		"/>
		<line class="st3" x1="6.7" y1="18.1" x2="18.2" y2="11.9"/>
		<line class="st3" x1="7.3" y1="21.9" x2="17.5" y2="16.3"/>
		<polyline class="st3" points="8.5,4.5 9.5,3.5 7.5,1.5 8.5,0.5 		"/>
		<polyline class="st3" points="12,4.5 13,3.5 11,1.5 12,0.5 		"/>
		<polyline class="st3" points="15.5,4.5 16.5,3.5 14.5,1.5 15.5,0.5 		"/>
	</g>
</g>
<g id="Frames-24px">
	<rect class="st4" width="24" height="24"/>
</g>
</svg>
