<?xml version="1.0" encoding="utf-8"?>
<!-- Generator: Adobe Illustrator 21.0.2, SVG Export Plug-In . SVG Version: 6.00 Build 0)  -->
<svg version="1.1" xmlns="http://www.w3.org/2000/svg" xmlns:xlink="http://www.w3.org/1999/xlink" x="0px" y="0px"
	 viewBox="0 0 24 24" style="enable-background:new 0 0 24 24;" xml:space="preserve">
<style type="text/css">
	.st0{fill:#FFFFFF;}
	.st1{fill:#CCE7FF;}
	.st2{fill:none;stroke:#1078FF;stroke-linecap:round;stroke-linejoin:round;stroke-miterlimit:10;}
	.st3{fill:none;stroke:#1078FF;stroke-linejoin:round;stroke-miterlimit:10;}
	.st4{fill:none;stroke:#1078FF;stroke-linecap:round;stroke-miterlimit:10;}
	.st5{fill:none;}
</style>
<g id="Duotone">
	<polygon class="st0" points="19.5,13.5 23.5,7 23.5,3 19.5,0.5 15.5,3 15.5,7 	"/>
	<rect x="0.5" y="4.5" class="st0" width="21" height="16"/>
	<polygon class="st1" points="19.5,0.5 19.5,3 21.5,4.3 21.5,6.3 19.5,7.5 19.5,13.5 23.5,7 23.5,3 	"/>
	<line class="st2" x1="6.5" y1="23.5" x2="16.5" y2="23.5"/>
	<line class="st2" x1="0.5" y1="16.5" x2="12.8" y2="4.5"/>
	<line class="st2" x1="8.6" y1="8.5" x2="16.8" y2="16.5"/>
	<polyline class="st2" points="21.5,14.5 21.5,20.5 0.5,20.5 0.5,4.5 13.5,4.5 	"/>
	<line class="st2" x1="0.5" y1="16.5" x2="21.5" y2="16.5"/>
	<line class="st2" x1="11.5" y1="20.5" x2="11.5" y2="23.5"/>
	<line class="st2" x1="12.5" y1="18.5" x2="10.5" y2="18.5"/>
	<polygon class="st2" points="19.5,13.5 23.5,7 23.5,3 19.5,0.5 15.5,3 15.5,7 	"/>
	<polygon class="st2" points="21.5,6.3 19.5,7.5 17.5,6.3 17.5,4.3 19.5,3 21.5,4.3 	"/>
</g>
<g id="Frames-24px">
	<rect class="st5" width="24" height="24"/>
</g>
</svg>
