<?xml version="1.0" encoding="utf-8"?>
<!-- Generator: Adobe Illustrator 21.0.2, SVG Export Plug-In . SVG Version: 6.00 Build 0)  -->
<svg version="1.1" xmlns="http://www.w3.org/2000/svg" xmlns:xlink="http://www.w3.org/1999/xlink" x="0px" y="0px"
	 viewBox="0 0 24 24" style="enable-background:new 0 0 24 24;" xml:space="preserve">
<style type="text/css">
	.st0{fill:#FFFFFF;}
	.st1{fill:#CCE7FF;}
	.st2{fill:none;stroke:#1078FF;stroke-linecap:round;stroke-linejoin:round;stroke-miterlimit:10;}
	.st3{fill:#CCE7FF;stroke:#1078FF;stroke-linecap:round;stroke-linejoin:round;stroke-miterlimit:10;}
	.st4{fill:none;stroke:#1078FF;stroke-linejoin:round;stroke-miterlimit:10;}
	.st5{fill:none;stroke:#1078FF;stroke-linecap:round;stroke-miterlimit:10;}
	.st6{fill:#FFFFFF;stroke:#1078FF;stroke-linecap:round;stroke-linejoin:round;stroke-miterlimit:10;}
	.st7{fill:none;}
</style>
<g id="Duotone">
	<polygon class="st0" points="21.3,16.5 21.3,16.5 22,14.7 5.2,5.5 3.2,9.3 18.1,17.2 18.1,17.2 16.5,18.5 4,18.5 0.5,23.5 
		22.5,23.5 22.5,16.5 	"/>
	<g>
		<polygon class="st1" points="0.5,23.5 1.9,21.5 22.5,21.5 22.5,23.5 		"/>
		<polygon class="st1" points="4.1,7.6 3.2,9.3 18.1,17.2 21,16.6 		"/>
	</g>
	<line class="st2" x1="10.6" y1="11.1" x2="8.2" y2="9.8"/>
	<line class="st2" x1="8.4" y1="7.2" x2="4.9" y2="10.2"/>
	<line class="st2" x1="3.2" y1="9.3" x2="2.7" y2="10.1"/>
	<polygon class="st2" points="13,18.5 12,20.5 5.5,20.5 4,18.5 	"/>
	<polygon class="st2" points="22.5,23.5 0.5,23.5 4,18.5 16.5,18.5 19,16.5 22.5,16.5 	"/>
	<polyline class="st2" points="21.3,16.5 22,14.7 5.2,5.5 3.2,9.3 18.1,17.2 	"/>
</g>
<g id="Frames-24px">
	<rect class="st7" width="24" height="24"/>
</g>
</svg>
