<?xml version="1.0" encoding="utf-8"?>
<!-- Generator: Adobe Illustrator 21.0.2, SVG Export Plug-In . SVG Version: 6.00 Build 0)  -->
<svg version="1.1" xmlns="http://www.w3.org/2000/svg" xmlns:xlink="http://www.w3.org/1999/xlink" x="0px" y="0px"
	 viewBox="0 0 24 24" style="enable-background:new 0 0 24 24;" xml:space="preserve">
<style type="text/css">
	.st0{fill:#FFFFFF;}
	.st1{fill:#FFFFFF;stroke:#1078FF;stroke-linecap:round;stroke-linejoin:round;stroke-miterlimit:10;}
	.st2{fill:#CCE7FF;}
	.st3{fill:none;stroke:#1078FF;stroke-linecap:round;stroke-linejoin:round;stroke-miterlimit:10;}
	.st4{fill:none;}
</style>
<g id="Duotone">
	<polygon class="st0" points="23.5,14.5 18,20.5 16.5,17.5 21.5,12.5 	"/>
	<polygon class="st0" points="18,20.5 3.5,20.5 3.5,17.5 16.5,17.5 	"/>
	<polygon class="st0" points="8.5,6.8 6.5,8 4.5,6.8 4.5,4.8 6.5,3.5 8.5,4.8 	"/>
	<polygon class="st2" points="3.5,19 3.5,20.5 18,20.5 17.3,19 	"/>
	<polygon class="st2" points="22.5,13.5 17.2,18.8 17.2,18.8 18,20.5 23.5,14.5 	"/>
	<line class="st3" x1="6.5" y1="1.5" x2="6.5" y2="0.5"/>
	<line class="st3" x1="6.5" y1="10.5" x2="6.5" y2="11.5"/>
	<line class="st3" x1="3.3" y1="2.3" x2="2.6" y2="1.6"/>
	<line class="st3" x1="9.7" y1="8.7" x2="10.4" y2="9.4"/>
	<line class="st3" x1="9.7" y1="2.3" x2="10.4" y2="1.6"/>
	<line class="st3" x1="3.3" y1="8.7" x2="2.6" y2="9.4"/>
	<line class="st3" x1="2" y1="5.5" x2="1" y2="5.5"/>
	<line class="st3" x1="11" y1="5.5" x2="12" y2="5.5"/>
	<polygon class="st3" points="8.5,6.8 6.5,8 4.5,6.8 4.5,4.8 6.5,3.5 8.5,4.8 	"/>
	<line class="st3" x1="0.5" y1="20.5" x2="17.5" y2="20.5"/>
	<line class="st3" x1="3.5" y1="20.5" x2="1.5" y2="23.5"/>
	<polygon class="st3" points="18,20.5 3.5,20.5 3.5,17.5 16.5,17.5 	"/>
	<polygon class="st3" points="23.5,14.5 18,20.5 16.5,17.5 21.5,12.5 	"/>
	<line class="st3" x1="18" y1="20.5" x2="19.5" y2="23.5"/>
</g>
<g id="Frames-24px">
	<rect class="st4" width="24" height="24"/>
</g>
</svg>
