<svg xmlns="http://www.w3.org/2000/svg" width="24" height="24" viewBox="0 0 24 24">
  <title>back-pack</title>
  <g id="Duotone">
    <polygon points="5.5 23.5 3.5 23.5 2.5 22.5 2.5 17 5.5 14 5.5 23.5" fill="#fff"/>
    <polyline points="18.5 10.5 18.5 23.5 5.5 23.5 5.5 10.5" fill="#fff"/>
    <polygon points="18.5 23.5 20.5 23.5 21.5 22.5 21.5 17 18.5 14 18.5 23.5" fill="#fff"/>
    <polyline points="7.5 10.5 4.5 10.5 4.5 3.5 12 1.5 19.5 3.5 19.5 10.5 16.5 10.5" fill="#fff"/>
    <polygon points="9.5 12.5 8.5 13.5 7.5 12.5 7.5 7.5 9.5 7.5 9.5 12.5" fill="#cce7ff"/>
    <polygon points="16.5 12.5 15.5 13.5 14.5 12.5 14.5 7.5 16.5 7.5 16.5 12.5" fill="#cce7ff"/>
    <polygon points="4.5 9 0.5 9.5 0.5 4.5 4.5 5 4.5 9" fill="#cce7ff"/>
    <polygon points="23.5 9 19.5 8.5 19.5 5 23.5 4.5 23.5 9" fill="#cce7ff"/>
    <polygon points="4 15.5 4 23.5 5.5 23.5 5.5 14 4 15.5" fill="#cce7ff"/>
    <polygon points="20 15.5 18.5 14 18.5 23.5 20 23.5 20 15.5" fill="#cce7ff"/>
    <rect x="7.5" y="19.5" width="9" height="1.5" fill="#cce7ff"/>
    <rect x="5.5" y="10.5" width="13" height="2" fill="#cce7ff"/>
    <g>
      <polygon points="5.5 23.5 3.5 23.5 2.5 22.5 2.5 17 5.5 14 5.5 23.5" fill="none" stroke="#1078ff" stroke-linecap="round" stroke-linejoin="round"/>
      <rect x="7.5" y="16.5" width="9" height="7" fill="none" stroke="#1078ff" stroke-linecap="round" stroke-linejoin="round"/>
      <polyline points="18.5 10.5 18.5 23.5 5.5 23.5 5.5 10.5" fill="none" stroke="#1078ff" stroke-linecap="round" stroke-linejoin="round"/>
      <line x1="9.5" y1="10.5" x2="14.5" y2="10.5" fill="none" stroke="#1078ff" stroke-linecap="round" stroke-linejoin="round"/>
      <polygon points="9.5 12.5 8.5 13.5 7.5 12.5 7.5 7.5 9.5 7.5 9.5 12.5" fill="none" stroke="#1078ff" stroke-linecap="round" stroke-linejoin="round"/>
      <polygon points="16.5 12.5 15.5 13.5 14.5 12.5 14.5 7.5 16.5 7.5 16.5 12.5" fill="none" stroke="#1078ff" stroke-linecap="round" stroke-linejoin="round"/>
      <line x1="7.5" y1="19.5" x2="16.5" y2="19.5" fill="none" stroke="#1078ff" stroke-linecap="round" stroke-linejoin="round"/>
      <line x1="2.5" y1="18.5" x2="5.5" y2="18.5" fill="none" stroke="#1078ff" stroke-linecap="round" stroke-linejoin="round"/>
      <polygon points="18.5 23.5 20.5 23.5 21.5 22.5 21.5 17 18.5 14 18.5 23.5" fill="none" stroke="#1078ff" stroke-linecap="round" stroke-linejoin="round"/>
      <line x1="21.5" y1="18.5" x2="18.5" y2="18.5" fill="none" stroke="#1078ff" stroke-linecap="round" stroke-linejoin="round"/>
      <polyline points="7.5 10.5 4.5 10.5 4.5 3.5 12 1.5 19.5 3.5 19.5 10.5 16.5 10.5" fill="none" stroke="#1078ff" stroke-linecap="round" stroke-linejoin="round"/>
      <line x1="10.5" y1="19.5" x2="10.5" y2="21.5" fill="none" stroke="#1078ff" stroke-linecap="round" stroke-linejoin="round"/>
      <line x1="13.5" y1="19.5" x2="13.5" y2="21.5" fill="none" stroke="#1078ff" stroke-linecap="round" stroke-linejoin="round"/>
      <polygon points="4.5 9 0.5 9.5 0.5 4.5 4.5 5 4.5 9" fill="none" stroke="#1078ff" stroke-linecap="round" stroke-linejoin="round"/>
      <polygon points="23.5 9 19.5 8.5 19.5 5 23.5 4.5 23.5 9" fill="none" stroke="#1078ff" stroke-linecap="round" stroke-linejoin="round"/>
    </g>
  </g>
  <g id="Frames-24px">
    <rect width="24" height="24" fill="none"/>
  </g>
</svg>
