<?xml version="1.0" encoding="utf-8"?>
<!-- Generator: Adobe Illustrator 21.0.2, SVG Export Plug-In . SVG Version: 6.00 Build 0)  -->
<svg version="1.1" xmlns="http://www.w3.org/2000/svg" xmlns:xlink="http://www.w3.org/1999/xlink" x="0px" y="0px"
	 viewBox="0 0 24 24" style="enable-background:new 0 0 24 24;" xml:space="preserve">
<style type="text/css">
	.st0{fill:#FFFFFF;}
	.st1{fill:#CCE7FF;}
	.st2{fill:none;stroke:#1078FF;stroke-linecap:round;stroke-linejoin:round;stroke-miterlimit:10;}
	.st3{fill:none;stroke:#1078FF;stroke-linejoin:round;stroke-miterlimit:10;}
	.st4{fill:#CCE7FF;stroke:#1078FF;stroke-linejoin:round;stroke-miterlimit:10;}
	.st5{fill:#CCE7FF;stroke:#1078FF;stroke-linecap:round;stroke-linejoin:round;stroke-miterlimit:10;}
	.st6{fill:none;stroke:#1078FF;stroke-miterlimit:10;}
	.st7{fill:none;}
</style>
<g id="Duotone">
	<polygon class="st0" points="21,20.5 0.5,20.5 0.5,5.5 21,5.5 22.5,7 22.5,19 	"/>
	<rect x="3.5" y="5.5" class="st1" width="3" height="15"/>
	<polygon class="st1" points="15.5,11.9 15.5,13.5 13.5,13.5 13.5,13.1 10.5,14.8 14.5,17 18.5,14.8 18.5,10.3 	"/>
	<polygon class="st2" points="21,20.5 0.5,20.5 0.5,5.5 21,5.5 22.5,7 22.5,19 	"/>
	<rect x="13.5" y="11.5" class="st2" width="2" height="2"/>
	<line class="st2" x1="6.5" y1="5.5" x2="6.5" y2="20.5"/>
	<line class="st2" x1="0.5" y1="8.5" x2="2.5" y2="8.5"/>
	<line class="st2" x1="0.5" y1="12.5" x2="3.5" y2="12.5"/>
	<line class="st2" x1="0.5" y1="16.5" x2="3.5" y2="16.5"/>
	<line class="st2" x1="4.5" y1="3.5" x2="6.5" y2="3.5"/>
	<polygon class="st2" points="18.5,14.8 14.5,17 10.5,14.8 10.5,10.3 14.5,8 18.5,10.3 	"/>
</g>
<g id="Frames-24px">
	<rect class="st7" width="24" height="24"/>
</g>
</svg>
