<svg xmlns="http://www.w3.org/2000/svg" width="24" height="24" viewBox="0 0 24 24">
  <title>delivery-package-2</title>
  <g id="Duotone">
    <polygon points="23.5 7.5 15.5 4 7.5 7.5 7.5 17.5 15.5 21 23.5 17.5 23.5 7.5" fill="#fff"/>
    <polygon points="19.393 5.703 11.393 9.203 15.5 11 15.5 21 23.5 17.5 23.5 7.5 19.393 5.703" fill="#cce7ff"/>
    <g>
      <polyline points="11.5 5.75 19.5 9.281 19.5 12.5" fill="none" stroke="#1078ff" stroke-linecap="round" stroke-linejoin="round"/>
      <polyline points="1.5 13.652 1.547 13.674 5.5 15.5" fill="none" stroke="#1078ff" stroke-linecap="round" stroke-linejoin="round"/>
      <line x1="2.206" y1="10.478" x2="5.5" y2="12" fill="none" stroke="#1078ff" stroke-linecap="round" stroke-linejoin="round"/>
      <line x1="2.865" y1="7.283" x2="5.5" y2="8.5" fill="none" stroke="#1078ff" stroke-linecap="round" stroke-linejoin="round"/>
      <line x1="15.5" y1="11" x2="15.5" y2="21" fill="none" stroke="#1078ff" stroke-linecap="round" stroke-linejoin="round"/>
      <polyline points="7.5 7.5 7.5 17.5 15.5 21 23.5 17.5 23.5 7.5" fill="none" stroke="#1078ff" stroke-linecap="round" stroke-linejoin="round"/>
      <polyline points="7.5 7.5 15.5 11 23.5 7.5" fill="none" stroke="#1078ff" stroke-linecap="round" stroke-linejoin="round"/>
      <polyline points="7.5 7.5 15.5 4 23.5 7.5" fill="none" stroke="#1078ff" stroke-linecap="round" stroke-linejoin="round"/>
    </g>
  </g>
  <g id="Frames-24px">
    <rect width="24" height="24" fill="none"/>
  </g>
</svg>
