<svg xmlns="http://www.w3.org/2000/svg" width="24" height="24" viewBox="0 0 24 24">
  <title>eiffel-tower</title>
  <g id="Duotone">
    <polygon points="15.5 17.499 13.5 12.499 12.098 4.499 10.912 4.499 9.5 12.499 7.5 17.499 3.5 23.499 7 23.499 8 21.499 11.5 19.999 15 21.499 16 23.499 19.5 23.499 15.5 17.499" fill="#fff"/>
    <polygon points="10 2.499 13 2.499 12.5 4.499 10.5 4.499 10 2.499" fill="#cce7ff"/>
    <polyline points="19.5 23.499 15.5 17.499 13.5 12.499 12.098 4.499 10.912 4.499 9.5 12.499 7.5 17.499 3.5 23.499" fill="none" stroke="#1078ff" stroke-linecap="round" stroke-linejoin="round"/>
    <polygon points="10 2.499 13 2.499 12.5 4.499 10.5 4.499 10 2.499" fill="none" stroke="#1078ff" stroke-linecap="round" stroke-linejoin="round"/>
    <line x1="11.5" y1="2.499" x2="11.5" y2="0.499" fill="none" stroke="#1078ff" stroke-linecap="round" stroke-linejoin="round"/>
    <line x1="7.5" y1="12.499" x2="15.5" y2="12.499" fill="none" stroke="#1078ff" stroke-linecap="round" stroke-linejoin="round"/>
    <line x1="5.5" y1="17.499" x2="17.5" y2="17.499" fill="none" stroke="#1078ff" stroke-linecap="round" stroke-linejoin="round"/>
    <polyline points="16 23.499 15 21.499 11.5 19.999 8 21.499 7 23.499" fill="none" stroke="#1078ff" stroke-linecap="round" stroke-linejoin="round"/>
    <polyline points="10.5 15.499 11.5 14.499 12.5 15.499" fill="none" stroke="#1078ff" stroke-linecap="round" stroke-linejoin="round"/>
  </g>
  <g id="Frames-24px">
    <rect width="24" height="24" fill="none"/>
  </g>
</svg>
