<?xml version="1.0" encoding="utf-8"?>
<!-- Generator: Adobe Illustrator 21.0.2, SVG Export Plug-In . SVG Version: 6.00 Build 0)  -->
<svg version="1.1" xmlns="http://www.w3.org/2000/svg" xmlns:xlink="http://www.w3.org/1999/xlink" x="0px" y="0px"
	 viewBox="0 0 24 24" style="enable-background:new 0 0 24 24;" xml:space="preserve">
<style type="text/css">
	.st0{fill:#FFFFFF;}
	.st1{fill:#CCE7FF;}
	.st2{fill:none;stroke:#1078FF;stroke-linecap:round;stroke-linejoin:round;stroke-miterlimit:10;}
	.st3{fill:none;}
</style>
<g id="Duotone">
	<polygon class="st0" points="19.5,10 15.4,9 15.4,9 17,7 14,2 5.5,4 3.5,9 3,11.5 3.5,15.5 5,22.5 6.5,22.5 7,14.5 9,15.5 
		10.5,23.5 13.5,18.5 19,19 21,23.5 23.5,14 	"/>
	<polygon class="st1" points="8.5,9.5 7.5,11.5 12,16 18.3,9.7 15.4,9 12,13 	"/>
	<polyline class="st2" points="8.5,9.5 12,13 17,7 14,2 5.5,4 3.5,9 3,11.5 	"/>
	<polyline class="st2" points="8,12.5 3.5,13.5 0.5,12.5 	"/>
	<polyline class="st2" points="3.5,15.5 5,22.5 6.5,22.5 7,14.5 	"/>
	<polyline class="st2" points="15.4,9 19.5,10 23.5,14 21,23.5 19,19 13.5,18.5 10.5,23.5 9,15.5 	"/>
	<line class="st2" x1="6.5" y1="7.5" x2="6.5" y2="8.5"/>
</g>
<g id="Frames-24px">
	<rect class="st3" width="24" height="24"/>
</g>
</svg>
