<svg xmlns="http://www.w3.org/2000/svg" width="24" height="24" viewBox="0 0 24 24">
  <title>gameboy</title>
  <g id="Duotone">
    <polygon points="18 23.52 3.5 23.52 3.5 0.52 20.5 0.52 20.5 21.02 18 23.52" fill="#fff"/>
    <polygon points="15.5 14.5 6.5 14.5 17.5 3.5 17.5 12.5 15.5 14.5" fill="#cce7ff"/>
    <polygon points="3.5 23.5 5.5 21.5 17 21.5 18 21 20.5 21 18 23.5 3.5 23.5" fill="#cce7ff"/>
    <polygon points="18 23.5 3.5 23.5 3.5 0.5 20.5 0.5 20.5 21 18 23.5" fill="none" stroke="#1078ff" stroke-linecap="round" stroke-linejoin="round"/>
    <polygon points="15.5 14.5 6.5 14.5 6.5 3.5 17.5 3.5 17.5 12.5 15.5 14.5" fill="none" stroke="#1078ff" stroke-linecap="round" stroke-linejoin="round"/>
    <line x1="6.5" y1="19.5" x2="10.5" y2="19.5" fill="none" stroke="#1078ff" stroke-linecap="round" stroke-linejoin="round"/>
    <line x1="8.5" y1="17.516" x2="8.5" y2="21.484" fill="none" stroke="#1078ff" stroke-linecap="round" stroke-linejoin="round"/>
    <path d="M14.01,20.289h0M13.5,19.5a.278.278,0,0,0-.2.081l-.721.721a.28.28,0,0,0,0,.395l.721.721a.28.28,0,0,0,.395,0l.721-.721a.28.28,0,0,0,0-.395l-.721-.721a.278.278,0,0,0-.2-.081Z" fill="#1078ff"/>
    <path d="M17.01,18.289h0M16.5,17.5a.278.278,0,0,0-.2.081l-.721.721a.28.28,0,0,0,0,.395l.721.721a.28.28,0,0,0,.395,0l.721-.721a.28.28,0,0,0,0-.395l-.721-.721a.278.278,0,0,0-.2-.081Z" fill="#1078ff"/>
  </g>
  <g id="Frames-24px">
    <rect width="24" height="24" fill="none"/>
  </g>
</svg>
