<?xml version="1.0" encoding="utf-8"?>
<!-- Generator: Adobe Illustrator 21.0.2, SVG Export Plug-In . SVG Version: 6.00 Build 0)  -->
<svg version="1.1" xmlns="http://www.w3.org/2000/svg" xmlns:xlink="http://www.w3.org/1999/xlink" x="0px" y="0px"
	 viewBox="0 0 24 24" style="enable-background:new 0 0 24 24;" xml:space="preserve">
<style type="text/css">
	.st0{fill:#FFFFFF;}
	.st1{fill:#CCE7FF;}
	.st2{fill:none;stroke:#1078FF;stroke-linecap:round;stroke-linejoin:round;stroke-miterlimit:10;}
	.st3{fill:none;stroke:#1078FF;stroke-linejoin:round;stroke-miterlimit:10;}
	.st4{fill:none;}
</style>
<g id="Duotone">
	<polygon class="st0" points="2.5,5.5 20.9,5.5 22,10.5 20,12.5 9,12.5 8,19.5 0.5,19.5 3.5,10.5 	"/>
	<polygon class="st1" points="21.1,6.5 23.5,6.5 23.5,8.5 21.6,8.5 	"/>
	<polygon class="st1" points="7,19.5 6.5,21.5 1.5,21.5 2,19.5 	"/>
	<polygon class="st1" points="20,12.5 22,10.5 3.5,10.5 2.8,12.5 	"/>
	<polygon class="st1" points="6,7.5 16.5,7.5 17,5.5 6.5,5.5 	"/>
	<g>
		<polygon class="st2" points="2.5,5.5 20.9,5.5 22,10.5 20,12.5 9,12.5 8,19.5 0.5,19.5 3.5,10.5 		"/>
		<polyline class="st2" points="21.1,6.5 23.5,6.5 23.5,8.5 21.6,8.5 		"/>
		<polyline class="st2" points="13,12.5 12,15.5 8.6,15.5 		"/>
		<polygon class="st2" points="6,7.5 16.5,7.5 17,5.5 6.5,5.5 		"/>
		<line class="st2" x1="3.5" y1="10.5" x2="22" y2="10.5"/>
		<line class="st2" x1="20.5" y1="3.5" x2="20.9" y2="5.5"/>
		<line class="st2" x1="2.5" y1="5.5" x2="0.5" y2="4"/>
		<polyline class="st2" points="7,19.5 6.5,21.5 1.5,21.5 2,19.5 		"/>
	</g>
</g>
<g id="Frames-24px">
	<rect class="st4" width="24" height="24"/>
</g>
</svg>
