<?xml version="1.0" encoding="utf-8"?>
<!-- Generator: Adobe Illustrator 21.0.2, SVG Export Plug-In . SVG Version: 6.00 Build 0)  -->
<svg version="1.1" xmlns="http://www.w3.org/2000/svg" xmlns:xlink="http://www.w3.org/1999/xlink" x="0px" y="0px"
	 viewBox="0 0 24 24" style="enable-background:new 0 0 24 24;" xml:space="preserve">
<style type="text/css">
	.st0{fill:#FFFFFF;}
	.st1{fill:#CCE7FF;}
	.st2{fill:none;stroke:#1078FF;stroke-linecap:round;stroke-linejoin:round;stroke-miterlimit:10;}
	.st3{fill:none;stroke:#1078FF;stroke-linejoin:round;stroke-miterlimit:10;}
	.st4{fill:#CCE7FF;stroke:#1078FF;stroke-linecap:round;stroke-linejoin:round;stroke-miterlimit:10;}
	.st5{fill:none;stroke:#1078FF;stroke-linecap:round;stroke-miterlimit:10;}
	.st6{fill:none;}
</style>
<g id="Duotone">
	<polygon class="st0" points="16.5,14.5 11.5,17 6.5,14.5 6.5,4.4 11.5,1.5 16.5,4.4 	"/>
	<polygon class="st0" points="15.5,20.5 18.5,23.5 4.5,23.5 7.5,20.5 	"/>
	<polygon class="st1" points="16.5,4.5 14.5,5.5 14.5,13 11.5,15 8.5,13 6.5,14.5 11.5,17 16.5,14.5 	"/>
	<polygon class="st2" points="16.5,14.5 11.5,17 6.5,14.5 6.5,4.4 11.5,1.5 16.5,4.4 	"/>
	<line class="st2" x1="6.5" y1="7.5" x2="9.5" y2="7.5"/>
	<line class="st2" x1="6.5" y1="5.5" x2="9.5" y2="5.5"/>
	<line class="st2" x1="16.5" y1="5.5" x2="13.5" y2="5.5"/>
	<line class="st2" x1="16.5" y1="7.5" x2="13.5" y2="7.5"/>
	<line class="st2" x1="6.5" y1="9.5" x2="9.5" y2="9.5"/>
	<line class="st2" x1="16.5" y1="9.5" x2="13.5" y2="9.5"/>
	<polygon class="st2" points="15.5,20.5 18.5,23.5 4.5,23.5 7.5,20.5 	"/>
	<rect x="10.4" y="11.9" transform="matrix(0.7071 -0.7071 0.7071 0.7071 -5.8241 11.9393)" class="st2" width="2.1" height="2.1"/>
	<line class="st2" x1="11.5" y1="14.5" x2="11.5" y2="20.5"/>
</g>
<g id="Frames-24px">
	<rect class="st6" width="24" height="24"/>
</g>
</svg>
