<svg xmlns="http://www.w3.org/2000/svg" width="24" height="24" viewBox="0 0 24 24">
  <title>music-album-1</title>
  <g id="Duotone">
    <rect x="0.5" y="1.5" width="23" height="22" fill="#fff"/>
    <polygon points="11.5 15.5 7.5 19 11.5 18 11.5 15.5" fill="#cce7ff"/>
    <polygon points="18.5 13.5 14.5 17 18.5 16 18.5 13.5" fill="#cce7ff"/>
    <rect x="0.5" y="1.5" width="3" height="22" fill="#cce7ff"/>
    <rect x="0.5" y="1.5" width="23" height="22" fill="none" stroke="#1078ff" stroke-linejoin="round"/>
    <line x1="3.5" y1="1.5" x2="3.5" y2="23.5" fill="none" stroke="#1078ff" stroke-linejoin="round"/>
    <polyline points="11.5 15.5 7.5 15.5 7.5 19 11.5 18" fill="none" stroke="#1078ff" stroke-linecap="round" stroke-linejoin="round"/>
    <polyline points="18.5 13.5 14.5 13.5 14.5 17 18.5 16" fill="none" stroke="#1078ff" stroke-linecap="round" stroke-linejoin="round"/>
    <line x1="18.5" y1="6.5" x2="18.5" y2="16" fill="none" stroke="#1078ff" stroke-linecap="round" stroke-linejoin="round"/>
    <line x1="11.5" y1="8.5" x2="18.5" y2="6.5" fill="none" stroke="#1078ff" stroke-linecap="round" stroke-linejoin="round"/>
    <line x1="11.5" y1="18" x2="11.5" y2="8.5" fill="none" stroke="#1078ff" stroke-linecap="round" stroke-linejoin="round"/>
  </g>
  <g id="Frames-24px">
    <rect width="24" height="24" fill="none"/>
  </g>
</svg>
