<svg xmlns="http://www.w3.org/2000/svg" width="24" height="24" viewBox="0 0 24 24">
  <title>oil-jerry-can</title>
  <g id="Duotone">
    <polygon points="14.5 3.5 11.389 6.5 3 2 3 3 8.9 8.9 7.5 10.25 7.5 23.5 23.5 23.5 23.5 3.5 14.5 3.5" fill="#fff"/>
    <polygon points="4.5 12.75 2.5 14 0.5 12.75 0.5 11.5 2.5 6 4.5 11.5 4.5 12.75" fill="#cce7ff"/>
    <polygon points="7.5 23.5 9.5 21 21.5 21 23.5 23.5 7.5 23.5" fill="#cce7ff"/>
    <polygon points="7.5 23.5 23.5 23.5 23.5 3.5 14.5 3.5 7.5 10.25 7.5 23.5" fill="none" stroke="#1078ff" stroke-linecap="round" stroke-linejoin="round"/>
    <polyline points="8.9 8.9 3 3 3 2 11.389 6.5" fill="none" stroke="#1078ff" stroke-linecap="round" stroke-linejoin="round"/>
    <line x1="16.5" y1="17" x2="19.5" y2="20" fill="none" stroke="#1078ff" stroke-linecap="round" stroke-linejoin="round"/>
    <line x1="14.5" y1="17" x2="11.5" y2="20" fill="none" stroke="#1078ff" stroke-linecap="round" stroke-linejoin="round"/>
    <line x1="16.5" y1="15" x2="19.5" y2="12" fill="none" stroke="#1078ff" stroke-linecap="round" stroke-linejoin="round"/>
    <line x1="14.5" y1="15" x2="11.5" y2="12" fill="none" stroke="#1078ff" stroke-linecap="round" stroke-linejoin="round"/>
    <polygon points="4.5 12.75 2.5 14 0.5 12.75 0.5 11.5 2.5 6 4.5 11.5 4.5 12.75" fill="none" stroke="#1078ff" stroke-linecap="round" stroke-linejoin="round"/>
    <line x1="11.389" y1="6.5" x2="23.5" y2="6.5" fill="none" stroke="#1078ff" stroke-linecap="round" stroke-linejoin="round"/>
  </g>
  <g id="Frames-24px">
    <rect width="24" height="24" fill="none"/>
  </g>
</svg>
