<?xml version="1.0" encoding="utf-8"?>
<!-- Generator: Adobe Illustrator 21.0.2, SVG Export Plug-In . SVG Version: 6.00 Build 0)  -->
<svg version="1.1" xmlns="http://www.w3.org/2000/svg" xmlns:xlink="http://www.w3.org/1999/xlink" x="0px" y="0px"
	 viewBox="0 0 24 24" style="enable-background:new 0 0 24 24;" xml:space="preserve">
<style type="text/css">
	.st0{fill:#FFFFFF;}
	.st1{fill:#CCE7FF;}
	.st2{fill:none;stroke:#1078FF;stroke-linecap:round;stroke-linejoin:round;stroke-miterlimit:10;}
	.st3{fill:#CCE7FF;stroke:#1078FF;stroke-linecap:round;stroke-linejoin:round;stroke-miterlimit:10;}
	.st4{fill:none;stroke:#1078FF;stroke-linejoin:round;stroke-miterlimit:10;}
	.st5{fill:none;stroke:#1078FF;stroke-linecap:round;stroke-miterlimit:10;}
	.st6{fill:#FFFFFF;stroke:#1078FF;stroke-linecap:round;stroke-linejoin:round;stroke-miterlimit:10;}
	.st7{fill:none;}
</style>
<g id="Duotone">
	<g>
		<polygon class="st0" points="21.5,5.6 20.5,2.5 17.4,1.5 4.9,14 5.5,14.5 9,18.1 		"/>
		<polygon class="st0" points="3.5,23.5 9,18.1 5.5,14.5 3.5,16.5 		"/>
	</g>
	<g>
		<polygon class="st1" points="9,18.1 21.5,5.6 20.5,2.5 7,16 		"/>
	</g>
	<polygon class="st2" points="21.5,5.6 9,18.1 4.9,14 17.4,1.5 20.5,2.5 	"/>
	<polyline class="st2" points="9,18.1 3.5,23.5 3.5,16.5 5.5,14.5 	"/>
	<line class="st2" x1="7.6" y1="16.7" x2="5.3" y2="19.1"/>
	<polygon class="st2" points="10,11.6 16.1,5.6 16.8,7.6 10.7,13.7 	"/>
	<line class="st2" x1="12.7" y1="11.6" x2="12" y2="9.6"/>
	<line class="st2" x1="14.7" y1="9.6" x2="14.1" y2="7.6"/>
	<line class="st2" x1="16.4" y1="2.5" x2="20.5" y2="6.6"/>
</g>
<g id="Frames-24px">
	<rect class="st7" width="24" height="24"/>
</g>
</svg>
