<?xml version="1.0" encoding="utf-8"?>
<!-- Generator: Adobe Illustrator 21.0.2, SVG Export Plug-In . SVG Version: 6.00 Build 0)  -->
<svg version="1.1" xmlns="http://www.w3.org/2000/svg" xmlns:xlink="http://www.w3.org/1999/xlink" x="0px" y="0px"
	 viewBox="0 0 24 24" style="enable-background:new 0 0 24 24;" xml:space="preserve">
<style type="text/css">
	.st0{fill:#FFFFFF;}
	.st1{fill:none;stroke:#CCE7FF;stroke-linecap:round;stroke-linejoin:round;stroke-miterlimit:10;}
	.st2{fill:#CCE7FF;}
	.st3{fill:none;stroke:#1078FF;stroke-linecap:round;stroke-linejoin:round;stroke-miterlimit:10;}
	.st4{fill:#CCE7FF;stroke:#1078FF;stroke-linecap:round;stroke-linejoin:round;stroke-miterlimit:10;}
	.st5{fill:none;}
</style>
<g id="Duotone">
	<polygon class="st0" points="16.5,1.5 16.5,19.5 18.5,23.5 20.5,19.5 20.5,1.5 	"/>
	<polygon class="st0" points="11.5,0.5 9.5,0.5 8.5,1.5 8.5,19 10.5,23.5 12.5,19 12.5,1.5 	"/>
	<path class="st0" d="M4.5,17.5l1-4L4,0.5H3l-1.5,13l1,4l-1.5,2c0,0,2.5,4,2.5,4l2.5-4L4.5,17.5z"/>
	<polygon class="st2" points="3.5,0.5 3.5,17.5 4.5,17.5 5.5,13.5 4,0.5 	"/>
	<rect x="18.5" y="1.5" class="st2" width="2" height="18"/>
	<polygon class="st2" points="11.5,0.5 12.5,1.5 12.5,19 10.5,17 10.5,0.5 	"/>
	<polygon class="st3" points="8.5,1.5 9.5,0.5 11.5,0.5 12.5,1.5 12.5,19 10.5,17 8.5,19 	"/>
	<polyline class="st3" points="12.5,19 10.5,23.5 8.5,19 	"/>
	<line class="st3" x1="12.5" y1="5.5" x2="8.5" y2="5.5"/>
	<line class="st3" x1="12.5" y1="3.5" x2="8.5" y2="3.5"/>
	<path class="st3" d="M3.5,23.5c0,0-2.5-4-2.5-4l1.5-2h2l1.5,2L3.5,23.5z"/>
	<polygon class="st3" points="4,0.5 3,0.5 1.5,13.5 2.5,17.5 4.5,17.5 5.5,13.5 	"/>
	<line class="st3" x1="3.5" y1="17.5" x2="3.5" y2="19.5"/>
	<rect x="16.5" y="1.5" class="st3" width="4" height="18"/>
	<polyline class="st3" points="16.5,19.5 18.5,23.5 20.5,19.5 	"/>
	<line class="st3" x1="16.5" y1="6.5" x2="20.5" y2="6.5"/>
	<polyline class="st3" points="20.5,3.5 23.5,3.5 22.5,10 23,11 	"/>
	<line class="st3" x1="18.5" y1="1.5" x2="18.5" y2="0.5"/>
</g>
<g id="Frames-24px">
	<rect class="st5" width="24" height="24"/>
</g>
</svg>
