<?xml version="1.0" encoding="utf-8"?>
<!-- Generator: Adobe Illustrator 21.0.2, SVG Export Plug-In . SVG Version: 6.00 Build 0)  -->
<svg version="1.1" xmlns="http://www.w3.org/2000/svg" xmlns:xlink="http://www.w3.org/1999/xlink" x="0px" y="0px"
	 viewBox="0 0 24 24" style="enable-background:new 0 0 24 24;" xml:space="preserve">
<style type="text/css">
	.st0{fill:#FFFFFF;}
	.st1{fill:#CCE7FF;}
	.st2{fill:none;stroke:#1078FF;stroke-linecap:round;stroke-linejoin:round;stroke-miterlimit:10;}
	.st3{fill:none;stroke:#1078FF;stroke-linejoin:round;stroke-miterlimit:10;}
	.st4{fill:none;stroke:#1078FF;stroke-linecap:round;stroke-miterlimit:10;}
	.st5{fill:none;}
</style>
<g id="Duotone">
	<polygon class="st0" points="23.5,15.6 21.4,13.5 17.5,17.4 17.5,6.5 11.5,0.5 0.5,0.5 0.5,23.5 17.5,23.5 17.5,21.6 	"/>
	<rect x="9.5" y="0.5" class="st1" width="2" height="6"/>
	<polygon class="st1" points="9.5,7.5 4.5,7.5 3.5,10.5 8.5,10.5 	"/>
	<polygon class="st1" points="9.5,12.5 4.5,12.5 3.5,15.5 8.5,15.5 	"/>
	<polygon class="st1" points="9.5,17.5 4.5,17.5 3.5,20.5 8.5,20.5 	"/>
	<g>
		<polygon class="st1" points="22.4,14.6 23.5,15.6 16.2,22.9 13.5,23.5 		"/>
	</g>
	<g>
		<polyline class="st2" points="10.5,23.5 0.5,23.5 0.5,0.5 11.5,0.5 17.5,6.5 17.5,13.5 		"/>
		<polyline class="st2" points="11.5,0.5 11.5,6.5 17.5,6.5 		"/>
		<polyline class="st2" points="9.2,8.5 12.5,8.5 12.5,18.5 9.2,18.5 		"/>
		<line class="st2" x1="9.2" y1="13.5" x2="15.5" y2="13.5"/>
		<g>
			<polygon class="st2" points="14.1,20.8 21.4,13.5 23.5,15.6 16.2,22.9 13.5,23.5 			"/>
		</g>
		<polygon class="st2" points="9.5,7.5 4.5,7.5 3.5,10.5 8.5,10.5 		"/>
		<polygon class="st2" points="9.5,12.5 4.5,12.5 3.5,15.5 8.5,15.5 		"/>
		<polygon class="st2" points="9.5,17.5 4.5,17.5 3.5,20.5 8.5,20.5 		"/>
	</g>
</g>
<g id="Frames-24px">
	<rect class="st5" width="24" height="24"/>
</g>
</svg>
