<?xml version="1.0" encoding="utf-8"?>
<!-- Generator: Adobe Illustrator 21.0.2, SVG Export Plug-In . SVG Version: 6.00 Build 0)  -->
<svg version="1.1" xmlns="http://www.w3.org/2000/svg" xmlns:xlink="http://www.w3.org/1999/xlink" x="0px" y="0px" width="24px"
	 height="24px" viewBox="0 0 24 24" enable-background="new 0 0 24 24" xml:space="preserve">
<g id="Black">
	<path fill="#58595B" d="M1.259,18.438l10,5.5C11.334,23.979,11.417,24,11.5,24s0.166-0.021,0.241-0.062l10-5.5
		C21.901,18.35,22,18.182,22,18V7c0-0.182-0.099-0.35-0.259-0.438l-10-5.5c-0.15-0.083-0.332-0.083-0.482,0l-10,5.5
		C1.099,6.65,1,6.818,1,7v11C1,18.182,1.099,18.35,1.259,18.438z M2,7.295l9.5-5.225L21,7.295v10.409l-9.5,5.225L2,17.705V7.295z"/>
	<path fill="#58595B" d="M8,7.51V11c0,0.189,0.107,0.362,0.276,0.447l3,1.5C11.347,12.982,11.423,13,11.5,13
		s0.153-0.018,0.224-0.053l3-1.5C14.893,11.362,15,11.189,15,11V7.5c0-0.189-0.107-0.362-0.276-0.447l-3-1.5
		c-0.141-0.07-0.307-0.07-0.447,0l-3,1.5c-0.009,0.005-0.013,0.015-0.021,0.02c-0.06,0.034-0.11,0.081-0.152,0.139
		C8.089,7.23,8.077,7.247,8.066,7.268c-0.009,0.017-0.023,0.029-0.03,0.046C8.013,7.37,8.006,7.427,8.005,7.484
		C8.004,7.489,8,7.494,8,7.5v0.009C8,7.509,8,7.51,8,7.51z M11.5,11.941L9,10.691V8.239l1.814,0.726C10.873,8.988,10.936,9,11,9h3
		v1.691L11.5,11.941z M11.5,6.559l2.5,1.25V8h-2.904L9.72,7.449L11.5,6.559z"/>
	<path fill="#58595B" d="M16,15.372V17.5c0,0.276,0.224,0.5,0.5,0.5s0.5-0.224,0.5-0.5V15c0-0.221-0.145-0.416-0.356-0.479l-5-1.5
		c-0.093-0.028-0.194-0.028-0.287,0l-5,1.5C6.145,14.584,6,14.779,6,15v2.5C6,17.776,6.224,18,6.5,18S7,17.776,7,17.5v-2.128
		l4.5-1.35L16,15.372z"/>
	<path fill="#58595B" d="M12,17.5v-2c0-0.276-0.224-0.5-0.5-0.5S11,15.224,11,15.5v2c0,0.276,0.224,0.5,0.5,0.5S12,17.776,12,17.5z"
		/>
</g>
<g id="Frames-24px">
	<rect fill="none" width="24" height="24"/>
</g>
</svg>
