<?xml version="1.0" encoding="utf-8"?>
<!-- Generator: Adobe Illustrator 21.0.2, SVG Export Plug-In . SVG Version: 6.00 Build 0)  -->
<svg version="1.1" xmlns="http://www.w3.org/2000/svg" xmlns:xlink="http://www.w3.org/1999/xlink" x="0px" y="0px" width="24px"
	 height="24px" viewBox="0 0 24 24" enable-background="new 0 0 24 24" xml:space="preserve">
<g id="Black">
	<path fill="#58595B" d="M0.5,13H2v4.5c0,0.182,0.099,0.349,0.257,0.437L11,22.794V23.5c0,0.276,0.224,0.5,0.5,0.5
		s0.5-0.224,0.5-0.5v-0.706l8.743-4.857C20.901,17.849,21,17.682,21,17.5V13h1.5c0.276,0,0.5-0.224,0.5-0.5S22.776,12,22.5,12H21
		V7.5c0-0.182-0.099-0.349-0.257-0.437L12,2.206V1.5C12,1.224,11.776,1,11.5,1S11,1.224,11,1.5v0.706L2.257,7.063
		C2.099,7.151,2,7.318,2,7.5V12H0.5C0.224,12,0,12.224,0,12.5S0.224,13,0.5,13z M11.5,19c-0.276,0-0.5,0.224-0.5,0.5v2.15l-4-2.222
		v-1.556l4.5-1.35l4.5,1.35v1.556l-4,2.222V19.5C12,19.224,11.776,19,11.5,19z M3,7.794l8-4.445V5.5C11,5.776,11.224,6,11.5,6
		S12,5.776,12,5.5V3.35l8,4.445V12h-1.5c-0.276,0-0.5,0.224-0.5,0.5s0.224,0.5,0.5,0.5H20v4.206l-3,1.667V17.5
		c0-0.221-0.145-0.416-0.356-0.479l-5-1.5c-0.094-0.028-0.193-0.028-0.287,0l-5,1.5C6.145,17.084,6,17.279,6,17.5v1.372l-3-1.667V13
		h1.5C4.776,13,5,12.776,5,12.5S4.776,12,4.5,12H3V7.794z"/>
	<path fill="#58595B" d="M8.276,13.947l3,1.5c0.07,0.035,0.147,0.053,0.224,0.053s0.153-0.018,0.224-0.053l3-1.5
		C14.893,13.862,15,13.689,15,13.5V10c0-0.189-0.107-0.362-0.276-0.447l-3-1.5c-0.141-0.07-0.307-0.07-0.447,0l-3,1.5
		c-0.01,0.005-0.014,0.015-0.023,0.021C8.188,9.611,8.129,9.661,8.085,9.728C8.082,9.733,8.077,9.735,8.074,9.74
		C8.073,9.741,8.072,9.742,8.071,9.743c-0.044,0.073-0.06,0.152-0.064,0.232C8.007,9.984,8,9.991,8,10v3.5
		C8,13.689,8.107,13.862,8.276,13.947z M11.5,14.441L9,13.191v-2.308l1.743,1.046C10.82,11.976,10.909,12,11,12h3v1.191L11.5,14.441
		z M11.5,9.059l2.5,1.25V11h-2.861l-1.6-0.96L11.5,9.059z"/>
</g>
<g id="Frames-24px">
	<rect fill="none" width="24" height="24"/>
</g>
</svg>
