<?xml version="1.0" encoding="utf-8"?>
<!-- Generator: Adobe Illustrator 21.0.2, SVG Export Plug-In . SVG Version: 6.00 Build 0)  -->
<svg version="1.1" xmlns="http://www.w3.org/2000/svg" xmlns:xlink="http://www.w3.org/1999/xlink" x="0px" y="0px"
	 viewBox="0 0 24 24" style="enable-background:new 0 0 24 24;" xml:space="preserve">
<style type="text/css">
	.st0{fill:#58595B;}
	.st1{fill:none;}
</style>
<g id="Black">
	<path class="st0" d="M0.5,22H2v0.3c0,0.2,0.1,0.3,0.2,0.4l2,1.3C4.3,24,4.4,24,4.5,24s0.2,0,0.3-0.1l2-1.3C6.9,22.6,7,22.4,7,22.3
		V22h9v0.3c0,0.2,0.1,0.3,0.2,0.4l2,1.3c0.1,0.1,0.2,0.1,0.3,0.1s0.2,0,0.3-0.1l2-1.3c0.1-0.1,0.2-0.3,0.2-0.4V22h2.5
		c0.1,0,0.3-0.1,0.4-0.2c0.1-0.1,0.1-0.3,0.1-0.4l-2-14C22,7.2,21.7,7,21.5,7H13V5.5c0-0.2-0.1-0.4-0.3-0.4l-2-1
		c-0.1-0.1-0.3-0.1-0.4,0l-2,1C8.1,5.1,8,5.3,8,5.5V7H6C5.9,7,5.7,7.1,5.6,7.2l-5.5,6c0,0,0,0.1-0.1,0.1c0,0,0,0,0,0.1
		c0,0.1,0,0.1,0,0.2v8C0,21.8,0.2,22,0.5,22z M6,22l-1.5,0.9L3,22v-1.4l1.5-0.9L6,20.5V22z M6.8,19.8l-2-1.3c-0.2-0.1-0.4-0.1-0.5,0
		l-2,1.3C2.1,19.9,2,20.1,2,20.3V21H1v-7h7v7H7v-0.8C7,20.1,6.9,19.9,6.8,19.8z M20,22l-1.5,0.9L17,22v-1.4l1.5-0.9l1.5,0.9V22z
		 M22.9,21H21v-0.8c0-0.2-0.1-0.3-0.2-0.4l-2-1.3c-0.2-0.1-0.4-0.1-0.5,0l-2,1.3c-0.1,0.1-0.2,0.3-0.2,0.4V21H9V8h12.1L22.9,21z
		 M9,5.8l1.5-0.8L12,5.8V7H9V5.8z M6.2,8H8v5H1.6L6.2,8z"/>
	<path class="st0" d="M11,11.5v3c0,0.3,0.2,0.5,0.5,0.5H13v1.5c0,0.3,0.2,0.5,0.5,0.5h3c0.3,0,0.5-0.2,0.5-0.5V15h1.5
		c0.3,0,0.5-0.2,0.5-0.5v-3c0-0.3-0.2-0.5-0.5-0.5H17V9.5C17,9.2,16.8,9,16.5,9h-3C13.2,9,13,9.2,13,9.5V11h-1.5
		C11.2,11,11,11.2,11,11.5z M12,12h1.5c0.3,0,0.5-0.2,0.5-0.5V10h2v1.5c0,0.3,0.2,0.5,0.5,0.5H18v2h-1.5c-0.3,0-0.5,0.2-0.5,0.5V16
		h-2v-1.5c0-0.3-0.2-0.5-0.5-0.5H12V12z"/>
	<path class="st0" d="M6.5,15h-2C4.2,15,4,15.2,4,15.5S4.2,16,4.5,16h2C6.8,16,7,15.8,7,15.5S6.8,15,6.5,15z"/>
	<path class="st0" d="M10.5,3C10.8,3,11,2.8,11,2.5v-2C11,0.2,10.8,0,10.5,0S10,0.2,10,0.5v2C10,2.8,10.2,3,10.5,3z"/>
	<path class="st0" d="M7.1,3.4c0.1,0.1,0.2,0.1,0.4,0.1s0.3,0,0.4-0.1C8,3.2,8,2.8,7.9,2.6L6.4,1.1C6.2,1,5.8,1,5.6,1.1
		s-0.2,0.5,0,0.7L7.1,3.4z"/>
	<path class="st0" d="M4.5,6h2C6.8,6,7,5.8,7,5.5S6.8,5,6.5,5h-2C4.2,5,4,5.2,4,5.5S4.2,6,4.5,6z"/>
	<path class="st0" d="M13.5,3.5c0.1,0,0.3,0,0.4-0.1l1.5-1.5c0.2-0.2,0.2-0.5,0-0.7s-0.5-0.2-0.7,0l-1.5,1.5c-0.2,0.2-0.2,0.5,0,0.7
		C13.2,3.5,13.4,3.5,13.5,3.5z"/>
	<path class="st0" d="M14,5.5C14,5.8,14.2,6,14.5,6h2C16.8,6,17,5.8,17,5.5S16.8,5,16.5,5h-2C14.2,5,14,5.2,14,5.5z"/>
</g>
<g id="Frames-24px">
	<rect class="st1" width="24" height="24"/>
</g>
</svg>
