<?xml version="1.0" encoding="utf-8"?>
<!-- Generator: Adobe Illustrator 21.0.2, SVG Export Plug-In . SVG Version: 6.00 Build 0)  -->
<svg version="1.1" xmlns="http://www.w3.org/2000/svg" xmlns:xlink="http://www.w3.org/1999/xlink" x="0px" y="0px"
	 viewBox="0 0 24 24" style="enable-background:new 0 0 24 24;" xml:space="preserve">
<style type="text/css">
	.st0{fill:#58595B;}
	.st1{fill:none;}
</style>
<g id="Black">
	<path class="st0" d="M15.8,6.6c-0.2-0.1-0.4-0.1-0.5,0l-3.7,2.3L7.8,6.6c-0.2-0.1-0.4-0.1-0.5,0l-6,3.5C1.1,10.2,1,10.4,1,10.6
		l2,10c0,0.1,0.1,0.2,0.2,0.3l4.5,3c0.2,0.1,0.4,0.1,0.5,0l3.3-1.9l3.3,1.9c0.1,0,0.2,0.1,0.2,0.1c0.1,0,0.2,0,0.3-0.1l4.5-3
		c0.1-0.1,0.2-0.2,0.2-0.3l2-10c0-0.2-0.1-0.4-0.2-0.5L15.8,6.6z M19.1,20.2L15,22.9l-3.2-1.8c-0.1,0-0.2-0.1-0.2-0.1
		s-0.2,0-0.2,0.1L8,22.9l-4.1-2.7l-1.9-9.4l5.4-3.2l3.7,2.3c0.2,0.1,0.4,0.1,0.5,0l3.7-2.3l5.4,3.2L19.1,20.2z"/>
	<path class="st0" d="M11.5,1C11.2,1,11,1.2,11,1.5v5C11,6.8,11.2,7,11.5,7S12,6.8,12,6.5V6.4l3.6-1.1c0.1,0,0.3-0.1,0.3-0.3l2-4.3
		c0.1-0.2,0-0.4-0.1-0.6C17.7,0,17.5,0,17.3,0l-4.3,2c-0.1,0-0.2,0.1-0.2,0.2L12,3.8V1.5C12,1.2,11.8,1,11.5,1z M13.5,2.9l2.9-1.4
		l-1.3,2.9l-2.7,0.8L13.5,2.9z"/>
</g>
<g id="Frames-24px">
	<rect class="st1" width="24" height="24"/>
</g>
</svg>
