<?xml version="1.0" encoding="utf-8"?>
<!-- Generator: Adobe Illustrator 21.0.2, SVG Export Plug-In . SVG Version: 6.00 Build 0)  -->
<svg version="1.1" xmlns="http://www.w3.org/2000/svg" xmlns:xlink="http://www.w3.org/1999/xlink" x="0px" y="0px"
	 viewBox="0 0 24 24" style="enable-background:new 0 0 24 24;" xml:space="preserve">
<style type="text/css">
	.st0{fill:#58595B;}
	.st1{fill:none;}
</style>
<g id="Black">
	<path class="st0" d="M23.8,18.6l-4.5-4.5C19.2,14,19,14,18.8,14.1l-2.7,1.3L12.7,12l5-5H21c0.2,0,0.4-0.1,0.5-0.3l2.5-6
		c0.1-0.2,0-0.4-0.1-0.5C23.7,0,23.5,0,23.3,0l-6,2.5C17.1,2.6,17,2.8,17,3v3.3l-5,5l-5-5V3c0-0.2-0.1-0.4-0.3-0.5L0.7,0
		C0.5,0,0.3,0,0.1,0.1C0,0.3,0,0.5,0,0.7l2.5,6C2.6,6.9,2.8,7,3,7h3.3l5,5l-3.4,3.4l-2.7-1.3C5,14,4.8,14,4.6,14.1l-4.5,4.5
		C0,18.8,0,18.9,0,19.1c0,0.2,0.1,0.3,0.3,0.4l2.8,1.4l1.4,2.8C4.6,23.9,4.8,24,4.9,24c0,0,0.1,0,0.1,0c0.1,0,0.3-0.1,0.4-0.1
		l4.5-4.5C10,19.2,10,19,9.9,18.8l-1.3-2.7l3.4-3.4l3.4,3.4l-1.3,2.7C14,19,14,19.2,14.1,19.4l4.5,4.5c0.1,0.1,0.2,0.1,0.4,0.1
		c0,0,0.1,0,0.1,0c0.2,0,0.3-0.1,0.4-0.3l1.4-2.8l2.8-1.4c0.1-0.1,0.2-0.2,0.3-0.4C24,18.9,24,18.8,23.8,18.6z M18,3.3l4.6-1.9
		L20.7,6H18V3.3z M1.4,1.4L6,3.3V6H3.3L1.4,1.4z M2.4,17.8l1.3,0.6c0.1,0,0.1,0.1,0.2,0.1c0.2,0,0.4-0.1,0.4-0.3
		c0.1-0.2,0-0.5-0.2-0.7l-1-0.5l0.7-0.7L5,17.1c0.1,0,0.1,0.1,0.2,0.1c0.2,0,0.4-0.1,0.4-0.3c0.1-0.2,0-0.5-0.2-0.7l-1-0.5l0.6-0.6
		l2.1,1l-3.8,3.8l-2-1L2.4,17.8z M8.9,18.9l-0.6,0.6l-0.5-1c-0.1-0.2-0.4-0.3-0.7-0.2c-0.2,0.1-0.3,0.4-0.2,0.7l0.6,1.3l-0.7,0.7
		l-0.5-1c-0.1-0.2-0.4-0.3-0.7-0.2c-0.2,0.1-0.3,0.4-0.2,0.7l0.6,1.3l-1,1l-1-2l3.8-3.8L8.9,18.9z M18.9,22.6l-1-1l0.6-1.3
		c0.1-0.2,0-0.5-0.2-0.7c-0.2-0.1-0.5,0-0.7,0.2l-0.5,1l-0.7-0.7l0.6-1.3c0.1-0.2,0-0.5-0.2-0.7c-0.2-0.1-0.5,0-0.7,0.2l-0.5,1
		l-0.6-0.6l1-2.1l3.8,3.8L18.9,22.6z M20.6,19.9l-3.8-3.8l2.1-1l0.6,0.6l-1,0.5c-0.2,0.1-0.3,0.4-0.2,0.7c0.1,0.2,0.3,0.3,0.4,0.3
		c0.1,0,0.2,0,0.2-0.1l1.3-0.6l0.7,0.7l-1,0.5c-0.2,0.1-0.3,0.4-0.2,0.7c0.1,0.2,0.3,0.3,0.4,0.3c0.1,0,0.2,0,0.2-0.1l1.3-0.6l1,1
		L20.6,19.9z"/>
</g>
<g id="Frames-24px">
	<rect class="st1" width="24" height="24"/>
</g>
</svg>
