<?xml version="1.0" encoding="utf-8"?>
<!-- Generator: Adobe Illustrator 21.0.2, SVG Export Plug-In . SVG Version: 6.00 Build 0)  -->
<svg version="1.1" xmlns="http://www.w3.org/2000/svg" xmlns:xlink="http://www.w3.org/1999/xlink" x="0px" y="0px"
	 viewBox="0 0 24 24" style="enable-background:new 0 0 24 24;" xml:space="preserve">
<style type="text/css">
	.st0{fill:#58595B;}
	.st1{fill:none;}
</style>
<g id="Black">
	<path class="st0" d="M23.4,4L20,4.4V3.5c0-0.2-0.2-0.4-0.4-0.5l-7.5-2C12,1,12,1,11.9,1L4.4,3C4.2,3.1,4,3.3,4,3.5v0.9L0.6,4
		C0.4,4,0.3,4,0.2,4.1C0.1,4.2,0,4.4,0,4.5v5c0,0.1,0.1,0.3,0.2,0.4C0.3,10,0.4,10,0.5,10c0,0,0,0,0.1,0L4,9.6v0.9
		C4,10.8,4.2,11,4.5,11H5v2.8l-2.9,2.9C2.1,16.7,2,16.9,2,17v5.5c0,0.1,0.1,0.3,0.1,0.4l1,1C3.2,23.9,3.4,24,3.5,24h17
		c0.1,0,0.3-0.1,0.4-0.1l1-1c0.1-0.1,0.1-0.2,0.1-0.4V17c0-0.1-0.1-0.3-0.1-0.4L19,13.8V11h0.5c0.3,0,0.5-0.2,0.5-0.5V9.1l3.4,0.4
		c0,0,0,0,0.1,0c0.1,0,0.2,0,0.3-0.1C23.9,9.3,24,9.1,24,9V4.5c0-0.1-0.1-0.3-0.2-0.4C23.7,4,23.6,4,23.4,4z M1,8.9V5.1l3,0.4v3.1
		L1,8.9z M5,15.2V18H3v-0.8L5,15.2z M3,22.3V19h2v4H3.7L3,22.3z M16,19H8v-2h8V19z M8,23v-3h2v1.5c0,0.3,0.2,0.5,0.5,0.5
		s0.5-0.2,0.5-0.5V20h2v1.5c0,0.3,0.2,0.5,0.5,0.5s0.5-0.2,0.5-0.5V20h2v3H8z M20.3,23H19v-4h2v3.3L20.3,23z M21,17.2V18h-2v-2.8
		L21,17.2z M18,23h-1v-6.5c0-0.3-0.2-0.5-0.5-0.5h-9C7.2,16,7,16.2,7,16.5V23H6V11h1v1.5c0,0.1,0.1,0.3,0.1,0.4l1,1
		C8.2,14,8.4,14,8.5,14s0.3,0,0.4-0.1l1-1c0.1-0.1,0.1-0.2,0.1-0.4V11h4v1.5c0,0.1,0.1,0.3,0.1,0.4l1,1c0.1,0.1,0.2,0.1,0.4,0.1
		s0.3,0,0.4-0.1l1-1c0.1-0.1,0.1-0.2,0.1-0.4V11h1V23z M9,12.3l-0.5,0.5L8,12.3V8h1V12.3z M16,12.3l-0.5,0.5L15,12.3V8h1V12.3z
		 M19,10h-2V7.5C17,7.2,16.8,7,16.5,7h-2C14.2,7,14,7.2,14,7.5V10h-4V7.5C10,7.2,9.8,7,9.5,7h-2C7.2,7,7,7.2,7,7.5V10H5V3.9L12,2
		l7,1.9V10z M23,8.4l-3-0.4V5.4l3-0.4V8.4z"/>
</g>
<g id="Frames-24px">
	<rect class="st1" width="24" height="24"/>
</g>
</svg>
