<?xml version="1.0" encoding="utf-8"?>
<!-- Generator: Adobe Illustrator 21.0.2, SVG Export Plug-In . SVG Version: 6.00 Build 0)  -->
<svg version="1.1" xmlns="http://www.w3.org/2000/svg" xmlns:xlink="http://www.w3.org/1999/xlink" x="0px" y="0px" width="24px"
	 height="24px" viewBox="0 0 24 24" enable-background="new 0 0 24 24" xml:space="preserve">
<g id="Black">
	<path fill="#58595B" d="M14.947,5.276C14.862,5.107,14.689,5,14.5,5h-1.691l-0.25-0.5l0.25-0.5H14.5C14.776,4,15,3.776,15,3.5
		S14.776,3,14.5,3H14V2.5C14,2.224,13.776,2,13.5,2S13,2.224,13,2.5V3h-0.5c-0.189,0-0.362,0.107-0.447,0.276l-0.5,1
		c-0.07,0.141-0.07,0.307,0,0.447l0.5,1C12.138,5.893,12.311,6,12.5,6h1.691l0.25,0.5L14.191,7H12.5C12.224,7,12,7.224,12,7.5
		S12.224,8,12.5,8H13v0.5C13,8.776,13.224,9,13.5,9S14,8.776,14,8.5V8h0.5c0.189,0,0.362-0.107,0.447-0.276l0.5-1
		c0.07-0.141,0.07-0.307,0-0.447L14.947,5.276z"/>
	<path fill="#58595B" d="M5.724,11.553c-0.141-0.07-0.307-0.07-0.447,0l-3,1.5C2.107,13.138,2,13.311,2,13.5v4
		c0,0.189,0.107,0.362,0.276,0.447l3,1.5C5.347,19.482,5.423,19.5,5.5,19.5s0.153-0.018,0.224-0.053l3-1.5
		C8.893,17.862,9,17.689,9,17.5v-4c0-0.189-0.107-0.362-0.276-0.447L5.724,11.553z M5.5,12.559l2.5,1.25V14H5.168l-1.011-0.77
		L5.5,12.559z M5.5,18.441L3,17.191v-3.382l0.161-0.08L4.832,15H8v2.191L5.5,18.441z"/>
	<path fill="#58595B" d="M0.5,24C0.776,24,1,23.776,1,23.5v-1.628l4.5-1.35l4.5,1.35V23.5c0,0.276,0.224,0.5,0.5,0.5
		s0.5-0.224,0.5-0.5v-2c0-0.221-0.145-0.416-0.356-0.479l-5-1.5c-0.094-0.028-0.193-0.028-0.287,0l-5,1.5
		C0.145,21.084,0,21.279,0,21.5v2C0,23.776,0.224,24,0.5,24z"/>
	<path fill="#58595B" d="M6,23.5v-1C6,22.224,5.776,22,5.5,22S5,22.224,5,22.5v1C5,23.776,5.224,24,5.5,24S6,23.776,6,23.5z"/>
	<path fill="#58595B" d="M15.276,17.947l3,1.5c0.07,0.035,0.147,0.053,0.224,0.053s0.153-0.018,0.224-0.053l3-1.5
		C21.893,17.862,22,17.689,22,17.5v-4c0-0.189-0.107-0.362-0.276-0.447l-3-1.5c-0.141-0.07-0.307-0.07-0.447,0l-3,1.5
		C15.107,13.138,15,13.311,15,13.5v4C15,17.689,15.107,17.862,15.276,17.947z M18.5,18.441l-2.5-1.25v-3.382l0.161-0.08L17.832,15
		H21v2.191L18.5,18.441z M18.5,12.559l2.5,1.25V14h-2.832l-1.011-0.77L18.5,12.559z"/>
	<path fill="#58595B" d="M23.644,21.021l-5-1.5c-0.094-0.028-0.193-0.028-0.287,0l-5,1.5C13.145,21.084,13,21.279,13,21.5v2
		c0,0.276,0.224,0.5,0.5,0.5s0.5-0.224,0.5-0.5v-1.628l4.5-1.35l4.5,1.35V23.5c0,0.276,0.224,0.5,0.5,0.5s0.5-0.224,0.5-0.5v-2
		C24,21.279,23.855,21.084,23.644,21.021z"/>
	<path fill="#58595B" d="M19,23.5v-1c0-0.276-0.224-0.5-0.5-0.5S18,22.224,18,22.5v1c0,0.276,0.224,0.5,0.5,0.5S19,23.776,19,23.5z"
		/>
	<path fill="#58595B" d="M20.5,11c0.276,0,0.5-0.224,0.5-0.5v-10C21,0.224,20.776,0,20.5,0h-14C6.224,0,6,0.224,6,0.5v10
		C6,10.776,6.224,11,6.5,11H10v2c0,0.194,0.112,0.371,0.288,0.453c0.067,0.032,0.14,0.047,0.212,0.047
		c0.115,0,0.229-0.04,0.32-0.116L13.681,11H20.5z M13.18,10.116L11,11.933V10.5c0-0.276-0.224-0.5-0.5-0.5H7V1h13v9h-6.5
		C13.383,10,13.27,10.041,13.18,10.116z"/>
</g>
<g id="Frames-24px">
	<rect fill="none" width="24" height="24"/>
</g>
</svg>
