<?xml version="1.0" encoding="utf-8"?>
<!-- Generator: Adobe Illustrator 21.0.2, SVG Export Plug-In . SVG Version: 6.00 Build 0)  -->
<svg version="1.1" xmlns="http://www.w3.org/2000/svg" xmlns:xlink="http://www.w3.org/1999/xlink" x="0px" y="0px" width="24px"
	 height="24px" viewBox="0 0 24 24" enable-background="new 0 0 24 24" xml:space="preserve">
<g id="Black">
	<path fill="#58595B" d="M13.86,9.433l-3.103-1.862c-0.158-0.095-0.356-0.095-0.515,0l-5,3C5.092,10.662,5,10.824,5,11v5
		c0,0.176,0.092,0.338,0.243,0.429l5,3c0.079,0.047,0.168,0.071,0.257,0.071s0.178-0.024,0.257-0.071l5-3
		C15.908,16.338,16,16.176,16,16v-5c0-0.176-0.092-0.338-0.243-0.429l-1.013-0.608L15.707,9H19.5c0.133,0,0.26-0.053,0.354-0.146
		l4-4c0.143-0.143,0.186-0.358,0.108-0.545C23.885,4.122,23.702,4,23.5,4H20V0.5c0-0.202-0.122-0.385-0.309-0.462
		c-0.187-0.079-0.402-0.035-0.545,0.108l-4,4C15.053,4.24,15,4.367,15,4.5v3.793L13.86,9.433z M15,11.283v4.434l-4.5,2.7l-4.5-2.7
		v-4.434l4.5-2.7l2.631,1.579l-2.985,2.985c-0.195,0.195-0.195,0.512,0,0.707C10.244,13.951,10.372,14,10.5,14
		s0.256-0.049,0.354-0.146l3.161-3.161L15,11.283z M16,4.707l3-3V4.5C19,4.776,19.224,5,19.5,5h2.793l-3,3H16V4.707z"/>
	<path fill="#58595B" d="M0.5,24c0.141,0,0.281-0.059,0.379-0.175l2.96-3.454l6.418,3.565C10.333,23.979,10.417,24,10.5,24
		s0.167-0.021,0.243-0.063l6.418-3.565l2.96,3.454C20.219,23.941,20.359,24,20.5,24c0.115,0,0.231-0.04,0.325-0.121
		c0.21-0.18,0.234-0.495,0.054-0.705l-2.827-3.299l1.691-0.939C19.901,18.849,20,18.682,20,18.5v-6c0-0.276-0.224-0.5-0.5-0.5
		S19,12.224,19,12.5v5.706l-8.5,4.723L2,18.206V9.28l8.502-5.196l2.24,1.344c0.237,0.143,0.544,0.065,0.686-0.171
		c0.142-0.237,0.065-0.544-0.171-0.686l-2.5-1.5c-0.16-0.096-0.359-0.095-0.518,0.002l-9,5.5C1.091,8.664,1,8.826,1,9v9.5
		c0,0.182,0.099,0.349,0.257,0.437l1.691,0.939l-2.827,3.299c-0.18,0.209-0.156,0.525,0.054,0.705C0.269,23.96,0.385,24,0.5,24z"/>
</g>
<g id="Frames-24px">
	<rect fill="none" width="24" height="24"/>
</g>
</svg>
