<?xml version="1.0" encoding="utf-8"?>
<!-- Generator: Adobe Illustrator 21.0.2, SVG Export Plug-In . SVG Version: 6.00 Build 0)  -->
<svg version="1.1" xmlns="http://www.w3.org/2000/svg" xmlns:xlink="http://www.w3.org/1999/xlink" x="0px" y="0px" width="24px"
	 height="24px" viewBox="0 0 24 24" enable-background="new 0 0 24 24" xml:space="preserve">
<g id="Black">
	<path fill="#58595B" d="M21.8,11.1c-0.143-0.106-0.333-0.128-0.497-0.06l-3.252,1.393l-1.274-0.85
		c-0.23-0.153-0.541-0.091-0.693,0.139c-0.153,0.229-0.091,0.54,0.139,0.693L17.099,13l-0.876,0.584
		c-0.23,0.153-0.292,0.464-0.139,0.693C16.18,14.422,16.339,14.5,16.5,14.5c0.095,0,0.191-0.027,0.277-0.084l1.274-0.85l3.252,1.393
		C21.366,14.986,21.433,15,21.5,15c0.106,0,0.212-0.034,0.3-0.1l2-1.5c0.126-0.095,0.2-0.243,0.2-0.4s-0.074-0.306-0.2-0.4
		L21.8,11.1z M21.431,13.927L19.27,13l2.162-0.927L22.667,13L21.431,13.927z"/>
	<path fill="#58595B" d="M0.309,15.962C0.371,15.987,0.436,16,0.5,16c0.13,0,0.258-0.051,0.354-0.146l2.113-2.113l1.954,2.345
		l-1.344,2.15c-0.097,0.153-0.102,0.348-0.014,0.507C3.651,18.901,3.818,19,4,19h3.5c0.148,0,0.289-0.065,0.384-0.18l0.671-0.806
		l6.368,0.979C14.949,18.998,14.975,19,15,19c0.09,0,0.179-0.024,0.257-0.071l2.5-1.5c0.14-0.084,0.23-0.231,0.242-0.396
		c0.011-0.163-0.059-0.321-0.187-0.424l-4.564-3.65l4.605-4.605c0.168-0.169,0.195-0.433,0.062-0.631l-1-1.5
		C16.823,6.084,16.667,6,16.5,6H8C7.845,6,7.698,6.072,7.604,6.195l-4.653,6.048l-2.097-2.097c-0.143-0.143-0.356-0.184-0.545-0.108
		C0.122,10.115,0,10.298,0,10.5v5C0,15.702,0.122,15.885,0.309,15.962z M8.246,7h7.986l0.624,0.937l-4.71,4.71
		c-0.101,0.101-0.154,0.239-0.146,0.381c0.008,0.143,0.076,0.274,0.187,0.363l4.438,3.551l-1.729,1.037l-5.594-0.861l1.081-1.298
		c0.177-0.212,0.148-0.527-0.064-0.704c-0.213-0.178-0.527-0.147-0.705,0.063L7.266,18H4.902l2.021-3.235
		c0.146-0.233,0.075-0.542-0.159-0.688C6.53,13.929,6.222,14,6.076,14.235l-0.598,0.957l-1.837-2.205L8.246,7z M1,11.707L2.293,13
		L1,14.293V11.707z"/>
	<path fill="#58595B" d="M11.5,11c0.276,0,0.5-0.224,0.5-0.5v-1C12,9.224,11.776,9,11.5,9S11,9.224,11,9.5v1
		C11,10.776,11.224,11,11.5,11z"/>
</g>
<g id="Frames-24px">
	<rect fill="none" width="24" height="24"/>
</g>
</svg>
