<?xml version="1.0" encoding="utf-8"?>
<!-- Generator: Adobe Illustrator 21.0.2, SVG Export Plug-In . SVG Version: 6.00 Build 0)  -->
<svg version="1.1" xmlns="http://www.w3.org/2000/svg" xmlns:xlink="http://www.w3.org/1999/xlink" x="0px" y="0px"
	 viewBox="0 0 24 24" style="enable-background:new 0 0 24 24;" xml:space="preserve">
<style type="text/css">
	.st0{fill:#58595B;}
	.st1{fill:none;}
</style>
<g id="Black">
	<path class="st0" d="M23.5,11h-4.9l0.9-4.4c0-0.1,0-0.3-0.1-0.4C19.3,6.1,19.1,6,19,6h-1.4l0.9-3.9c0.1-0.3-0.1-0.5-0.4-0.6
		c-0.3-0.1-0.5,0.1-0.6,0.4L16.6,6h-0.2l-0.9-2.7c-0.1-0.3-0.4-0.4-0.6-0.3c-0.3,0.1-0.4,0.4-0.3,0.6L15.3,6H14
		c-0.1,0-0.3,0.1-0.4,0.2c-0.1,0.1-0.1,0.3-0.1,0.4l0.9,4.4H0.5C0.2,11,0,11.2,0,11.5S0.2,12,0.5,12h1.2l3.8,7.5l-1.9,3.8
		c-0.1,0.2,0,0.5,0.2,0.7C3.8,24,3.9,24,4,24c0.2,0,0.4-0.1,0.4-0.3L6.3,20h11.4l1.9,3.7c0.1,0.2,0.3,0.3,0.4,0.3
		c0.1,0,0.2,0,0.2-0.1c0.2-0.1,0.3-0.4,0.2-0.7l-1.9-3.8l3.8-7.5h1.2c0.3,0,0.5-0.2,0.5-0.5S23.8,11,23.5,11z M14.6,7h3.8l-0.8,4
		h-2.2L14.6,7z M17.7,19H12v-3h7.2L17.7,19z M11,12v7H6.3l-3.5-7H11z M19.7,15H12v-3h9.2L19.7,15z"/>
	<path class="st0" d="M8.5,15C8.8,15,9,14.8,9,14.5S8.8,14,8.5,14h-2C6.2,14,6,14.2,6,14.5S6.2,15,6.5,15H8.5z"/>
</g>
<g id="Frames-24px">
	<rect class="st1" width="24" height="24"/>
</g>
</svg>
