<?xml version="1.0" encoding="utf-8"?>
<!-- Generator: Adobe Illustrator 21.0.2, SVG Export Plug-In . SVG Version: 6.00 Build 0)  -->
<svg version="1.1" xmlns="http://www.w3.org/2000/svg" xmlns:xlink="http://www.w3.org/1999/xlink" x="0px" y="0px" width="24px"
	 height="24px" viewBox="0 0 24 24" enable-background="new 0 0 24 24" xml:space="preserve">
<g id="Black">
	<path fill="#58595B" d="M21.354,5.146C21.26,5.053,21.133,5,21,5H0.5C0.224,5,0,5.224,0,5.5v15C0,20.776,0.224,21,0.5,21H21
		c0.133,0,0.26-0.053,0.354-0.146l1.5-1.5C22.947,19.26,23,19.133,23,19V7c0-0.133-0.053-0.26-0.146-0.354L21.354,5.146z M1,17h2.5
		C3.776,17,4,16.776,4,16.5S3.776,16,3.5,16H1v-3h2.5C3.776,13,4,12.776,4,12.5S3.776,12,3.5,12H1V9h1.5C2.776,9,3,8.776,3,8.5
		S2.776,8,2.5,8H1V6h5v14H1V17z M22,18.793L20.793,20H7V6h13.793L22,7.207V18.793z"/>
	<path fill="#58595B" d="M13,11.5v2c0,0.276,0.224,0.5,0.5,0.5h2c0.276,0,0.5-0.224,0.5-0.5v-2c0-0.276-0.224-0.5-0.5-0.5h-2
		C13.224,11,13,11.224,13,11.5z M14,12h1v1h-1V12z"/>
	<path fill="#58595B" d="M4.5,4h2C6.776,4,7,3.776,7,3.5S6.776,3,6.5,3h-2C4.224,3,4,3.224,4,3.5S4.224,4,4.5,4z"/>
	<path fill="#58595B" d="M18.745,9.814l-4-2.25c-0.152-0.086-0.338-0.086-0.49,0l-4,2.25C10.098,9.903,10,10.069,10,10.25v4.5
		c0,0.181,0.098,0.347,0.255,0.436l4,2.25c0.076,0.043,0.161,0.064,0.245,0.064s0.169-0.021,0.245-0.064l4-2.25
		C18.902,15.097,19,14.931,19,14.75v-4.5C19,10.069,18.902,9.903,18.745,9.814z M18,14.458l-3.5,1.969L11,14.458v-3.915l3.5-1.969
		l3.5,1.969V14.458z"/>
</g>
<g id="Frames-24px">
	<rect fill="none" width="24" height="24"/>
</g>
</svg>
