<?xml version="1.0" encoding="utf-8"?>
<!-- Generator: Adobe Illustrator 21.0.2, SVG Export Plug-In . SVG Version: 6.00 Build 0)  -->
<svg version="1.1" xmlns="http://www.w3.org/2000/svg" xmlns:xlink="http://www.w3.org/1999/xlink" x="0px" y="0px"
	 viewBox="0 0 24 24" style="enable-background:new 0 0 24 24;" xml:space="preserve">
<style type="text/css">
	.st0{fill:#58595B;}
	.st1{fill:none;}
</style>
<g id="Black">
	<path class="st0" d="M2,14.7v5.8C2,20.8,2.2,21,2.5,21H3v1.5c0,0.2,0.1,0.4,0.3,0.4l2,1C5.3,24,5.4,24,5.5,24s0.2,0,0.2-0.1l2-1
		C7.9,22.9,8,22.7,8,22.5V21h7v1.5c0,0.2,0.1,0.4,0.3,0.4l2,1c0.1,0,0.1,0.1,0.2,0.1s0.2,0,0.2-0.1l2-1c0.2-0.1,0.3-0.3,0.3-0.4V21
		h0.5c0.3,0,0.5-0.2,0.5-0.5v-5.8l1.8-1.3c0.1-0.1,0.2-0.2,0.2-0.4v-1.5c0-0.3-0.2-0.5-0.5-0.5h-2.7l-2.4-4.7C17.4,6.1,17.2,6,17,6
		h-5V4.5C12,4.2,11.8,4,11.5,4S11,4.2,11,4.5V6H6.5C6.3,6,6.2,6.1,6.1,6.3L3.4,11H0.5C0.2,11,0,11.2,0,11.5V13
		c0,0.2,0.1,0.3,0.2,0.4L2,14.7z M20,17h-5l0.9-1H20V17z M20,15h-4.4c-0.1,0-0.3,0.1-0.4,0.2L13.6,17H9.2l-1.4-1.8
		C7.7,15.1,7.5,15,7.4,15H3v-1h17V15z M3,16h4.1l0.8,1H3V16z M7,22.2l-1.5,0.8L4,22.2V21h3V22.2z M19,22.2l-1.5,0.8L16,22.2V21h3
		V22.2z M3,20v-2h17v2H3z M22,12v0.8l-1,0.8v0c0-0.1,0-0.1,0-0.2c0,0,0,0,0,0L20.3,12H22z M6.8,7h9.9l3,6H3.4L6.8,7z M1,12h1.8
		l-0.7,1.3c0,0,0,0,0,0C2,13.3,2,13.4,2,13.5v0l-1-0.8V12z"/>
</g>
<g id="Frames-24px">
	<rect class="st1" width="24" height="24"/>
</g>
</svg>
