<?xml version="1.0" encoding="utf-8"?>
<!-- Generator: Adobe Illustrator 21.0.2, SVG Export Plug-In . SVG Version: 6.00 Build 0)  -->
<svg version="1.1" xmlns="http://www.w3.org/2000/svg" xmlns:xlink="http://www.w3.org/1999/xlink" x="0px" y="0px" width="24px"
	 height="24px" viewBox="0 0 24 24" enable-background="new 0 0 24 24" xml:space="preserve">
<g id="Black">
	<path fill="#58595B" d="M23.5,19h-1.071L20.494,6.424C20.457,6.18,20.247,6,20,6h-1V0.5c0-0.202-0.122-0.385-0.309-0.462
		c-0.187-0.079-0.402-0.035-0.545,0.108L17,1.293l-1.146-1.146c-0.195-0.195-0.512-0.195-0.707,0L14,1.293l-1.146-1.146
		c-0.143-0.143-0.358-0.187-0.545-0.108C12.122,0.115,12,0.298,12,0.5V6H4C3.753,6,3.543,6.18,3.506,6.424L1.571,19H0.5
		C0.224,19,0,19.224,0,19.5v4C0,23.776,0.224,24,0.5,24h23c0.276,0,0.5-0.224,0.5-0.5v-4C24,19.224,23.776,19,23.5,19z M13,1.707
		l0.646,0.646c0.195,0.195,0.512,0.195,0.707,0L15.5,1.207l1.146,1.146c0.195,0.195,0.512,0.195,0.707,0L18,1.707V10h-5V1.707z
		 M4.429,7H12v3.5c0,0.276,0.224,0.5,0.5,0.5h6c0.276,0,0.5-0.224,0.5-0.5V7h0.571l1.846,12H2.583L4.429,7z M23,23H1v-3h22V23z"/>
	<path fill="#58595B" d="M8.5,14.5C8.5,14.224,8.276,14,8,14H7c-0.276,0-0.5,0.224-0.5,0.5S6.724,15,7,15h1
		C8.276,15,8.5,14.776,8.5,14.5z"/>
	<path fill="#58595B" d="M11.5,14.5c0-0.276-0.224-0.5-0.5-0.5h-1c-0.276,0-0.5,0.224-0.5,0.5S9.724,15,10,15h1
		C11.276,15,11.5,14.776,11.5,14.5z"/>
	<path fill="#58595B" d="M14.5,14.5c0-0.276-0.224-0.5-0.5-0.5h-1c-0.276,0-0.5,0.224-0.5,0.5S12.724,15,13,15h1
		C14.276,15,14.5,14.776,14.5,14.5z"/>
	<path fill="#58595B" d="M17.5,14.5c0-0.276-0.224-0.5-0.5-0.5h-1c-0.276,0-0.5,0.224-0.5,0.5S15.724,15,16,15h1
		C17.276,15,17.5,14.776,17.5,14.5z"/>
	<path fill="#58595B" d="M6.5,16h-1C5.224,16,5,16.224,5,16.5S5.224,17,5.5,17h1C6.776,17,7,16.776,7,16.5S6.776,16,6.5,16z"/>
	<path fill="#58595B" d="M9.5,16h-1C8.224,16,8,16.224,8,16.5S8.224,17,8.5,17h1c0.276,0,0.5-0.224,0.5-0.5S9.776,16,9.5,16z"/>
	<path fill="#58595B" d="M12.5,16h-1c-0.276,0-0.5,0.224-0.5,0.5s0.224,0.5,0.5,0.5h1c0.276,0,0.5-0.224,0.5-0.5S12.776,16,12.5,16z
		"/>
	<path fill="#58595B" d="M15.5,16h-1c-0.276,0-0.5,0.224-0.5,0.5s0.224,0.5,0.5,0.5h1c0.276,0,0.5-0.224,0.5-0.5S15.776,16,15.5,16z
		"/>
	<path fill="#58595B" d="M18.5,16h-1c-0.276,0-0.5,0.224-0.5,0.5s0.224,0.5,0.5,0.5h1c0.276,0,0.5-0.224,0.5-0.5S18.776,16,18.5,16z
		"/>
	<path fill="#58595B" d="M14.5,5h2C16.776,5,17,4.776,17,4.5S16.776,4,16.5,4h-2C14.224,4,14,4.224,14,4.5S14.224,5,14.5,5z"/>
	<path fill="#58595B" d="M14.5,7h2C16.776,7,17,6.776,17,6.5S16.776,6,16.5,6h-2C14.224,6,14,6.224,14,6.5S14.224,7,14.5,7z"/>
	<path fill="#58595B" d="M14.5,9H15c0.276,0,0.5-0.224,0.5-0.5S15.276,8,15,8h-0.5C14.224,8,14,8.224,14,8.5S14.224,9,14.5,9z"/>
	<path fill="#58595B" d="M5.5,12h4c0.276,0,0.5-0.224,0.5-0.5v-3C10,8.224,9.776,8,9.5,8h-4C5.224,8,5,8.224,5,8.5v3
		C5,11.776,5.224,12,5.5,12z M6,9h3v2H6V9z"/>
	<path fill="#58595B" d="M13.5,21h-3c-0.276,0-0.5,0.224-0.5,0.5s0.224,0.5,0.5,0.5h3c0.276,0,0.5-0.224,0.5-0.5S13.776,21,13.5,21z
		"/>
</g>
<g id="Frames-24px">
	<rect fill="none" width="24" height="24"/>
</g>
</svg>
