<?xml version="1.0" encoding="utf-8"?>
<!-- Generator: Adobe Illustrator 21.0.2, SVG Export Plug-In . SVG Version: 6.00 Build 0)  -->
<svg version="1.1" xmlns="http://www.w3.org/2000/svg" xmlns:xlink="http://www.w3.org/1999/xlink" x="0px" y="0px"
	 viewBox="0 0 24 24" style="enable-background:new 0 0 24 24;" xml:space="preserve">
<style type="text/css">
	.st0{fill:#58595B;}
	.st1{fill:none;}
</style>
<g id="Black">
	<path class="st0" d="M2.3,13.4l8.7,4.4v2.4l-5.2,2.9c-0.2,0.1-0.3,0.3-0.2,0.6C5.6,23.8,5.8,24,6,24h11c0.2,0,0.4-0.2,0.5-0.4
		c0.1-0.2,0-0.5-0.2-0.6L12,20.2v-2.4l8.7-4.4c0.2-0.1,0.3-0.3,0.3-0.4V4.8c0-0.2-0.1-0.4-0.3-0.5l-9-4.3C11.6,0,11.4,0,11.3,0
		l-9,4.3C2.1,4.4,2,4.6,2,4.8V13C2,13.2,2.1,13.4,2.3,13.4z M8,23l3.5-1.9L15,23H8z M11.5,16.9L3,12.7V8.3l2,1v2.2
		c0,0.2,0.1,0.4,0.3,0.4l6,3c0.1,0,0.1,0.1,0.2,0.1s0.2,0,0.2-0.1l6-3c0.2-0.1,0.3-0.3,0.3-0.4V9.3l2-1v4.4L11.5,16.9z M11.5,1.1
		l8.5,4v2.1l-2.7,1.4C17.1,8.6,17,8.8,17,9v2.2l-5.5,2.8L6,11.2V9c0-0.2-0.1-0.4-0.3-0.4L3,7.2V5.1L11.5,1.1z"/>
</g>
<g id="Frames-24px">
	<rect class="st1" width="24" height="24"/>
</g>
</svg>
