<?xml version="1.0" encoding="utf-8"?>
<!-- Generator: Adobe Illustrator 21.0.2, SVG Export Plug-In . SVG Version: 6.00 Build 0)  -->
<svg version="1.1" xmlns="http://www.w3.org/2000/svg" xmlns:xlink="http://www.w3.org/1999/xlink" x="0px" y="0px" width="24px"
	 height="24px" viewBox="0 0 24 24" enable-background="new 0 0 24 24" xml:space="preserve">
<g id="Black">
	<path fill="#58595B" d="M3.605,19.807C3.7,19.929,3.846,20,4,20h16c0.162,0,0.313-0.078,0.407-0.209l2.5-3.5
		c0.093-0.131,0.118-0.298,0.067-0.449l-1.5-4.5C21.406,11.138,21.215,11,21,11h-2.667l-2.372-5.692C15.884,5.121,15.702,5,15.5,5
		h-5c-0.172,0-0.333,0.089-0.424,0.235L7.723,9H4C3.829,9,3.67,9.087,3.578,9.231l-3.5,5.5c-0.113,0.179-0.103,0.409,0.027,0.575
		L3.605,19.807z M4.274,10H8c0.172,0,0.333-0.089,0.424-0.235L10.777,6h4.389l2.083,5H14.5c-0.276,0-0.5,0.224-0.5,0.5
		s0.224,0.5,0.5,0.5h6.14l1.306,3.917L19.743,19H4.245l-3.134-4.029L4.274,10z"/>
</g>
<g id="Frames-24px">
	<rect fill="none" width="24" height="24"/>
</g>
</svg>
