<?xml version="1.0" encoding="utf-8"?>
<!-- Generator: Adobe Illustrator 21.0.2, SVG Export Plug-In . SVG Version: 6.00 Build 0)  -->
<svg version="1.1" xmlns="http://www.w3.org/2000/svg" xmlns:xlink="http://www.w3.org/1999/xlink" x="0px" y="0px" width="24px"
	 height="24px" viewBox="0 0 24 24" enable-background="new 0 0 24 24" xml:space="preserve">
<g id="Black">
	<path fill="#58595B" d="M0.5,21h22c0.276,0,0.5-0.224,0.5-0.5v-16C23,4.224,22.776,4,22.5,4h-22C0.224,4,0,4.224,0,4.5v16
		C0,20.776,0.224,21,0.5,21z M1,5h21v15H1V5z"/>
	<path fill="#58595B" d="M3.5,12h3C6.776,12,7,11.776,7,11.5v-4C7,7.224,6.776,7,6.5,7h-3C3.224,7,3,7.224,3,7.5v4
		C3,11.776,3.224,12,3.5,12z M4,8h2v3H4V8z"/>
	<path fill="#58595B" d="M5.5,15h-2C3.224,15,3,15.224,3,15.5S3.224,16,3.5,16h2C5.776,16,6,15.776,6,15.5S5.776,15,5.5,15z"/>
	<path fill="#58595B" d="M11.5,15h-4C7.224,15,7,15.224,7,15.5S7.224,16,7.5,16h4c0.276,0,0.5-0.224,0.5-0.5S11.776,15,11.5,15z"/>
	<path fill="#58595B" d="M4.5,17h-1C3.224,17,3,17.224,3,17.5S3.224,18,3.5,18h1C4.776,18,5,17.776,5,17.5S4.776,17,4.5,17z"/>
	<path fill="#58595B" d="M9.5,17h-3C6.224,17,6,17.224,6,17.5S6.224,18,6.5,18h3c0.276,0,0.5-0.224,0.5-0.5S9.776,17,9.5,17z"/>
	<path fill="#58595B" d="M18.854,14.146c-0.195-0.195-0.512-0.195-0.707,0L17,15.293l-1.146-1.146c-0.195-0.195-0.512-0.195-0.707,0
		l-2,2c-0.195,0.195-0.195,0.512,0,0.707l2,2c0.195,0.195,0.512,0.195,0.707,0L17,17.707l1.146,1.146
		C18.244,18.951,18.372,19,18.5,19s0.256-0.049,0.354-0.146l2-2c0.195-0.195,0.195-0.512,0-0.707L18.854,14.146z M16.646,16.646
		L15.5,17.793L14.207,16.5l1.293-1.293l1.146,1.146c0.097,0.097,0.225,0.146,0.352,0.146C16.871,16.5,16.744,16.549,16.646,16.646z
		 M18.5,17.793l-1.146-1.146c-0.097-0.097-0.225-0.146-0.352-0.146c0.127,0,0.255-0.049,0.352-0.146l1.146-1.146l1.293,1.293
		L18.5,17.793z"/>
</g>
<g id="Frames-24px">
	<rect fill="none" width="24" height="24"/>
</g>
</svg>
