<?xml version="1.0" encoding="utf-8"?>
<!-- Generator: Adobe Illustrator 21.0.2, SVG Export Plug-In . SVG Version: 6.00 Build 0)  -->
<svg version="1.1" xmlns="http://www.w3.org/2000/svg" xmlns:xlink="http://www.w3.org/1999/xlink" x="0px" y="0px" width="24px"
	 height="24px" viewBox="0 0 24 24" enable-background="new 0 0 24 24" xml:space="preserve">
<g id="Black">
	<path fill="#58595B" d="M22.745,15.814l-4-2.25c-0.152-0.086-0.338-0.086-0.49,0l-4,2.25C14.098,15.902,14,16.069,14,16.25v4.5
		c0,0.181,0.098,0.348,0.255,0.436l4,2.25c0.076,0.043,0.161,0.064,0.245,0.064s0.169-0.021,0.245-0.064l4-2.25
		C22.902,21.098,23,20.931,23,20.75v-4.5C23,16.069,22.902,15.902,22.745,15.814z M22,20.458l-3.5,1.969L15,20.458v-3.916l3.5-1.969
		l3.5,1.969V20.458z"/>
	<path fill="#58595B" d="M16,18.5c0,0.276,0.224,0.5,0.5,0.5h4c0.276,0,0.5-0.224,0.5-0.5S20.776,18,20.5,18h-4
		C16.224,18,16,18.224,16,18.5z"/>
	<path fill="#58595B" d="M0.038,18.686c0.013,0.031,0.034,0.057,0.053,0.085c0.017,0.026,0.03,0.053,0.051,0.076
		c0.029,0.03,0.066,0.051,0.103,0.073c0.019,0.011,0.032,0.028,0.052,0.037l4.5,2C4.861,20.985,4.93,21,5,21h7.5
		c0.276,0,0.5-0.224,0.5-0.5S12.776,20,12.5,20H5.106L1,18.175V14.27l3.797,1.688C4.861,15.985,4.93,16,5,16h7.5
		c0.276,0,0.5-0.224,0.5-0.5S12.776,15,12.5,15H5.106L1,13.175V9.27l3.797,1.688C4.861,10.985,4.93,11,5,11h8
		c0.07,0,0.139-0.015,0.203-0.043L17,9.27v2.23c0,0.276,0.224,0.5,0.5,0.5s0.5-0.224,0.5-0.5V8.491c0,0,0,0,0-0.001V3.51
		c0,0,0,0,0-0.001V3.5c0-0.007-0.005-0.014-0.005-0.021c-0.003-0.067-0.02-0.131-0.048-0.191c-0.01-0.021-0.024-0.039-0.037-0.059
		c-0.029-0.044-0.064-0.082-0.107-0.115c-0.012-0.009-0.017-0.024-0.03-0.033c-0.009-0.006-0.021-0.005-0.03-0.01
		c-0.014-0.008-0.024-0.021-0.039-0.028l-4.5-2C13.139,1.015,13.07,1,13,1H5C4.93,1,4.861,1.015,4.797,1.043l-4.5,2
		C0.281,3.05,0.272,3.063,0.258,3.071c-0.01,0.005-0.021,0.004-0.03,0.01c-0.013,0.008-0.019,0.023-0.03,0.033
		C0.155,3.147,0.12,3.185,0.091,3.229c-0.013,0.02-0.027,0.037-0.037,0.059c-0.028,0.06-0.045,0.124-0.048,0.191
		C0.005,3.486,0,3.492,0,3.5v15c0,0.024,0.01,0.044,0.013,0.067C0.019,18.607,0.022,18.648,0.038,18.686z M12.894,10H5.106L1,8.175
		V4.27l3.797,1.688C4.861,5.985,4.93,6,5,6h8c0.07,0,0.139-0.015,0.203-0.043L17,4.27v3.905L12.894,10z M5.106,2h7.788l3.375,1.5
		L12.894,5H5.106L1.731,3.5L5.106,2z"/>
</g>
<g id="Frames-24px">
	<rect fill="none" width="24" height="24"/>
</g>
</svg>
