<?xml version="1.0" encoding="utf-8"?>
<!-- Generator: Adobe Illustrator 21.0.2, SVG Export Plug-In . SVG Version: 6.00 Build 0)  -->
<svg version="1.1" xmlns="http://www.w3.org/2000/svg" xmlns:xlink="http://www.w3.org/1999/xlink" x="0px" y="0px" width="24px"
	 height="24px" viewBox="0 0 24 24" enable-background="new 0 0 24 24" xml:space="preserve">
<g id="Black">
	<path fill="#58595B" d="M11.616,12.18L9.266,15H6c-0.154,0-0.3,0.071-0.395,0.193l-3.5,4.5c-0.155,0.199-0.138,0.482,0.041,0.661
		l3.5,3.5C5.74,23.947,5.867,24,6,24h14c0.133,0,0.26-0.053,0.354-0.146l2.5-2.5c0.145-0.145,0.187-0.363,0.106-0.55l-1.5-3.5
		C21.381,17.119,21.2,17,21,17h-2.191l-2.361-4.724C16.362,12.107,16.189,12,16,12h-4C11.852,12,11.711,12.066,11.616,12.18z
		 M15.691,13l2,4H15.5c-0.276,0-0.5,0.224-0.5,0.5s0.224,0.5,0.5,0.5h3h2.17l1.237,2.886L19.793,23H6.207l-3.041-3.042L6.244,16H9.5
		c0.148,0,0.289-0.066,0.384-0.18L12.234,13H15.691z"/>
	<path fill="#58595B" d="M8,3.5v-2C8,1.224,7.776,1,7.5,1S7,1.224,7,1.5v2C7,3.776,7.224,4,7.5,4S8,3.776,8,3.5z"/>
	<path fill="#58595B" d="M11.439,5.439l1.414-1.415c0.195-0.195,0.195-0.512,0-0.707s-0.512-0.195-0.707,0l-1.414,1.415
		c-0.195,0.195-0.195,0.512,0,0.707c0.098,0.098,0.226,0.146,0.354,0.146S11.342,5.537,11.439,5.439z"/>
	<path fill="#58595B" d="M2.146,4.024l1.414,1.415c0.098,0.098,0.226,0.146,0.354,0.146S4.17,5.537,4.268,5.439
		c0.195-0.195,0.195-0.512,0-0.707L2.854,3.317c-0.195-0.195-0.512-0.195-0.707,0S1.951,3.829,2.146,4.024z"/>
	<path fill="#58595B" d="M2.146,15.854C2.244,15.951,2.372,16,2.5,16s0.256-0.049,0.354-0.146l1.414-1.415
		c0.195-0.195,0.195-0.512,0-0.707s-0.512-0.195-0.707,0l-1.414,1.415C1.951,15.342,1.951,15.658,2.146,15.854z"/>
	<path fill="#58595B" d="M0.5,10h2C2.776,10,3,9.776,3,9.5S2.776,9,2.5,9h-2C0.224,9,0,9.224,0,9.5S0.224,10,0.5,10z"/>
	<path fill="#58595B" d="M14.5,9h-2C12.224,9,12,9.224,12,9.5s0.224,0.5,0.5,0.5h2c0.276,0,0.5-0.224,0.5-0.5S14.776,9,14.5,9z"/>
	<path fill="#58595B" d="M4,7.732v3.536c0,0.179,0.096,0.344,0.25,0.433l3,1.732C7.327,13.478,7.414,13.5,7.5,13.5
		s0.173-0.022,0.25-0.067l3-1.732c0.154-0.089,0.25-0.254,0.25-0.433V7.732c0-0.179-0.096-0.344-0.25-0.433l-3-1.732
		c-0.154-0.089-0.346-0.089-0.5,0l-3,1.732C4.096,7.388,4,7.553,4,7.732z M5,8.021l2.5-1.443L10,8.021v2.959l-2.5,1.443L5,10.979
		V8.021z"/>
</g>
<g id="Frames-24px">
	<rect fill="none" width="24" height="24"/>
</g>
</svg>
