<?xml version="1.0" encoding="utf-8"?>
<!-- Generator: Adobe Illustrator 21.0.2, SVG Export Plug-In . SVG Version: 6.00 Build 0)  -->
<svg version="1.1" xmlns="http://www.w3.org/2000/svg" xmlns:xlink="http://www.w3.org/1999/xlink" x="0px" y="0px" width="24px"
	 height="24px" viewBox="0 0 24 24" enable-background="new 0 0 24 24" xml:space="preserve">
<g id="Black">
	<path fill="#58595B" d="M8,22.5c0.097,0,0.193-0.028,0.277-0.084l1.5-1C9.916,21.323,10,21.167,10,21v-1.5
		c0-0.167-0.084-0.323-0.223-0.416l-1.5-1c-0.168-0.111-0.387-0.111-0.555,0l-1.5,1C6.084,19.177,6,19.333,6,19.5V21
		c0,0.167,0.084,0.323,0.223,0.416l1.5,1C7.807,22.472,7.903,22.5,8,22.5z M7,19.768l1-0.667l1,0.667v0.965l-1,0.667l-1-0.667
		V19.768z"/>
	<path fill="#58595B" d="M19,22.5c0.097,0,0.193-0.028,0.277-0.084l1.5-1C20.916,21.323,21,21.167,21,21v-1.5
		c0-0.167-0.084-0.323-0.223-0.416l-1.5-1c-0.168-0.111-0.387-0.111-0.555,0l-1.5,1C17.084,19.177,17,19.333,17,19.5V21
		c0,0.167,0.084,0.323,0.223,0.416l1.5,1C18.807,22.472,18.903,22.5,19,22.5z M18,19.768l1-0.667l1,0.667v0.965l-1,0.667l-1-0.667
		V19.768z"/>
	<path fill="#58595B" d="M20.432,9.248C20.342,9.095,20.178,9,20,9h-4V7.5C16,7.224,15.776,7,15.5,7h-4C11.224,7,11,7.224,11,7.5
		S11.224,8,11.5,8H15v9H3v-4.5C3,12.224,2.776,12,2.5,12S2,12.224,2,12.5v5C2,17.776,2.224,18,2.5,18h13H23v1h-0.5
		c-0.276,0-0.5,0.224-0.5,0.5s0.224,0.5,0.5,0.5h1c0.276,0,0.5-0.224,0.5-0.5v-4c0-0.089-0.023-0.176-0.068-0.252L20.432,9.248z
		 M22.046,14H18v-2h2.88L22.046,14z M16,17v-7h3.713l0.583,1H17.5c-0.276,0-0.5,0.224-0.5,0.5v3c0,0.276,0.224,0.5,0.5,0.5h5.13
		L23,15.635V17H16z"/>
	<path fill="#58595B" d="M15.5,20c0.276,0,0.5-0.224,0.5-0.5S15.776,19,15.5,19h-4c-0.276,0-0.5,0.224-0.5,0.5s0.224,0.5,0.5,0.5
		H15.5z"/>
	<path fill="#58595B" d="M4.5,20C4.776,20,5,19.776,5,19.5S4.776,19,4.5,19h-2C2.224,19,2,19.224,2,19.5S2.224,20,2.5,20H4.5z"/>
	<path fill="#58595B" d="M5.745,1.564c-0.152-0.086-0.338-0.086-0.49,0l-4,2.25C1.098,3.902,1,4.069,1,4.25v4.5
		c0,0.181,0.098,0.348,0.255,0.436l4,2.25C5.331,11.479,5.415,11.5,5.5,11.5s0.169-0.021,0.245-0.064l4-2.25
		C9.902,9.098,10,8.931,10,8.75v-4.5c0-0.181-0.098-0.348-0.255-0.436L5.745,1.564z M9,8.458l-3.5,1.969L2,8.458V4.542l3.5-1.969
		L9,4.542V8.458z"/>
	<path fill="#58595B" d="M5,4.5v3C5,7.776,5.224,8,5.5,8h2C7.776,8,8,7.776,8,7.5S7.776,7,7.5,7H6V4.5C6,4.224,5.776,4,5.5,4
		S5,4.224,5,4.5z"/>
</g>
<g id="Frames-24px">
	<rect fill="none" width="24" height="24"/>
</g>
</svg>
