<?xml version="1.0" encoding="utf-8"?>
<!-- Generator: Adobe Illustrator 21.0.2, SVG Export Plug-In . SVG Version: 6.00 Build 0)  -->
<svg version="1.1" xmlns="http://www.w3.org/2000/svg" xmlns:xlink="http://www.w3.org/1999/xlink" x="0px" y="0px" width="24px"
	 height="24px" viewBox="0 0 24 24" enable-background="new 0 0 24 24" xml:space="preserve">
<g id="Black">
	<path fill="#58595B" d="M23.986,7.428c-0.006-0.039-0.009-0.079-0.024-0.115c-0.001-0.003-0.002-0.007-0.004-0.01
		c0-0.001,0-0.001,0-0.002c-0.006-0.014-0.018-0.023-0.025-0.036c-0.007-0.012-0.016-0.023-0.024-0.035
		c-0.017-0.026-0.03-0.054-0.051-0.076c-0.003-0.003-0.006-0.007-0.01-0.01C23.827,7.122,23.8,7.11,23.776,7.094
		c-0.013-0.009-0.026-0.019-0.04-0.027C23.723,7.06,23.714,7.048,23.7,7.042L23.696,7.04c-0.001,0-0.002-0.001-0.003-0.001
		L15.7,3.542c-0.127-0.056-0.273-0.056-0.4,0l-7.98,3.491C7.318,7.034,7.317,7.035,7.315,7.035L7.307,7.039
		c-0.001,0-0.002,0.001-0.003,0.001L7.3,7.042C7.286,7.048,7.277,7.06,7.264,7.067c-0.008,0.004-0.015,0.01-0.022,0.015
		c-0.031,0.019-0.063,0.035-0.09,0.06C7.148,7.146,7.146,7.149,7.142,7.152C7.121,7.175,7.108,7.203,7.091,7.229
		C7.084,7.239,7.076,7.249,7.069,7.261C7.061,7.275,7.049,7.285,7.042,7.3c0,0.001,0,0.001,0,0.002
		C7.04,7.305,7.039,7.309,7.038,7.312C7.023,7.349,7.02,7.388,7.014,7.428c-0.004,0.023-0.014,0.046-0.014,0.07
		C7.001,7.498,7,7.499,7,7.5v0.006c0,0,0,0.001,0,0.001V17.5c0,0.199,0.118,0.378,0.3,0.458l8,3.5c0.001,0,0.001,0,0.002,0
		c0.061,0.026,0.128,0.042,0.198,0.042s0.137-0.015,0.198-0.042c0.001,0,0.001,0,0.002,0l8-3.5c0.182-0.08,0.3-0.259,0.3-0.458
		V7.507c0,0,0-0.001,0-0.001V7.5c0-0.001-0.001-0.002-0.001-0.003C23.999,7.474,23.989,7.451,23.986,7.428z M15.5,4.546L22.253,7.5
		l-2.787,1.219l-6.723-2.967L15.5,4.546z M15.5,10.454L8.747,7.5l2.752-1.204l6.723,2.967L15.5,10.454z M8,8.264l7,3.062v8.909
		l-7-3.062V8.264z M16,20.235v-8.909l3-1.312V12.5c0,0.276,0.224,0.5,0.5,0.5s0.5-0.224,0.5-0.5V9.577l3-1.312v8.909L16,20.235z"/>
	<path fill="#58595B" d="M5.709,15.046l-4.001-1.848c-0.25-0.114-0.523,0.006-0.639,0.256c-0.115,0.25,0.018,0.558,0.268,0.674
		l3.953,1.826C5.358,15.985,5.43,16,5.5,16c0.189,0,0.37-0.107,0.455-0.291C6.07,15.459,5.96,15.162,5.709,15.046z"/>
	<path fill="#58595B" d="M5.709,11.546l-3.294-1.522c-0.251-0.115-0.547-0.005-0.664,0.245c-0.116,0.25-0.006,0.547,0.245,0.664
		l3.294,1.522C5.358,12.485,5.43,12.5,5.5,12.5c0.189,0,0.37-0.107,0.455-0.291C6.07,11.959,5.96,11.662,5.709,11.546z"/>
	<path fill="#58595B" d="M5.709,8.046L3.074,6.829C2.823,6.713,2.527,6.823,2.411,7.073c-0.116,0.25-0.006,0.547,0.245,0.664
		l2.635,1.217C5.358,8.985,5.43,9,5.5,9c0.189,0,0.37-0.107,0.455-0.291C6.07,8.459,5.96,8.162,5.709,8.046z"/>
</g>
<g id="Frames-24px">
	<rect fill="none" width="24" height="24"/>
</g>
</svg>
