<?xml version="1.0" encoding="utf-8"?>
<!-- Generator: Adobe Illustrator 21.0.2, SVG Export Plug-In . SVG Version: 6.00 Build 0)  -->
<svg version="1.1" xmlns="http://www.w3.org/2000/svg" xmlns:xlink="http://www.w3.org/1999/xlink" x="0px" y="0px"
	 viewBox="0 0 24 24" style="enable-background:new 0 0 24 24;" xml:space="preserve">
<style type="text/css">
	.st0{fill:#58595B;}
	.st1{fill:none;}
</style>
<g id="Black">
	<path class="st0" d="M22.9,2.8C22.9,2.8,22.9,2.8,22.9,2.8c-0.1-0.1-0.1-0.1-0.1-0.2c0,0,0,0,0,0c0,0,0,0-0.1,0c0,0,0,0-0.1,0
		l-8-2.5c-0.1,0-0.2,0-0.3,0l-8,2.5c0,0,0,0-0.1,0c0,0,0,0-0.1,0c0,0,0,0,0,0c-0.1,0-0.1,0.1-0.1,0.1c0,0,0,0,0,0C6,2.8,6,2.9,6,3
		c0,0,0,0,0,0v5.1L1.4,9.5c0,0,0,0-0.1,0c0,0,0,0-0.1,0c0,0,0,0,0,0c-0.1,0-0.1,0.1-0.1,0.1c0,0,0,0,0,0C1,9.8,1,9.9,1,10
		c0,0,0,0,0,0v10c0,0.2,0.1,0.4,0.3,0.5l8,3.5c0.1,0,0.1,0,0.2,0s0.1,0,0.2,0l8-3.5c0.2-0.1,0.3-0.3,0.3-0.5v-4.7l4.7-1.9
		c0.2-0.1,0.3-0.3,0.3-0.5V3c0,0,0,0,0,0C23,2.9,23,2.8,22.9,2.8z M14.5,1L21,3l-6.5,2.4L8,3L14.5,1z M9.5,12.5L3,10l6.5-2l6.5,2
		L9.5,12.5z M7,3.7l7,2.6v2L9.6,7C9.6,7,9.4,7,9.4,7L7,7.8V3.7z M2,10.7l7,2.6v9.4l-7-3.1V10.7z M17,19.7l-7,3.1v-9.4l7-2.6V19.7z
		 M22,12.7l-4,1.6V10c0,0,0,0,0,0c0-0.1,0-0.1,0-0.2c0,0,0,0,0,0c0-0.1-0.1-0.1-0.1-0.1c0,0,0,0,0,0c0,0,0,0-0.1,0c0,0,0,0-0.1,0
		L15,8.7V6.3l7-2.6V12.7z"/>
	<path class="st0" d="M4.1,13.6c0,0-0.1-0.1-0.1-0.1s-0.1,0-0.1,0.1l-0.8,0.8c-0.1,0.1-0.1,0.2,0,0.3l0.8,0.8c0,0,0.1,0.1,0.1,0.1
		s0.1,0,0.1-0.1l0.8-0.8c0.1-0.1,0.1-0.2,0-0.3L4.1,13.6z"/>
	<path class="st0" d="M7.1,18.6c0,0-0.1-0.1-0.1-0.1s-0.1,0-0.1,0.1l-0.8,0.8c-0.1,0.1-0.1,0.2,0,0.3l0.8,0.8c0,0,0.1,0.1,0.1,0.1
		s0.1,0,0.1-0.1l0.8-0.8c0.1-0.1,0.1-0.2,0-0.3L7.1,18.6z"/>
	<path class="st0" d="M11.9,20.4c0,0,0.1,0.1,0.1,0.1c0.1,0,0.1,0,0.1-0.1l0.8-0.8c0.1-0.1,0.1-0.2,0-0.3l-0.8-0.8
		c0,0-0.1-0.1-0.1-0.1c-0.1,0-0.1,0-0.1,0.1l-0.8,0.8c-0.1,0.1-0.1,0.2,0,0.3L11.9,20.4z"/>
	<path class="st0" d="M13.4,17.9c0,0,0.1,0.1,0.1,0.1c0.1,0,0.1,0,0.1-0.1l0.8-0.8c0.1-0.1,0.1-0.2,0-0.3l-0.8-0.8
		c0,0-0.1-0.1-0.1-0.1c-0.1,0-0.1,0-0.1,0.1l-0.8,0.8c-0.1,0.1-0.1,0.2,0,0.3L13.4,17.9z"/>
	<path class="st0" d="M14.9,15.4c0,0,0.1,0.1,0.1,0.1s0.1,0,0.1-0.1l0.8-0.8c0.1-0.1,0.1-0.2,0-0.3l-0.8-0.8c0,0-0.1-0.1-0.1-0.1
		s-0.1,0-0.1,0.1l-0.8,0.8c-0.1,0.1-0.1,0.2,0,0.3L14.9,15.4z"/>
	<path class="st0" d="M10.4,9.9L9.6,9.1C9.6,9,9.6,9,9.5,9C9.4,9,9.4,9,9.4,9.1L8.6,9.9c-0.1,0.1-0.1,0.2,0,0.3l0.8,0.8
		c0,0,0.1,0.1,0.1,0.1c0.1,0,0.1,0,0.1-0.1l0.8-0.8C10.5,10.1,10.5,9.9,10.4,9.9z"/>
	<path class="st0" d="M13.6,3.1l0.8,0.8c0,0,0.1,0.1,0.1,0.1c0.1,0,0.1,0,0.1-0.1l0.8-0.8c0.1-0.1,0.1-0.2,0-0.3l-0.8-0.8
		c0,0-0.1-0.1-0.1-0.1c-0.1,0-0.1,0-0.1,0.1l-0.8,0.8C13.5,2.9,13.5,3.1,13.6,3.1z"/>
	<path class="st0" d="M19.9,7.4c0,0,0.1,0.1,0.1,0.1s0.1,0,0.1-0.1l0.8-0.8c0.1-0.1,0.1-0.2,0-0.3l-0.8-0.8c0,0-0.1-0.1-0.1-0.1
		s-0.1,0-0.1,0.1l-0.8,0.8c-0.1,0.1-0.1,0.2,0,0.3L19.9,7.4z"/>
	<path class="st0" d="M19.9,11.9c0,0,0.1,0.1,0.1,0.1s0.1,0,0.1-0.1l0.8-0.8c0.1-0.1,0.1-0.2,0-0.3l-0.8-0.8c0,0-0.1-0.1-0.1-0.1
		s-0.1,0-0.1,0.1l-0.8,0.8c-0.1,0.1-0.1,0.2,0,0.3L19.9,11.9z"/>
</g>
<g id="Frames-24px">
	<rect class="st1" width="24" height="24"/>
</g>
</svg>
