<?xml version="1.0" encoding="utf-8"?>
<!-- Generator: Adobe Illustrator 21.0.2, SVG Export Plug-In . SVG Version: 6.00 Build 0)  -->
<svg version="1.1" xmlns="http://www.w3.org/2000/svg" xmlns:xlink="http://www.w3.org/1999/xlink" x="0px" y="0px"
	 viewBox="0 0 24 24" style="enable-background:new 0 0 24 24;" xml:space="preserve">
<style type="text/css">
	.st0{fill:#58595B;}
	.st1{fill:none;}
</style>
<g id="Black">
	<path class="st0" d="M21.4,1.2C21.3,1.1,21.2,1,21,1H10.5c0,0,0,0,0,0c0,0,0,0,0,0c-0.1,0-0.1,0-0.2,0.1c0,0,0,0,0,0l-3,2
		C7.1,3.2,7,3.3,7,3.5v0.1L3.4,4.5C3.2,4.6,3,4.8,3,5H0.5C0.2,5,0,5.2,0,5.5S0.2,6,0.5,6H3c0,0.2,0.2,0.4,0.4,0.5L7,7.4v0.1
		c0,0.2,0.1,0.3,0.2,0.4l3,2c0,0,0,0,0,0c0.1,0,0.2,0.1,0.2,0.1h0.9l1.2,2.7c0.1,0.2,0.3,0.3,0.5,0.3h3v1.7L12.8,17h-1.3
		c-0.2,0-0.3,0.1-0.4,0.2l-1.5,2c0,0,0,0,0,0c-0.1,0.1-0.1,0.2-0.1,0.3s0,0.2,0.1,0.3c0,0,0,0,0,0l3,4c0.1,0.1,0.2,0.2,0.4,0.2h7.5
		c0.2,0,0.4-0.1,0.5-0.3l1.5-4c0,0,0,0,0,0l0,0c0,0,0,0,0,0c0,0,0-0.1,0-0.1c0,0,0,0,0,0c0,0,0,0,0-0.1c0-0.1,0-0.1-0.1-0.1
		c0,0,0,0,0,0L21,17.3L19.7,10H21c0.2,0,0.3-0.1,0.4-0.2l2.5-4c0.1-0.2,0.1-0.4,0-0.5L21.4,1.2z M4,5.6V5.4l3-0.8v1.7L4,5.6z M8,3.8
		l2-1.3v6.1L8,7.2V3.8z M12.5,10h1.2l1.7,2h-2.1L12.5,10z M11.8,18h8.5l0.7,1H11L11.8,18z M20.2,23h-6.9L11,20h10.3L20.2,23z
		 M19.9,17h-5.3l2.2-1.6c0.1-0.1,0.2-0.2,0.2-0.4v-2.5c0-0.1,0-0.1,0-0.2c0,0,0,0,0-0.1c0,0,0-0.1,0-0.1L15,10h3.7L19.9,17z M20.7,9
		H11V2h9.7l2.2,3.5L20.7,9z"/>
	<path class="st0" d="M19.5,4C19.2,4,19,4.2,19,4.5v2C19,6.8,19.2,7,19.5,7S20,6.8,20,6.5v-2C20,4.2,19.8,4,19.5,4z"/>
	<path class="st0" d="M17.5,4C17.2,4,17,4.2,17,4.5v2C17,6.8,17.2,7,17.5,7S18,6.8,18,6.5v-2C18,4.2,17.8,4,17.5,4z"/>
	<path class="st0" d="M15.5,4C15.2,4,15,4.2,15,4.5v2C15,6.8,15.2,7,15.5,7S16,6.8,16,6.5v-2C16,4.2,15.8,4,15.5,4z"/>
</g>
<g id="Frames-24px">
	<rect class="st1" width="24" height="24"/>
</g>
</svg>
