<?xml version="1.0" encoding="utf-8"?>
<!-- Generator: Adobe Illustrator 21.0.2, SVG Export Plug-In . SVG Version: 6.00 Build 0)  -->
<svg version="1.1" xmlns="http://www.w3.org/2000/svg" xmlns:xlink="http://www.w3.org/1999/xlink" x="0px" y="0px"
	 viewBox="0 0 24 24" style="enable-background:new 0 0 24 24;" xml:space="preserve">
<style type="text/css">
	.st0{fill:#58595B;}
	.st1{fill:none;}
</style>
<g id="Black">
	<path class="st0" d="M0.5,24h3C3.8,24,4,23.8,4,23.5V23h5c0,0,0.1,0,0.1,0l8-2c0.1,0,0.2-0.1,0.3-0.2l1.5-2c0.1-0.2,0.1-0.4,0-0.5
		c-0.1-0.2-0.3-0.3-0.4-0.3H9v-3.5C9,14.2,8.8,14,8.5,14h-1c-0.2,0-0.3,0.1-0.4,0.2L4.7,18H4v-0.5C4,17.2,3.8,17,3.5,17h-3
		C0.2,17,0,17.2,0,17.5v6C0,23.8,0.2,24,0.5,24z M5,19c0.2,0,0.3-0.1,0.4-0.2L7.8,15H8v3.5C8,18.8,8.2,19,8.5,19h9l-0.8,1.1L8.9,22
		H4v-3H5z M1,18h2v5H1V18z"/>
	<path class="st0" d="M23.7,1.6c-0.2-0.1-0.4-0.1-0.5,0L21.3,3h-2.1c-0.1,0-0.3,0.1-0.4,0.2l-3.3,3.5c-0.1,0.1-0.1,0.3-0.1,0.4
		l0.5,3.3l-2.5,2.5L12,11.3l0.5-4.3c0-0.1,0-0.3-0.1-0.4l-4-4.5C8.3,2.1,8.1,2,8,2H5.7L2.8,0.1C2.6,0,2.4,0,2.3,0.1
		C2.1,0.1,2,0.3,2,0.5V8c0,0.1,0.1,0.3,0.2,0.4l4.5,4c0.1,0.1,0.2,0.1,0.3,0.1c0,0,0,0,0.1,0l4.3-0.5l1.7,1.7v2.8
		c0,0.3,0.2,0.5,0.5,0.5s0.5-0.2,0.5-0.5v-2.8l2.7-2.7l3.3,0.5c0,0,0,0,0.1,0c0.1,0,0.2,0,0.3-0.1l3.5-3C23.9,8.3,24,8.1,24,8V2
		C24,1.8,23.9,1.6,23.7,1.6z M7.2,11.5L3,7.8V1.4l2.2,1.5C5.3,3,5.4,3,5.5,3h2.3l3.7,4.2l-0.4,3.3L7.2,6.5C7,6.3,6.7,6.3,6.5,6.5
		S6.3,7,6.5,7.2l3.9,3.9L7.2,11.5z M23,7.8l-3.2,2.7l-2.3-0.3l2.8-2.8c0.2-0.2,0.2-0.5,0-0.7s-0.5-0.2-0.7,0l-2.8,2.8l-0.3-2.3
		L19.5,4h2c0.1,0,0.2,0,0.3-0.1L23,3V7.8z"/>
</g>
<g id="Frames-24px">
	<rect class="st1" width="24" height="24"/>
</g>
</svg>
