<?xml version="1.0" encoding="utf-8"?>
<!-- Generator: Adobe Illustrator 21.0.2, SVG Export Plug-In . SVG Version: 6.00 Build 0)  -->
<svg version="1.1" xmlns="http://www.w3.org/2000/svg" xmlns:xlink="http://www.w3.org/1999/xlink" x="0px" y="0px" width="24px"
	 height="24px" viewBox="0 0 24 24" enable-background="new 0 0 24 24" xml:space="preserve">
<g id="Black">
	<path fill="#58595B" d="M0.5,16h5C5.776,16,6,15.776,6,15.5S5.776,15,5.5,15h-5C0.224,15,0,15.224,0,15.5S0.224,16,0.5,16z"/>
	<path fill="#58595B" d="M2.5,13H6c0.276,0,0.5-0.224,0.5-0.5S6.276,12,6,12H2.5C2.224,12,2,12.224,2,12.5S2.224,13,2.5,13z"/>
	<path fill="#58595B" d="M4.5,10h2C6.776,10,7,9.776,7,9.5S6.776,9,6.5,9h-2C4.224,9,4,9.224,4,9.5S4.224,10,4.5,10z"/>
	<path fill="#58595B" d="M7.5,18h15c0.257,0,0.472-0.195,0.498-0.45l1-10c0.001-0.012-0.004-0.024-0.004-0.036
		c0.001-0.054-0.001-0.107-0.018-0.16c-0.008-0.027-0.025-0.048-0.038-0.073c-0.016-0.031-0.025-0.065-0.048-0.093
		c-0.003-0.004-0.009-0.006-0.012-0.01c-0.003-0.004-0.004-0.009-0.008-0.013c-0.017-0.018-0.04-0.027-0.059-0.043
		c-0.031-0.025-0.06-0.051-0.094-0.068c-0.024-0.012-0.05-0.016-0.076-0.024c-0.039-0.012-0.076-0.023-0.117-0.025
		C23.516,7.005,23.509,7,23.5,7h-15C8.49,7,8.481,7.005,8.472,7.005C8.443,7.007,8.416,7.015,8.388,7.021
		C8.354,7.029,8.321,7.037,8.289,7.052C8.265,7.063,8.245,7.078,8.223,7.093c-0.031,0.021-0.059,0.043-0.084,0.07
		C8.129,7.173,8.118,7.177,8.11,7.188C8.1,7.2,8.097,7.215,8.089,7.228c-0.02,0.03-0.036,0.061-0.049,0.095
		C8.029,7.351,8.021,7.378,8.015,7.407C8.012,7.422,8.004,7.435,8.002,7.45l-1,10c-0.014,0.141,0.032,0.281,0.127,0.385
		C7.224,17.94,7.359,18,7.5,18z M22.048,17H8.052l0.853-8.535l6.782,5.425C15.779,13.963,15.889,14,16,14s0.221-0.037,0.312-0.109
		l6.572-5.258L22.048,17z M9.926,8h12.149L16,12.86L9.926,8z"/>
</g>
<g id="Frames-24px">
	<rect fill="none" width="24" height="24"/>
</g>
</svg>
