<?xml version="1.0" encoding="utf-8"?>
<!-- Generator: Adobe Illustrator 21.0.2, SVG Export Plug-In . SVG Version: 6.00 Build 0)  -->
<svg version="1.1" xmlns="http://www.w3.org/2000/svg" xmlns:xlink="http://www.w3.org/1999/xlink" x="0px" y="0px" width="24px"
	 height="24px" viewBox="0 0 24 24" enable-background="new 0 0 24 24" xml:space="preserve">
<g id="Black">
	<path fill="#58595B" d="M13,14.5c0,0.276,0.224,0.5,0.5,0.5s0.5-0.224,0.5-0.5v-3c0-0.157-0.074-0.306-0.2-0.4l-2-1.5
		c-0.178-0.134-0.422-0.134-0.6,0l-2,1.5C9.074,11.194,9,11.343,9,11.5v3C9,14.776,9.224,15,9.5,15s0.5-0.224,0.5-0.5v-2.75
		l1.5-1.125L13,11.75V14.5z"/>
	<path fill="#58595B" d="M13,23h2c0.133,0,0.26-0.053,0.354-0.146l3-3c0.195-0.195,0.195-0.512,0-0.707s-0.512-0.195-0.707,0
		L14.793,22h-1.586L10,18.793V16.5c0-0.276-0.224-0.5-0.5-0.5S9,16.224,9,16.5V19c0,0.133,0.053,0.26,0.146,0.354l3.5,3.5
		C12.74,22.947,12.867,23,13,23z"/>
	<path fill="#58595B" d="M7.5,14C7.776,14,8,13.776,8,13.5v-2C8,11.224,7.776,11,7.5,11S7,11.224,7,11.5v2C7,13.776,7.224,14,7.5,14
		z"/>
	<path fill="#58595B" d="M8.6,9.675c0.165,0.221,0.479,0.266,0.7,0.1l2.184-1.638l2.696,2.247c0.094,0.078,0.207,0.116,0.32,0.116
		c0.144,0,0.286-0.061,0.385-0.18c0.177-0.212,0.148-0.528-0.064-0.705l-3-2.5C11.642,6.967,11.385,6.961,11.2,7.1L8.7,8.975
		C8.479,9.141,8.434,9.454,8.6,9.675z"/>
	<path fill="#58595B" d="M12,13.5c0-0.276-0.224-0.5-0.5-0.5S11,13.224,11,13.5v1c0,0.276,0.224,0.5,0.5,0.5s0.5-0.224,0.5-0.5V13.5
		z"/>
	<path fill="#58595B" d="M15,15.5c0,0.276,0.224,0.5,0.5,0.5s0.5-0.224,0.5-0.5v-1c0-0.276-0.224-0.5-0.5-0.5S15,14.224,15,14.5
		V15.5z"/>
	<path fill="#58595B" d="M15.5,13c0.276,0,0.5-0.224,0.5-0.5v-1c0-0.276-0.224-0.5-0.5-0.5S15,11.224,15,11.5v1
		C15,12.776,15.224,13,15.5,13z"/>
	<path fill="#58595B" d="M16.5,19c0.276,0,0.5-0.224,0.5-0.5S16.776,18,16.5,18h-1.25l-1.35-1.8c-0.166-0.222-0.479-0.266-0.7-0.1
		c-0.221,0.166-0.266,0.479-0.1,0.7l1.5,2c0.094,0.126,0.243,0.2,0.4,0.2H16.5z"/>
	<path fill="#58595B" d="M9.146,22.354C9.244,22.451,9.372,22.5,9.5,22.5s0.256-0.049,0.354-0.146c0.195-0.195,0.195-0.512,0-0.707
		L8,19.793V15.5C8,15.224,7.776,15,7.5,15S7,15.224,7,15.5V20c0,0.133,0.053,0.26,0.146,0.354L9.146,22.354z"/>
	<path fill="#58595B" d="M5.5,15C5.776,15,6,14.776,6,14.5v-1C6,13.224,5.776,13,5.5,13S5,13.224,5,13.5v1C5,14.776,5.224,15,5.5,15
		z"/>
	<path fill="#58595B" d="M5,18.5C5,18.776,5.224,19,5.5,19S6,18.776,6,18.5v-2C6,16.224,5.776,16,5.5,16S5,16.224,5,16.5V18.5z"/>
	<path fill="#58595B" d="M5,9.5v2C5,11.776,5.224,12,5.5,12S6,11.776,6,11.5V9.757l3.291-2.351c0.225-0.16,0.277-0.473,0.116-0.697
		C9.246,6.484,8.934,6.432,8.709,6.593l-3.5,2.5C5.078,9.187,5,9.338,5,9.5z"/>
	<path fill="#58595B" d="M12.329,4.624c-0.17-0.149-0.418-0.165-0.606-0.04l-1.5,1c-0.23,0.153-0.292,0.463-0.139,0.693
		c0.153,0.229,0.462,0.291,0.693,0.139l1.182-0.788l3.712,3.248C15.766,8.959,15.883,9,16,9c0.139,0,0.277-0.058,0.376-0.171
		c0.182-0.208,0.161-0.523-0.047-0.706L12.329,4.624z"/>
	<path fill="#58595B" d="M17.5,14c0.276,0,0.5-0.224,0.5-0.5v-3c0-0.276-0.224-0.5-0.5-0.5S17,10.224,17,10.5v3
		C17,13.776,17.224,14,17.5,14z"/>
	<path fill="#58595B" d="M17,16c0,0.276,0.224,0.5,0.5,0.5S18,16.276,18,16v-0.5c0-0.276-0.224-0.5-0.5-0.5S17,15.224,17,15.5V16z"
		/>
	<path fill="#58595B" d="M13.6,20.8c0.094,0.126,0.243,0.2,0.4,0.2h0.5c0.276,0,0.5-0.224,0.5-0.5S14.776,20,14.5,20h-0.25
		l-1.35-1.8c-0.166-0.222-0.479-0.267-0.7-0.1c-0.221,0.166-0.266,0.479-0.1,0.7L13.6,20.8z"/>
	<path fill="#58595B" d="M11.5,16c-0.276,0-0.5,0.224-0.5,0.5v1c0,0.276,0.224,0.5,0.5,0.5s0.5-0.224,0.5-0.5v-1
		C12,16.224,11.776,16,11.5,16z"/>
	<path fill="#58595B" d="M7,6.53c0.1,0,0.2-0.03,0.288-0.091l1-0.706c0.226-0.159,0.28-0.471,0.121-0.697
		C8.25,4.81,7.938,4.757,7.712,4.915l-1,0.706C6.486,5.78,6.432,6.092,6.591,6.318C6.689,6.456,6.843,6.53,7,6.53z"/>
	<path fill="#58595B" d="M10.788,3.967l1.187-0.837l2.705,2.254C14.773,5.462,14.887,5.5,15,5.5c0.144,0,0.286-0.061,0.385-0.18
		c0.177-0.212,0.148-0.528-0.064-0.705l-3-2.5c-0.175-0.144-0.424-0.154-0.608-0.024l-1.5,1.059
		c-0.226,0.159-0.28,0.471-0.121,0.697S10.563,4.126,10.788,3.967z"/>
	<path fill="#58595B" d="M3.5,20C3.776,20,4,19.776,4,19.5v-8.993c0-0.001-0.001-0.002-0.001-0.003S4,10.501,4,10.5V8.759
		l1.789-1.262C6.014,7.338,6.068,7.026,5.909,6.8C5.75,6.575,5.438,6.521,5.212,6.68l-2,1.412C3.079,8.185,3,8.337,3,8.5v2
		c0,0.001,0.001,0.002,0.001,0.003S3,10.506,3,10.507V19.5C3,19.776,3.224,20,3.5,20z"/>
	<path fill="#58595B" d="M5.146,20.854l1,1.001c0.098,0.098,0.226,0.146,0.354,0.146s0.256-0.049,0.354-0.146
		c0.195-0.195,0.195-0.512,0-0.707l-1-1.001c-0.195-0.195-0.512-0.195-0.707,0S4.951,20.658,5.146,20.854z"/>
	<path fill="#58595B" d="M19,9.707V12.5c0,0.276,0.224,0.5,0.5,0.5s0.5-0.224,0.5-0.5v-3c0-0.133-0.053-0.26-0.146-0.354
		L16.65,5.943c-0.195-0.195-0.512-0.195-0.707,0s-0.195,0.512,0,0.707L19,9.707z"/>
	<path fill="#58595B" d="M19.5,14c-0.276,0-0.5,0.224-0.5,0.5v3c0,0.276,0.224,0.5,0.5,0.5s0.5-0.224,0.5-0.5v-3
		C20,14.224,19.776,14,19.5,14z"/>
</g>
<g id="Frames-24px">
	<rect fill="none" width="24" height="24"/>
</g>
</svg>
