<?xml version="1.0" encoding="utf-8"?>
<!-- Generator: Adobe Illustrator 21.0.2, SVG Export Plug-In . SVG Version: 6.00 Build 0)  -->
<svg version="1.1" xmlns="http://www.w3.org/2000/svg" xmlns:xlink="http://www.w3.org/1999/xlink" x="0px" y="0px"
	 viewBox="0 0 24 24" style="enable-background:new 0 0 24 24;" xml:space="preserve">
<style type="text/css">
	.st0{fill:#58595B;}
	.st1{fill:none;}
</style>
<g id="Black">
	<path class="st0" d="M3.5,24H18c0.1,0,0.3-0.1,0.4-0.1l2.5-2.5c0.1-0.1,0.1-0.2,0.1-0.4V0.5C21,0.2,20.8,0,20.5,0h-17
		C3.2,0,3,0.2,3,0.5v23C3,23.8,3.2,24,3.5,24z M4,1h16v19.8L17.8,23H4V1z"/>
	<path class="st0" d="M17.9,12.9c0.1-0.1,0.1-0.2,0.1-0.4v-9C18,3.2,17.8,3,17.5,3h-11C6.2,3,6,3.2,6,3.5v11C6,14.8,6.2,15,6.5,15h9
		c0.1,0,0.3-0.1,0.4-0.1L17.9,12.9z M15.3,14H7V4h10v8.3L15.3,14z"/>
	<path class="st0" d="M10.5,19H9v-1.5C9,17.2,8.8,17,8.5,17S8,17.2,8,17.5V19H6.5C6.2,19,6,19.2,6,19.5S6.2,20,6.5,20H8v1.5
		C8,21.8,8.2,22,8.5,22S9,21.8,9,21.5V20h1.5c0.3,0,0.5-0.2,0.5-0.5S10.8,19,10.5,19z"/>
	<path class="st0" d="M13.7,19.6c-0.1-0.1-0.1-0.1-0.2-0.1s-0.1,0-0.2,0.1l-0.7,0.7c-0.1,0.1-0.1,0.3,0,0.4l0.7,0.7
		c0.1,0.1,0.1,0.1,0.2,0.1s0.1,0,0.2-0.1l0.7-0.7c0.1-0.1,0.1-0.3,0-0.4L13.7,19.6z"/>
	<path class="st0" d="M16.7,17.6c-0.1-0.1-0.1-0.1-0.2-0.1s-0.1,0-0.2,0.1l-0.7,0.7c-0.1,0.1-0.1,0.3,0,0.4l0.7,0.7
		c0.1,0.1,0.1,0.1,0.2,0.1s0.1,0,0.2-0.1l0.7-0.7c0.1-0.1,0.1-0.3,0-0.4L16.7,17.6z"/>
</g>
<g id="Frames-24px">
	<rect class="st1" width="24" height="24"/>
</g>
</svg>
