<?xml version="1.0" encoding="utf-8"?>
<!-- Generator: Adobe Illustrator 21.0.2, SVG Export Plug-In . SVG Version: 6.00 Build 0)  -->
<svg version="1.1" xmlns="http://www.w3.org/2000/svg" xmlns:xlink="http://www.w3.org/1999/xlink" x="0px" y="0px"
	 viewBox="0 0 24 24" style="enable-background:new 0 0 24 24;" xml:space="preserve">
<style type="text/css">
	.st0{fill:#58595B;}
	.st1{fill:none;}
</style>
<g id="Black">
	<path class="st0" d="M19.6,20.8c0.1,0.2,0.3,0.2,0.4,0.2c0.1,0,0.2,0,0.3-0.1c0.2-0.1,0.3-0.4,0.2-0.7l-1.5-2.5
		c0,0-0.1-0.1-0.1-0.1c0,0,0,0,0,0l-2.5-2c-0.1-0.1-0.1-0.1-0.2-0.1l-5.2-0.9L9.1,3.2l1.3,0.3c0,0,0.1,0,0.1,0
		c0.2,0,0.4-0.2,0.5-0.4c0.1-0.3-0.1-0.5-0.4-0.6L8.9,2.1L8.5,0.4C8.4,0.1,8.1-0.1,7.9,0C7.6,0.1,7.4,0.4,7.5,0.6l0.4,1.5L6.5,2.5
		L6,0.8C5.9,0.6,5.6,0.4,5.3,0.5C5.1,0.6,4.9,0.9,5,1.2l0.5,1.6L2.4,3.5C2.2,3.6,2,3.8,2,4c0,0.2,0.1,0.4,0.4,0.5l5,1.4L5.5,16.9
		c0,0.1,0,0.2,0,0.3l1.9,4.2l-1.3,1.8c-0.2,0.2-0.1,0.5,0.1,0.7C6.3,24,6.4,24,6.5,24c0.2,0,0.3-0.1,0.4-0.2l1-1.4l0.6,1.3
		C8.6,23.9,8.8,24,9,24c0.1,0,0.2,0,0.2-0.1c0.2-0.1,0.3-0.4,0.2-0.7L8.8,22h7.4l-0.6,1.3c-0.1,0.2,0,0.5,0.2,0.7
		c0.1,0,0.1,0.1,0.2,0.1c0.2,0,0.4-0.1,0.4-0.3l0.6-1.3l1,1.4c0.1,0.1,0.2,0.2,0.4,0.2c0.1,0,0.2,0,0.3-0.1c0.2-0.2,0.3-0.5,0.1-0.7
		l-1.3-1.8l1-2.3L19.6,20.8z M4.5,4l3.4-0.8L7.6,4.9L4.5,4z M16.7,21H8.3l-1.8-4.1L8.5,5.7c0,0,0-0.1,0-0.1c0,0,0,0,0,0l1.5,9.5
		c0,0.2,0.2,0.4,0.4,0.4l5.4,1l2.1,1.7L16.7,21z"/>
	<path class="st0" d="M9.3,16.3l-0.5-0.5c-0.2-0.2-0.5-0.2-0.7,0s-0.2,0.5,0,0.7L8.6,17c0.1,0.1,0.2,0.1,0.4,0.1s0.3,0,0.4-0.1
		C9.5,16.8,9.5,16.5,9.3,16.3z"/>
	<path class="st0" d="M12.4,16.9c-0.2-0.2-0.5-0.2-0.7,0s-0.2,0.5,0,0.7l0.5,0.5c0.1,0.1,0.2,0.1,0.4,0.1s0.3,0,0.4-0.1
		c0.2-0.2,0.2-0.5,0-0.7L12.4,16.9z"/>
	<path class="st0" d="M15.2,18.1c-0.2-0.2-0.5-0.2-0.7,0s-0.2,0.5,0,0.7l0.5,0.5c0.1,0.1,0.2,0.1,0.4,0.1s0.3,0,0.4-0.1
		c0.2-0.2,0.2-0.5,0-0.7L15.2,18.1z"/>
	<path class="st0" d="M10.1,18.1c-0.2-0.2-0.5-0.2-0.7,0s-0.2,0.5,0,0.7l0.5,0.5c0.1,0.1,0.2,0.1,0.4,0.1s0.3,0,0.4-0.1
		c0.2-0.2,0.2-0.5,0-0.7L10.1,18.1z"/>
	<path class="st0" d="M8.8,14c0.1,0,0.3,0,0.4-0.1c0.2-0.2,0.2-0.5,0-0.7l-0.5-0.5c-0.2-0.2-0.5-0.2-0.7,0s-0.2,0.5,0,0.7l0.5,0.5
		C8.5,14,8.6,14,8.8,14z"/>
</g>
<g id="Frames-24px">
	<rect class="st1" width="24" height="24"/>
</g>
</svg>
