<?xml version="1.0" encoding="utf-8"?>
<!-- Generator: Adobe Illustrator 21.0.2, SVG Export Plug-In . SVG Version: 6.00 Build 0)  -->
<svg version="1.1" xmlns="http://www.w3.org/2000/svg" xmlns:xlink="http://www.w3.org/1999/xlink" x="0px" y="0px"
	 viewBox="0 0 24 24" style="enable-background:new 0 0 24 24;" xml:space="preserve">
<style type="text/css">
	.st0{fill:#58595B;}
	.st1{fill:none;}
</style>
<g id="Black">
	<path class="st0" d="M20.8,3.5c-0.1-0.1-0.2-0.2-0.3-0.3L12.2,0c-0.1,0-0.2,0-0.4,0L3.5,3.2C3.4,3.3,3.3,3.4,3.2,3.5L0,11.8
		c0,0.1,0,0.2,0,0.4l3.2,8.3c0.1,0.1,0.2,0.2,0.3,0.3l8.3,3.2c0.1,0,0.1,0,0.2,0s0.1,0,0.2,0l8.3-3.2c0.1-0.1,0.2-0.2,0.3-0.3
		l3.2-8.3c0-0.1,0-0.2,0-0.4L20.8,3.5z M15.9,4.2l0.7-1.4l1.8,0.7h-0.9C17.2,3.5,17,3.7,17,4v0.8L16.2,6H15V4.5h0.5
		C15.7,4.5,15.9,4.4,15.9,4.2z M1,12l3-7.9l2.7-1L5.5,6.8c-0.1,0.3,0,0.5,0.3,0.6L8,8.3v2.4l-1.5,0.8L6,11.2V9.5
		c0-0.2-0.1-0.4-0.3-0.4C5.6,9,5.4,9,5.2,9.1l-2,1.5C3.1,10.7,3,10.8,3,11v2.5c0,0.1,0,0.2,0.1,0.3l1.5,2C4.7,15.9,4.8,16,5,16h3.7
		l2.2,3l-1.6,2.9l-5.2-2L1,12z M12,23l-1.8-0.7l1.7-3c0.1-0.2,0.1-0.4,0-0.5l-2.5-3.5C9.3,15.1,9.2,15,9,15H5.3L4,13.3v-2.1l1-0.8v1
		c0,0.2,0.1,0.4,0.3,0.4l1,0.5c0.1,0.1,0.3,0.1,0.4,0l2-1C8.9,11.4,9,11.2,9,11V8c0-0.2-0.1-0.4-0.3-0.5L6.6,6.7L8,2.6L12,1l3.7,1.4
		l-0.5,1h-0.7C14.2,3.5,14,3.7,14,4v2.5C14,6.8,14.2,7,14.5,7h2c0.2,0,0.3-0.1,0.4-0.2l1-1.5C18,5.2,18,5.1,18,5V4.5h2.1L21.8,9
		h-2.6l-0.9-0.9C18.3,8.1,18.1,8,18,8h-3c-0.2,0-0.3,0.1-0.4,0.2l-2,3.3c-0.1,0.2-0.1,0.3,0,0.5l2,3.8c0.1,0.2,0.3,0.3,0.4,0.3h4
		v4.3L12,23z M20,19.7v-4.2c0-0.3-0.2-0.5-0.5-0.5h-4.2l-1.7-3.2L15.3,9h2.5l0.9,0.9C18.7,9.9,18.9,10,19,10h3.2l0.8,2L20,19.7z"/>
</g>
<g id="Frames-24px">
	<rect class="st1" width="24" height="24"/>
</g>
</svg>
