<?xml version="1.0" encoding="utf-8"?>
<!-- Generator: Adobe Illustrator 21.0.2, SVG Export Plug-In . SVG Version: 6.00 Build 0)  -->
<svg version="1.1" xmlns="http://www.w3.org/2000/svg" xmlns:xlink="http://www.w3.org/1999/xlink" x="0px" y="0px"
	 viewBox="0 0 24 24" style="enable-background:new 0 0 24 24;" xml:space="preserve">
<style type="text/css">
	.st0{fill:#58595B;}
	.st1{fill:none;}
</style>
<g id="Black">
	<path class="st0" d="M0.5,20H4v3.5c0,0.2,0.1,0.4,0.3,0.5c0.1,0,0.1,0,0.2,0c0.1,0,0.3-0.1,0.4-0.2l2-2.5C7,21.2,7,21.1,7,21v-3.3
		l2-2l3.1,3.1c0.1,0.1,0.2,0.1,0.4,0.1s0.3,0,0.4-0.1l8.5-8.5c0.2-0.2,0.2-0.5,0-0.7l-3-3.3l2.3-2.3l1.7,0.4c0,0,0.1,0,0.1,0
		c0.2,0,0.4-0.1,0.5-0.4l1-3.5c0-0.2,0-0.4-0.1-0.5C23.7,0,23.5,0,23.4,0l-3.5,1c-0.3,0.1-0.4,0.3-0.3,0.6l0.4,1.7l-2.3,2.3
		l-1.3-1.4c-0.2-0.2-0.5-0.2-0.7,0l-3.2,2.7L9.3,4.1C9.1,3.9,8.8,4,8.6,4.2l-5,5.5c-0.2,0.2-0.2,0.5,0,0.7L8.3,15l-2,2H3
		c-0.1,0-0.2,0-0.3,0.1l-2.5,2C0,19.2,0,19.5,0,19.7C0.1,19.9,0.3,20,0.5,20z M22.8,1.2l-0.6,2.2l-1.2-0.3l-0.3-1.2L22.8,1.2z
		 M9,5.2l3.1,2.7c0.2,0.2,0.5,0.2,0.7,0L16,5.2l1,1.1l-1.3,1.3c-0.2,0.2-0.2,0.5,0,0.7c0.1,0.1,0.2,0.1,0.4,0.1s0.3,0,0.4-0.1
		l1.3-1.3l2.7,2.9l-7.8,7.8L4.7,10L9,5.2z M6,20.8l-1,1.2v-2.4l1-1V20.8z M3.2,18h2.1l-1,1H1.9L3.2,18z"/>
</g>
<g id="Frames-24px">
	<rect class="st1" width="24" height="24"/>
</g>
</svg>
