<?xml version="1.0" encoding="utf-8"?>
<!-- Generator: Adobe Illustrator 21.0.2, SVG Export Plug-In . SVG Version: 6.00 Build 0)  -->
<svg version="1.1" xmlns="http://www.w3.org/2000/svg" xmlns:xlink="http://www.w3.org/1999/xlink" x="0px" y="0px" width="24px"
	 height="24px" viewBox="0 0 24 24" enable-background="new 0 0 24 24" xml:space="preserve">
<g id="Black">
	<path fill="#58595B" d="M1.276,17.947l2,1C3.347,18.982,3.423,19,3.5,19s0.153-0.018,0.224-0.053l2-1C5.893,17.862,6,17.689,6,17.5
		V15c0-0.189-0.107-0.362-0.276-0.447l-2-1c-0.141-0.07-0.307-0.07-0.447,0l-2,1C1.107,14.638,1,14.811,1,15v2.5
		C1,17.689,1.107,17.862,1.276,17.947z M2,15.309l1.5-0.75l1.5,0.75v1.882l-1.5,0.75L2,17.191V15.309z"/>
	<path fill="#58595B" d="M0.5,24h6C6.776,24,7,23.776,7,23.5v-3c0-0.215-0.138-0.406-0.342-0.474l-3-1
		c-0.103-0.034-0.213-0.034-0.316,0l-3,1C0.138,20.094,0,20.285,0,20.5v3C0,23.776,0.224,24,0.5,24z M1,20.86l2.5-0.833L6,20.86V23
		H1V20.86z"/>
	<path fill="#58595B" d="M11.5,12c-0.276,0-0.5,0.224-0.5,0.5v2.76l-2.312,1.85c-0.216,0.173-0.251,0.487-0.078,0.703
		c0.172,0.214,0.488,0.25,0.703,0.078l2.188-1.75l2.188,1.75C13.78,17.964,13.89,18,14,18c0.146,0,0.292-0.064,0.391-0.188
		c0.173-0.216,0.138-0.53-0.078-0.703L12,15.26V12.5C12,12.224,11.776,12,11.5,12z"/>
	<path fill="#58595B" d="M19.276,13.553l-2,1C17.107,14.638,17,14.811,17,15v2.5c0,0.189,0.107,0.362,0.276,0.447l2,1
		C19.347,18.982,19.423,19,19.5,19s0.153-0.018,0.224-0.053l2-1C21.893,17.862,22,17.689,22,17.5V15
		c0-0.189-0.107-0.362-0.276-0.447l-2-1C19.583,13.482,19.417,13.482,19.276,13.553z M21,17.191l-1.5,0.75l-1.5-0.75v-1.882
		l1.5-0.75l1.5,0.75V17.191z"/>
	<path fill="#58595B" d="M19.342,19.026l-3,1C16.138,20.094,16,20.285,16,20.5v3c0,0.276,0.224,0.5,0.5,0.5h6
		c0.276,0,0.5-0.224,0.5-0.5v-3c0-0.215-0.138-0.406-0.342-0.474l-3-1C19.555,18.992,19.445,18.992,19.342,19.026z M22,23h-5v-2.14
		l2.5-0.833L22,20.86V23z"/>
	<path fill="#58595B" d="M11.276,5.947C11.347,5.982,11.423,6,11.5,6s0.153-0.018,0.224-0.053l2-1C13.893,4.862,14,4.689,14,4.5V2
		c0-0.189-0.107-0.362-0.276-0.447l-2-1c-0.141-0.07-0.307-0.07-0.447,0l-2,1C9.107,1.638,9,1.811,9,2v2.5
		c0,0.189,0.107,0.362,0.276,0.447L11.276,5.947z M10,2.309l1.5-0.75l1.5,0.75v1.882l-1.5,0.75L10,4.191V2.309z"/>
	<path fill="#58595B" d="M8,7.5v3C8,10.776,8.224,11,8.5,11h6c0.276,0,0.5-0.224,0.5-0.5v-3c0-0.215-0.138-0.406-0.342-0.474l-3-1
		c-0.103-0.034-0.213-0.034-0.316,0l-3,1C8.138,7.094,8,7.285,8,7.5z M9,7.86l2.5-0.833L14,7.86V10H9V7.86z"/>
</g>
<g id="Frames-24px">
	<rect fill="none" width="24" height="24"/>
</g>
</svg>
