<?xml version="1.0" encoding="utf-8"?>
<!-- Generator: Adobe Illustrator 21.0.2, SVG Export Plug-In . SVG Version: 6.00 Build 0)  -->
<svg version="1.1" xmlns="http://www.w3.org/2000/svg" xmlns:xlink="http://www.w3.org/1999/xlink" x="0px" y="0px"
	 viewBox="0 0 24 24" style="enable-background:new 0 0 24 24;" xml:space="preserve">
<style type="text/css">
	.st0{fill:#58595B;}
	.st1{fill:none;}
</style>
<g id="Black">
	<path class="st0" d="M16.5,0.3C16.4,0.1,16.2,0,16,0H7C6.8,0,6.6,0.1,6.5,0.3L1,12.3c-0.1,0.2-0.1,0.3,0,0.5
		C1.2,12.9,1.3,13,1.5,13H11v7H8c-0.1,0-0.3,0.1-0.4,0.1l-3,3c-0.1,0.1-0.2,0.4-0.1,0.5C4.6,23.9,4.8,24,5,24h13
		c0.2,0,0.4-0.1,0.5-0.3c0.1-0.2,0-0.4-0.1-0.5l-3-3C15.3,20.1,15.1,20,15,20h-3v-7h4v2.3l-1.4,1.4c-0.2,0.2-0.2,0.5,0,0.7l1.5,1.5
		c0.1,0.1,0.2,0.1,0.4,0.1s0.3,0,0.4-0.1l1.5-1.5c0.2-0.2,0.2-0.5,0-0.7L17,15.3V13h4.5c0.2,0,0.3-0.1,0.4-0.2
		c0.1-0.1,0.1-0.3,0-0.5L16.5,0.3z M16.8,23H6.2l2-2h6.6L16.8,23z M16.5,17.8L15.7,17l0.8-0.8l0.8,0.8L16.5,17.8z M2.3,12l5-11h8.4
		l5,11H2.3z"/>
</g>
<g id="Frames-24px">
	<rect class="st1" width="24" height="24"/>
</g>
</svg>
