<?xml version="1.0" encoding="utf-8"?>
<!-- Generator: Adobe Illustrator 21.0.2, SVG Export Plug-In . SVG Version: 6.00 Build 0)  -->
<svg version="1.1" xmlns="http://www.w3.org/2000/svg" xmlns:xlink="http://www.w3.org/1999/xlink" x="0px" y="0px" width="24px"
	 height="24px" viewBox="0 0 24 24" enable-background="new 0 0 24 24" xml:space="preserve">
<g id="Black">
	<path fill="#58595B" d="M2.688,23.891C2.776,23.961,2.886,24,3,24h17.5c0.133,0,0.26-0.053,0.354-0.146l2-2
		c0.143-0.143,0.186-0.358,0.108-0.545C22.885,21.122,22.702,21,22.5,21H21V10.5c0-0.276-0.224-0.5-0.5-0.5h-18
		C2.224,10,2,10.224,2,10.5V21H0.5c-0.212,0-0.401,0.134-0.472,0.335c-0.07,0.2-0.006,0.423,0.159,0.556L2.688,23.891z M3,11h17v10
		H3V11z M21.293,22l-1,1H3.175l-1.25-1H21.293z"/>
	<path fill="#58595B" d="M5.362,5.845L9.022,2h4.956l3.66,3.845C17.736,5.948,17.868,6,18,6c0.124,0,0.248-0.046,0.345-0.138
		c0.2-0.19,0.208-0.507,0.018-0.707l-3.808-4C14.46,1.056,14.329,1,14.192,1H8.808C8.671,1,8.54,1.056,8.445,1.155l-3.808,4
		c-0.19,0.2-0.183,0.517,0.018,0.707C4.855,6.053,5.171,6.046,5.362,5.845z"/>
	<path fill="#58595B" d="M16.103,6.729c0.128,0,0.256-0.049,0.354-0.147c0.195-0.195,0.194-0.512-0.001-0.707l-2.739-2.729
		C13.623,3.053,13.496,3,13.364,3H9.636C9.504,3,9.377,3.053,9.283,3.146L6.544,5.875C6.349,6.07,6.348,6.387,6.543,6.582
		C6.737,6.778,7.054,6.777,7.25,6.584L9.843,4h3.314l2.593,2.584C15.848,6.681,15.976,6.729,16.103,6.729z"/>
	<path fill="#58595B" d="M14.047,7.547c0.128,0,0.256-0.049,0.354-0.146c0.195-0.195,0.195-0.512,0-0.707l-1.547-1.547
		C12.76,5.053,12.633,5,12.5,5h-2c-0.133,0-0.26,0.053-0.354,0.146L8.6,6.693C8.404,6.889,8.404,7.205,8.6,7.4s0.512,0.195,0.707,0
		l1.4-1.4h1.586l1.4,1.4C13.791,7.498,13.919,7.547,14.047,7.547z"/>
	<path fill="#58595B" d="M11.5,7.001c-0.051,0-0.102,0.02-0.141,0.059l-0.8,0.799c-0.078,0.078-0.078,0.205,0,0.283l0.8,0.799
		c0.039,0.039,0.09,0.059,0.141,0.059s0.102-0.02,0.141-0.059l0.8-0.799c0.078-0.078,0.078-0.205,0-0.283l-0.8-0.799
		C11.602,7.02,11.551,7.001,11.5,7.001z"/>
</g>
<g id="Frames-24px">
	<rect fill="none" width="24" height="24"/>
</g>
</svg>
