<?xml version="1.0" encoding="utf-8"?>
<!-- Generator: Adobe Illustrator 21.0.2, SVG Export Plug-In . SVG Version: 6.00 Build 0)  -->
<svg version="1.1" xmlns="http://www.w3.org/2000/svg" xmlns:xlink="http://www.w3.org/1999/xlink" x="0px" y="0px"
	 viewBox="0 0 24 24" style="enable-background:new 0 0 24 24;" xml:space="preserve">
<style type="text/css">
	.st0{fill:#58595B;}
	.st1{fill:none;}
</style>
<g id="Black">
	<path class="st0" d="M0.5,21H11v2H6.5C6.2,23,6,23.2,6,23.5S6.2,24,6.5,24h10c0.3,0,0.5-0.2,0.5-0.5S16.8,23,16.5,23H12v-2h9.5
		c0.3,0,0.5-0.2,0.5-0.5v-6c0-0.3-0.2-0.5-0.5-0.5S21,14.2,21,14.5V16h-4L9.3,8.5L13,5h0.5C13.8,5,14,4.8,14,4.5S13.8,4,13.5,4h-13
		C0.2,4,0,4.2,0,4.5v16C0,20.8,0.2,21,0.5,21z M21,20H1v-3h20V20z M15.6,16H1.7l6.9-6.8L15.6,16z M11.5,5L1,15.3V5H11.5z"/>
	<path class="st0" d="M12.5,18h-2c-0.3,0-0.5,0.2-0.5,0.5s0.2,0.5,0.5,0.5h2c0.3,0,0.5-0.2,0.5-0.5S12.8,18,12.5,18z"/>
	<path class="st0" d="M19.8,0.1c-0.2-0.1-0.4-0.1-0.5,0l-4,2.5C15.1,2.7,15,2.8,15,3v4c0,0.1,0,0.2,0.1,0.3l4,6.5
		c0.1,0.1,0.3,0.2,0.4,0.2s0.3-0.1,0.4-0.2l4-6.5C24,7.2,24,7.1,24,7V3c0-0.2-0.1-0.3-0.2-0.4L19.8,0.1z M23,6.9l-3.5,5.7L16,6.9
		V3.3l3.5-2.2L23,3.3V6.9z"/>
	<path class="st0" d="M19.2,2.6l-2,1.3C17.1,3.9,17,4.1,17,4.3v2c0,0.2,0.1,0.3,0.2,0.4l2,1.3C19.3,8,19.4,8,19.5,8s0.2,0,0.3-0.1
		l2-1.3C21.9,6.6,22,6.4,22,6.3v-2c0-0.2-0.1-0.3-0.2-0.4l-2-1.3C19.6,2.5,19.4,2.5,19.2,2.6z M21,4.5V6l-1.5,0.9L18,6V4.5l1.5-0.9
		L21,4.5z"/>
</g>
<g id="Frames-24px">
	<rect class="st1" width="24" height="24"/>
</g>
</svg>
