<?xml version="1.0" encoding="utf-8"?>
<!-- Generator: Adobe Illustrator 21.0.2, SVG Export Plug-In . SVG Version: 6.00 Build 0)  -->
<svg version="1.1" xmlns="http://www.w3.org/2000/svg" xmlns:xlink="http://www.w3.org/1999/xlink" x="0px" y="0px" width="24px"
	 height="24px" viewBox="0 0 24 24" enable-background="new 0 0 24 24" xml:space="preserve">
<g id="Black">
	<path fill="#58595B" d="M0.5,7.5c0.128,0,0.256-0.049,0.354-0.146L4.207,4h3.586L6.646,5.146c-0.195,0.195-0.195,0.512,0,0.707
		C6.744,5.951,6.872,6,7,6s0.256-0.049,0.354-0.146l2-2c0.046-0.046,0.083-0.102,0.108-0.163c0.051-0.122,0.051-0.26,0-0.382
		C9.436,3.248,9.399,3.192,9.353,3.146l-2-2c-0.195-0.195-0.512-0.195-0.707,0s-0.195,0.512,0,0.707L7.793,3H4
		C3.867,3,3.74,3.053,3.646,3.146l-3.5,3.5c-0.195,0.195-0.195,0.512,0,0.707C0.244,7.451,0.372,7.5,0.5,7.5z"/>
	<path fill="#58595B" d="M19.354,21.854l3.5-3.5c0.195-0.195,0.195-0.512,0-0.707s-0.512-0.195-0.707,0L18.793,21h-3.586
		l1.146-1.146c0.195-0.195,0.195-0.512,0-0.707s-0.512-0.195-0.707,0l-2,2c-0.046,0.046-0.083,0.102-0.108,0.163
		c-0.051,0.122-0.051,0.26,0,0.382c0.025,0.062,0.062,0.117,0.108,0.163l2,2C15.744,23.951,15.872,24,16,24s0.256-0.049,0.354-0.146
		c0.195-0.195,0.195-0.512,0-0.707L15.207,22H19C19.133,22,19.26,21.947,19.354,21.854z"/>
	<path fill="#58595B" d="M7.953,23.854C8.047,23.947,8.174,24,8.306,24s0.26-0.053,0.354-0.146L22.854,9.66
		c0.195-0.195,0.195-0.512,0-0.707l-7.806-7.807c-0.188-0.188-0.52-0.188-0.707,0L2.986,12.5c0,0,0,0-0.001,0s0,0,0,0.001
		L0.146,15.34c-0.195,0.195-0.195,0.512,0,0.707L7.953,23.854z M14.694,2.207l7.099,7.1L11.145,19.954l-7.099-7.1L14.694,2.207z
		 M3.339,13.562l7.099,7.1l-2.132,2.132l-7.099-7.1L3.339,13.562z"/>
	<path fill="#58595B" d="M5.821,17.469c-0.195-0.195-0.512-0.195-0.707,0s-0.195,0.512,0,0.707l0.71,0.71
		c0.098,0.098,0.226,0.146,0.354,0.146s0.256-0.049,0.354-0.146c0.195-0.195,0.195-0.512,0-0.707L5.821,17.469z"/>
</g>
<g id="Frames-24px">
	<rect fill="none" width="24" height="24"/>
</g>
</svg>
