<?xml version="1.0" encoding="utf-8"?>
<!-- Generator: Adobe Illustrator 21.0.2, SVG Export Plug-In . SVG Version: 6.00 Build 0)  -->
<svg version="1.1" xmlns="http://www.w3.org/2000/svg" xmlns:xlink="http://www.w3.org/1999/xlink" x="0px" y="0px" width="24px"
	 height="24px" viewBox="0 0 24 24" enable-background="new 0 0 24 24" xml:space="preserve">
<g id="Black">
	<path fill="#58595B" d="M5.354,20.801c0.091,0.165,0.262,0.258,0.438,0.258c0.082,0,0.165-0.02,0.241-0.062l0.876-0.484L8,22.151
		V23.5C8,23.776,8.224,24,8.5,24S9,23.776,9,23.5V22c0-0.099-0.029-0.195-0.083-0.277l-1.128-1.696l6.982-3.855l-0.262,1.223
		c-0.058,0.27,0.114,0.535,0.384,0.594c0.273,0.053,0.536-0.113,0.594-0.385l1.441-6.721L19,10.193v7.155l-1.917,2.874
		c-0.055,0.082-0.084,0.179-0.084,0.277v3c0,0.276,0.224,0.5,0.5,0.5s0.5-0.224,0.5-0.5v-2.849l1.917-2.874
		C19.971,17.695,20,17.599,20,17.5v-4.217l2.744-1.534c0.24-0.135,0.327-0.438,0.193-0.679l-5.29-9.559
		c-0.064-0.116-0.173-0.202-0.301-0.238c-0.128-0.039-0.266-0.021-0.381,0.045L15,2.422V1.5C15,1.224,14.776,1,14.5,1h-3
		C11.224,1,11,1.224,11,1.5V2H8.5C8.224,2,8,2.224,8,2.5V3H5.5C5.224,3,5,3.224,5,3.5V5H2.5C2.367,5,2.24,5.053,2.146,5.146
		S2,5.368,2,5.501l0.006,4.106L0.26,10.562c-0.117,0.063-0.203,0.171-0.24,0.299s-0.022,0.266,0.042,0.382L5.354,20.801z
		 M17.016,2.437l4.805,8.683L20,12.137V9.5c0-0.161-0.077-0.312-0.208-0.405c-0.131-0.096-0.298-0.12-0.451-0.069l-3.002,1
		c-0.168,0.057-0.293,0.196-0.331,0.37l-0.961,4.481L9.03,18.2l-3.433-6.164l0.18-0.12C5.917,11.823,6,11.667,6,11.5v-0.566
		l0.723,0.482C6.807,11.472,6.903,11.5,7,11.5s0.193-0.028,0.277-0.084l1.5-1C8.917,10.323,9,10.167,9,10V9.434l0.723,0.482
		C9.807,9.972,9.903,10,10,10s0.193-0.028,0.277-0.084l1.5-1C11.917,8.823,12,8.667,12,8.5V7.934l0.723,0.482
		C12.807,8.472,12.903,8.5,13,8.5s0.193-0.028,0.277-0.084l1.5-1C14.917,7.323,15,7.167,15,7V3.567L17.016,2.437z M12,2h2v4.732
		l-1,0.667l-1-0.667V2z M9,3h2v5.232l-1,0.667L9,8.232V3z M6,4h2v5.732l-1,0.667L6,9.732V4z M5,6v5.232l-0.999,0.666l-0.993-0.665
		L3.001,6H5z M2.008,10.745l0.001,0.756c0,0.166,0.083,0.321,0.222,0.414l1.491,1C3.806,12.972,3.903,13,4,13
		c0.097,0,0.193-0.028,0.277-0.084l0.485-0.323l3.392,6.09L5.987,19.88l-4.806-8.683L2.008,10.745z"/>
	<path fill="#58595B" d="M5.053,14.544c-0.135-0.241-0.44-0.326-0.681-0.192c-0.241,0.135-0.327,0.439-0.192,0.681l0.258,0.462
		C4.53,15.658,4.7,15.75,4.875,15.75c0.083,0,0.167-0.021,0.244-0.063c0.241-0.135,0.327-0.439,0.192-0.681L5.053,14.544z"/>
</g>
<g id="Frames-24px">
	<rect fill="none" width="24" height="24"/>
</g>
</svg>
