<?xml version="1.0" encoding="utf-8"?>
<!-- Generator: Adobe Illustrator 21.0.2, SVG Export Plug-In . SVG Version: 6.00 Build 0)  -->
<svg version="1.1" xmlns="http://www.w3.org/2000/svg" xmlns:xlink="http://www.w3.org/1999/xlink" x="0px" y="0px" width="24px"
	 height="24px" viewBox="0 0 24 24" enable-background="new 0 0 24 24" xml:space="preserve">
<g id="Black">
	<path fill="#58595B" d="M10.235,9.424C10.316,9.475,10.408,9.5,10.5,9.5s0.184-0.025,0.265-0.076l2-1.25
		C12.911,8.083,13,7.922,13,7.75v-2c0-0.172-0.089-0.333-0.235-0.424l-2-1.25c-0.162-0.102-0.368-0.102-0.53,0l-2,1.25
		C8.089,5.417,8,5.578,8,5.75v2c0,0.172,0.089,0.333,0.235,0.424L10.235,9.424z M9,6.027l1.5-0.938L12,6.027v1.445L10.5,8.41
		L9,7.473V6.027z"/>
	<path fill="#58595B" d="M10.765,20.924l2-1.25C12.911,19.583,13,19.422,13,19.25v-2c0-0.172-0.089-0.333-0.235-0.424l-2-1.25
		c-0.162-0.102-0.368-0.102-0.53,0l-2,1.25C8.089,16.917,8,17.078,8,17.25v2c0,0.172,0.089,0.333,0.235,0.424l2,1.25
		C10.316,20.975,10.408,21,10.5,21S10.684,20.975,10.765,20.924z M9,18.973v-1.445l1.5-0.938l1.5,0.938v1.445l-1.5,0.938L9,18.973z"
		/>
	<path fill="#58595B" d="M6.174,10.235C6.083,10.089,5.922,10,5.75,10h-2c-0.172,0-0.333,0.089-0.424,0.235l-1.25,2
		c-0.102,0.162-0.102,0.368,0,0.53l1.25,2C3.417,14.911,3.578,15,3.75,15h2c0.172,0,0.333-0.089,0.424-0.235l1.25-2
		c0.102-0.162,0.102-0.368,0-0.53L6.174,10.235z M5.473,14H4.027L3.09,12.5L4.027,11h1.445l0.938,1.5L5.473,14z"/>
	<path fill="#58595B" d="M14.826,14.765C14.917,14.911,15.078,15,15.25,15h2c0.172,0,0.333-0.089,0.424-0.235l1.25-2
		c0.102-0.162,0.102-0.368,0-0.53l-1.25-2C17.583,10.089,17.422,10,17.25,10h-2c-0.172,0-0.333,0.089-0.424,0.235l-1.25,2
		c-0.102,0.162-0.102,0.368,0,0.53L14.826,14.765z M15.527,11h1.445l0.938,1.5L16.973,14h-1.445l-0.938-1.5L15.527,11z"/>
	<path fill="#58595B" d="M10.146,10.646l-1.5,1.5c-0.195,0.195-0.195,0.512,0,0.707l1.5,1.5c0.098,0.098,0.226,0.146,0.354,0.146
		s0.256-0.049,0.354-0.146l1.5-1.5c0.195-0.195,0.195-0.512,0-0.707l-1.5-1.5C10.658,10.451,10.342,10.451,10.146,10.646z
		 M10.5,13.293L9.707,12.5l0.793-0.793l0.793,0.793L10.5,13.293z"/>
	<path fill="#58595B" d="M18.5,23c-0.276,0-0.5,0.224-0.5,0.5s0.224,0.5,0.5,0.5h1c0.276,0,0.5-0.224,0.5-0.5S19.776,23,19.5,23
		H18.5z"/>
	<path fill="#58595B" d="M22.5,23h-1c-0.276,0-0.5,0.224-0.5,0.5s0.224,0.5,0.5,0.5h1c0.276,0,0.5-0.224,0.5-0.5S22.776,23,22.5,23z
		"/>
	<path fill="#58595B" d="M0.259,18.438l10,5.5c0.006,0.003,0.014,0.002,0.02,0.005C10.346,23.977,10.419,24,10.5,24h6
		c0.276,0,0.5-0.224,0.5-0.5S16.776,23,16.5,23h-4.054l8.295-4.562C20.901,18.35,21,18.182,21,18V7c0-0.182-0.099-0.35-0.259-0.438
		l-10-5.5c-0.149-0.083-0.332-0.083-0.481,0l-10,5.5C0.099,6.65,0,6.818,0,7v11C0,18.182,0.099,18.35,0.259,18.438z M1,7.295
		l9.5-5.225L20,7.295v10.409l-9.5,5.225L1,17.705V7.295z"/>
</g>
<g id="Frames-24px">
	<rect fill="none" width="24" height="24"/>
</g>
</svg>
