<?xml version="1.0" encoding="utf-8"?>
<!-- Generator: Adobe Illustrator 21.0.2, SVG Export Plug-In . SVG Version: 6.00 Build 0)  -->
<svg version="1.1" xmlns="http://www.w3.org/2000/svg" xmlns:xlink="http://www.w3.org/1999/xlink" x="0px" y="0px"
	 viewBox="0 0 24 24" style="enable-background:new 0 0 24 24;" xml:space="preserve">
<style type="text/css">
	.st0{fill:#58595B;}
	.st1{fill:none;}
</style>
<g id="Black">
	<path class="st0" d="M23.5,3h-9c-0.1,0-0.3,0-0.3,0.1l-2.8,2.7L3.2,1.6c-0.2-0.1-0.3-0.1-0.5,0C2.6,1.7,2.5,1.8,2.5,2v1
		c0,0.1,0.1,0.3,0.1,0.4l5.5,5.5l-1,1C7.1,10,7,10.1,7,10.3v13.3C7,23.8,7.2,24,7.5,24h16c0.3,0,0.5-0.2,0.5-0.5v-20
		C24,3.2,23.8,3,23.5,3z M14.7,4H23v2H12.6L14.7,4z M3.6,2.9l7,3.7L8.9,8.2L3.6,2.9z M8,23V10.5l1.3-1.2c0,0,0,0,0,0c0,0,0,0,0,0
		L11.6,7H23v16H8z"/>
	<path class="st0" d="M16.9,16.6c-0.2-0.2-0.5-0.2-0.7,0s-0.2,0.5,0,0.7l3,3c0.1,0.1,0.2,0.1,0.4,0.1s0.3,0,0.4-0.1
		c0.2-0.2,0.2-0.5,0-0.7L16.9,16.6z"/>
	<path class="st0" d="M14.1,16.6l-3,3c-0.2,0.2-0.2,0.5,0,0.7c0.1,0.1,0.2,0.1,0.4,0.1s0.3,0,0.4-0.1l3-3c0.2-0.2,0.2-0.5,0-0.7
		S14.3,16.5,14.1,16.6z"/>
	<path class="st0" d="M19.1,11.6l-3,3c-0.2,0.2-0.2,0.5,0,0.7c0.1,0.1,0.2,0.1,0.4,0.1s0.3,0,0.4-0.1l3-3c0.2-0.2,0.2-0.5,0-0.7
		S19.3,11.5,19.1,11.6z"/>
	<path class="st0" d="M11.9,11.6c-0.2-0.2-0.5-0.2-0.7,0s-0.2,0.5,0,0.7l3,3c0.1,0.1,0.2,0.1,0.4,0.1s0.3,0,0.4-0.1
		c0.2-0.2,0.2-0.5,0-0.7L11.9,11.6z"/>
	<path class="st0" d="M2.2,14.4c0.1,0.1,0.2,0.1,0.3,0.1s0.2,0,0.3-0.1l2-1.3C4.9,13.1,5,12.9,5,12.8v-1.3c0-0.1,0-0.1,0-0.2L3,5.8
		C2.8,5.4,2.2,5.4,2,5.8l-2,5.5c0,0.1,0,0.1,0,0.2v1.3c0,0.2,0.1,0.3,0.2,0.4L2.2,14.4z M1,11.6l1.5-4.1L4,11.6v0.9l-1.5,0.9L1,12.5
		V11.6z"/>
</g>
<g id="Frames-24px">
	<rect class="st1" width="24" height="24"/>
</g>
</svg>
