<?xml version="1.0" encoding="utf-8"?>
<!-- Generator: Adobe Illustrator 21.0.2, SVG Export Plug-In . SVG Version: 6.00 Build 0)  -->
<svg version="1.1" xmlns="http://www.w3.org/2000/svg" xmlns:xlink="http://www.w3.org/1999/xlink" x="0px" y="0px"
	 viewBox="0 0 24 24" style="enable-background:new 0 0 24 24;" xml:space="preserve">
<style type="text/css">
	.st0{fill:#58595B;}
	.st1{fill:none;}
</style>
<g id="Black">
	<path class="st0" d="M23.5,2h-23C0.2,2,0,2.2,0,2.5v17C0,19.8,0.2,20,0.5,20H10v3H6.5C6.2,23,6,23.2,6,23.5S6.2,24,6.5,24h11
		c0.3,0,0.5-0.2,0.5-0.5S17.8,23,17.5,23H14v-3h9.5c0.3,0,0.5-0.2,0.5-0.5v-17C24,2.2,23.8,2,23.5,2z M13,23h-2v-3h2V23z M23,19H1V3
		h22V19z"/>
	<path class="st0" d="M4,16h3c0.2,0,0.3-0.1,0.4-0.2c0.1-0.1,0.1-0.3,0-0.5L6,12.4V9.8l2,0.9V14c0,0.2,0.1,0.4,0.3,0.4l4,2
		c0.1,0,0.1,0.1,0.2,0.1s0.2,0,0.2-0.1l4-2c0.2-0.1,0.3-0.3,0.3-0.4v-3.4l2.7-1.2C19.9,9.4,20,9.2,20,9s-0.1-0.4-0.3-0.5l-7-3
		c-0.1-0.1-0.3-0.1-0.4,0l-7,3c0,0,0,0,0,0l0,0c0,0,0,0,0,0c-0.1,0-0.1,0.1-0.2,0.2c0,0,0,0,0,0.1C5,8.8,5,8.9,5,9v3.4l-1.4,2.9
		c-0.1,0.2-0.1,0.3,0,0.5C3.7,15.9,3.8,16,4,16z M16,13.7l-3.5,1.8L9,13.7V11l3.3,1.4c0.1,0,0.1,0,0.2,0s0.1,0,0.2,0L16,11V13.7z
		 M12.5,6.5L18.2,9l-1.9,0.8c0,0,0,0,0,0l-3.8,1.6L8.7,9.8c0,0,0,0,0,0L6.8,9L12.5,6.5z M5.5,13.6L6.2,15H4.8L5.5,13.6z"/>
</g>
<g id="Frames-24px">
	<rect class="st1" width="24" height="24"/>
</g>
</svg>
