<?xml version="1.0" encoding="utf-8"?>
<!-- Generator: Adobe Illustrator 21.0.2, SVG Export Plug-In . SVG Version: 6.00 Build 0)  -->
<svg version="1.1" xmlns="http://www.w3.org/2000/svg" xmlns:xlink="http://www.w3.org/1999/xlink" x="0px" y="0px" width="24px"
	 height="24px" viewBox="0 0 24 24" enable-background="new 0 0 24 24" xml:space="preserve">
<g id="Black">
	<path fill="#58595B" d="M0.5,20h18.012c0.276,0,0.5-0.224,0.5-0.5v-18c0-0.276-0.224-0.5-0.5-0.5H0.5C0.224,1,0,1.224,0,1.5v18
		C0,19.776,0.224,20,0.5,20z M1,19v-3h17.012v3H1z M6.434,15l1.257-1.885l2.124,0.85c0.228,0.089,0.488,0.003,0.614-0.207
		l2.456-4.093L14.791,15H6.434z M18.012,2v13h-2.16l-2.381-6.668c-0.065-0.182-0.229-0.311-0.421-0.33
		c-0.201-0.019-0.379,0.075-0.478,0.24l-2.781,4.635l-2.105-0.842c-0.219-0.086-0.47-0.01-0.602,0.187L5.232,15H1V2H18.012z"/>
	<path fill="#58595B" d="M8.364,21.007c-0.271-0.047-0.531,0.134-0.579,0.406c-0.047,0.272,0.134,0.531,0.406,0.579l11.388,2
		C19.608,23.998,19.637,24,19.666,24c0.102,0,0.203-0.031,0.287-0.091c0.108-0.076,0.183-0.192,0.206-0.323l2.834-16.14
		c0.047-0.272-0.134-0.531-0.406-0.579l-2-0.352c-0.271-0.046-0.531,0.134-0.579,0.406c-0.047,0.272,0.134,0.531,0.406,0.579
		l1.507,0.265L19.26,22.921L8.364,21.007z"/>
	<path fill="#58595B" d="M6.235,9.924C6.316,9.975,6.408,10,6.5,10s0.184-0.025,0.265-0.076l2-1.25C8.911,8.583,9,8.422,9,8.25v-2
		c0-0.172-0.089-0.333-0.235-0.424l-2-1.25c-0.162-0.102-0.368-0.102-0.53,0l-2,1.25C4.089,5.917,4,6.078,4,6.25v2
		c0,0.172,0.089,0.333,0.235,0.424L6.235,9.924z M5,6.527L6.5,5.59L8,6.527v1.445L6.5,8.91L5,7.973V6.527z"/>
</g>
<g id="Frames-24px">
	<rect fill="none" width="24" height="24"/>
</g>
</svg>
