<?xml version="1.0" encoding="utf-8"?>
<!-- Generator: Adobe Illustrator 21.0.2, SVG Export Plug-In . SVG Version: 6.00 Build 0)  -->
<svg version="1.1" xmlns="http://www.w3.org/2000/svg" xmlns:xlink="http://www.w3.org/1999/xlink" x="0px" y="0px"
	 viewBox="0 0 24 24" style="enable-background:new 0 0 24 24;" xml:space="preserve">
<style type="text/css">
	.st0{fill:#58595B;}
	.st1{fill:none;}
</style>
<g id="Black">
	<path class="st0" d="M19,9.4l2.8,1.6c0.1,0,0.2,0.1,0.2,0.1c0.1,0,0.1,0,0.2,0l1.5-0.5c0.3-0.1,0.4-0.4,0.3-0.6
		c-0.1-0.3-0.4-0.4-0.6-0.3L22.1,10l-3.3-1.9c0,0-0.1,0-0.1,0c0,0,0,0,0,0l-3.5-1c0,0-0.1,0-0.1,0h-2.1l-1.4-4.6
		c0-0.1-0.2-0.3-0.3-0.3l-5-2C5.9-0.1,5.7,0,5.6,0.3L4.7,2.1L2.9,2.5c-0.1,0-0.2,0.1-0.3,0.2L0.1,7.3C0,7.5,0,7.7,0.1,7.9l1,1
		C1.3,9,1.5,9,1.6,9l3-0.9L6,12.4l-3.8,5.2l-1.9,0.9C0,18.7-0.1,18.9,0,19.2l1,2.5C1.1,21.8,1.2,22,1.4,22l10.5,2c0,0,0.1,0,0.1,0
		c0,0,0.1,0,0.1,0l10-2c0.1,0,0.3-0.1,0.3-0.2l1.5-2.5c0.1-0.1,0.1-0.3,0-0.4s-0.2-0.3-0.3-0.3l-2.3-0.9L19,13.4V9.4z M14.3,8
		l-0.7,2h-2.8l-0.7-2H14.3z M6.2,1.1l4.3,1.7L11.8,7h-2L7.9,3.3C7.9,3.2,7.8,3.1,7.7,3l-2-0.8L6.2,1.1z M21.7,21.1L12,23L1.9,21.1
		l-0.7-1.8l1.4-0.7l9.3,1.5c0.1,0,0.1,0,0.2,0l8.9-1.5l1.8,0.7L21.7,21.1z M6.5,18.1l1.8-2.2l3.7-1.4l3.7,1.4l1.5,2.2L12,19
		L6.5,18.1z M20.2,17.6l-2,0.3l-1.8-2.7c-0.1-0.1-0.1-0.2-0.2-0.2l-4-1.5c-0.1,0-0.2,0-0.4,0l-4,1.5c-0.1,0-0.2,0.1-0.2,0.1
		l-2.3,2.8l-1.9-0.3l3.5-4.8C7,12.7,7,12.5,7,12.4l-1.5-5C5.4,7.1,5.1,6.9,4.9,7L1.6,7.9L1.1,7.4l2.2-4L5,3l2.2,0.9L9,7.7l1,3
		c0.1,0.2,0.3,0.3,0.5,0.3H14c0.2,0,0.4-0.1,0.5-0.3l0.8-2.5L18,8.9v4.6c0,0.1,0,0.2,0.1,0.2L20.2,17.6z"/>
	<path class="st0" d="M4.5,4C4.2,4,4,4.2,4,4.5v1C4,5.8,4.2,6,4.5,6S5,5.8,5,5.5v-1C5,4.2,4.8,4,4.5,4z"/>
	<path class="st0" d="M4.2,19.1C4.1,19,4.1,19,4,19s-0.1,0-0.2,0.1l-0.7,0.7c-0.1,0.1-0.1,0.3,0,0.4l0.7,0.7C3.9,21,3.9,21,4,21
		s0.1,0,0.2-0.1l0.7-0.7c0.1-0.1,0.1-0.3,0-0.4L4.2,19.1z"/>
	<path class="st0" d="M20.2,19.1C20.1,19,20.1,19,20,19s-0.1,0-0.2,0.1l-0.7,0.7c-0.1,0.1-0.1,0.3,0,0.4l0.7,0.7
		C19.9,21,19.9,21,20,21s0.1,0,0.2-0.1l0.7-0.7c0.1-0.1,0.1-0.3,0-0.4L20.2,19.1z"/>
</g>
<g id="Frames-24px">
	<rect class="st1" width="24" height="24"/>
</g>
</svg>
