<?xml version="1.0" encoding="utf-8"?>
<!-- Generator: Adobe Illustrator 21.0.2, SVG Export Plug-In . SVG Version: 6.00 Build 0)  -->
<svg version="1.1" xmlns="http://www.w3.org/2000/svg" xmlns:xlink="http://www.w3.org/1999/xlink" x="0px" y="0px" width="24px"
	 height="24px" viewBox="0 0 24 24" enable-background="new 0 0 24 24" xml:space="preserve">
<g id="Black">
	<path fill="#58595B" d="M21.757,6.429C21.908,6.338,22,6.176,22,6V3c0-0.176-0.092-0.338-0.243-0.429l-2.5-1.5
		c-0.158-0.095-0.356-0.095-0.515,0l-2.5,1.5C16.092,2.662,16,2.824,16,3v3c0,0.176,0.092,0.338,0.243,0.429l2.5,1.5
		C18.822,7.976,18.911,8,19,8s0.178-0.024,0.257-0.071L21.757,6.429z M19,2.083l2,1.2v1.69l-1.167-0.389L18.51,2.377L19,2.083z
		 M17,5.717V3.283l0.652-0.391l1.419,2.365c0.062,0.102,0.157,0.179,0.271,0.217l1.326,0.442L19,6.917L17,5.717z"/>
	<path fill="#58595B" d="M16.387,12.202l-2.354,6.118c-0.059,0.154-0.039,0.327,0.055,0.463S14.335,19,14.5,19h1.261l-1.726,4.314
		c-0.086,0.214-0.013,0.46,0.175,0.594s0.444,0.122,0.618-0.032l3.648-3.192l3.169,3.169C21.743,23.95,21.871,24,22,24
		c0.081,0,0.162-0.02,0.236-0.059c0.194-0.104,0.298-0.323,0.254-0.539L21.61,19H22c0.146,0,0.284-0.063,0.379-0.174
		c0.095-0.11,0.137-0.256,0.116-0.4l-1.5-10C20.958,8.181,20.748,8,20.5,8H19h-7.5c-0.222,0-0.418,0.147-0.48,0.36
		s0.024,0.442,0.211,0.562L16.387,12.202z M21.186,21.979l-2.333-2.332c-0.186-0.186-0.485-0.196-0.683-0.023l-2.434,2.129
		L16.839,19h3.752L21.186,21.979z M20.069,9l1.35,9h-4.924c-0.003,0-0.006,0-0.008,0h-1.259l2.239-5.82
		c0.085-0.222,0.002-0.474-0.198-0.602L13.217,9H20.069z"/>
	<path fill="#58595B" d="M0.402,16.99l7.171,1.434L7.123,20H1.5C1.224,20,1,20.224,1,20.5S1.224,21,1.5,21h6
		c0.223,0,0.419-0.148,0.481-0.363l3-10.5c0.076-0.265-0.078-0.542-0.344-0.618c-0.264-0.072-0.542,0.077-0.618,0.344L9.409,12H0.5
		C0.224,12,0,12.224,0,12.5v4C0,16.738,0.168,16.943,0.402,16.99z M1,13h8.123l-1.274,4.46L1,16.09V13z"/>
	<path fill="#58595B" d="M2.001,24c0.051,0,0.102-0.02,0.141-0.059l0.799-0.799c0.078-0.078,0.078-0.205,0-0.283L2.142,22.06
		c-0.039-0.039-0.09-0.059-0.141-0.059s-0.102,0.02-0.141,0.059L1.06,22.859c-0.078,0.078-0.078,0.205,0,0.283l0.799,0.799
		C1.898,23.98,1.949,24,2.001,24z"/>
	<path fill="#58595B" d="M6.999,24c0.051,0,0.102-0.02,0.141-0.059l0.799-0.799c0.078-0.078,0.078-0.205,0-0.283L7.141,22.06
		c-0.039-0.039-0.09-0.059-0.141-0.059s-0.102,0.02-0.141,0.059l-0.799,0.799c-0.078,0.078-0.078,0.205,0,0.283l0.799,0.799
		C6.897,23.98,6.948,24,6.999,24z"/>
</g>
<g id="Frames-24px">
	<rect fill="none" width="24" height="24"/>
</g>
</svg>
