<?xml version="1.0" encoding="utf-8"?>
<!-- Generator: Adobe Illustrator 21.0.2, SVG Export Plug-In . SVG Version: 6.00 Build 0)  -->
<svg version="1.1" xmlns="http://www.w3.org/2000/svg" xmlns:xlink="http://www.w3.org/1999/xlink" x="0px" y="0px"
	 viewBox="0 0 24 24" style="enable-background:new 0 0 24 24;" xml:space="preserve">
<style type="text/css">
	.st0{fill:#58595B;}
	.st1{fill:none;}
</style>
<g id="Black">
	<path class="st0" d="M14.5,18h2c0.3,0,0.5-0.2,0.5-0.5S16.8,17,16.5,17H15v-1h1.5c0.3,0,0.5-0.2,0.5-0.5S16.8,15,16.5,15H15v-2h1.5
		c0.3,0,0.5-0.2,0.5-0.5S16.8,12,16.5,12h-2c-0.3,0-0.5,0.2-0.5,0.5v5C14,17.8,14.2,18,14.5,18z"/>
	<path class="st0" d="M12.5,17H11v-4.5c0-0.3-0.2-0.5-0.5-0.5S10,12.2,10,12.5v5c0,0.3,0.2,0.5,0.5,0.5h2c0.3,0,0.5-0.2,0.5-0.5
		S12.8,17,12.5,17z"/>
	<path class="st0" d="M4.5,13C4.8,13,5,12.8,5,12.5S4.8,12,4.5,12h-2C2.2,12,2,12.2,2,12.5v2c0,0.2,0.1,0.4,0.3,0.4L4,15.8V17H2.5
		C2.2,17,2,17.2,2,17.5S2.2,18,2.5,18h2C4.8,18,5,17.8,5,17.5v-2c0-0.2-0.1-0.4-0.3-0.4L3,14.2V13H4.5z"/>
	<path class="st0" d="M7.9,12.2c-0.2-0.3-0.6-0.3-0.8,0l-1,1.5C6,13.8,6,13.9,6,14v3.5C6,17.8,6.2,18,6.5,18S7,17.8,7,17.5V16h1v1.5
		C8,17.8,8.2,18,8.5,18S9,17.8,9,17.5V14c0-0.1,0-0.2-0.1-0.3L7.9,12.2z M7,15v-0.8l0.5-0.8L8,14.2V15H7z"/>
	<path class="st0" d="M22.4,0.1c-0.2-0.2-0.5-0.2-0.7,0l-1.5,1.5C20.1,1.7,20,1.9,20,2v1H3.5C3.3,3,3.2,3.1,3.1,3.2l-1,1.5
		C2,4.9,2,5.1,2.1,5.3l1,1.5C3.2,6.9,3.3,7,3.5,7H5l0,2H0.5C0.2,9,0,9.2,0,9.5v11C0,20.8,0.2,21,0.5,21h18c0.3,0,0.5-0.2,0.5-0.5
		v-11C19,9.2,18.8,9,18.5,9H14V7h6v16.5c0,0.3,0.2,0.5,0.5,0.5h3c0.3,0,0.5-0.2,0.5-0.5V2c0-0.1-0.1-0.3-0.1-0.4L22.4,0.1z M18,20H1
		V10h17V20z M13,9H6l0-2h7V9z M3.8,6L3.1,5l0.7-1H20v2H3.8z M23,23h-2V2.2l1-1l1,1V23z"/>
</g>
<g id="Frames-24px">
	<rect class="st1" width="24" height="24"/>
</g>
</svg>
