<?xml version="1.0" encoding="utf-8"?>
<!-- Generator: Adobe Illustrator 21.0.2, SVG Export Plug-In . SVG Version: 6.00 Build 0)  -->
<svg version="1.1" xmlns="http://www.w3.org/2000/svg" xmlns:xlink="http://www.w3.org/1999/xlink" x="0px" y="0px" width="24px"
	 height="24px" viewBox="0 0 24 24" enable-background="new 0 0 24 24" xml:space="preserve">
<g id="Black">
	<path fill="#58595B" d="M19.5,11H19V5.5C19,5.224,18.776,5,18.5,5H15V1.5C15,1.224,14.776,1,14.5,1h-7C7.224,1,7,1.224,7,1.5V5H3.5
		C3.224,5,3,5.224,3,5.5v14C3,19.776,3.224,20,3.5,20H7v3.5C7,23.776,7.224,24,7.5,24h7c0.276,0,0.5-0.224,0.5-0.5V20h3.5
		c0.276,0,0.5-0.224,0.5-0.5V12h0.5c0.276,0,0.5-0.224,0.5-0.5S19.776,11,19.5,11z M14,2v1H8V2H14z M8,4h6v1H8V4z M8,23v-1h6v1H8z
		 M14,21H8v-1h6V21z M18,19H4V6h14V19z"/>
	<path fill="#58595B" d="M13.884,8.68c-0.175-0.209-0.484-0.239-0.696-0.07L11,10.359l-2.188-1.75C8.6,8.441,8.29,8.472,8.116,8.68
		l-2.5,3c-0.166,0.199-0.152,0.491,0.031,0.674l5,5C10.744,17.451,10.872,17.5,11,17.5s0.256-0.049,0.354-0.146l5-5
		c0.183-0.183,0.196-0.475,0.031-0.674L13.884,8.68z M11,16.293L6.677,11.97L8.57,9.696l2.117,1.694
		c0.183,0.146,0.442,0.146,0.625,0l2.117-1.694l1.894,2.273L11,16.293z"/>
</g>
<g id="Frames-24px">
	<rect fill="none" width="24" height="24"/>
</g>
</svg>
