<?xml version="1.0" encoding="utf-8"?>
<!-- Generator: Adobe Illustrator 21.0.2, SVG Export Plug-In . SVG Version: 6.00 Build 0)  -->
<svg version="1.1" xmlns="http://www.w3.org/2000/svg" xmlns:xlink="http://www.w3.org/1999/xlink" x="0px" y="0px" width="24px"
	 height="24px" viewBox="0 0 24 24" enable-background="new 0 0 24 24" xml:space="preserve">
<g id="Black">
	<path fill="#58595B" d="M5.248,14.066c-0.24-0.138-0.545-0.054-0.682,0.186c-0.137,0.24-0.054,0.545,0.186,0.682l7,4
		C11.829,18.978,11.915,19,12,19s0.171-0.022,0.248-0.066l7-4c0.24-0.137,0.323-0.442,0.186-0.682s-0.443-0.324-0.682-0.186
		L12,17.924L5.248,14.066z"/>
	<path fill="#58595B" d="M14.3,9.9L16,8.625L17.7,9.9C17.79,9.967,17.895,10,18,10c0.152,0,0.302-0.069,0.4-0.2
		c0.166-0.221,0.121-0.534-0.1-0.7l-2-1.5c-0.178-0.134-0.422-0.134-0.6,0l-2,1.5c-0.221,0.166-0.266,0.479-0.1,0.7
		C13.766,10.021,14.079,10.065,14.3,9.9z"/>
	<path fill="#58595B" d="M22.74,5.812l-10.5-5.75c-0.149-0.082-0.331-0.082-0.48,0l-10.5,5.75C1.1,5.899,1,6.067,1,6.25v11.5
		c0,0.183,0.1,0.351,0.26,0.438l10.5,5.75C11.834,23.979,11.917,24,12,24s0.166-0.021,0.24-0.062l10.5-5.75
		C22.9,18.101,23,17.933,23,17.75V6.25C23,6.067,22.9,5.899,22.74,5.812z M22,17.454L12,22.93L2,17.454V6.546L12,1.07l10,5.477
		V17.454z"/>
	<path fill="#58595B" d="M7.646,11.104C7.744,11.201,7.872,11.25,8,11.25s0.256-0.049,0.354-0.146l2-2
		c0.195-0.195,0.195-0.512,0-0.707l-2-2c-0.195-0.195-0.512-0.195-0.707,0l-2,2c-0.195,0.195-0.195,0.512,0,0.707L7.646,11.104z
		 M8,7.457L9.293,8.75L8,10.043L6.707,8.75L8,7.457z"/>
</g>
<g id="Frames-24px">
	<rect fill="none" width="24" height="24"/>
</g>
</svg>
