<?xml version="1.0" encoding="utf-8"?>
<!-- Generator: Adobe Illustrator 21.0.2, SVG Export Plug-In . SVG Version: 6.00 Build 0)  -->
<svg version="1.1" xmlns="http://www.w3.org/2000/svg" xmlns:xlink="http://www.w3.org/1999/xlink" x="0px" y="0px"
	 viewBox="0 0 24 24" style="enable-background:new 0 0 24 24;" xml:space="preserve">
<style type="text/css">
	.st0{fill:#58595B;}
	.st1{fill:none;}
</style>
<g id="Black">
	<path class="st0" d="M24,20.4L20.5,2.9c0,0,0,0,0-0.1c0,0,0,0,0-0.1c0,0,0,0,0,0c0,0,0-0.1-0.1-0.1c0,0,0,0,0,0c0,0-0.1,0-0.1-0.1
		c0,0,0,0,0,0l-8-2.5c-0.1,0-0.2,0-0.3,0l-8,2.5l0,0l0,0c0,0,0,0,0,0c0,0-0.1,0-0.1,0.1c0,0,0,0,0,0c0,0-0.1,0.1-0.1,0.1
		c0,0,0,0,0,0c0,0,0,0,0,0.1c0,0,0,0,0,0.1L0,20.4C0,20.7,0.1,20.9,0.4,21l2.5,0.5c0,0,0.1,0,0.1,0c0.2,0,0.4-0.1,0.5-0.3L6,13.2
		v5.7l-1,4.4c0,0.1,0,0.3,0.1,0.4C5.2,23.9,5.3,24,5.5,24h13c0.2,0,0.3-0.1,0.4-0.2c0.1-0.1,0.1-0.3,0.1-0.4l-1-4.4v-5.7l2.5,7.9
		c0.1,0.2,0.3,0.3,0.5,0.3c0,0,0.1,0,0.1,0l2.5-0.5C23.9,20.9,24,20.7,24,20.4z M12,1l3.4,1.1l-3.5,7.7L8.6,2.1L12,1z M2.7,20.4
		l-1.6-0.3l3-15.2L6,10L2.7,20.4z M7,19.1c0,0,0-0.1,0-0.1v-9c0,0,0,0,0,0c0,0,0,0,0-0.1c0,0,0,0,0-0.1L4.6,3.3l3-0.9l3.7,8.6
		L10,13.8c0,0.1,0,0.1,0,0.2v9H6.1L7,19.1z M11,23v-8.9l5.4-11.7l3,0.9L17,9.8c0,0,0,0,0,0.1c0,0,0,0,0,0.1c0,0,0,0,0,0v9
		c0,0,0,0.1,0,0.1l0.9,3.9H11z M21.3,20.4L18,10l1.8-5.1l3,15.2L21.3,20.4z"/>
	<path class="st0" d="M12.5,15c-0.3,0-0.5,0.2-0.5,0.5v1c0,0.3,0.2,0.5,0.5,0.5s0.5-0.2,0.5-0.5v-1C13,15.2,12.8,15,12.5,15z"/>
	<path class="st0" d="M12.5,18c-0.3,0-0.5,0.2-0.5,0.5v1c0,0.3,0.2,0.5,0.5,0.5s0.5-0.2,0.5-0.5v-1C13,18.2,12.8,18,12.5,18z"/>
</g>
<g id="Frames-24px">
	<rect class="st1" width="24" height="24"/>
</g>
</svg>
