<?xml version="1.0" encoding="utf-8"?>
<!-- Generator: Adobe Illustrator 21.0.2, SVG Export Plug-In . SVG Version: 6.00 Build 0)  -->
<svg version="1.1" xmlns="http://www.w3.org/2000/svg" xmlns:xlink="http://www.w3.org/1999/xlink" x="0px" y="0px"
	 viewBox="0 0 24 24" style="enable-background:new 0 0 24 24;" xml:space="preserve">
<style type="text/css">
	.st0{fill:#58595B;}
	.st1{fill:none;}
</style>
<g id="Black">
	<path class="st0" d="M7,1.5v-1C7,0.2,6.8,0,6.5,0S6,0.2,6,0.5v1C6,1.8,6.2,2,6.5,2S7,1.8,7,1.5z"/>
	<path class="st0" d="M6,10.5v1C6,11.8,6.2,12,6.5,12S7,11.8,7,11.5v-1C7,10.2,6.8,10,6.5,10S6,10.2,6,10.5z"/>
	<path class="st0" d="M3.3,2.8c0.1,0,0.3,0,0.4-0.1c0.2-0.2,0.2-0.5,0-0.7L3,1.3c-0.2-0.2-0.5-0.2-0.7,0S2.1,1.8,2.3,2L3,2.7
		C3.1,2.8,3.2,2.8,3.3,2.8z"/>
	<path class="st0" d="M9.3,9L10,9.7c0.1,0.1,0.2,0.1,0.4,0.1s0.3,0,0.4-0.1c0.2-0.2,0.2-0.5,0-0.7L10,8.3c-0.2-0.2-0.5-0.2-0.7,0
		S9.1,8.8,9.3,9z"/>
	<path class="st0" d="M9.7,2.8c0.1,0,0.3,0,0.4-0.1L10.7,2c0.2-0.2,0.2-0.5,0-0.7c-0.2-0.2-0.5-0.2-0.7,0L9.3,2
		c-0.2,0.2-0.2,0.5,0,0.7C9.4,2.8,9.6,2.8,9.7,2.8z"/>
	<path class="st0" d="M2.6,9.9c0.1,0,0.3,0,0.4-0.1L3.7,9c0.2-0.2,0.2-0.5,0-0.7S3.2,8.1,3,8.3L2.3,9c-0.2,0.2-0.2,0.5,0,0.7
		C2.4,9.8,2.5,9.9,2.6,9.9z"/>
	<path class="st0" d="M1,5C0.7,5,0.5,5.2,0.5,5.5S0.7,6,1,6h1c0.3,0,0.5-0.2,0.5-0.5S2.3,5,2,5H1z"/>
	<path class="st0" d="M12,6c0.3,0,0.5-0.2,0.5-0.5S12.3,5,12,5h-1c-0.3,0-0.5,0.2-0.5,0.5S10.7,6,11,6H12z"/>
	<path class="st0" d="M9,6.8v-2c0-0.2-0.1-0.3-0.2-0.4l-2-1.3C6.6,3,6.4,3,6.2,3.1l-2,1.3C4.1,4.4,4,4.6,4,4.8v2
		c0,0.2,0.1,0.3,0.2,0.4l2,1.3c0.1,0,0.2,0.1,0.3,0.1c0.1,0,0.2,0,0.3-0.1l2-1.2C8.9,7.2,9,7,9,6.8z M8,6.6L6.5,7.4L5,6.5V5l1.5-0.9
		l1.5,1V6.6z"/>
	<path class="st0" d="M21.9,12.2c-0.2-0.2-0.5-0.2-0.7,0L16.3,17H3.5C3.2,17,3,17.2,3,17.5V20H0.5C0.2,20,0,20.2,0,20.5
		S0.2,21,0.5,21h2.1l-1.5,2.2c-0.2,0.2-0.1,0.5,0.1,0.7C1.3,24,1.4,24,1.5,24c0.2,0,0.3-0.1,0.4-0.2L3.8,21h13.9l1.4,2.7
		c0.1,0.2,0.3,0.3,0.4,0.3c0.1,0,0.2,0,0.2-0.1c0.2-0.1,0.3-0.4,0.2-0.7l-1.3-2.7l5.3-5.7c0.2-0.2,0.2-0.5,0-0.7L21.9,12.2z M4,18
		h12.2l1,2H4V18z M18.1,19.6l-1-2l4.4-4.4l1.3,1.3L18.1,19.6z"/>
</g>
<g id="Frames-24px">
	<rect class="st1" width="24" height="24"/>
</g>
</svg>
