<?xml version="1.0" encoding="utf-8"?>
<!-- Generator: Adobe Illustrator 21.0.2, SVG Export Plug-In . SVG Version: 6.00 Build 0)  -->
<svg version="1.1" xmlns="http://www.w3.org/2000/svg" xmlns:xlink="http://www.w3.org/1999/xlink" x="0px" y="0px" width="24px"
	 height="24px" viewBox="0 0 24 24" enable-background="new 0 0 24 24" xml:space="preserve">
<g id="Black">
	<path fill="#58595B" d="M0.854,13.854L3,11.707V21.5C3,21.776,3.224,22,3.5,22h16c0.276,0,0.5-0.224,0.5-0.5v-4
		c0-0.276-0.224-0.5-0.5-0.5S19,17.224,19,17.5V21H4v-9.293l2.146,2.146C6.244,13.951,6.372,14,6.5,14s0.256-0.049,0.354-0.146
		c0.195-0.195,0.195-0.512,0-0.707l-3-2.999c-0.046-0.046-0.102-0.083-0.163-0.109c-0.122-0.051-0.26-0.051-0.382,0
		c-0.062,0.026-0.117,0.062-0.163,0.109l-3,2.999c-0.195,0.195-0.195,0.512,0,0.707S0.658,14.049,0.854,13.854z"/>
	<path fill="#58595B" d="M22.146,11.146L20,13.293V3.5C20,3.224,19.776,3,19.5,3h-16C3.224,3,3,3.224,3,3.5v4C3,7.776,3.224,8,3.5,8
		S4,7.776,4,7.5V4h15v9.293l-2.146-2.146c-0.195-0.195-0.512-0.195-0.707,0s-0.195,0.512,0,0.707l3,2.999
		c0.046,0.046,0.102,0.083,0.163,0.109C19.37,14.987,19.435,15,19.5,15s0.13-0.013,0.191-0.038c0.062-0.026,0.117-0.062,0.163-0.109
		l3-2.999c0.195-0.195,0.195-0.512,0-0.707S22.342,10.951,22.146,11.146z"/>
</g>
<g id="Frames-24px">
	<rect fill="none" width="24" height="24"/>
</g>
</svg>
