<?xml version="1.0" encoding="utf-8"?>
<!-- Generator: Adobe Illustrator 21.0.2, SVG Export Plug-In . SVG Version: 6.00 Build 0)  -->
<svg version="1.1" xmlns="http://www.w3.org/2000/svg" xmlns:xlink="http://www.w3.org/1999/xlink" x="0px" y="0px"
	 viewBox="0 0 24 24" style="enable-background:new 0 0 24 24;" xml:space="preserve">
<style type="text/css">
	.st0{fill:#58595B;}
	.st1{fill:none;}
</style>
<g id="Black">
	<path class="st0" d="M18.4,0.1c-0.2-0.2-0.5-0.2-0.7,0s-0.2,0.5,0,0.7l0.9,0.9L14.3,6l-2.9-2.9c-0.2-0.2-0.5-0.2-0.7,0
		s-0.2,0.5,0,0.7l1.6,1.6L2.1,15.6c-0.2,0.2-0.2,0.5,0,0.7l2.4,2.4l-4.4,4.4c-0.2,0.2-0.2,0.5,0,0.7C0.2,24,0.4,24,0.5,24
		s0.3,0,0.4-0.1l4.4-4.4l2.4,2.4C7.7,22,7.9,22,8,22s0.3,0,0.4-0.1l10.1-10.1l1.6,1.6c0.1,0.1,0.2,0.1,0.4,0.1s0.3,0,0.4-0.1
		c0.2-0.2,0.2-0.5,0-0.7L18,9.8l4.3-4.3l0.9,0.9c0.1,0.1,0.2,0.1,0.4,0.1s0.3,0,0.4-0.1c0.2-0.2,0.2-0.5,0-0.7L18.4,0.1z M8,20.8
		L3.2,16l2-2l1.4,1.4c0.1,0.1,0.2,0.1,0.4,0.1s0.3,0,0.4-0.1c0.2-0.2,0.2-0.5,0-0.7L6,13.3L7.3,12l1.4,1.4c0.1,0.1,0.2,0.1,0.4,0.1
		s0.3,0,0.4-0.1c0.2-0.2,0.2-0.5,0-0.7L8,11.3L9.3,10l1.4,1.4c0.1,0.1,0.2,0.1,0.4,0.1s0.3,0,0.4-0.1c0.2-0.2,0.2-0.5,0-0.7L10,9.3
		l3-3l4.8,4.8L8,20.8z M17.3,9L15,6.8l4.3-4.3l2.3,2.3L17.3,9z"/>
</g>
<g id="Frames-24px">
	<rect class="st1" width="24" height="24"/>
</g>
</svg>
