<?xml version="1.0" encoding="utf-8"?>
<!-- Generator: Adobe Illustrator 21.0.2, SVG Export Plug-In . SVG Version: 6.00 Build 0)  -->
<svg version="1.1" xmlns="http://www.w3.org/2000/svg" xmlns:xlink="http://www.w3.org/1999/xlink" x="0px" y="0px"
	 viewBox="0 0 24 24" style="enable-background:new 0 0 24 24;" xml:space="preserve">
<style type="text/css">
	.st0{fill:#58595B;}
	.st1{fill:none;}
</style>
<g id="Black">
	<path class="st0" d="M6,16H1.5c-0.2,0-0.4,0.1-0.5,0.3S1,16.7,1.1,16.8l3,3.5c0.1,0.1,0.2,0.2,0.4,0.2c0.1,0,0.2,0,0.3-0.1
		c0.2-0.2,0.2-0.5,0.1-0.7L2.6,17H6v6.5C6,23.8,6.2,24,6.5,24h10c0.3,0,0.5-0.2,0.5-0.5V17h3.4l-2.3,2.7c-0.2,0.2-0.2,0.5,0.1,0.7
		c0.1,0.1,0.2,0.1,0.3,0.1c0.1,0,0.3-0.1,0.4-0.2l3-3.5c0.1-0.1,0.2-0.4,0.1-0.5S21.7,16,21.5,16H17v-6h3.4l-2.3,2.7
		c-0.2,0.2-0.2,0.5,0.1,0.7c0.1,0.1,0.2,0.1,0.3,0.1c0.1,0,0.3-0.1,0.4-0.2l3-3.5C22,9.7,22,9.5,22,9.3S21.7,9,21.5,9H17V3h3.4
		l-2.3,2.7c-0.2,0.2-0.2,0.5,0.1,0.7c0.1,0.1,0.2,0.1,0.3,0.1c0.1,0,0.3-0.1,0.4-0.2l3-3.5C22,2.7,22,2.5,22,2.3S21.7,2,21.5,2H17
		V0.5C17,0.2,16.8,0,16.5,0h-10C6.2,0,6,0.2,6,0.5V2H1.5C1.3,2,1.1,2.1,1,2.3S1,2.7,1.1,2.8l3,3.5c0.1,0.1,0.2,0.2,0.4,0.2
		c0.1,0,0.2,0,0.3-0.1C5,6.2,5.1,5.9,4.9,5.7L2.6,3H6v6H1.5C1.3,9,1.1,9.1,1,9.3S1,9.7,1.1,9.8l3,3.5c0.1,0.1,0.2,0.2,0.4,0.2
		c0.1,0,0.2,0,0.3-0.1c0.2-0.2,0.2-0.5,0.1-0.7L2.6,10H6V16z M7,1h9v22H7V1z"/>
	<path class="st0" d="M11.2,8.4c0.1,0.1,0.2,0.1,0.3,0.1s0.2,0,0.3-0.1l2-1.3C13.9,7.1,14,6.9,14,6.8v-2c0-0.2-0.1-0.3-0.2-0.4
		l-2-1.3c-0.2-0.1-0.4-0.1-0.5,0l-2,1.3C9.1,4.4,9,4.6,9,4.8v2c0,0.2,0.1,0.3,0.2,0.4L11.2,8.4z M10,5l1.5-0.9L13,5v1.4l-1.5,0.9
		L10,6.5V5z"/>
	<path class="st0" d="M11.2,14.9c0.1,0.1,0.2,0.1,0.3,0.1s0.2,0,0.3-0.1l2-1.3c0.1-0.1,0.2-0.3,0.2-0.4v-2c0-0.2-0.1-0.3-0.2-0.4
		l-2-1.3c-0.2-0.1-0.4-0.1-0.5,0l-2,1.3C9.1,10.9,9,11.1,9,11.3v2c0,0.2,0.1,0.3,0.2,0.4L11.2,14.9z M10,11.5l1.5-0.9l1.5,0.9V13
		l-1.5,0.9L10,13V11.5z"/>
	<path class="st0" d="M11.2,21.4c0.1,0.1,0.2,0.1,0.3,0.1s0.2,0,0.3-0.1l2-1.3c0.1-0.1,0.2-0.3,0.2-0.4v-2c0-0.2-0.1-0.3-0.2-0.4
		l-2-1.3c-0.2-0.1-0.4-0.1-0.5,0l-2,1.3C9.1,17.4,9,17.6,9,17.8v2c0,0.2,0.1,0.3,0.2,0.4L11.2,21.4z M10,18l1.5-0.9L13,18v1.4
		l-1.5,0.9L10,19.5V18z"/>
</g>
<g id="Frames-24px">
	<rect class="st1" width="24" height="24"/>
</g>
</svg>
