<?xml version="1.0" encoding="utf-8"?>
<!-- Generator: Adobe Illustrator 21.0.2, SVG Export Plug-In . SVG Version: 6.00 Build 0)  -->
<svg version="1.1" xmlns="http://www.w3.org/2000/svg" xmlns:xlink="http://www.w3.org/1999/xlink" x="0px" y="0px"
	 viewBox="0 0 24 24" style="enable-background:new 0 0 24 24;" xml:space="preserve">
<style type="text/css">
	.st0{fill:#58595B;}
	.st1{fill:none;}
</style>
<g id="Black">
	<path class="st0" d="M17,7.8l5.9-5.9C23,1.7,23,1.5,23,1.3C22.9,1.1,22.7,1,22.5,1H13c-0.1,0-0.3,0.1-0.4,0.1L6.8,7L0.9,1.1
		C0.7,1,0.5,1,0.3,1C0.1,1.1,0,1.3,0,1.5V11c0,0.1,0.1,0.3,0.1,0.4L6,17.3l-5.9,5.9C0,23.3,0,23.5,0,23.7C0.1,23.9,0.3,24,0.5,24H10
		c0.1,0,0.3-0.1,0.4-0.1l5.9-5.9l5.9,5.9c0.1,0.1,0.2,0.1,0.4,0.1c0.1,0,0.1,0,0.2,0c0.2-0.1,0.3-0.3,0.3-0.5V14
		c0-0.1-0.1-0.3-0.1-0.4L17,7.8z M19.8,12h-7.1l3.5-3.5L19.8,12z M13.2,2h8.1L12,11.3V3.2L13.2,2z M11,4.2v7.1L7.5,7.8L11,4.2z
		 M1,2.7l9.3,9.3H2.2L1,10.8V2.7z M3.2,13h7.1l-3.5,3.5L3.2,13z M9.8,23H1.7l9.3-9.3v8.1L9.8,23z M12,20.8v-7.1l3.5,3.5L12,20.8z
		 M22,22.3L12.7,13h8.1l1.2,1.2V22.3z"/>
</g>
<g id="Frames-24px">
	<rect class="st1" width="24" height="24"/>
</g>
</svg>
