<?xml version="1.0" encoding="utf-8"?>
<!-- Generator: Adobe Illustrator 21.0.2, SVG Export Plug-In . SVG Version: 6.00 Build 0)  -->
<svg version="1.1" xmlns="http://www.w3.org/2000/svg" xmlns:xlink="http://www.w3.org/1999/xlink" x="0px" y="0px"
	 viewBox="0 0 24 24" style="enable-background:new 0 0 24 24;" xml:space="preserve">
<style type="text/css">
	.st0{fill:#58595B;}
	.st1{fill:none;}
</style>
<g id="Black">
	<path class="st0" d="M20.9,7.1C20.8,7.1,20.6,7,20.5,7h-1.8l4.1-4.1c0.2-0.2,0.2-0.5,0-0.7s-0.5-0.2-0.7,0L20,4.3V1.5
		C20,1.2,19.8,1,19.5,1S19,1.2,19,1.5v3.8L17.3,7H5.5C5.4,7,5.3,7,5.3,7.1c0,0,0,0,0,0l-5,3C0.1,10.2,0,10.3,0,10.5v8
		c0,0.2,0.1,0.3,0.2,0.4l5,3c0,0,0,0,0,0C5.3,22,5.4,22,5.5,22h15c0.1,0,0.3-0.1,0.4-0.1l3-3c0.1-0.1,0.1-0.2,0.1-0.4v-8
		c0-0.1-0.1-0.3-0.1-0.4L20.9,7.1z M1,10.8l4.5-2.7l4.5,2.7v7.4l-4.5,2.7L1,18.2V10.8z M23,18.3L20.3,21h-13l3.5-2.1
		c0.2-0.1,0.2-0.3,0.2-0.4v-8c0-0.2-0.1-0.3-0.2-0.4L7.3,8h9l-2.1,2.1c-0.2,0.2-0.2,0.5,0,0.7c0.1,0.1,0.2,0.1,0.4,0.1
		s0.3,0,0.4-0.1L17.7,8h2.6l2.7,2.7V18.3z"/>
	<path class="st0" d="M5.7,18.9l3-1.5C8.9,17.4,9,17.2,9,17v-4.5c0-0.2-0.1-0.4-0.3-0.4l-3-1.5c-0.2-0.1-0.5,0-0.7,0.2
		c-0.1,0.2,0,0.5,0.2,0.7L8,12.8v3.9l-2.5,1.3L3,16.7v-1.2C3,15.2,2.8,15,2.5,15S2,15.2,2,15.5V17c0,0.2,0.1,0.4,0.3,0.4l3,1.5
		C5.3,19,5.4,19,5.5,19S5.7,19,5.7,18.9z"/>
	<path class="st0" d="M5.5,16C5.8,16,6,15.8,6,15.5v-2C6,13.2,5.8,13,5.5,13S5,13.2,5,13.5v2C5,15.8,5.2,16,5.5,16z"/>
</g>
<g id="Frames-24px">
	<rect class="st1" width="24" height="24"/>
</g>
</svg>
